%FSLAX25Y25*%
%MOIN*%
G70*
G01*
G75*
G04 Layer_Color=16711935*
G04:AMPARAMS|DCode=10|XSize=35.43mil|YSize=27.56mil|CornerRadius=0mil|HoleSize=0mil|Usage=FLASHONLY|Rotation=315.000|XOffset=0mil|YOffset=0mil|HoleType=Round|Shape=Rectangle|*
%AMROTATEDRECTD10*
4,1,4,-0.02227,0.00278,-0.00278,0.02227,0.02227,-0.00278,0.00278,-0.02227,-0.02227,0.00278,0.0*
%
%ADD10ROTATEDRECTD10*%

G04:AMPARAMS|DCode=11|XSize=35.43mil|YSize=27.56mil|CornerRadius=0mil|HoleSize=0mil|Usage=FLASHONLY|Rotation=225.000|XOffset=0mil|YOffset=0mil|HoleType=Round|Shape=Rectangle|*
%AMROTATEDRECTD11*
4,1,4,0.00278,0.02227,0.02227,0.00278,-0.00278,-0.02227,-0.02227,-0.00278,0.00278,0.02227,0.0*
%
%ADD11ROTATEDRECTD11*%

%ADD12R,0.03543X0.02756*%
%ADD13R,0.02756X0.03543*%
%ADD14R,0.24882X0.09291*%
%ADD15O,0.01575X0.03347*%
G04:AMPARAMS|DCode=16|XSize=21.65mil|YSize=76.77mil|CornerRadius=0mil|HoleSize=0mil|Usage=FLASHONLY|Rotation=315.000|XOffset=0mil|YOffset=0mil|HoleType=Round|Shape=Round|*
%AMOVALD16*
21,1,0.05512,0.02165,0.00000,0.00000,45.0*
1,1,0.02165,-0.01949,-0.01949*
1,1,0.02165,0.01949,0.01949*
%
%ADD16OVALD16*%

G04:AMPARAMS|DCode=17|XSize=21.65mil|YSize=76.77mil|CornerRadius=0mil|HoleSize=0mil|Usage=FLASHONLY|Rotation=45.000|XOffset=0mil|YOffset=0mil|HoleType=Round|Shape=Round|*
%AMOVALD17*
21,1,0.05512,0.02165,0.00000,0.00000,135.0*
1,1,0.02165,0.01949,-0.01949*
1,1,0.02165,-0.01949,0.01949*
%
%ADD17OVALD17*%

%ADD18O,0.09055X0.03150*%
%ADD19O,0.02362X0.03740*%
%ADD20C,0.01000*%
%ADD21C,0.04000*%
%ADD22C,0.02000*%
%ADD23C,0.01200*%
%ADD24C,0.02500*%
%ADD25C,0.05906*%
%ADD26R,0.05906X0.05906*%
%ADD27R,0.05906X0.05906*%
%ADD28R,0.05512X0.05512*%
%ADD29C,0.05512*%
%ADD30C,0.06299*%
%ADD31R,0.06299X0.06299*%
%ADD32C,0.05000*%
%ADD33C,0.00984*%
%ADD34C,0.02362*%
%ADD35C,0.00787*%
%ADD36C,0.00500*%
%ADD37C,0.00400*%
G04:AMPARAMS|DCode=38|XSize=43.43mil|YSize=35.56mil|CornerRadius=0mil|HoleSize=0mil|Usage=FLASHONLY|Rotation=315.000|XOffset=0mil|YOffset=0mil|HoleType=Round|Shape=Rectangle|*
%AMROTATEDRECTD38*
4,1,4,-0.02793,0.00278,-0.00278,0.02793,0.02793,-0.00278,0.00278,-0.02793,-0.02793,0.00278,0.0*
%
%ADD38ROTATEDRECTD38*%

G04:AMPARAMS|DCode=39|XSize=43.43mil|YSize=35.56mil|CornerRadius=0mil|HoleSize=0mil|Usage=FLASHONLY|Rotation=225.000|XOffset=0mil|YOffset=0mil|HoleType=Round|Shape=Rectangle|*
%AMROTATEDRECTD39*
4,1,4,0.00278,0.02793,0.02793,0.00278,-0.00278,-0.02793,-0.02793,-0.00278,0.00278,0.02793,0.0*
%
%ADD39ROTATEDRECTD39*%

%ADD40R,0.04343X0.03556*%
%ADD41R,0.03556X0.04343*%
%ADD42R,0.25682X0.10091*%
%ADD43O,0.02375X0.04147*%
G04:AMPARAMS|DCode=44|XSize=29.65mil|YSize=84.77mil|CornerRadius=0mil|HoleSize=0mil|Usage=FLASHONLY|Rotation=315.000|XOffset=0mil|YOffset=0mil|HoleType=Round|Shape=Round|*
%AMOVALD44*
21,1,0.05512,0.02965,0.00000,0.00000,45.0*
1,1,0.02965,-0.01949,-0.01949*
1,1,0.02965,0.01949,0.01949*
%
%ADD44OVALD44*%

G04:AMPARAMS|DCode=45|XSize=29.65mil|YSize=84.77mil|CornerRadius=0mil|HoleSize=0mil|Usage=FLASHONLY|Rotation=45.000|XOffset=0mil|YOffset=0mil|HoleType=Round|Shape=Round|*
%AMOVALD45*
21,1,0.05512,0.02965,0.00000,0.00000,135.0*
1,1,0.02965,0.01949,-0.01949*
1,1,0.02965,-0.01949,0.01949*
%
%ADD45OVALD45*%

%ADD46O,0.09855X0.03950*%
%ADD47O,0.03162X0.04540*%
%ADD48C,0.06706*%
%ADD49R,0.06706X0.06706*%
%ADD50R,0.06706X0.06706*%
%ADD51R,0.06312X0.06312*%
%ADD52C,0.06312*%
%ADD53C,0.07099*%
%ADD54R,0.07099X0.07099*%
%ADD55C,0.05800*%
D48*
X142000Y398000D02*
D03*
Y388000D02*
D03*
X128500Y398000D02*
D03*
Y388000D02*
D03*
X115000Y398000D02*
D03*
Y388000D02*
D03*
X161500Y387500D02*
D03*
Y397500D02*
D03*
X171500Y387500D02*
D03*
Y397500D02*
D03*
X181500Y387500D02*
D03*
X207500Y490000D02*
D03*
X185500D02*
D03*
D49*
X142000Y378000D02*
D03*
X128500D02*
D03*
X115000D02*
D03*
D50*
X181500Y397500D02*
D03*
X217500Y490000D02*
D03*
X195500D02*
D03*
D51*
X197500Y410437D02*
D03*
D52*
Y402563D02*
D03*
D53*
X116500Y411882D02*
D03*
Y419756D02*
D03*
Y427630D02*
D03*
Y435504D02*
D03*
Y443378D02*
D03*
Y451252D02*
D03*
Y459126D02*
D03*
X181400Y411882D02*
D03*
Y419756D02*
D03*
Y427630D02*
D03*
Y435504D02*
D03*
Y443378D02*
D03*
Y451252D02*
D03*
Y459126D02*
D03*
D54*
X116500Y467000D02*
D03*
X181400D02*
D03*
D55*
X157227Y433000D02*
D03*
X214000Y460000D02*
D03*
X206740Y453260D02*
D03*
X197000Y476500D02*
D03*
X161232Y489732D02*
D03*
X186744Y477000D02*
D03*
X123000Y460500D02*
D03*
X148500Y453500D02*
D03*
X145000Y428500D02*
D03*
X202500Y435500D02*
D03*
X161500Y439500D02*
D03*
X145500Y435500D02*
D03*
M02*
