%FSLAX25Y25*%
%MOIN*%
G70*
G01*
G75*
G04 Layer_Physical_Order=1*
G04 Layer_Color=255*
G04:AMPARAMS|DCode=10|XSize=35.43mil|YSize=27.56mil|CornerRadius=0mil|HoleSize=0mil|Usage=FLASHONLY|Rotation=315.000|XOffset=0mil|YOffset=0mil|HoleType=Round|Shape=Rectangle|*
%AMROTATEDRECTD10*
4,1,4,-0.02227,0.00278,-0.00278,0.02227,0.02227,-0.00278,0.00278,-0.02227,-0.02227,0.00278,0.0*
%
%ADD10ROTATEDRECTD10*%

G04:AMPARAMS|DCode=11|XSize=35.43mil|YSize=27.56mil|CornerRadius=0mil|HoleSize=0mil|Usage=FLASHONLY|Rotation=225.000|XOffset=0mil|YOffset=0mil|HoleType=Round|Shape=Rectangle|*
%AMROTATEDRECTD11*
4,1,4,0.00278,0.02227,0.02227,0.00278,-0.00278,-0.02227,-0.02227,-0.00278,0.00278,0.02227,0.0*
%
%ADD11ROTATEDRECTD11*%

%ADD12R,0.03543X0.02756*%
%ADD13R,0.02756X0.03543*%
%ADD14R,0.24882X0.09291*%
%ADD15O,0.01575X0.03347*%
G04:AMPARAMS|DCode=16|XSize=21.65mil|YSize=76.77mil|CornerRadius=0mil|HoleSize=0mil|Usage=FLASHONLY|Rotation=315.000|XOffset=0mil|YOffset=0mil|HoleType=Round|Shape=Round|*
%AMOVALD16*
21,1,0.05512,0.02165,0.00000,0.00000,45.0*
1,1,0.02165,-0.01949,-0.01949*
1,1,0.02165,0.01949,0.01949*
%
%ADD16OVALD16*%

G04:AMPARAMS|DCode=17|XSize=21.65mil|YSize=76.77mil|CornerRadius=0mil|HoleSize=0mil|Usage=FLASHONLY|Rotation=45.000|XOffset=0mil|YOffset=0mil|HoleType=Round|Shape=Round|*
%AMOVALD17*
21,1,0.05512,0.02165,0.00000,0.00000,135.0*
1,1,0.02165,0.01949,-0.01949*
1,1,0.02165,-0.01949,0.01949*
%
%ADD17OVALD17*%

%ADD18O,0.09055X0.03150*%
%ADD19O,0.02362X0.03740*%
%ADD20C,0.01000*%
%ADD21C,0.04000*%
%ADD22C,0.02000*%
%ADD23C,0.01200*%
%ADD24C,0.02500*%
%ADD25C,0.05906*%
%ADD26R,0.05906X0.05906*%
%ADD27R,0.05906X0.05906*%
%ADD28R,0.05512X0.05512*%
%ADD29C,0.05512*%
%ADD30C,0.06299*%
%ADD31R,0.06299X0.06299*%
%ADD32C,0.05000*%
D10*
X125051Y455051D02*
D03*
X128949Y458949D02*
D03*
X129949Y467949D02*
D03*
X126051Y464051D02*
D03*
X168551Y421551D02*
D03*
X172449Y425449D02*
D03*
X161551Y414051D02*
D03*
X165449Y417949D02*
D03*
D11*
X168551Y459449D02*
D03*
X172449Y455551D02*
D03*
D12*
X214000Y470256D02*
D03*
Y464744D02*
D03*
X192000Y477256D02*
D03*
Y471744D02*
D03*
Y466756D02*
D03*
Y461244D02*
D03*
D13*
X202244Y474500D02*
D03*
X207756D02*
D03*
D14*
X202500Y445134D02*
D03*
Y426866D02*
D03*
D15*
X164441Y469071D02*
D03*
X167000D02*
D03*
X169559D02*
D03*
X164441Y477929D02*
D03*
X167000D02*
D03*
X169559D02*
D03*
D16*
X154694Y461284D02*
D03*
X156921Y459057D02*
D03*
X159148Y456830D02*
D03*
X161375Y454603D02*
D03*
X163603Y452376D02*
D03*
X165830Y450148D02*
D03*
X168057Y447921D02*
D03*
X170284Y445694D02*
D03*
X142306Y417716D02*
D03*
X140079Y419943D02*
D03*
X137852Y422170D02*
D03*
X135625Y424397D02*
D03*
X133397Y426624D02*
D03*
X131170Y428852D02*
D03*
X128943Y431079D02*
D03*
X126716Y433306D02*
D03*
D17*
X170284D02*
D03*
X168057Y431079D02*
D03*
X165830Y428852D02*
D03*
X163603Y426624D02*
D03*
X161375Y424397D02*
D03*
X159148Y422170D02*
D03*
X156921Y419943D02*
D03*
X154694Y417716D02*
D03*
X126716Y445694D02*
D03*
X128943Y447921D02*
D03*
X131170Y450148D02*
D03*
X133397Y452376D02*
D03*
X135625Y454603D02*
D03*
X137852Y456830D02*
D03*
X140079Y459057D02*
D03*
X142306Y461284D02*
D03*
D18*
X161232Y485000D02*
D03*
X127768D02*
D03*
D19*
X206740Y468913D02*
D03*
X203000D02*
D03*
X199260D02*
D03*
X206740Y458087D02*
D03*
X203000D02*
D03*
X199260D02*
D03*
D20*
X137000Y462136D02*
X140079Y459057D01*
X137000Y462136D02*
Y464500D01*
X139515Y467015D01*
X164441Y467941D02*
Y469071D01*
X163500Y467000D02*
X164441Y467941D01*
X158225Y467000D02*
X163500D01*
X167900Y465400D02*
X169559Y467059D01*
X157562Y465400D02*
X167900D01*
X146915Y465415D02*
X157547D01*
X142784Y461284D02*
X146915Y465415D01*
X139515Y467015D02*
X158210D01*
X158225Y467000D01*
X157547Y465415D02*
X157562Y465400D01*
X169559Y467059D02*
Y469071D01*
X173000Y485500D02*
X200000D01*
X169559Y482059D02*
X173000Y485500D01*
X169559Y477929D02*
Y482059D01*
X164441Y480941D02*
X173500Y490000D01*
X164441Y477929D02*
Y480941D01*
X173500Y490000D02*
X185500D01*
X200000Y485500D02*
X204500Y490000D01*
X152410Y420000D02*
X154694Y417716D01*
X108500Y405000D02*
Y474500D01*
X119000Y485000D01*
X127768D01*
X166222Y459449D02*
X168551D01*
X161375Y454603D02*
X166222Y459449D01*
X164222Y421551D02*
X168551D01*
X161375Y424397D02*
X164222Y421551D01*
X161551Y414051D02*
Y415313D01*
X156921Y419943D02*
X161551Y415313D01*
X125051Y455051D02*
X126267D01*
X131170Y450148D01*
X129949Y461453D02*
Y467949D01*
Y461453D02*
X132276Y459126D01*
Y457951D02*
Y459126D01*
Y457951D02*
X135625Y454603D01*
X128349Y459549D02*
X128949Y458949D01*
X128349Y459549D02*
Y461754D01*
X126051Y464051D02*
X128349Y461754D01*
X123000Y461000D02*
X126051Y464051D01*
X128949Y456824D02*
Y458949D01*
Y456824D02*
X133397Y452376D01*
X137852Y456830D02*
X141181Y453500D01*
Y452681D02*
Y453500D01*
X138000Y449500D02*
X141181Y452681D01*
X136273Y449500D02*
X138000D01*
X133397Y452376D02*
X136273Y449500D01*
X165449Y417949D02*
X169449D01*
X172449Y420949D01*
Y425449D01*
X179219D01*
X181400Y427630D01*
X157227Y433000D02*
X163603Y426624D01*
X214000Y460000D02*
Y464744D01*
X205744D02*
X214000D01*
X203000Y458087D02*
Y462000D01*
X205744Y464744D01*
X189000Y464244D02*
X192000Y461244D01*
X189000Y464244D02*
Y468744D01*
X192000Y471744D01*
X167000Y478925D02*
Y479232D01*
X161232Y485000D02*
Y489732D01*
X186744Y477000D02*
X192000Y471744D01*
X167000Y475000D02*
Y477929D01*
X166444Y474444D02*
X167000Y475000D01*
X166302Y474444D02*
X166444D01*
X165358Y473500D02*
X166302Y474444D01*
X163000Y473500D02*
X165358D01*
X161232Y475268D02*
X163000Y473500D01*
X161232Y475268D02*
Y485000D01*
X204500Y490000D02*
X207500D01*
X142306Y461284D02*
X142784D01*
X123000Y460500D02*
Y461000D01*
X148500Y453500D02*
Y455090D01*
X154694Y461284D01*
X137904Y409000D02*
X158419D01*
X136500Y410404D02*
X137904Y409000D01*
X136500Y410404D02*
Y411910D01*
X142306Y417716D01*
X157500Y428273D02*
X161375Y424397D01*
X155273Y428273D02*
X157500D01*
X153000Y426000D02*
X155273Y428273D01*
X153000Y423865D02*
Y426000D01*
Y423865D02*
X156921Y419943D01*
X161551Y414051D02*
X173040Y402563D01*
X197500D01*
X151919Y429400D02*
X156373D01*
X157500Y428273D01*
X129949Y467949D02*
X138186D01*
X142081Y471844D01*
X166672D01*
X167172Y472344D01*
X181000Y477000D02*
X186744D01*
X145500Y435500D02*
Y435819D01*
X131170Y450148D02*
X145500Y435819D01*
X151919Y429400D01*
X172449Y455551D02*
X174000Y457103D01*
Y470000D01*
X181000Y477000D01*
X158419Y409000D02*
X167500Y399919D01*
X167447Y399866D02*
X167500Y399919D01*
X167447Y394098D02*
X169046Y392500D01*
X167447Y394098D02*
Y399866D01*
D21*
X197500Y402563D02*
X203563D01*
X207000Y406000D01*
Y426866D01*
X202244Y474500D02*
Y478744D01*
X207000Y483500D01*
X216500D01*
X220000Y480000D01*
Y392500D02*
Y480000D01*
X204000Y376500D02*
X220000Y392500D01*
X153500Y376500D02*
X204000D01*
X142000Y388000D02*
X153500Y376500D01*
X128500Y388000D02*
X142000D01*
X115000D02*
X128500D01*
X202500Y426866D02*
Y435500D01*
D22*
X192000Y466756D02*
X194756Y464000D01*
X198969D01*
X203000Y468913D02*
Y473744D01*
X202244Y474500D02*
X203000Y473744D01*
X198969Y464000D02*
X203000Y468032D01*
Y468913D01*
X206740Y453260D02*
Y458087D01*
X192756Y476500D02*
X197000D01*
X192000Y477256D02*
X192756Y476500D01*
X197000Y471173D02*
Y476500D01*
Y471173D02*
X199260Y468913D01*
X167000Y469071D02*
X167172Y469242D01*
Y472344D01*
X170273D01*
X179929Y482000D01*
X187542D01*
X192000Y477542D01*
Y477256D02*
Y477542D01*
X181500Y387500D02*
X182437D01*
X197500Y402563D01*
D23*
X208083Y470256D02*
X214000D01*
X207756Y469929D02*
Y474500D01*
X206740Y468913D02*
X207756Y469929D01*
X208083Y470256D01*
X130000Y410000D02*
X142000Y398000D01*
X130000Y410000D02*
Y423227D01*
X133397Y426624D01*
X128200Y398300D02*
X128500Y398000D01*
X128200Y398300D02*
Y425881D01*
X131170Y428852D01*
X115000Y398000D02*
X126000Y409000D01*
Y428135D01*
X128943Y431079D01*
X151000Y397500D02*
X161500D01*
X146500Y393000D02*
X151000Y397500D01*
X111500Y393000D02*
X146500D01*
X108500Y396000D02*
X111500Y393000D01*
X108500Y396000D02*
Y405000D01*
X134500Y410000D02*
X138000Y406500D01*
X134500Y410000D02*
Y414364D01*
X140079Y419943D01*
X171500Y397500D02*
Y400910D01*
X161786Y410624D02*
X171500Y400910D01*
X161333Y410624D02*
X161786D01*
X154694Y417263D02*
X161333Y410624D01*
X154694Y417263D02*
Y417716D01*
X180000Y397500D02*
X181500D01*
X175000Y392500D02*
X180000Y397500D01*
X138670Y422170D02*
X145000Y428500D01*
X137852Y422170D02*
X138670D01*
X156000Y445000D02*
X161500Y439500D01*
X156000Y445000D02*
Y449227D01*
X161375Y454603D01*
X169046Y392500D02*
X175000D01*
X138000Y406500D02*
X158373D01*
X165653Y399220D01*
Y393347D02*
Y399220D01*
Y393347D02*
X171500Y387500D01*
D24*
X199260Y448374D02*
Y458087D01*
Y448374D02*
X202500Y445134D01*
D25*
X142000Y398000D02*
D03*
Y388000D02*
D03*
X128500Y398000D02*
D03*
Y388000D02*
D03*
X115000Y398000D02*
D03*
Y388000D02*
D03*
X161500Y387500D02*
D03*
Y397500D02*
D03*
X171500Y387500D02*
D03*
Y397500D02*
D03*
X181500Y387500D02*
D03*
X207500Y490000D02*
D03*
X185500D02*
D03*
D26*
X142000Y378000D02*
D03*
X128500D02*
D03*
X115000D02*
D03*
D27*
X181500Y397500D02*
D03*
X217500Y490000D02*
D03*
X195500D02*
D03*
D28*
X197500Y410437D02*
D03*
D29*
Y402563D02*
D03*
D30*
X116500Y411882D02*
D03*
Y419756D02*
D03*
Y427630D02*
D03*
Y435504D02*
D03*
Y443378D02*
D03*
Y451252D02*
D03*
Y459126D02*
D03*
X181400Y411882D02*
D03*
Y419756D02*
D03*
Y427630D02*
D03*
Y435504D02*
D03*
Y443378D02*
D03*
Y451252D02*
D03*
Y459126D02*
D03*
D31*
X116500Y467000D02*
D03*
X181400D02*
D03*
D32*
X157227Y433000D02*
D03*
X214000Y460000D02*
D03*
X206740Y453260D02*
D03*
X197000Y476500D02*
D03*
X161232Y489732D02*
D03*
X186744Y477000D02*
D03*
X123000Y460500D02*
D03*
X148500Y453500D02*
D03*
X145000Y428500D02*
D03*
X202500Y435500D02*
D03*
X161500Y439500D02*
D03*
X145500Y435500D02*
D03*
M02*
