%FSLAX25Y25*%
%MOIN*%
G70*
G01*
G75*
G04 Layer_Color=8421504*
G04:AMPARAMS|DCode=10|XSize=35.43mil|YSize=27.56mil|CornerRadius=0mil|HoleSize=0mil|Usage=FLASHONLY|Rotation=315.000|XOffset=0mil|YOffset=0mil|HoleType=Round|Shape=Rectangle|*
%AMROTATEDRECTD10*
4,1,4,-0.02227,0.00278,-0.00278,0.02227,0.02227,-0.00278,0.00278,-0.02227,-0.02227,0.00278,0.0*
%
%ADD10ROTATEDRECTD10*%

G04:AMPARAMS|DCode=11|XSize=35.43mil|YSize=27.56mil|CornerRadius=0mil|HoleSize=0mil|Usage=FLASHONLY|Rotation=225.000|XOffset=0mil|YOffset=0mil|HoleType=Round|Shape=Rectangle|*
%AMROTATEDRECTD11*
4,1,4,0.00278,0.02227,0.02227,0.00278,-0.00278,-0.02227,-0.02227,-0.00278,0.00278,0.02227,0.0*
%
%ADD11ROTATEDRECTD11*%

%ADD12R,0.03543X0.02756*%
%ADD13R,0.02756X0.03543*%
%ADD14R,0.24882X0.09291*%
%ADD15O,0.01575X0.03347*%
G04:AMPARAMS|DCode=16|XSize=21.65mil|YSize=76.77mil|CornerRadius=0mil|HoleSize=0mil|Usage=FLASHONLY|Rotation=315.000|XOffset=0mil|YOffset=0mil|HoleType=Round|Shape=Round|*
%AMOVALD16*
21,1,0.05512,0.02165,0.00000,0.00000,45.0*
1,1,0.02165,-0.01949,-0.01949*
1,1,0.02165,0.01949,0.01949*
%
%ADD16OVALD16*%

G04:AMPARAMS|DCode=17|XSize=21.65mil|YSize=76.77mil|CornerRadius=0mil|HoleSize=0mil|Usage=FLASHONLY|Rotation=45.000|XOffset=0mil|YOffset=0mil|HoleType=Round|Shape=Round|*
%AMOVALD17*
21,1,0.05512,0.02165,0.00000,0.00000,135.0*
1,1,0.02165,0.01949,-0.01949*
1,1,0.02165,-0.01949,0.01949*
%
%ADD17OVALD17*%

%ADD18O,0.09055X0.03150*%
%ADD19O,0.02362X0.03740*%
%ADD20C,0.01000*%
%ADD21C,0.04000*%
%ADD22C,0.02000*%
%ADD23C,0.01200*%
%ADD24C,0.02500*%
%ADD25C,0.05906*%
%ADD26R,0.05906X0.05906*%
%ADD27R,0.05906X0.05906*%
%ADD28R,0.05512X0.05512*%
%ADD29C,0.05512*%
%ADD30C,0.06299*%
%ADD31R,0.06299X0.06299*%
%ADD32C,0.05000*%
%ADD33C,0.00984*%
%ADD34C,0.02362*%
%ADD35C,0.00787*%
%ADD36C,0.00500*%
%ADD37C,0.00400*%
D10*
X125051Y455051D02*
D03*
X128949Y458949D02*
D03*
X129949Y467949D02*
D03*
X126051Y464051D02*
D03*
X168551Y421551D02*
D03*
X172449Y425449D02*
D03*
X161551Y414051D02*
D03*
X165449Y417949D02*
D03*
D11*
X168551Y459449D02*
D03*
X172449Y455551D02*
D03*
D12*
X214000Y470256D02*
D03*
Y464744D02*
D03*
X192000Y477256D02*
D03*
Y471744D02*
D03*
Y466756D02*
D03*
Y461244D02*
D03*
D13*
X202244Y474500D02*
D03*
X207756D02*
D03*
D14*
X202500Y445134D02*
D03*
Y426866D02*
D03*
D15*
X164441Y469071D02*
D03*
X167000D02*
D03*
X169559D02*
D03*
X164441Y477929D02*
D03*
X167000D02*
D03*
X169559D02*
D03*
D16*
X154694Y461284D02*
D03*
X156921Y459057D02*
D03*
X159148Y456830D02*
D03*
X161375Y454603D02*
D03*
X163603Y452376D02*
D03*
X165830Y450148D02*
D03*
X168057Y447921D02*
D03*
X170284Y445694D02*
D03*
X142306Y417716D02*
D03*
X140079Y419943D02*
D03*
X137852Y422170D02*
D03*
X135625Y424397D02*
D03*
X133397Y426624D02*
D03*
X131170Y428852D02*
D03*
X128943Y431079D02*
D03*
X126716Y433306D02*
D03*
D17*
X170284D02*
D03*
X168057Y431079D02*
D03*
X165830Y428852D02*
D03*
X163603Y426624D02*
D03*
X161375Y424397D02*
D03*
X159148Y422170D02*
D03*
X156921Y419943D02*
D03*
X154694Y417716D02*
D03*
X126716Y445694D02*
D03*
X128943Y447921D02*
D03*
X131170Y450148D02*
D03*
X133397Y452376D02*
D03*
X135625Y454603D02*
D03*
X137852Y456830D02*
D03*
X140079Y459057D02*
D03*
X142306Y461284D02*
D03*
D18*
X161232Y485000D02*
D03*
X127768D02*
D03*
D19*
X206740Y468913D02*
D03*
X203000D02*
D03*
X199260D02*
D03*
X206740Y458087D02*
D03*
X203000D02*
D03*
X199260D02*
D03*
M02*
