%FSLAX25Y25*%
%MOIN*%
G70*
G01*
G75*
G04 Layer_Physical_Order=2*
G04 Layer_Color=16711680*
G04:AMPARAMS|DCode=10|XSize=35.43mil|YSize=27.56mil|CornerRadius=0mil|HoleSize=0mil|Usage=FLASHONLY|Rotation=315.000|XOffset=0mil|YOffset=0mil|HoleType=Round|Shape=Rectangle|*
%AMROTATEDRECTD10*
4,1,4,-0.02227,0.00278,-0.00278,0.02227,0.02227,-0.00278,0.00278,-0.02227,-0.02227,0.00278,0.0*
%
%ADD10ROTATEDRECTD10*%

G04:AMPARAMS|DCode=11|XSize=35.43mil|YSize=27.56mil|CornerRadius=0mil|HoleSize=0mil|Usage=FLASHONLY|Rotation=225.000|XOffset=0mil|YOffset=0mil|HoleType=Round|Shape=Rectangle|*
%AMROTATEDRECTD11*
4,1,4,0.00278,0.02227,0.02227,0.00278,-0.00278,-0.02227,-0.02227,-0.00278,0.00278,0.02227,0.0*
%
%ADD11ROTATEDRECTD11*%

%ADD12R,0.03543X0.02756*%
%ADD13R,0.02756X0.03543*%
%ADD14R,0.24882X0.09291*%
%ADD15O,0.01575X0.03347*%
G04:AMPARAMS|DCode=16|XSize=21.65mil|YSize=76.77mil|CornerRadius=0mil|HoleSize=0mil|Usage=FLASHONLY|Rotation=315.000|XOffset=0mil|YOffset=0mil|HoleType=Round|Shape=Round|*
%AMOVALD16*
21,1,0.05512,0.02165,0.00000,0.00000,45.0*
1,1,0.02165,-0.01949,-0.01949*
1,1,0.02165,0.01949,0.01949*
%
%ADD16OVALD16*%

G04:AMPARAMS|DCode=17|XSize=21.65mil|YSize=76.77mil|CornerRadius=0mil|HoleSize=0mil|Usage=FLASHONLY|Rotation=45.000|XOffset=0mil|YOffset=0mil|HoleType=Round|Shape=Round|*
%AMOVALD17*
21,1,0.05512,0.02165,0.00000,0.00000,135.0*
1,1,0.02165,0.01949,-0.01949*
1,1,0.02165,-0.01949,0.01949*
%
%ADD17OVALD17*%

%ADD18O,0.09055X0.03150*%
%ADD19O,0.02362X0.03740*%
%ADD20C,0.01000*%
%ADD21C,0.04000*%
%ADD22C,0.02000*%
%ADD23C,0.01200*%
%ADD24C,0.02500*%
%ADD25C,0.05906*%
%ADD26R,0.05906X0.05906*%
%ADD27R,0.05906X0.05906*%
%ADD28R,0.05512X0.05512*%
%ADD29C,0.05512*%
%ADD30C,0.06299*%
%ADD31R,0.06299X0.06299*%
%ADD32C,0.05000*%
G36*
X213547Y493953D02*
X213547Y493500D01*
Y490500D01*
X221453D01*
Y493330D01*
X221837Y493541D01*
X221953Y493554D01*
X222000Y493512D01*
Y370875D01*
X221951Y370826D01*
X108049D01*
X108000Y370875D01*
Y494000D01*
X184044D01*
X184143Y493500D01*
X183607Y493278D01*
X182824Y492676D01*
X182222Y491893D01*
X181844Y490980D01*
X181715Y490000D01*
X181844Y489020D01*
X182222Y488107D01*
X182824Y487324D01*
X183607Y486722D01*
X184520Y486344D01*
X185500Y486215D01*
X186480Y486344D01*
X187393Y486722D01*
X188177Y487324D01*
X188778Y488107D01*
X189156Y489020D01*
X189285Y490000D01*
X189156Y490980D01*
X188778Y491893D01*
X188177Y492676D01*
X187393Y493278D01*
X186857Y493500D01*
X186956Y494000D01*
X191067D01*
X191547Y493953D01*
X191547Y493500D01*
Y490500D01*
X199453D01*
Y493500D01*
X199453Y493953D01*
X199933Y494000D01*
X206044D01*
X206143Y493500D01*
X205607Y493278D01*
X204823Y492676D01*
X204222Y491893D01*
X203844Y490980D01*
X203715Y490000D01*
X203844Y489020D01*
X204222Y488107D01*
X204823Y487324D01*
X205607Y486722D01*
X206520Y486344D01*
X207500Y486215D01*
X208480Y486344D01*
X209393Y486722D01*
X210176Y487324D01*
X210778Y488107D01*
X211156Y489020D01*
X211285Y490000D01*
X211156Y490980D01*
X210778Y491893D01*
X210176Y492676D01*
X209393Y493278D01*
X208857Y493500D01*
X208956Y494000D01*
X213067D01*
X213547Y493953D01*
D02*
G37*
%LPC*%
G36*
X161000Y391421D02*
X160468Y391351D01*
X159507Y390953D01*
X158681Y390319D01*
X158047Y389493D01*
X157649Y388532D01*
X157579Y388000D01*
X161000D01*
Y391421D01*
D02*
G37*
G36*
X162000D02*
Y388000D01*
X165421D01*
X165351Y388532D01*
X164953Y389493D01*
X164319Y390319D01*
X163493Y390953D01*
X162532Y391351D01*
X162000Y391421D01*
D02*
G37*
G36*
X142000Y391785D02*
X141020Y391656D01*
X140107Y391278D01*
X139323Y390676D01*
X138722Y389893D01*
X138344Y388980D01*
X138215Y388000D01*
X138344Y387020D01*
X138722Y386107D01*
X139323Y385324D01*
X140107Y384722D01*
X141020Y384344D01*
X142000Y384215D01*
X142980Y384344D01*
X143893Y384722D01*
X144676Y385324D01*
X145278Y386107D01*
X145656Y387020D01*
X145785Y388000D01*
X145656Y388980D01*
X145278Y389893D01*
X144676Y390676D01*
X143893Y391278D01*
X142980Y391656D01*
X142000Y391785D01*
D02*
G37*
G36*
X165421Y387000D02*
X162000D01*
Y383579D01*
X162532Y383649D01*
X163493Y384047D01*
X164319Y384681D01*
X164953Y385507D01*
X165351Y386468D01*
X165421Y387000D01*
D02*
G37*
G36*
X115000Y391785D02*
X114020Y391656D01*
X113107Y391278D01*
X112323Y390676D01*
X111722Y389893D01*
X111344Y388980D01*
X111215Y388000D01*
X111344Y387020D01*
X111722Y386107D01*
X112323Y385324D01*
X113107Y384722D01*
X114020Y384344D01*
X115000Y384215D01*
X115980Y384344D01*
X116893Y384722D01*
X117676Y385324D01*
X118278Y386107D01*
X118656Y387020D01*
X118785Y388000D01*
X118656Y388980D01*
X118278Y389893D01*
X117676Y390676D01*
X116893Y391278D01*
X115980Y391656D01*
X115000Y391785D01*
D02*
G37*
G36*
X128500D02*
X127520Y391656D01*
X126607Y391278D01*
X125823Y390676D01*
X125222Y389893D01*
X124844Y388980D01*
X124715Y388000D01*
X124844Y387020D01*
X125222Y386107D01*
X125823Y385324D01*
X126607Y384722D01*
X127520Y384344D01*
X128500Y384215D01*
X129480Y384344D01*
X130393Y384722D01*
X131176Y385324D01*
X131778Y386107D01*
X132156Y387020D01*
X132285Y388000D01*
X132156Y388980D01*
X131778Y389893D01*
X131176Y390676D01*
X130393Y391278D01*
X129480Y391656D01*
X128500Y391785D01*
D02*
G37*
G36*
X197500Y406150D02*
X196572Y406027D01*
X195707Y405669D01*
X194964Y405099D01*
X194394Y404356D01*
X194036Y403491D01*
X193913Y402563D01*
X194036Y401635D01*
X194394Y400770D01*
X194964Y400027D01*
X195707Y399457D01*
X196572Y399099D01*
X197500Y398976D01*
X198428Y399099D01*
X199293Y399457D01*
X200036Y400027D01*
X200606Y400770D01*
X200964Y401635D01*
X201087Y402563D01*
X200964Y403491D01*
X200606Y404356D01*
X200036Y405099D01*
X199293Y405669D01*
X198428Y406027D01*
X197500Y406150D01*
D02*
G37*
G36*
X197000Y409937D02*
X193744D01*
Y406681D01*
X197000D01*
Y409937D01*
D02*
G37*
G36*
X201256D02*
X198000D01*
Y406681D01*
X201256D01*
Y409937D01*
D02*
G37*
G36*
X115000Y401785D02*
X114020Y401656D01*
X113107Y401278D01*
X112323Y400676D01*
X111722Y399893D01*
X111344Y398980D01*
X111215Y398000D01*
X111344Y397020D01*
X111722Y396107D01*
X112323Y395323D01*
X113107Y394722D01*
X114020Y394344D01*
X115000Y394215D01*
X115980Y394344D01*
X116893Y394722D01*
X117676Y395323D01*
X118278Y396107D01*
X118656Y397020D01*
X118785Y398000D01*
X118656Y398980D01*
X118278Y399893D01*
X117676Y400676D01*
X116893Y401278D01*
X115980Y401656D01*
X115000Y401785D01*
D02*
G37*
G36*
X128500D02*
X127520Y401656D01*
X126607Y401278D01*
X125823Y400676D01*
X125222Y399893D01*
X124844Y398980D01*
X124715Y398000D01*
X124844Y397020D01*
X125222Y396107D01*
X125823Y395323D01*
X126607Y394722D01*
X127520Y394344D01*
X128500Y394215D01*
X129480Y394344D01*
X130393Y394722D01*
X131176Y395323D01*
X131778Y396107D01*
X132156Y397020D01*
X132285Y398000D01*
X132156Y398980D01*
X131778Y399893D01*
X131176Y400676D01*
X130393Y401278D01*
X129480Y401656D01*
X128500Y401785D01*
D02*
G37*
G36*
X142000D02*
X141020Y401656D01*
X140107Y401278D01*
X139323Y400676D01*
X138722Y399893D01*
X138344Y398980D01*
X138215Y398000D01*
X138344Y397020D01*
X138722Y396107D01*
X139323Y395323D01*
X140107Y394722D01*
X141020Y394344D01*
X142000Y394215D01*
X142980Y394344D01*
X143893Y394722D01*
X144676Y395323D01*
X145278Y396107D01*
X145656Y397020D01*
X145785Y398000D01*
X145656Y398980D01*
X145278Y399893D01*
X144676Y400676D01*
X143893Y401278D01*
X142980Y401656D01*
X142000Y401785D01*
D02*
G37*
G36*
X161000Y387000D02*
X157579D01*
X157649Y386468D01*
X158047Y385507D01*
X158681Y384681D01*
X159507Y384047D01*
X160468Y383649D01*
X161000Y383579D01*
Y387000D01*
D02*
G37*
G36*
X132453Y377500D02*
X129000D01*
Y374047D01*
X132453D01*
Y377500D01*
D02*
G37*
G36*
X141500D02*
X138047D01*
Y374047D01*
X141500D01*
Y377500D01*
D02*
G37*
G36*
X145953D02*
X142500D01*
Y374047D01*
X145953D01*
Y377500D01*
D02*
G37*
G36*
X114500D02*
X111047D01*
Y374047D01*
X114500D01*
Y377500D01*
D02*
G37*
G36*
X118953D02*
X115500D01*
Y374047D01*
X118953D01*
Y377500D01*
D02*
G37*
G36*
X128000D02*
X124547D01*
Y374047D01*
X128000D01*
Y377500D01*
D02*
G37*
G36*
X132453Y381953D02*
X129000D01*
Y378500D01*
X132453D01*
Y381953D01*
D02*
G37*
G36*
X141500D02*
X138047D01*
Y378500D01*
X141500D01*
Y381953D01*
D02*
G37*
G36*
X145953D02*
X142500D01*
Y378500D01*
X145953D01*
Y381953D01*
D02*
G37*
G36*
X114500D02*
X111047D01*
Y378500D01*
X114500D01*
Y381953D01*
D02*
G37*
G36*
X118953D02*
X115500D01*
Y378500D01*
X118953D01*
Y381953D01*
D02*
G37*
G36*
X128000D02*
X124547D01*
Y378500D01*
X128000D01*
Y381953D01*
D02*
G37*
G36*
X187244Y480464D02*
Y477500D01*
X190208D01*
X190154Y477914D01*
X189801Y478765D01*
X189240Y479496D01*
X188509Y480057D01*
X187658Y480410D01*
X187244Y480464D01*
D02*
G37*
G36*
X195000Y489500D02*
X191547D01*
Y486047D01*
X195000D01*
Y489500D01*
D02*
G37*
G36*
X199453D02*
X196000D01*
Y486047D01*
X199453D01*
Y489500D01*
D02*
G37*
G36*
X186244Y476500D02*
X183280D01*
X183334Y476086D01*
X183687Y475235D01*
X184248Y474504D01*
X184979Y473943D01*
X185830Y473590D01*
X186244Y473536D01*
Y476500D01*
D02*
G37*
G36*
X190208D02*
X187244D01*
Y473536D01*
X187658Y473590D01*
X188509Y473943D01*
X189240Y474504D01*
X189801Y475235D01*
X190154Y476086D01*
X190208Y476500D01*
D02*
G37*
G36*
X186244Y480464D02*
X185830Y480410D01*
X184979Y480057D01*
X184248Y479496D01*
X183687Y478765D01*
X183334Y477914D01*
X183280Y477500D01*
X186244D01*
Y480464D01*
D02*
G37*
G36*
X164697Y489232D02*
X161732D01*
Y486268D01*
X162146Y486322D01*
X162997Y486675D01*
X163728Y487236D01*
X164289Y487967D01*
X164642Y488819D01*
X164697Y489232D01*
D02*
G37*
G36*
X160732Y493197D02*
X160319Y493142D01*
X159467Y492790D01*
X158736Y492229D01*
X158175Y491497D01*
X157822Y490646D01*
X157768Y490232D01*
X160732D01*
Y493197D01*
D02*
G37*
G36*
X161732D02*
Y490232D01*
X164697D01*
X164642Y490646D01*
X164289Y491497D01*
X163728Y492229D01*
X162997Y492790D01*
X162146Y493142D01*
X161732Y493197D01*
D02*
G37*
G36*
X217000Y489500D02*
X213547D01*
Y486047D01*
X217000D01*
Y489500D01*
D02*
G37*
G36*
X221453D02*
X218000D01*
Y486047D01*
X221453D01*
Y489500D01*
D02*
G37*
G36*
X160732Y489232D02*
X157768D01*
X157822Y488819D01*
X158175Y487967D01*
X158736Y487236D01*
X159467Y486675D01*
X160319Y486322D01*
X160732Y486268D01*
Y489232D01*
D02*
G37*
G36*
X123500Y463964D02*
Y461000D01*
X126464D01*
X126410Y461414D01*
X126057Y462265D01*
X125496Y462996D01*
X124765Y463557D01*
X123914Y463910D01*
X123500Y463964D01*
D02*
G37*
G36*
X156727Y432500D02*
X153763D01*
X153817Y432086D01*
X154170Y431235D01*
X154731Y430504D01*
X155462Y429943D01*
X156313Y429590D01*
X156727Y429536D01*
Y432500D01*
D02*
G37*
G36*
X197000Y479829D02*
X196139Y479715D01*
X195336Y479383D01*
X194646Y478854D01*
X194117Y478164D01*
X193785Y477361D01*
X193672Y476500D01*
X193785Y475638D01*
X194117Y474836D01*
X194646Y474146D01*
X195165Y473749D01*
Y463000D01*
X195281Y462414D01*
X195304Y462298D01*
X195702Y461702D01*
X203497Y453908D01*
X203412Y453260D01*
X203525Y452398D01*
X203858Y451596D01*
X203916Y451519D01*
Y440910D01*
X201734Y438728D01*
X201639Y438715D01*
X200836Y438382D01*
X200146Y437854D01*
X199618Y437164D01*
X199285Y436362D01*
X199171Y435500D01*
X199285Y434639D01*
X199618Y433836D01*
X200146Y433146D01*
X200836Y432618D01*
X201639Y432285D01*
X202500Y432171D01*
X203362Y432285D01*
X204164Y432618D01*
X204854Y433146D01*
X205382Y433836D01*
X205715Y434639D01*
X205728Y434734D01*
X208737Y437743D01*
X209186Y438328D01*
X209385Y438810D01*
X209468Y439009D01*
X209564Y439740D01*
Y451519D01*
X209623Y451596D01*
X209955Y452398D01*
X210069Y453260D01*
X209955Y454121D01*
X209623Y454924D01*
X209094Y455613D01*
X208404Y456142D01*
X207602Y456475D01*
X206740Y456588D01*
X206092Y456503D01*
X198835Y463760D01*
Y473749D01*
X199354Y474146D01*
X199882Y474836D01*
X200215Y475638D01*
X200328Y476500D01*
X200215Y477361D01*
X199882Y478164D01*
X199354Y478854D01*
X198664Y479383D01*
X197862Y479715D01*
X197000Y479829D01*
D02*
G37*
G36*
X156727Y436464D02*
X156313Y436410D01*
X155462Y436057D01*
X154731Y435496D01*
X154170Y434765D01*
X153817Y433914D01*
X153763Y433500D01*
X156727D01*
Y436464D01*
D02*
G37*
G36*
X180900Y411382D02*
X177280D01*
X177357Y410799D01*
X177775Y409789D01*
X178440Y408922D01*
X179307Y408257D01*
X180317Y407839D01*
X180900Y407762D01*
Y411382D01*
D02*
G37*
G36*
X197000Y414193D02*
X193744D01*
Y410937D01*
X197000D01*
Y414193D01*
D02*
G37*
G36*
X201256D02*
X198000D01*
Y410937D01*
X201256D01*
Y414193D01*
D02*
G37*
G36*
X213500Y463464D02*
X213086Y463410D01*
X212235Y463057D01*
X211504Y462496D01*
X210943Y461765D01*
X210590Y460914D01*
X210536Y460500D01*
X213500D01*
Y463464D01*
D02*
G37*
G36*
X214500D02*
Y460500D01*
X217464D01*
X217410Y460914D01*
X217057Y461765D01*
X216496Y462496D01*
X215765Y463057D01*
X214914Y463410D01*
X214500Y463464D01*
D02*
G37*
G36*
X185350Y470950D02*
X177450D01*
Y463050D01*
X179099D01*
X179377Y462604D01*
X179375Y462550D01*
X178583Y461943D01*
X177950Y461118D01*
X177716Y460553D01*
X175626D01*
X175626Y460553D01*
X175080Y460445D01*
X174617Y460135D01*
X174617Y460135D01*
X149234Y434753D01*
X148761Y434987D01*
X148828Y435500D01*
X148715Y436362D01*
X148382Y437164D01*
X147854Y437854D01*
X147164Y438382D01*
X146361Y438715D01*
X145500Y438829D01*
X144639Y438715D01*
X143836Y438382D01*
X143146Y437854D01*
X142617Y437164D01*
X142285Y436362D01*
X142172Y435500D01*
X142285Y434639D01*
X142425Y434300D01*
X121333Y413207D01*
X120226D01*
X119950Y413874D01*
X119317Y414699D01*
X118492Y415332D01*
X117969Y415548D01*
Y416089D01*
X118492Y416306D01*
X119317Y416939D01*
X119950Y417764D01*
X120348Y418725D01*
X120484Y419756D01*
X120348Y420787D01*
X119950Y421748D01*
X119317Y422573D01*
X118492Y423206D01*
X117969Y423422D01*
Y423963D01*
X118492Y424180D01*
X119317Y424813D01*
X119950Y425638D01*
X120348Y426599D01*
X120484Y427630D01*
X120348Y428661D01*
X119950Y429622D01*
X119317Y430447D01*
X118492Y431080D01*
X117969Y431296D01*
Y431838D01*
X118492Y432054D01*
X119317Y432687D01*
X119950Y433512D01*
X120348Y434473D01*
X120484Y435504D01*
X120348Y436535D01*
X119950Y437496D01*
X119317Y438321D01*
X118492Y438954D01*
X117969Y439170D01*
Y439712D01*
X118492Y439928D01*
X119317Y440561D01*
X119950Y441386D01*
X120348Y442347D01*
X120484Y443378D01*
X120348Y444409D01*
X119950Y445370D01*
X119317Y446195D01*
X118492Y446828D01*
X117969Y447044D01*
Y447586D01*
X118492Y447802D01*
X119317Y448435D01*
X119950Y449260D01*
X120348Y450221D01*
X120484Y451252D01*
X120348Y452283D01*
X120056Y452989D01*
X120480Y453272D01*
X126189Y447563D01*
X126619Y447275D01*
X127126Y447175D01*
X127126Y447175D01*
X143500D01*
X144007Y447275D01*
X144437Y447563D01*
X147300Y450425D01*
X147638Y450285D01*
X148500Y450172D01*
X149362Y450285D01*
X150164Y450618D01*
X150854Y451146D01*
X151383Y451836D01*
X151715Y452638D01*
X151829Y453500D01*
X151715Y454361D01*
X151383Y455164D01*
X150854Y455854D01*
X150164Y456383D01*
X149362Y456715D01*
X148500Y456828D01*
X147638Y456715D01*
X146836Y456383D01*
X146146Y455854D01*
X145617Y455164D01*
X145285Y454361D01*
X145171Y453500D01*
X145285Y452638D01*
X145425Y452300D01*
X142951Y449825D01*
X127675D01*
X120318Y457183D01*
X120408Y457500D01*
X120948Y457663D01*
X121235Y457443D01*
X122086Y457090D01*
X122500Y457036D01*
Y460500D01*
Y463964D01*
X122086Y463910D01*
X121235Y463557D01*
X120950Y463338D01*
X120450Y463585D01*
Y470950D01*
X112550D01*
Y463050D01*
X114199D01*
X114477Y462604D01*
X114475Y462550D01*
X113683Y461943D01*
X113050Y461118D01*
X112652Y460157D01*
X112516Y459126D01*
X112652Y458095D01*
X113050Y457134D01*
X113683Y456309D01*
X114508Y455676D01*
X115031Y455460D01*
Y454918D01*
X114508Y454702D01*
X113683Y454069D01*
X113050Y453244D01*
X112652Y452283D01*
X112516Y451252D01*
X112652Y450221D01*
X113050Y449260D01*
X113683Y448435D01*
X114508Y447802D01*
X115031Y447586D01*
Y447044D01*
X114508Y446828D01*
X113683Y446195D01*
X113050Y445370D01*
X112652Y444409D01*
X112516Y443378D01*
X112652Y442347D01*
X113050Y441386D01*
X113683Y440561D01*
X114508Y439928D01*
X115031Y439712D01*
Y439170D01*
X114508Y438954D01*
X113683Y438321D01*
X113050Y437496D01*
X112652Y436535D01*
X112516Y435504D01*
X112652Y434473D01*
X113050Y433512D01*
X113683Y432687D01*
X114508Y432054D01*
X115031Y431838D01*
Y431296D01*
X114508Y431080D01*
X113683Y430447D01*
X113050Y429622D01*
X112652Y428661D01*
X112516Y427630D01*
X112652Y426599D01*
X113050Y425638D01*
X113683Y424813D01*
X114508Y424180D01*
X115031Y423963D01*
Y423422D01*
X114508Y423206D01*
X113683Y422573D01*
X113050Y421748D01*
X112652Y420787D01*
X112516Y419756D01*
X112652Y418725D01*
X113050Y417764D01*
X113683Y416939D01*
X114508Y416306D01*
X115031Y416089D01*
Y415548D01*
X114508Y415332D01*
X113683Y414699D01*
X113050Y413874D01*
X112652Y412913D01*
X112516Y411882D01*
X112652Y410851D01*
X113050Y409890D01*
X113683Y409065D01*
X114508Y408432D01*
X115469Y408034D01*
X116500Y407898D01*
X117531Y408034D01*
X118492Y408432D01*
X119317Y409065D01*
X119950Y409890D01*
X120226Y410556D01*
X121882D01*
X122389Y410657D01*
X122819Y410945D01*
X141287Y429413D01*
X141761Y429179D01*
X141672Y428500D01*
X141785Y427638D01*
X142118Y426836D01*
X142646Y426146D01*
X143336Y425618D01*
X144139Y425285D01*
X145000Y425172D01*
X145861Y425285D01*
X146664Y425618D01*
X147354Y426146D01*
X147882Y426836D01*
X148215Y427638D01*
X148328Y428500D01*
X148215Y429361D01*
X148117Y429598D01*
X157708Y439189D01*
X158236Y439010D01*
X158285Y438638D01*
X158617Y437836D01*
X159146Y437146D01*
X159836Y436618D01*
X160073Y436519D01*
Y435815D01*
X159573Y435612D01*
X158992Y436057D01*
X158141Y436410D01*
X157727Y436464D01*
Y433000D01*
Y429536D01*
X158141Y429590D01*
X158992Y429943D01*
X159573Y430388D01*
X160073Y430185D01*
Y400971D01*
X159607Y400778D01*
X158824Y400176D01*
X158222Y399393D01*
X157844Y398480D01*
X157715Y397500D01*
X157844Y396520D01*
X158222Y395607D01*
X158824Y394824D01*
X159607Y394222D01*
X160520Y393844D01*
X161500Y393715D01*
X162480Y393844D01*
X163393Y394222D01*
X164176Y394824D01*
X164778Y395607D01*
X165156Y396520D01*
X165285Y397500D01*
X165156Y398480D01*
X164778Y399393D01*
X164176Y400176D01*
X163393Y400778D01*
X162927Y400971D01*
Y436519D01*
X163164Y436618D01*
X163854Y437146D01*
X164383Y437836D01*
X164715Y438638D01*
X164829Y439500D01*
X164715Y440361D01*
X164383Y441164D01*
X163854Y441854D01*
X163164Y442382D01*
X162362Y442715D01*
X161990Y442764D01*
X161811Y443292D01*
X176217Y457698D01*
X177716D01*
X177950Y457134D01*
X178583Y456309D01*
X179408Y455676D01*
X179931Y455460D01*
Y454918D01*
X179408Y454702D01*
X178583Y454069D01*
X177950Y453244D01*
X177552Y452283D01*
X177416Y451252D01*
X177552Y450221D01*
X177950Y449260D01*
X178583Y448435D01*
X179408Y447802D01*
X179931Y447586D01*
Y447044D01*
X179408Y446828D01*
X178583Y446195D01*
X177950Y445370D01*
X177552Y444409D01*
X177416Y443378D01*
X177552Y442347D01*
X177950Y441386D01*
X178583Y440561D01*
X179408Y439928D01*
X179931Y439712D01*
Y439170D01*
X179408Y438954D01*
X178583Y438321D01*
X177950Y437496D01*
X177552Y436535D01*
X177416Y435504D01*
X177552Y434473D01*
X177950Y433512D01*
X178583Y432687D01*
X179408Y432054D01*
X179669Y431946D01*
Y431405D01*
X179307Y431255D01*
X178440Y430589D01*
X177775Y429723D01*
X177357Y428713D01*
X177280Y428130D01*
X181400D01*
Y427130D01*
X177280D01*
X177357Y426547D01*
X177775Y425537D01*
X178440Y424670D01*
X179307Y424005D01*
X179669Y423855D01*
X179669Y423314D01*
X179408Y423206D01*
X178583Y422573D01*
X177950Y421748D01*
X177552Y420787D01*
X177416Y419756D01*
X177552Y418725D01*
X177950Y417764D01*
X178583Y416939D01*
X179408Y416306D01*
X179669Y416198D01*
X179669Y415657D01*
X179307Y415507D01*
X178440Y414841D01*
X177775Y413975D01*
X177357Y412965D01*
X177280Y412382D01*
X181400D01*
Y411882D01*
X181900D01*
Y407762D01*
X182483Y407839D01*
X183493Y408257D01*
X183874Y408550D01*
X184322Y408328D01*
Y404842D01*
X183408Y403927D01*
X176500D01*
X176500Y403927D01*
X175954Y403819D01*
X175491Y403509D01*
X175491Y403509D01*
X172945Y400963D01*
X172480Y401156D01*
X171500Y401285D01*
X170520Y401156D01*
X169607Y400778D01*
X168824Y400176D01*
X168222Y399393D01*
X167844Y398480D01*
X167715Y397500D01*
X167844Y396520D01*
X168222Y395607D01*
X168824Y394824D01*
X169607Y394222D01*
X170520Y393844D01*
X171500Y393715D01*
X172480Y393844D01*
X173393Y394222D01*
X174177Y394824D01*
X174778Y395607D01*
X175156Y396520D01*
X175285Y397500D01*
X175156Y398480D01*
X174963Y398945D01*
X177091Y401073D01*
X177747D01*
Y393747D01*
X179488D01*
X179679Y393285D01*
X175456Y389062D01*
X174866Y389179D01*
X174778Y389393D01*
X174177Y390177D01*
X173393Y390778D01*
X172480Y391156D01*
X171500Y391285D01*
X170520Y391156D01*
X169607Y390778D01*
X168824Y390177D01*
X168222Y389393D01*
X167844Y388480D01*
X167715Y387500D01*
X167844Y386520D01*
X168222Y385607D01*
X168824Y384823D01*
X169607Y384222D01*
X170520Y383844D01*
X171500Y383715D01*
X172480Y383844D01*
X173393Y384222D01*
X174177Y384823D01*
X174778Y385607D01*
X175013Y386175D01*
X175768D01*
X176276Y386275D01*
X176706Y386563D01*
X177261Y387118D01*
X177789Y386939D01*
X177844Y386520D01*
X178222Y385607D01*
X178823Y384823D01*
X179607Y384222D01*
X180520Y383844D01*
X181500Y383715D01*
X182480Y383844D01*
X183393Y384222D01*
X184177Y384823D01*
X184778Y385607D01*
X185156Y386520D01*
X185285Y387500D01*
X185156Y388480D01*
X184778Y389393D01*
X184177Y390177D01*
X183393Y390778D01*
X182480Y391156D01*
X182061Y391211D01*
X181882Y391739D01*
X182265Y392122D01*
X184908D01*
X185416Y392223D01*
X185846Y392510D01*
X190437Y397102D01*
X190725Y397532D01*
X190825Y398039D01*
Y443152D01*
X190725Y443659D01*
X190437Y444089D01*
X184972Y449555D01*
X185248Y450221D01*
X185384Y451252D01*
X185248Y452283D01*
X184850Y453244D01*
X184217Y454069D01*
X183392Y454702D01*
X182869Y454918D01*
Y455460D01*
X183392Y455676D01*
X184217Y456309D01*
X184850Y457134D01*
X185248Y458095D01*
X185384Y459126D01*
X185248Y460157D01*
X184850Y461118D01*
X184217Y461943D01*
X183425Y462550D01*
X183423Y462604D01*
X183701Y463050D01*
X185350D01*
Y470950D01*
D02*
G37*
G36*
X213500Y459500D02*
X210536D01*
X210590Y459086D01*
X210943Y458235D01*
X211504Y457504D01*
X212235Y456943D01*
X213086Y456590D01*
X213500Y456536D01*
Y459500D01*
D02*
G37*
G36*
X217464D02*
X214500D01*
Y456536D01*
X214914Y456590D01*
X215765Y456943D01*
X216496Y457504D01*
X217057Y458235D01*
X217410Y459086D01*
X217464Y459500D01*
D02*
G37*
G36*
X126464Y460000D02*
X123500D01*
Y457036D01*
X123914Y457090D01*
X124765Y457443D01*
X125496Y458004D01*
X126057Y458735D01*
X126410Y459586D01*
X126464Y460000D01*
D02*
G37*
%LPD*%
D20*
X116500Y459126D02*
X127126Y448500D01*
X143500D01*
X148500Y453500D01*
X181400Y451252D02*
X189500Y443152D01*
Y398039D02*
Y443152D01*
X184908Y393447D02*
X189500Y398039D01*
X181716Y393447D02*
X184908D01*
X175768Y387500D02*
X181716Y393447D01*
X171500Y387500D02*
X175768D01*
X116500Y411882D02*
X121882D01*
X145500Y435500D01*
D21*
X202500D02*
X206740Y439740D01*
Y453260D01*
D22*
X197000Y463000D02*
X206740Y453260D01*
X197000Y463000D02*
Y476500D01*
D23*
X181500Y397500D02*
X186000D01*
X187800Y399300D01*
Y436978D01*
X181400Y443378D02*
X187800Y436978D01*
X183999Y402500D02*
X185750Y404250D01*
X176500Y402500D02*
X183999D01*
X171500Y397500D02*
X176500Y402500D01*
X175626Y459126D02*
X181400D01*
X145000Y428500D02*
X175626Y459126D01*
X181400Y435504D02*
X185750Y431154D01*
Y404250D02*
Y431154D01*
X161500Y397500D02*
Y439500D01*
D25*
X142000Y398000D02*
D03*
Y388000D02*
D03*
X128500Y398000D02*
D03*
Y388000D02*
D03*
X115000Y398000D02*
D03*
Y388000D02*
D03*
X161500Y387500D02*
D03*
Y397500D02*
D03*
X171500Y387500D02*
D03*
Y397500D02*
D03*
X181500Y387500D02*
D03*
X207500Y490000D02*
D03*
X185500D02*
D03*
D26*
X142000Y378000D02*
D03*
X128500D02*
D03*
X115000D02*
D03*
D27*
X181500Y397500D02*
D03*
X217500Y490000D02*
D03*
X195500D02*
D03*
D28*
X197500Y410437D02*
D03*
D29*
Y402563D02*
D03*
D30*
X116500Y411882D02*
D03*
Y419756D02*
D03*
Y427630D02*
D03*
Y435504D02*
D03*
Y443378D02*
D03*
Y451252D02*
D03*
Y459126D02*
D03*
X181400Y411882D02*
D03*
Y419756D02*
D03*
Y427630D02*
D03*
Y435504D02*
D03*
Y443378D02*
D03*
Y451252D02*
D03*
Y459126D02*
D03*
D31*
X116500Y467000D02*
D03*
X181400D02*
D03*
D32*
X157227Y433000D02*
D03*
X214000Y460000D02*
D03*
X206740Y453260D02*
D03*
X197000Y476500D02*
D03*
X161232Y489732D02*
D03*
X186744Y477000D02*
D03*
X123000Y460500D02*
D03*
X148500Y453500D02*
D03*
X145000Y428500D02*
D03*
X202500Y435500D02*
D03*
X161500Y439500D02*
D03*
X145500Y435500D02*
D03*
M02*
