%FSTAX23Y23*%
%MOIN*%
%SFA1B1*%

%IPPOS*%
%AMD10*
4,1,4,0.022200,-0.002800,-0.002800,0.022200,-0.022200,0.002800,0.002800,-0.022200,0.022200,-0.002800,0.0*
%
%AMD11*
4,1,4,-0.002800,-0.022200,0.022200,0.002800,0.002800,0.022200,-0.022200,-0.002800,-0.002800,-0.022200,0.0*
%
%AMD16*
4,1,4,0.027100,0.011800,0.011800,0.027100,-0.027100,-0.011800,-0.011800,-0.027100,0.027100,0.011800,0.0*
1,1,0.021650,0.019400,0.019400*
1,1,0.021650,-0.019400,-0.019400*
%
%AMD17*
4,1,4,-0.011800,0.027100,-0.027100,0.011800,0.011800,-0.027100,0.027100,-0.011800,-0.011800,0.027100,0.0*
1,1,0.021650,-0.019400,0.019400*
1,1,0.021650,0.019400,-0.019400*
%
G04~CAMADD=10~9~0.0~0.0~354.3~275.6~0.0~0.0~0~0.0~0.0~0.0~0.0~0~0.0~0.0~0.0~0.0~0~0.0~0.0~0.0~315.0~444.0~443.0*
%ADD10D10*%
G04~CAMADD=11~9~0.0~0.0~354.3~275.6~0.0~0.0~0~0.0~0.0~0.0~0.0~0~0.0~0.0~0.0~0.0~0~0.0~0.0~0.0~225.0~444.0~443.0*
%ADD11D11*%
%ADD12R,0.035430X0.027560*%
%ADD13R,0.027560X0.035430*%
%ADD14R,0.248820X0.092910*%
%ADD15O,0.015750X0.033470*%
G04~CAMADD=16~3~0.0~0.0~216.5~767.7~0.0~0.0~0~0.0~0.0~0.0~0.0~0~0.0~0.0~0.0~0.0~0~0.0~0.0~0.0~315.0~606.0~606.0*
%ADD16D16*%
G04~CAMADD=17~3~0.0~0.0~216.5~767.7~0.0~0.0~0~0.0~0.0~0.0~0.0~0~0.0~0.0~0.0~0.0~0~0.0~0.0~0.0~45.0~606.0~606.0*
%ADD17D17*%
%ADD18O,0.090550X0.031500*%
%ADD19O,0.023620X0.037400*%
G54D10*
X0125Y0455D03*
X01289Y04589D03*
X01299Y04679D03*
X0126Y0464D03*
X01685Y04215D03*
X01724Y04254D03*
X01615Y0414D03*
X01654Y04179D03*
G54D11*
X01685Y04594D03*
X01724Y04555D03*
G54D12*
X0214Y04702D03*
Y04647D03*
X0192Y04772D03*
Y04717D03*
Y04667D03*
Y04612D03*
G54D13*
X02022Y04745D03*
X02077D03*
G54D14*
X02025Y04451D03*
Y04268D03*
G54D15*
X01644Y0469D03*
X0167D03*
X01695D03*
X01644Y04779D03*
X0167D03*
X01695D03*
G54D16*
X01546Y04612D03*
X01569Y0459D03*
X01591Y04568D03*
X01613Y04546D03*
X01636Y04523D03*
X01658Y04501D03*
X0168Y04479D03*
X01702Y04456D03*
X01423Y04177D03*
X014Y04199D03*
X01378Y04221D03*
X01356Y04243D03*
X01333Y04266D03*
X01311Y04288D03*
X01289Y0431D03*
X01267Y04333D03*
G54D17*
X01702Y04333D03*
X0168Y0431D03*
X01658Y04288D03*
X01636Y04266D03*
X01613Y04243D03*
X01591Y04221D03*
X01569Y04199D03*
X01546Y04177D03*
X01267Y04456D03*
X01289Y04479D03*
X01311Y04501D03*
X01333Y04523D03*
X01356Y04546D03*
X01378Y04568D03*
X014Y0459D03*
X01423Y04612D03*
G54D18*
X01612Y0485D03*
X01277D03*
G54D19*
X02067Y04689D03*
X0203D03*
X01992D03*
X02067Y0458D03*
X0203D03*
X01992D03*
M02*