%FSLAX25Y25*%
%MOIN*%
G70*
G01*
G75*
G04 Layer_Color=32768*
G04:AMPARAMS|DCode=10|XSize=35.43mil|YSize=27.56mil|CornerRadius=0mil|HoleSize=0mil|Usage=FLASHONLY|Rotation=315.000|XOffset=0mil|YOffset=0mil|HoleType=Round|Shape=Rectangle|*
%AMROTATEDRECTD10*
4,1,4,-0.02227,0.00278,-0.00278,0.02227,0.02227,-0.00278,0.00278,-0.02227,-0.02227,0.00278,0.0*
%
%ADD10ROTATEDRECTD10*%

G04:AMPARAMS|DCode=11|XSize=35.43mil|YSize=27.56mil|CornerRadius=0mil|HoleSize=0mil|Usage=FLASHONLY|Rotation=225.000|XOffset=0mil|YOffset=0mil|HoleType=Round|Shape=Rectangle|*
%AMROTATEDRECTD11*
4,1,4,0.00278,0.02227,0.02227,0.00278,-0.00278,-0.02227,-0.02227,-0.00278,0.00278,0.02227,0.0*
%
%ADD11ROTATEDRECTD11*%

%ADD12R,0.03543X0.02756*%
%ADD13R,0.02756X0.03543*%
%ADD14R,0.24882X0.09291*%
%ADD15O,0.01575X0.03347*%
G04:AMPARAMS|DCode=16|XSize=21.65mil|YSize=76.77mil|CornerRadius=0mil|HoleSize=0mil|Usage=FLASHONLY|Rotation=315.000|XOffset=0mil|YOffset=0mil|HoleType=Round|Shape=Round|*
%AMOVALD16*
21,1,0.05512,0.02165,0.00000,0.00000,45.0*
1,1,0.02165,-0.01949,-0.01949*
1,1,0.02165,0.01949,0.01949*
%
%ADD16OVALD16*%

G04:AMPARAMS|DCode=17|XSize=21.65mil|YSize=76.77mil|CornerRadius=0mil|HoleSize=0mil|Usage=FLASHONLY|Rotation=45.000|XOffset=0mil|YOffset=0mil|HoleType=Round|Shape=Round|*
%AMOVALD17*
21,1,0.05512,0.02165,0.00000,0.00000,135.0*
1,1,0.02165,0.01949,-0.01949*
1,1,0.02165,-0.01949,0.01949*
%
%ADD17OVALD17*%

%ADD18O,0.09055X0.03150*%
%ADD19O,0.02362X0.03740*%
%ADD20C,0.01000*%
%ADD21C,0.04000*%
%ADD22C,0.02000*%
%ADD23C,0.01200*%
%ADD24C,0.02500*%
%ADD25C,0.05906*%
%ADD26R,0.05906X0.05906*%
%ADD27R,0.05906X0.05906*%
%ADD28R,0.05512X0.05512*%
%ADD29C,0.05512*%
%ADD30C,0.06299*%
%ADD31R,0.06299X0.06299*%
%ADD32C,0.05000*%
%ADD33C,0.00984*%
%ADD34C,0.02362*%
%ADD35C,0.00787*%
%ADD36C,0.00500*%
%ADD37C,0.00400*%
G04:AMPARAMS|DCode=38|XSize=43.43mil|YSize=35.56mil|CornerRadius=0mil|HoleSize=0mil|Usage=FLASHONLY|Rotation=315.000|XOffset=0mil|YOffset=0mil|HoleType=Round|Shape=Rectangle|*
%AMROTATEDRECTD38*
4,1,4,-0.02793,0.00278,-0.00278,0.02793,0.02793,-0.00278,0.00278,-0.02793,-0.02793,0.00278,0.0*
%
%ADD38ROTATEDRECTD38*%

G04:AMPARAMS|DCode=39|XSize=43.43mil|YSize=35.56mil|CornerRadius=0mil|HoleSize=0mil|Usage=FLASHONLY|Rotation=225.000|XOffset=0mil|YOffset=0mil|HoleType=Round|Shape=Rectangle|*
%AMROTATEDRECTD39*
4,1,4,0.00278,0.02793,0.02793,0.00278,-0.00278,-0.02793,-0.02793,-0.00278,0.00278,0.02793,0.0*
%
%ADD39ROTATEDRECTD39*%

%ADD40R,0.04343X0.03556*%
%ADD41R,0.03556X0.04343*%
%ADD42R,0.25682X0.10091*%
%ADD43O,0.02375X0.04147*%
G04:AMPARAMS|DCode=44|XSize=29.65mil|YSize=84.77mil|CornerRadius=0mil|HoleSize=0mil|Usage=FLASHONLY|Rotation=315.000|XOffset=0mil|YOffset=0mil|HoleType=Round|Shape=Round|*
%AMOVALD44*
21,1,0.05512,0.02965,0.00000,0.00000,45.0*
1,1,0.02965,-0.01949,-0.01949*
1,1,0.02965,0.01949,0.01949*
%
%ADD44OVALD44*%

G04:AMPARAMS|DCode=45|XSize=29.65mil|YSize=84.77mil|CornerRadius=0mil|HoleSize=0mil|Usage=FLASHONLY|Rotation=45.000|XOffset=0mil|YOffset=0mil|HoleType=Round|Shape=Round|*
%AMOVALD45*
21,1,0.05512,0.02965,0.00000,0.00000,135.0*
1,1,0.02965,0.01949,-0.01949*
1,1,0.02965,-0.01949,0.01949*
%
%ADD45OVALD45*%

%ADD46O,0.09855X0.03950*%
%ADD47O,0.03162X0.04540*%
%ADD48C,0.06706*%
%ADD49R,0.06706X0.06706*%
%ADD50R,0.06706X0.06706*%
%ADD51R,0.06312X0.06312*%
%ADD52C,0.06312*%
%ADD53C,0.07099*%
%ADD54R,0.07099X0.07099*%
%ADD55C,0.05800*%
%ADD56C,0.00394*%
%ADD57C,0.00197*%
%ADD58C,0.00300*%
D56*
X200532Y436000D02*
X204468D01*
X202500Y434031D02*
Y437968D01*
X165032Y473500D02*
X168968D01*
X167000Y471531D02*
Y475468D01*
X147108Y438108D02*
X149892Y440892D01*
X147108D02*
X149892Y438108D01*
X144500Y483032D02*
Y486969D01*
X142532Y485000D02*
X146468D01*
X201031Y463500D02*
X204969D01*
X203000Y461531D02*
Y465469D01*
D57*
X125678Y458322D02*
X128322Y455678D01*
X125678Y455678D02*
X128322Y458322D01*
X122267Y455330D02*
X128670Y461733D01*
X125330Y452267D02*
X131733Y458670D01*
X122267Y455330D02*
X125330Y452267D01*
X128670Y461733D02*
X131733Y458670D01*
X126678Y467322D02*
X129322Y464678D01*
X126678D02*
X129322Y467322D01*
X126330Y461267D02*
X132733Y467670D01*
X123267Y464330D02*
X129670Y470733D01*
X132733Y467670D01*
X123267Y464330D02*
X126330Y461267D01*
X169178Y424822D02*
X171822Y422178D01*
X169178Y422178D02*
X171822Y424822D01*
X165767Y421830D02*
X172170Y428233D01*
X168830Y418767D02*
X175233Y425170D01*
X165767Y421830D02*
X168830Y418767D01*
X172170Y428233D02*
X175233Y425170D01*
X162178Y417322D02*
X164822Y414678D01*
X162178Y414678D02*
X164822Y417322D01*
X158767Y414330D02*
X165170Y420733D01*
X161830Y411267D02*
X168233Y417670D01*
X158767Y414330D02*
X161830Y411267D01*
X165170Y420733D02*
X168233Y417670D01*
X169178Y456178D02*
X171822Y458822D01*
X169178Y458822D02*
X171822Y456178D01*
X168830Y462233D02*
X175233Y455830D01*
X165767Y459170D02*
X172170Y452767D01*
X165767Y459170D02*
X168830Y462233D01*
X172170Y452767D02*
X175233Y455830D01*
X212130Y467500D02*
X215870D01*
X214000Y465630D02*
Y469370D01*
X216165Y462972D02*
Y472028D01*
X211835Y462972D02*
Y472028D01*
X216165D01*
X211835Y462972D02*
X216165D01*
X190130Y474500D02*
X193870D01*
X192000Y472630D02*
Y476370D01*
X194165Y469973D02*
Y479028D01*
X189835Y469973D02*
Y479028D01*
X194165D01*
X189835Y469973D02*
X194165D01*
X205000Y472630D02*
Y476370D01*
X203130Y474500D02*
X206870D01*
X200472Y476665D02*
X209528D01*
X200472Y472335D02*
X209528D01*
X200472D02*
Y476665D01*
X209528Y472335D02*
Y476665D01*
X190130Y464000D02*
X193870D01*
X192000Y462130D02*
Y465870D01*
X194165Y459473D02*
Y468528D01*
X189835Y459473D02*
Y468528D01*
X194165D01*
X189835Y459473D02*
X194165D01*
X216083Y421236D02*
Y450764D01*
X188917Y421236D02*
Y450764D01*
X216083D01*
X188917Y421236D02*
X216083D01*
X161685Y466413D02*
Y480587D01*
X172315Y466413D02*
Y480587D01*
X161685Y466413D02*
X172315D01*
X161685Y480587D02*
X172315D01*
X113701Y439500D02*
X148500Y404701D01*
Y474298D02*
X183299Y439500D01*
X148500Y404701D02*
X183299Y439500D01*
X113701D02*
X148500Y474298D01*
X122256Y476929D02*
X166744D01*
X122256Y493071D02*
X166744D01*
Y476929D02*
Y493071D01*
X122256Y476929D02*
Y493071D01*
X210087Y455232D02*
Y471768D01*
X195913Y455232D02*
Y471768D01*
X210087D01*
X195913Y455232D02*
X210087D01*
D58*
X190500Y419500D02*
X221000D01*
Y393500D02*
Y419500D01*
X190500Y393500D02*
X221000D01*
X190500D02*
Y419500D01*
M02*
