%FSTAX23Y23*%
%MOIN*%
%SFA1B1*%

%IPPOS*%
%ADD36C,0.005000*%
%ADD56C,0.006670*%
G54D36*
X014Y0396D02*
Y04D01*
X0144*
Y0396*
X014*
Y0386D02*
Y039D01*
X0144*
Y0386*
X014*
Y0376D02*
Y038D01*
X0144*
Y0376*
X014*
X01265Y0396D02*
Y04D01*
X01305*
Y0396*
X01265*
Y0386D02*
Y039D01*
X01305*
Y0386*
X01265*
Y0376D02*
Y038D01*
X01305*
Y0376*
X01265*
X0113Y0396D02*
Y04D01*
X0117*
Y0396*
X0113*
Y0386D02*
Y039D01*
X0117*
Y0386*
X0113*
Y0376D02*
Y038D01*
X0117*
Y0376*
X0113*
X01595Y03855D02*
Y03895D01*
X01635*
Y03855*
X01595*
Y03955D02*
Y03995D01*
X01635*
Y03955*
X01595*
X01695Y03855D02*
Y03895D01*
X01735*
Y03855*
X01695*
Y03955D02*
Y03995D01*
X01735*
Y03955*
X01695*
X01795Y03855D02*
Y03895D01*
X01835*
Y03855*
X01795*
Y03955D02*
Y03995D01*
X01835*
Y03955*
X01795*
X02055Y0488D02*
Y0492D01*
X02095*
Y0488*
X02055*
X02155D02*
Y0492D01*
X02195*
Y0488*
X02155*
X01835D02*
Y0492D01*
X01875*
Y0488*
X01835*
X01935D02*
Y0492D01*
X01975*
Y0488*
X01935*
X01572Y0431D02*
X01552Y0435D01*
X01592*
X01572Y0431*
X0214Y0458D02*
X0212Y0462D01*
X0216*
X0214Y0458*
X02067Y04512D02*
X02047Y04552D01*
X02087*
X02067Y04512*
X0197Y04745D02*
X0195Y04785D01*
X0199*
X0197Y04745*
X01612Y04877D02*
X01592Y04917D01*
X01632*
X01612Y04877*
X01867Y0475D02*
X01847Y0479D01*
X01887*
X01867Y0475*
X0123Y04585D02*
X0121Y04625D01*
X0125*
X0123Y04585*
X01485Y04515D02*
X01465Y04555D01*
X01505*
X01485Y04515*
X0145Y04265D02*
X0143Y04305D01*
X0147*
X0145Y04265*
X02025Y04335D02*
X02005Y04375D01*
X02045*
X02025Y04335*
X01615Y04375D02*
X01595Y04415D01*
X01635*
X01615Y04375*
X01455Y04335D02*
X01435Y04375D01*
X01475*
X01455Y04335*
G54D56*
X01995Y04104D02*
D01*
X01994Y04105*
X01994Y04107*
X01994Y04108*
X01994Y04109*
X01993Y04111*
X01993Y04112*
X01992Y04113*
X01991Y04114*
X01991Y04116*
X0199Y04117*
X01989Y04118*
X01988Y04119*
X01987Y0412*
X01986Y0412*
X01985Y04121*
X01983Y04122*
X01982Y04122*
X01981Y04123*
X01979Y04123*
X01978Y04124*
X01977Y04124*
X01975Y04124*
X01974*
X01972Y04124*
X01971Y04124*
X0197Y04123*
X01968Y04123*
X01967Y04122*
X01966Y04122*
X01965Y04121*
X01963Y0412*
X01962Y0412*
X01961Y04119*
X0196Y04118*
X01959Y04117*
X01958Y04116*
X01958Y04114*
X01957Y04113*
X01956Y04112*
X01956Y04111*
X01955Y04109*
X01955Y04108*
X01955Y04107*
X01955Y04105*
X01955Y04104*
X01955Y04102*
X01955Y04101*
X01955Y041*
X01955Y04098*
X01956Y04097*
X01956Y04096*
X01957Y04094*
X01958Y04093*
X01958Y04092*
X01959Y04091*
X0196Y0409*
X01961Y04089*
X01962Y04088*
X01963Y04087*
X01965Y04087*
X01966Y04086*
X01967Y04085*
X01968Y04085*
X0197Y04084*
X01971Y04084*
X01972Y04084*
X01974Y04084*
X01975*
X01977Y04084*
X01978Y04084*
X01979Y04084*
X01981Y04085*
X01982Y04085*
X01983Y04086*
X01985Y04087*
X01986Y04087*
X01987Y04088*
X01988Y04089*
X01989Y0409*
X0199Y04091*
X01991Y04092*
X01991Y04093*
X01992Y04094*
X01993Y04096*
X01993Y04097*
X01994Y04098*
X01994Y041*
X01994Y04101*
X01994Y04102*
X01995Y04104*
Y04025D02*
D01*
X01994Y04027*
X01994Y04028*
X01994Y04029*
X01994Y04031*
X01993Y04032*
X01993Y04033*
X01992Y04035*
X01991Y04036*
X01991Y04037*
X0199Y04038*
X01989Y04039*
X01988Y0404*
X01987Y04041*
X01986Y04042*
X01985Y04042*
X01983Y04043*
X01982Y04044*
X01981Y04044*
X01979Y04045*
X01978Y04045*
X01977Y04045*
X01975Y04045*
X01974*
X01972Y04045*
X01971Y04045*
X0197Y04045*
X01968Y04044*
X01967Y04044*
X01966Y04043*
X01965Y04042*
X01963Y04042*
X01962Y04041*
X01961Y0404*
X0196Y04039*
X01959Y04038*
X01958Y04037*
X01958Y04036*
X01957Y04035*
X01956Y04033*
X01956Y04032*
X01955Y04031*
X01955Y04029*
X01955Y04028*
X01955Y04027*
X01955Y04025*
X01955Y04024*
X01955Y04022*
X01955Y04021*
X01955Y0402*
X01956Y04018*
X01956Y04017*
X01957Y04016*
X01958Y04015*
X01958Y04013*
X01959Y04012*
X0196Y04011*
X01961Y0401*
X01962Y04009*
X01963Y04009*
X01965Y04008*
X01966Y04007*
X01967Y04007*
X01968Y04006*
X0197Y04006*
X01971Y04005*
X01972Y04005*
X01974Y04005*
X01975*
X01977Y04005*
X01978Y04005*
X01979Y04006*
X01981Y04006*
X01982Y04007*
X01983Y04007*
X01985Y04008*
X01986Y04009*
X01987Y04009*
X01988Y0401*
X01989Y04011*
X0199Y04012*
X01991Y04013*
X01991Y04015*
X01992Y04016*
X01993Y04017*
X01993Y04018*
X01994Y0402*
X01994Y04021*
X01994Y04022*
X01994Y04024*
X01995Y04025*
X01185Y04118D02*
D01*
X01184Y0412*
X01184Y04121*
X01184Y04122*
X01184Y04124*
X01183Y04125*
X01183Y04126*
X01182Y04128*
X01181Y04129*
X01181Y0413*
X0118Y04131*
X01179Y04132*
X01178Y04133*
X01177Y04134*
X01176Y04135*
X01175Y04136*
X01173Y04136*
X01172Y04137*
X01171Y04137*
X01169Y04138*
X01168Y04138*
X01167Y04138*
X01165Y04138*
X01164*
X01162Y04138*
X01161Y04138*
X0116Y04138*
X01158Y04137*
X01157Y04137*
X01156Y04136*
X01155Y04136*
X01153Y04135*
X01152Y04134*
X01151Y04133*
X0115Y04132*
X01149Y04131*
X01148Y0413*
X01148Y04129*
X01147Y04128*
X01146Y04126*
X01146Y04125*
X01145Y04124*
X01145Y04122*
X01145Y04121*
X01145Y0412*
X01145Y04118*
X01145Y04117*
X01145Y04116*
X01145Y04114*
X01145Y04113*
X01146Y04111*
X01146Y0411*
X01147Y04109*
X01148Y04108*
X01148Y04107*
X01149Y04105*
X0115Y04104*
X01151Y04103*
X01152Y04103*
X01153Y04102*
X01155Y04101*
X01156Y041*
X01157Y041*
X01158Y04099*
X0116Y04099*
X01161Y04099*
X01162Y04098*
X01164Y04098*
X01165*
X01167Y04098*
X01168Y04099*
X01169Y04099*
X01171Y04099*
X01172Y041*
X01173Y041*
X01175Y04101*
X01176Y04102*
X01177Y04103*
X01178Y04103*
X01179Y04104*
X0118Y04105*
X01181Y04107*
X01181Y04108*
X01182Y04109*
X01183Y0411*
X01183Y04111*
X01184Y04113*
X01184Y04114*
X01184Y04116*
X01184Y04117*
X01185Y04118*
Y04197D02*
D01*
X01184Y04198*
X01184Y042*
X01184Y04201*
X01184Y04203*
X01183Y04204*
X01183Y04205*
X01182Y04206*
X01181Y04208*
X01181Y04209*
X0118Y0421*
X01179Y04211*
X01178Y04212*
X01177Y04213*
X01176Y04214*
X01175Y04214*
X01173Y04215*
X01172Y04216*
X01171Y04216*
X01169Y04216*
X01168Y04217*
X01167Y04217*
X01165Y04217*
X01164*
X01162Y04217*
X01161Y04217*
X0116Y04216*
X01158Y04216*
X01157Y04216*
X01156Y04215*
X01155Y04214*
X01153Y04214*
X01152Y04213*
X01151Y04212*
X0115Y04211*
X01149Y0421*
X01148Y04209*
X01148Y04208*
X01147Y04206*
X01146Y04205*
X01146Y04204*
X01145Y04203*
X01145Y04201*
X01145Y042*
X01145Y04198*
X01145Y04197*
X01145Y04196*
X01145Y04194*
X01145Y04193*
X01145Y04192*
X01146Y0419*
X01146Y04189*
X01147Y04188*
X01148Y04186*
X01148Y04185*
X01149Y04184*
X0115Y04183*
X01151Y04182*
X01152Y04181*
X01153Y0418*
X01155Y0418*
X01156Y04179*
X01157Y04179*
X01158Y04178*
X0116Y04178*
X01161Y04177*
X01162Y04177*
X01164Y04177*
X01165*
X01167Y04177*
X01168Y04177*
X01169Y04178*
X01171Y04178*
X01172Y04179*
X01173Y04179*
X01175Y0418*
X01176Y0418*
X01177Y04181*
X01178Y04182*
X01179Y04183*
X0118Y04184*
X01181Y04185*
X01181Y04186*
X01182Y04188*
X01183Y04189*
X01183Y0419*
X01184Y04192*
X01184Y04193*
X01184Y04194*
X01184Y04196*
X01185Y04197*
Y04276D02*
D01*
X01184Y04277*
X01184Y04279*
X01184Y0428*
X01184Y04281*
X01183Y04283*
X01183Y04284*
X01182Y04285*
X01181Y04286*
X01181Y04288*
X0118Y04289*
X01179Y0429*
X01178Y04291*
X01177Y04292*
X01176Y04292*
X01175Y04293*
X01173Y04294*
X01172Y04294*
X01171Y04295*
X01169Y04295*
X01168Y04295*
X01167Y04296*
X01165Y04296*
X01164*
X01162Y04296*
X01161Y04295*
X0116Y04295*
X01158Y04295*
X01157Y04294*
X01156Y04294*
X01155Y04293*
X01153Y04292*
X01152Y04292*
X01151Y04291*
X0115Y0429*
X01149Y04289*
X01148Y04288*
X01148Y04286*
X01147Y04285*
X01146Y04284*
X01146Y04283*
X01145Y04281*
X01145Y0428*
X01145Y04279*
X01145Y04277*
X01145Y04276*
X01145Y04274*
X01145Y04273*
X01145Y04272*
X01145Y0427*
X01146Y04269*
X01146Y04268*
X01147Y04266*
X01148Y04265*
X01148Y04264*
X01149Y04263*
X0115Y04262*
X01151Y04261*
X01152Y0426*
X01153Y04259*
X01155Y04258*
X01156Y04258*
X01157Y04257*
X01158Y04257*
X0116Y04256*
X01161Y04256*
X01162Y04256*
X01164Y04256*
X01165*
X01167Y04256*
X01168Y04256*
X01169Y04256*
X01171Y04257*
X01172Y04257*
X01173Y04258*
X01175Y04258*
X01176Y04259*
X01177Y0426*
X01178Y04261*
X01179Y04262*
X0118Y04263*
X01181Y04264*
X01181Y04265*
X01182Y04266*
X01183Y04268*
X01183Y04269*
X01184Y0427*
X01184Y04272*
X01184Y04273*
X01184Y04274*
X01185Y04276*
Y04355D02*
D01*
X01184Y04356*
X01184Y04357*
X01184Y04359*
X01184Y0436*
X01183Y04361*
X01183Y04363*
X01182Y04364*
X01181Y04365*
X01181Y04366*
X0118Y04367*
X01179Y04368*
X01178Y04369*
X01177Y0437*
X01176Y04371*
X01175Y04372*
X01173Y04373*
X01172Y04373*
X01171Y04374*
X01169Y04374*
X01168Y04374*
X01167Y04374*
X01165Y04375*
X01164*
X01162Y04374*
X01161Y04374*
X0116Y04374*
X01158Y04374*
X01157Y04373*
X01156Y04373*
X01155Y04372*
X01153Y04371*
X01152Y0437*
X01151Y04369*
X0115Y04368*
X01149Y04367*
X01148Y04366*
X01148Y04365*
X01147Y04364*
X01146Y04363*
X01146Y04361*
X01145Y0436*
X01145Y04359*
X01145Y04357*
X01145Y04356*
X01145Y04355*
X01145Y04353*
X01145Y04352*
X01145Y0435*
X01145Y04349*
X01146Y04348*
X01146Y04346*
X01147Y04345*
X01148Y04344*
X01148Y04343*
X01149Y04342*
X0115Y04341*
X01151Y0434*
X01152Y04339*
X01153Y04338*
X01155Y04337*
X01156Y04337*
X01157Y04336*
X01158Y04336*
X0116Y04335*
X01161Y04335*
X01162Y04335*
X01164Y04335*
X01165*
X01167Y04335*
X01168Y04335*
X01169Y04335*
X01171Y04336*
X01172Y04336*
X01173Y04337*
X01175Y04337*
X01176Y04338*
X01177Y04339*
X01178Y0434*
X01179Y04341*
X0118Y04342*
X01181Y04343*
X01181Y04344*
X01182Y04345*
X01183Y04346*
X01183Y04348*
X01184Y04349*
X01184Y0435*
X01184Y04352*
X01184Y04353*
X01185Y04355*
Y04433D02*
D01*
X01184Y04435*
X01184Y04436*
X01184Y04437*
X01184Y04439*
X01183Y0444*
X01183Y04441*
X01182Y04443*
X01181Y04444*
X01181Y04445*
X0118Y04446*
X01179Y04447*
X01178Y04448*
X01177Y04449*
X01176Y0445*
X01175Y04451*
X01173Y04451*
X01172Y04452*
X01171Y04452*
X01169Y04453*
X01168Y04453*
X01167Y04453*
X01165Y04453*
X01164*
X01162Y04453*
X01161Y04453*
X0116Y04453*
X01158Y04452*
X01157Y04452*
X01156Y04451*
X01155Y04451*
X01153Y0445*
X01152Y04449*
X01151Y04448*
X0115Y04447*
X01149Y04446*
X01148Y04445*
X01148Y04444*
X01147Y04443*
X01146Y04441*
X01146Y0444*
X01145Y04439*
X01145Y04437*
X01145Y04436*
X01145Y04435*
X01145Y04433*
X01145Y04432*
X01145Y0443*
X01145Y04429*
X01145Y04428*
X01146Y04426*
X01146Y04425*
X01147Y04424*
X01148Y04423*
X01148Y04422*
X01149Y0442*
X0115Y04419*
X01151Y04418*
X01152Y04418*
X01153Y04417*
X01155Y04416*
X01156Y04415*
X01157Y04415*
X01158Y04414*
X0116Y04414*
X01161Y04414*
X01162Y04413*
X01164Y04413*
X01165*
X01167Y04413*
X01168Y04414*
X01169Y04414*
X01171Y04414*
X01172Y04415*
X01173Y04415*
X01175Y04416*
X01176Y04417*
X01177Y04418*
X01178Y04418*
X01179Y04419*
X0118Y0442*
X01181Y04422*
X01181Y04423*
X01182Y04424*
X01183Y04425*
X01183Y04426*
X01184Y04428*
X01184Y04429*
X01184Y0443*
X01184Y04432*
X01185Y04433*
Y04512D02*
D01*
X01184Y04513*
X01184Y04515*
X01184Y04516*
X01184Y04518*
X01183Y04519*
X01183Y0452*
X01182Y04521*
X01181Y04523*
X01181Y04524*
X0118Y04525*
X01179Y04526*
X01178Y04527*
X01177Y04528*
X01176Y04529*
X01175Y04529*
X01173Y0453*
X01172Y04531*
X01171Y04531*
X01169Y04531*
X01168Y04532*
X01167Y04532*
X01165Y04532*
X01164*
X01162Y04532*
X01161Y04532*
X0116Y04531*
X01158Y04531*
X01157Y04531*
X01156Y0453*
X01155Y04529*
X01153Y04529*
X01152Y04528*
X01151Y04527*
X0115Y04526*
X01149Y04525*
X01148Y04524*
X01148Y04523*
X01147Y04521*
X01146Y0452*
X01146Y04519*
X01145Y04518*
X01145Y04516*
X01145Y04515*
X01145Y04513*
X01145Y04512*
X01145Y04511*
X01145Y04509*
X01145Y04508*
X01145Y04507*
X01146Y04505*
X01146Y04504*
X01147Y04503*
X01148Y04501*
X01148Y045*
X01149Y04499*
X0115Y04498*
X01151Y04497*
X01152Y04496*
X01153Y04495*
X01155Y04495*
X01156Y04494*
X01157Y04493*
X01158Y04493*
X0116Y04493*
X01161Y04492*
X01162Y04492*
X01164Y04492*
X01165*
X01167Y04492*
X01168Y04492*
X01169Y04493*
X01171Y04493*
X01172Y04493*
X01173Y04494*
X01175Y04495*
X01176Y04495*
X01177Y04496*
X01178Y04497*
X01179Y04498*
X0118Y04499*
X01181Y045*
X01181Y04501*
X01182Y04503*
X01183Y04504*
X01183Y04505*
X01184Y04507*
X01184Y04508*
X01184Y04509*
X01184Y04511*
X01185Y04512*
Y04591D02*
D01*
X01184Y04592*
X01184Y04594*
X01184Y04595*
X01184Y04596*
X01183Y04598*
X01183Y04599*
X01182Y046*
X01181Y04601*
X01181Y04603*
X0118Y04604*
X01179Y04605*
X01178Y04606*
X01177Y04607*
X01176Y04607*
X01175Y04608*
X01173Y04609*
X01172Y04609*
X01171Y0461*
X01169Y0461*
X01168Y0461*
X01167Y04611*
X01165Y04611*
X01164*
X01162Y04611*
X01161Y0461*
X0116Y0461*
X01158Y0461*
X01157Y04609*
X01156Y04609*
X01155Y04608*
X01153Y04607*
X01152Y04607*
X01151Y04606*
X0115Y04605*
X01149Y04604*
X01148Y04603*
X01148Y04601*
X01147Y046*
X01146Y04599*
X01146Y04598*
X01145Y04596*
X01145Y04595*
X01145Y04594*
X01145Y04592*
X01145Y04591*
X01145Y04589*
X01145Y04588*
X01145Y04587*
X01145Y04585*
X01146Y04584*
X01146Y04583*
X01147Y04581*
X01148Y0458*
X01148Y04579*
X01149Y04578*
X0115Y04577*
X01151Y04576*
X01152Y04575*
X01153Y04574*
X01155Y04573*
X01156Y04573*
X01157Y04572*
X01158Y04572*
X0116Y04571*
X01161Y04571*
X01162Y04571*
X01164Y04571*
X01165*
X01167Y04571*
X01168Y04571*
X01169Y04571*
X01171Y04572*
X01172Y04572*
X01173Y04573*
X01175Y04573*
X01176Y04574*
X01177Y04575*
X01178Y04576*
X01179Y04577*
X0118Y04578*
X01181Y04579*
X01181Y0458*
X01182Y04581*
X01183Y04583*
X01183Y04584*
X01184Y04585*
X01184Y04587*
X01184Y04588*
X01184Y04589*
X01185Y04591*
Y0467D02*
D01*
X01184Y04671*
X01184Y04672*
X01184Y04674*
X01184Y04675*
X01183Y04676*
X01183Y04678*
X01182Y04679*
X01181Y0468*
X01181Y04681*
X0118Y04682*
X01179Y04683*
X01178Y04684*
X01177Y04685*
X01176Y04686*
X01175Y04687*
X01173Y04687*
X01172Y04688*
X01171Y04689*
X01169Y04689*
X01168Y04689*
X01167Y04689*
X01165Y04689*
X01164*
X01162Y04689*
X01161Y04689*
X0116Y04689*
X01158Y04689*
X01157Y04688*
X01156Y04687*
X01155Y04687*
X01153Y04686*
X01152Y04685*
X01151Y04684*
X0115Y04683*
X01149Y04682*
X01148Y04681*
X01148Y0468*
X01147Y04679*
X01146Y04678*
X01146Y04676*
X01145Y04675*
X01145Y04674*
X01145Y04672*
X01145Y04671*
X01145Y0467*
X01145Y04668*
X01145Y04667*
X01145Y04665*
X01145Y04664*
X01146Y04663*
X01146Y04661*
X01147Y0466*
X01148Y04659*
X01148Y04658*
X01149Y04657*
X0115Y04656*
X01151Y04655*
X01152Y04654*
X01153Y04653*
X01155Y04652*
X01156Y04652*
X01157Y04651*
X01158Y0465*
X0116Y0465*
X01161Y0465*
X01162Y0465*
X01164Y0465*
X01165*
X01167Y0465*
X01168Y0465*
X01169Y0465*
X01171Y0465*
X01172Y04651*
X01173Y04652*
X01175Y04652*
X01176Y04653*
X01177Y04654*
X01178Y04655*
X01179Y04656*
X0118Y04657*
X01181Y04658*
X01181Y04659*
X01182Y0466*
X01183Y04661*
X01183Y04663*
X01184Y04664*
X01184Y04665*
X01184Y04667*
X01184Y04668*
X01185Y0467*
X01834Y04118D02*
D01*
X01833Y0412*
X01833Y04121*
X01833Y04122*
X01833Y04124*
X01832Y04125*
X01832Y04126*
X01831Y04128*
X0183Y04129*
X0183Y0413*
X01829Y04131*
X01828Y04132*
X01827Y04133*
X01826Y04134*
X01825Y04135*
X01824Y04136*
X01822Y04136*
X01821Y04137*
X0182Y04137*
X01818Y04138*
X01817Y04138*
X01816Y04138*
X01814Y04138*
X01813*
X01811Y04138*
X0181Y04138*
X01809Y04138*
X01807Y04137*
X01806Y04137*
X01805Y04136*
X01804Y04136*
X01802Y04135*
X01801Y04134*
X018Y04133*
X01799Y04132*
X01798Y04131*
X01797Y0413*
X01797Y04129*
X01796Y04128*
X01795Y04126*
X01795Y04125*
X01794Y04124*
X01794Y04122*
X01794Y04121*
X01794Y0412*
X01794Y04118*
X01794Y04117*
X01794Y04116*
X01794Y04114*
X01794Y04113*
X01795Y04111*
X01795Y0411*
X01796Y04109*
X01797Y04108*
X01797Y04107*
X01798Y04105*
X01799Y04104*
X018Y04103*
X01801Y04103*
X01802Y04102*
X01804Y04101*
X01805Y041*
X01806Y041*
X01807Y04099*
X01809Y04099*
X0181Y04099*
X01811Y04098*
X01813Y04098*
X01814*
X01816Y04098*
X01817Y04099*
X01818Y04099*
X0182Y04099*
X01821Y041*
X01822Y041*
X01824Y04101*
X01825Y04102*
X01826Y04103*
X01827Y04103*
X01828Y04104*
X01829Y04105*
X0183Y04107*
X0183Y04108*
X01831Y04109*
X01832Y0411*
X01832Y04111*
X01833Y04113*
X01833Y04114*
X01833Y04116*
X01833Y04117*
X01834Y04118*
Y04197D02*
D01*
X01833Y04198*
X01833Y042*
X01833Y04201*
X01833Y04203*
X01832Y04204*
X01832Y04205*
X01831Y04206*
X0183Y04208*
X0183Y04209*
X01829Y0421*
X01828Y04211*
X01827Y04212*
X01826Y04213*
X01825Y04214*
X01824Y04214*
X01822Y04215*
X01821Y04216*
X0182Y04216*
X01818Y04216*
X01817Y04217*
X01816Y04217*
X01814Y04217*
X01813*
X01811Y04217*
X0181Y04217*
X01809Y04216*
X01807Y04216*
X01806Y04216*
X01805Y04215*
X01804Y04214*
X01802Y04214*
X01801Y04213*
X018Y04212*
X01799Y04211*
X01798Y0421*
X01797Y04209*
X01797Y04208*
X01796Y04206*
X01795Y04205*
X01795Y04204*
X01794Y04203*
X01794Y04201*
X01794Y042*
X01794Y04198*
X01794Y04197*
X01794Y04196*
X01794Y04194*
X01794Y04193*
X01794Y04192*
X01795Y0419*
X01795Y04189*
X01796Y04188*
X01797Y04186*
X01797Y04185*
X01798Y04184*
X01799Y04183*
X018Y04182*
X01801Y04181*
X01802Y0418*
X01804Y0418*
X01805Y04179*
X01806Y04179*
X01807Y04178*
X01809Y04178*
X0181Y04177*
X01811Y04177*
X01813Y04177*
X01814*
X01816Y04177*
X01817Y04177*
X01818Y04178*
X0182Y04178*
X01821Y04179*
X01822Y04179*
X01824Y0418*
X01825Y0418*
X01826Y04181*
X01827Y04182*
X01828Y04183*
X01829Y04184*
X0183Y04185*
X0183Y04186*
X01831Y04188*
X01832Y04189*
X01832Y0419*
X01833Y04192*
X01833Y04193*
X01833Y04194*
X01833Y04196*
X01834Y04197*
Y04276D02*
D01*
X01833Y04277*
X01833Y04279*
X01833Y0428*
X01833Y04281*
X01832Y04283*
X01832Y04284*
X01831Y04285*
X0183Y04286*
X0183Y04288*
X01829Y04289*
X01828Y0429*
X01827Y04291*
X01826Y04292*
X01825Y04292*
X01824Y04293*
X01822Y04294*
X01821Y04294*
X0182Y04295*
X01818Y04295*
X01817Y04295*
X01816Y04296*
X01814Y04296*
X01813*
X01811Y04296*
X0181Y04295*
X01809Y04295*
X01807Y04295*
X01806Y04294*
X01805Y04294*
X01804Y04293*
X01802Y04292*
X01801Y04292*
X018Y04291*
X01799Y0429*
X01798Y04289*
X01797Y04288*
X01797Y04286*
X01796Y04285*
X01795Y04284*
X01795Y04283*
X01794Y04281*
X01794Y0428*
X01794Y04279*
X01794Y04277*
X01794Y04276*
X01794Y04274*
X01794Y04273*
X01794Y04272*
X01794Y0427*
X01795Y04269*
X01795Y04268*
X01796Y04266*
X01797Y04265*
X01797Y04264*
X01798Y04263*
X01799Y04262*
X018Y04261*
X01801Y0426*
X01802Y04259*
X01804Y04258*
X01805Y04258*
X01806Y04257*
X01807Y04257*
X01809Y04256*
X0181Y04256*
X01811Y04256*
X01813Y04256*
X01814*
X01816Y04256*
X01817Y04256*
X01818Y04256*
X0182Y04257*
X01821Y04257*
X01822Y04258*
X01824Y04258*
X01825Y04259*
X01826Y0426*
X01827Y04261*
X01828Y04262*
X01829Y04263*
X0183Y04264*
X0183Y04265*
X01831Y04266*
X01832Y04268*
X01832Y04269*
X01833Y0427*
X01833Y04272*
X01833Y04273*
X01833Y04274*
X01834Y04276*
Y04355D02*
D01*
X01833Y04356*
X01833Y04357*
X01833Y04359*
X01833Y0436*
X01832Y04361*
X01832Y04363*
X01831Y04364*
X0183Y04365*
X0183Y04366*
X01829Y04367*
X01828Y04368*
X01827Y04369*
X01826Y0437*
X01825Y04371*
X01824Y04372*
X01822Y04373*
X01821Y04373*
X0182Y04374*
X01818Y04374*
X01817Y04374*
X01816Y04374*
X01814Y04375*
X01813*
X01811Y04374*
X0181Y04374*
X01809Y04374*
X01807Y04374*
X01806Y04373*
X01805Y04373*
X01804Y04372*
X01802Y04371*
X01801Y0437*
X018Y04369*
X01799Y04368*
X01798Y04367*
X01797Y04366*
X01797Y04365*
X01796Y04364*
X01795Y04363*
X01795Y04361*
X01794Y0436*
X01794Y04359*
X01794Y04357*
X01794Y04356*
X01794Y04355*
X01794Y04353*
X01794Y04352*
X01794Y0435*
X01794Y04349*
X01795Y04348*
X01795Y04346*
X01796Y04345*
X01797Y04344*
X01797Y04343*
X01798Y04342*
X01799Y04341*
X018Y0434*
X01801Y04339*
X01802Y04338*
X01804Y04337*
X01805Y04337*
X01806Y04336*
X01807Y04336*
X01809Y04335*
X0181Y04335*
X01811Y04335*
X01813Y04335*
X01814*
X01816Y04335*
X01817Y04335*
X01818Y04335*
X0182Y04336*
X01821Y04336*
X01822Y04337*
X01824Y04337*
X01825Y04338*
X01826Y04339*
X01827Y0434*
X01828Y04341*
X01829Y04342*
X0183Y04343*
X0183Y04344*
X01831Y04345*
X01832Y04346*
X01832Y04348*
X01833Y04349*
X01833Y0435*
X01833Y04352*
X01833Y04353*
X01834Y04355*
Y04433D02*
D01*
X01833Y04435*
X01833Y04436*
X01833Y04437*
X01833Y04439*
X01832Y0444*
X01832Y04441*
X01831Y04443*
X0183Y04444*
X0183Y04445*
X01829Y04446*
X01828Y04447*
X01827Y04448*
X01826Y04449*
X01825Y0445*
X01824Y04451*
X01822Y04451*
X01821Y04452*
X0182Y04452*
X01818Y04453*
X01817Y04453*
X01816Y04453*
X01814Y04453*
X01813*
X01811Y04453*
X0181Y04453*
X01809Y04453*
X01807Y04452*
X01806Y04452*
X01805Y04451*
X01804Y04451*
X01802Y0445*
X01801Y04449*
X018Y04448*
X01799Y04447*
X01798Y04446*
X01797Y04445*
X01797Y04444*
X01796Y04443*
X01795Y04441*
X01795Y0444*
X01794Y04439*
X01794Y04437*
X01794Y04436*
X01794Y04435*
X01794Y04433*
X01794Y04432*
X01794Y0443*
X01794Y04429*
X01794Y04428*
X01795Y04426*
X01795Y04425*
X01796Y04424*
X01797Y04423*
X01797Y04422*
X01798Y0442*
X01799Y04419*
X018Y04418*
X01801Y04418*
X01802Y04417*
X01804Y04416*
X01805Y04415*
X01806Y04415*
X01807Y04414*
X01809Y04414*
X0181Y04414*
X01811Y04413*
X01813Y04413*
X01814*
X01816Y04413*
X01817Y04414*
X01818Y04414*
X0182Y04414*
X01821Y04415*
X01822Y04415*
X01824Y04416*
X01825Y04417*
X01826Y04418*
X01827Y04418*
X01828Y04419*
X01829Y0442*
X0183Y04422*
X0183Y04423*
X01831Y04424*
X01832Y04425*
X01832Y04426*
X01833Y04428*
X01833Y04429*
X01833Y0443*
X01833Y04432*
X01834Y04433*
Y04512D02*
D01*
X01833Y04513*
X01833Y04515*
X01833Y04516*
X01833Y04518*
X01832Y04519*
X01832Y0452*
X01831Y04521*
X0183Y04523*
X0183Y04524*
X01829Y04525*
X01828Y04526*
X01827Y04527*
X01826Y04528*
X01825Y04529*
X01824Y04529*
X01822Y0453*
X01821Y04531*
X0182Y04531*
X01818Y04531*
X01817Y04532*
X01816Y04532*
X01814Y04532*
X01813*
X01811Y04532*
X0181Y04532*
X01809Y04531*
X01807Y04531*
X01806Y04531*
X01805Y0453*
X01804Y04529*
X01802Y04529*
X01801Y04528*
X018Y04527*
X01799Y04526*
X01798Y04525*
X01797Y04524*
X01797Y04523*
X01796Y04521*
X01795Y0452*
X01795Y04519*
X01794Y04518*
X01794Y04516*
X01794Y04515*
X01794Y04513*
X01794Y04512*
X01794Y04511*
X01794Y04509*
X01794Y04508*
X01794Y04507*
X01795Y04505*
X01795Y04504*
X01796Y04503*
X01797Y04501*
X01797Y045*
X01798Y04499*
X01799Y04498*
X018Y04497*
X01801Y04496*
X01802Y04495*
X01804Y04495*
X01805Y04494*
X01806Y04493*
X01807Y04493*
X01809Y04493*
X0181Y04492*
X01811Y04492*
X01813Y04492*
X01814*
X01816Y04492*
X01817Y04492*
X01818Y04493*
X0182Y04493*
X01821Y04493*
X01822Y04494*
X01824Y04495*
X01825Y04495*
X01826Y04496*
X01827Y04497*
X01828Y04498*
X01829Y04499*
X0183Y045*
X0183Y04501*
X01831Y04503*
X01832Y04504*
X01832Y04505*
X01833Y04507*
X01833Y04508*
X01833Y04509*
X01833Y04511*
X01834Y04512*
Y04591D02*
D01*
X01833Y04592*
X01833Y04594*
X01833Y04595*
X01833Y04596*
X01832Y04598*
X01832Y04599*
X01831Y046*
X0183Y04601*
X0183Y04603*
X01829Y04604*
X01828Y04605*
X01827Y04606*
X01826Y04607*
X01825Y04607*
X01824Y04608*
X01822Y04609*
X01821Y04609*
X0182Y0461*
X01818Y0461*
X01817Y0461*
X01816Y04611*
X01814Y04611*
X01813*
X01811Y04611*
X0181Y0461*
X01809Y0461*
X01807Y0461*
X01806Y04609*
X01805Y04609*
X01804Y04608*
X01802Y04607*
X01801Y04607*
X018Y04606*
X01799Y04605*
X01798Y04604*
X01797Y04603*
X01797Y04601*
X01796Y046*
X01795Y04599*
X01795Y04598*
X01794Y04596*
X01794Y04595*
X01794Y04594*
X01794Y04592*
X01794Y04591*
X01794Y04589*
X01794Y04588*
X01794Y04587*
X01794Y04585*
X01795Y04584*
X01795Y04583*
X01796Y04581*
X01797Y0458*
X01797Y04579*
X01798Y04578*
X01799Y04577*
X018Y04576*
X01801Y04575*
X01802Y04574*
X01804Y04573*
X01805Y04573*
X01806Y04572*
X01807Y04572*
X01809Y04571*
X0181Y04571*
X01811Y04571*
X01813Y04571*
X01814*
X01816Y04571*
X01817Y04571*
X01818Y04571*
X0182Y04572*
X01821Y04572*
X01822Y04573*
X01824Y04573*
X01825Y04574*
X01826Y04575*
X01827Y04576*
X01828Y04577*
X01829Y04578*
X0183Y04579*
X0183Y0458*
X01831Y04581*
X01832Y04583*
X01832Y04584*
X01833Y04585*
X01833Y04587*
X01833Y04588*
X01833Y04589*
X01834Y04591*
Y0467D02*
D01*
X01833Y04671*
X01833Y04672*
X01833Y04674*
X01833Y04675*
X01832Y04676*
X01832Y04678*
X01831Y04679*
X0183Y0468*
X0183Y04681*
X01829Y04682*
X01828Y04683*
X01827Y04684*
X01826Y04685*
X01825Y04686*
X01824Y04687*
X01822Y04687*
X01821Y04688*
X0182Y04689*
X01818Y04689*
X01817Y04689*
X01816Y04689*
X01814Y04689*
X01813*
X01811Y04689*
X0181Y04689*
X01809Y04689*
X01807Y04689*
X01806Y04688*
X01805Y04687*
X01804Y04687*
X01802Y04686*
X01801Y04685*
X018Y04684*
X01799Y04683*
X01798Y04682*
X01797Y04681*
X01797Y0468*
X01796Y04679*
X01795Y04678*
X01795Y04676*
X01794Y04675*
X01794Y04674*
X01794Y04672*
X01794Y04671*
X01794Y0467*
X01794Y04668*
X01794Y04667*
X01794Y04665*
X01794Y04664*
X01795Y04663*
X01795Y04661*
X01796Y0466*
X01797Y04659*
X01797Y04658*
X01798Y04657*
X01799Y04656*
X018Y04655*
X01801Y04654*
X01802Y04653*
X01804Y04652*
X01805Y04652*
X01806Y04651*
X01807Y0465*
X01809Y0465*
X0181Y0465*
X01811Y0465*
X01813Y0465*
X01814*
X01816Y0465*
X01817Y0465*
X01818Y0465*
X0182Y0465*
X01821Y04651*
X01822Y04652*
X01824Y04652*
X01825Y04653*
X01826Y04654*
X01827Y04655*
X01828Y04656*
X01829Y04657*
X0183Y04658*
X0183Y04659*
X01831Y0466*
X01832Y04661*
X01832Y04663*
X01833Y04664*
X01833Y04665*
X01833Y04667*
X01833Y04668*
X01834Y0467*
M02*