%FSTAX23Y23*%
%MOIN*%
%SFA1B1*%

%IPPOS*%
%AMD10*
4,1,4,0.022200,-0.002800,-0.002800,0.022200,-0.022200,0.002800,0.002800,-0.022200,0.022200,-0.002800,0.0*
%
%AMD11*
4,1,4,-0.002800,-0.022200,0.022200,0.002800,0.002800,0.022200,-0.022200,-0.002800,-0.002800,-0.022200,0.0*
%
%AMD16*
4,1,4,0.027100,0.011800,0.011800,0.027100,-0.027100,-0.011800,-0.011800,-0.027100,0.027100,0.011800,0.0*
1,1,0.021650,0.019400,0.019400*
1,1,0.021650,-0.019400,-0.019400*
%
%AMD17*
4,1,4,-0.011800,0.027100,-0.027100,0.011800,0.011800,-0.027100,0.027100,-0.011800,-0.011800,0.027100,0.0*
1,1,0.021650,-0.019400,0.019400*
1,1,0.021650,0.019400,-0.019400*
%
G04~CAMADD=10~9~0.0~0.0~354.3~275.6~0.0~0.0~0~0.0~0.0~0.0~0.0~0~0.0~0.0~0.0~0.0~0~0.0~0.0~0.0~315.0~444.0~443.0*
%ADD10D10*%
G04~CAMADD=11~9~0.0~0.0~354.3~275.6~0.0~0.0~0~0.0~0.0~0.0~0.0~0~0.0~0.0~0.0~0.0~0~0.0~0.0~0.0~225.0~444.0~443.0*
%ADD11D11*%
%ADD12R,0.035430X0.027560*%
%ADD13R,0.027560X0.035430*%
%ADD14R,0.248820X0.092910*%
%ADD15O,0.015750X0.033470*%
G04~CAMADD=16~3~0.0~0.0~216.5~767.7~0.0~0.0~0~0.0~0.0~0.0~0.0~0~0.0~0.0~0.0~0.0~0~0.0~0.0~0.0~315.0~606.0~606.0*
%ADD16D16*%
G04~CAMADD=17~3~0.0~0.0~216.5~767.7~0.0~0.0~0~0.0~0.0~0.0~0.0~0~0.0~0.0~0.0~0.0~0~0.0~0.0~0.0~45.0~606.0~606.0*
%ADD17D17*%
%ADD18O,0.090550X0.031500*%
%ADD19O,0.023620X0.037400*%
%ADD20C,0.010000*%
%ADD21C,0.040000*%
%ADD22C,0.020000*%
%ADD23C,0.012000*%
%ADD24C,0.025000*%
%ADD25C,0.059060*%
%ADD26R,0.059060X0.059060*%
%ADD27R,0.059060X0.059060*%
%ADD28R,0.055120X0.055120*%
%ADD29C,0.055120*%
%ADD30C,0.062990*%
%ADD31R,0.062990X0.062990*%
%ADD32C,0.050000*%
G54D10*
X0125Y0455D03*
X01289Y04589D03*
X01299Y04679D03*
X0126Y0464D03*
X01685Y04215D03*
X01724Y04254D03*
X01615Y0414D03*
X01654Y04179D03*
G54D11*
X01685Y04594D03*
X01724Y04555D03*
G54D12*
X0214Y04702D03*
Y04647D03*
X0192Y04772D03*
Y04717D03*
Y04667D03*
Y04612D03*
G54D13*
X02022Y04745D03*
X02077D03*
G54D14*
X02025Y04451D03*
Y04268D03*
G54D15*
X01644Y0469D03*
X0167D03*
X01695D03*
X01644Y04779D03*
X0167D03*
X01695D03*
G54D16*
X01546Y04612D03*
X01569Y0459D03*
X01591Y04568D03*
X01613Y04546D03*
X01636Y04523D03*
X01658Y04501D03*
X0168Y04479D03*
X01702Y04456D03*
X01423Y04177D03*
X014Y04199D03*
X01378Y04221D03*
X01356Y04243D03*
X01333Y04266D03*
X01311Y04288D03*
X01289Y0431D03*
X01267Y04333D03*
G54D17*
X01702Y04333D03*
X0168Y0431D03*
X01658Y04288D03*
X01636Y04266D03*
X01613Y04243D03*
X01591Y04221D03*
X01569Y04199D03*
X01546Y04177D03*
X01267Y04456D03*
X01289Y04479D03*
X01311Y04501D03*
X01333Y04523D03*
X01356Y04546D03*
X01378Y04568D03*
X014Y0459D03*
X01423Y04612D03*
G54D18*
X01612Y0485D03*
X01277D03*
G54D19*
X02067Y04689D03*
X0203D03*
X01992D03*
X02067Y0458D03*
X0203D03*
X01992D03*
G54D20*
X01524Y042D02*
X01546Y04177D01*
X01085Y0405D02*
Y04745D01*
X0119Y0485*
X01277*
X01662Y04594D02*
X01685D01*
X01613Y04546D02*
X01662Y04594D01*
X01642Y04215D02*
X01685D01*
X01613Y04243D02*
X01642Y04215D01*
X01615Y0414D02*
Y04153D01*
X01569Y04199D02*
X01615Y04153D01*
X0125Y0455D02*
X01262D01*
X01311Y04501*
X01299Y04614D02*
Y04679D01*
Y04614D02*
X01322Y04591D01*
Y04579D02*
Y04591D01*
Y04579D02*
X01356Y04546D01*
X01283Y04595D02*
X01289Y04589D01*
X01283Y04595D02*
Y04617D01*
X0126Y0464D02*
X01283Y04617D01*
X0123Y0461D02*
X0126Y0464D01*
X01289Y04568D02*
Y04589D01*
Y04568D02*
X01333Y04523D01*
X01378Y04568D02*
X01411Y04535D01*
Y04526D02*
Y04535D01*
X0138Y04495D02*
X01411Y04526D01*
X01362Y04495D02*
X0138D01*
X01333Y04523D02*
X01362Y04495D01*
X01654Y04179D02*
X01694D01*
X01724Y04209*
Y04254*
X01792*
X01814Y04276*
X01572Y0433D02*
X01636Y04266D01*
X0214Y046D02*
Y04647D01*
X02057D02*
X0214D01*
X0203Y0458D02*
Y0462D01*
X02057Y04647*
X0189Y04642D02*
X0192Y04612D01*
X0189Y04642D02*
Y04687D01*
X0192Y04717*
X0167Y04789D02*
Y04792D01*
X01612Y0485D02*
Y04897D01*
X01867Y0477D02*
X0192Y04717D01*
X0167Y0475D02*
Y04779D01*
X01664Y04744D02*
X0167Y0475D01*
X01663Y04744D02*
X01664D01*
X01653Y04735D02*
X01663Y04744D01*
X0163Y04735D02*
X01653D01*
X01612Y04752D02*
X0163Y04735D01*
X01612Y04752D02*
Y0485D01*
X01644Y04779D02*
Y04809D01*
X01735Y049*
X01855*
X02045D02*
X02075D01*
X01986Y04841D02*
X02045Y049D01*
X0179Y04841D02*
X01986D01*
X01789Y0484D02*
X0179Y04841D01*
X01756Y0484D02*
X01789D01*
X01695Y04779D02*
X01756Y0484D01*
X01415Y0469D02*
X01644D01*
X01381Y04656D02*
X01415Y0469D01*
X01381Y04604D02*
Y04656D01*
X014Y0459D02*
Y04604D01*
X01381D02*
X014D01*
X01423Y04612D02*
X01427D01*
X01477Y04662*
X01677*
X01695Y0468*
Y0469*
X0123Y04605D02*
Y0461D01*
X01485Y04535D02*
Y0455D01*
X01546Y04612*
X01674Y03998D02*
X01675Y03999D01*
X01584Y0409D02*
X01675Y03999D01*
X01674Y0394D02*
Y03998D01*
Y0394D02*
X0169Y03925D01*
X01379Y0409D02*
X01584D01*
X01365Y04104D02*
X01379Y0409D01*
X01365Y04104D02*
Y04119D01*
X01423Y04177*
X01575Y04282D02*
X01613Y04243D01*
X01552Y04282D02*
X01575D01*
X0153Y0426D02*
X01552Y04282D01*
X0153Y04238D02*
Y0426D01*
Y04238D02*
X01569Y04199D01*
X01615Y0414D02*
X0173Y04025D01*
X01975*
X01519Y04294D02*
X01563D01*
X01575Y04282*
X01299Y04679D02*
X01381D01*
X0142Y04718*
X01666*
X01671Y04723*
X0181Y0477D02*
X01867D01*
X01455Y04355D02*
Y04358D01*
X01311Y04501D02*
X01455Y04358D01*
X01519Y04294*
X01724Y04555D02*
X0174Y04571D01*
Y047*
X0181Y0477*
G54D21*
X01975Y04025D02*
X02035D01*
X0207Y0406*
Y04268*
X02022Y04745D02*
Y04787D01*
X0207Y04835*
X02165*
X022Y048*
Y03925D02*
Y048D01*
X0204Y03765D02*
X022Y03925D01*
X01535Y03765D02*
X0204D01*
X0142Y0388D02*
X01535Y03765D01*
X01285Y0388D02*
X0142D01*
X0115D02*
X01285D01*
X02025Y04268D02*
Y04355D01*
G54D22*
X0192Y04667D02*
X01947Y0464D01*
X01989*
X0203Y04689D02*
Y04737D01*
X02022Y04745D02*
X0203Y04737D01*
X01989Y0464D02*
X0203Y0468D01*
Y04689*
X02067Y04532D02*
Y0458D01*
X01927Y04765D02*
X0197D01*
X0192Y04772D02*
X01927Y04765D01*
X0197Y04711D02*
Y04765D01*
Y04711D02*
X01992Y04689D01*
X0167Y0469D02*
X01671Y04692D01*
Y04723*
X01702*
X01799Y0482*
X01875*
X0192Y04775*
Y04772D02*
Y04775D01*
X01815Y03875D02*
X01824D01*
X01975Y04025*
G54D23*
X0208Y04702D02*
X0214D01*
X02077Y04699D02*
Y04745D01*
X02067Y04689D02*
X02077Y04699D01*
X0208Y04702*
X013Y041D02*
X0142Y0398D01*
X013Y041D02*
Y04232D01*
X01333Y04266*
X01282Y03983D02*
X01285Y0398D01*
X01282Y03983D02*
Y04258D01*
X01311Y04288*
X0115Y0398D02*
X0126Y0409D01*
Y04281*
X01289Y0431*
X0151Y03975D02*
X01615D01*
X01465Y0393D02*
X0151Y03975D01*
X01115Y0393D02*
X01465D01*
X01085Y0396D02*
X01115Y0393D01*
X01085Y0396D02*
Y0405D01*
X01345Y041D02*
X0138Y04065D01*
X01345Y041D02*
Y04143D01*
X014Y04199*
X01715Y03975D02*
Y04009D01*
X01617Y04106D02*
X01715Y04009D01*
X01613Y04106D02*
X01617D01*
X01546Y04172D02*
X01613Y04106D01*
X01546Y04172D02*
Y04177D01*
X018Y03975D02*
X01815D01*
X0175Y03925D02*
X018Y03975D01*
X0169Y03925D02*
X0175D01*
X01656Y03933D02*
X01715Y03875D01*
X01656Y03933D02*
Y03992D01*
X01386Y04221D02*
X0145Y04285D01*
X01378Y04221D02*
X01386D01*
X01583Y04065D02*
X01656Y03992D01*
X0138Y04065D02*
X01583D01*
X0156Y0445D02*
X01615Y04395D01*
X0156Y0445D02*
Y04492D01*
X01613Y04546*
G54D24*
X01992Y04483D02*
Y0458D01*
Y04483D02*
X02025Y04451D01*
G54D25*
X0142Y0398D03*
Y0388D03*
X01285Y0398D03*
Y0388D03*
X0115Y0398D03*
Y0388D03*
X01615Y03875D03*
Y03975D03*
X01715Y03875D03*
Y03975D03*
X01815Y03875D03*
X02075Y049D03*
X01855D03*
G54D26*
X0142Y0378D03*
X01285D03*
X0115D03*
G54D27*
X01815Y03975D03*
X02175Y049D03*
X01955D03*
G54D28*
X01975Y04104D03*
G54D29*
X01975Y04025D03*
G54D30*
X01165Y04118D03*
Y04197D03*
Y04276D03*
Y04355D03*
Y04433D03*
Y04512D03*
Y04591D03*
X01814Y04118D03*
Y04197D03*
Y04276D03*
Y04355D03*
Y04433D03*
Y04512D03*
Y04591D03*
G54D31*
X01165Y0467D03*
X01814D03*
G54D32*
X01572Y0433D03*
X0214Y046D03*
X02067Y04532D03*
X0197Y04765D03*
X01612Y04897D03*
X01867Y0477D03*
X0123Y04605D03*
X01485Y04535D03*
X0145Y04285D03*
X02025Y04355D03*
X01615Y04395D03*
X01455Y04355D03*
M02*