%FSTAX23Y23*%
%MOIN*%
%SFA1B1*%

%IPPOS*%
%AMD38*
4,1,4,0.027900,-0.002800,-0.002800,0.027900,-0.027900,0.002800,0.002800,-0.027900,0.027900,-0.002800,0.0*
%
%AMD39*
4,1,4,-0.002800,-0.027900,0.027900,0.002800,0.002800,0.027900,-0.027900,-0.002800,-0.002800,-0.027900,0.0*
%
%AMD44*
4,1,4,0.029900,0.009000,0.009000,0.029900,-0.029900,-0.009000,-0.009000,-0.029900,0.029900,0.009000,0.0*
1,1,0.029650,0.019400,0.019400*
1,1,0.029650,-0.019400,-0.019400*
%
%AMD45*
4,1,4,-0.009000,0.029900,-0.029900,0.009000,0.009000,-0.029900,0.029900,-0.009000,-0.009000,0.029900,0.0*
1,1,0.029650,-0.019400,0.019400*
1,1,0.029650,0.019400,-0.019400*
%
G04~CAMADD=38~9~0.0~0.0~434.3~355.6~0.0~0.0~0~0.0~0.0~0.0~0.0~0~0.0~0.0~0.0~0.0~0~0.0~0.0~0.0~315.0~558.0~557.0*
%ADD38D38*%
G04~CAMADD=39~9~0.0~0.0~434.3~355.6~0.0~0.0~0~0.0~0.0~0.0~0.0~0~0.0~0.0~0.0~0.0~0~0.0~0.0~0.0~225.0~558.0~557.0*
%ADD39D39*%
%ADD40R,0.043430X0.035560*%
%ADD41R,0.035560X0.043430*%
%ADD42R,0.256820X0.100910*%
%ADD43O,0.023750X0.041470*%
G04~CAMADD=44~3~0.0~0.0~296.5~847.7~0.0~0.0~0~0.0~0.0~0.0~0.0~0~0.0~0.0~0.0~0.0~0~0.0~0.0~0.0~315.0~684.0~684.0*
%ADD44D44*%
G04~CAMADD=45~3~0.0~0.0~296.5~847.7~0.0~0.0~0~0.0~0.0~0.0~0.0~0~0.0~0.0~0.0~0.0~0~0.0~0.0~0.0~45.0~684.0~684.0*
%ADD45D45*%
%ADD46O,0.098550X0.039500*%
%ADD47O,0.031620X0.045400*%
%ADD48C,0.067060*%
%ADD49R,0.067060X0.067060*%
%ADD50R,0.067060X0.067060*%
%ADD51R,0.063120X0.063120*%
%ADD52C,0.063120*%
%ADD53C,0.070990*%
%ADD54R,0.070990X0.070990*%
%ADD55C,0.058000*%
G54D38*
X0125Y0455D03*
X01289Y04589D03*
X01299Y04679D03*
X0126Y0464D03*
X01685Y04215D03*
X01724Y04254D03*
X01615Y0414D03*
X01654Y04179D03*
G54D39*
X01685Y04594D03*
X01724Y04555D03*
G54D40*
X0214Y04702D03*
Y04647D03*
X0192Y04772D03*
Y04717D03*
Y04667D03*
Y04612D03*
G54D41*
X02022Y04745D03*
X02077D03*
G54D42*
X02025Y04451D03*
Y04268D03*
G54D43*
X01644Y0469D03*
X0167D03*
X01695D03*
X01644Y04779D03*
X0167D03*
X01695D03*
G54D44*
X01546Y04612D03*
X01569Y0459D03*
X01591Y04568D03*
X01613Y04546D03*
X01636Y04523D03*
X01658Y04501D03*
X0168Y04479D03*
X01702Y04456D03*
X01423Y04177D03*
X014Y04199D03*
X01378Y04221D03*
X01356Y04243D03*
X01333Y04266D03*
X01311Y04288D03*
X01289Y0431D03*
X01267Y04333D03*
G54D45*
X01702Y04333D03*
X0168Y0431D03*
X01658Y04288D03*
X01636Y04266D03*
X01613Y04243D03*
X01591Y04221D03*
X01569Y04199D03*
X01546Y04177D03*
X01267Y04456D03*
X01289Y04479D03*
X01311Y04501D03*
X01333Y04523D03*
X01356Y04546D03*
X01378Y04568D03*
X014Y0459D03*
X01423Y04612D03*
G54D46*
X01612Y0485D03*
X01277D03*
G54D47*
X02067Y04689D03*
X0203D03*
X01992D03*
X02067Y0458D03*
X0203D03*
X01992D03*
G54D48*
X0142Y0398D03*
Y0388D03*
X01285Y0398D03*
Y0388D03*
X0115Y0398D03*
Y0388D03*
X01615Y03875D03*
Y03975D03*
X01715Y03875D03*
Y03975D03*
X01815Y03875D03*
X02075Y049D03*
X01855D03*
G54D49*
X0142Y0378D03*
X01285D03*
X0115D03*
G54D50*
X01815Y03975D03*
X02175Y049D03*
X01955D03*
G54D51*
X01975Y04104D03*
G54D52*
X01975Y04025D03*
G54D53*
X01165Y04118D03*
Y04197D03*
Y04276D03*
Y04355D03*
Y04433D03*
Y04512D03*
Y04591D03*
X01814Y04118D03*
Y04197D03*
Y04276D03*
Y04355D03*
Y04433D03*
Y04512D03*
Y04591D03*
G54D54*
X01165Y0467D03*
X01814D03*
G54D55*
X01572Y0433D03*
X0214Y046D03*
X02067Y04532D03*
X0197Y04765D03*
X01612Y04897D03*
X01867Y0477D03*
X0123Y04605D03*
X01485Y04535D03*
X0145Y04285D03*
X02025Y04355D03*
X01615Y04395D03*
X01455Y04355D03*
M02*