%FSLAX25Y25*%
%MOIN*%
G70*
G01*
G75*
G04 Layer_Color=8388736*
%ADD10R,0.07480X0.05315*%
%ADD11R,0.03937X0.03543*%
%ADD12R,0.03543X0.03937*%
%ADD13R,0.04331X0.04331*%
%ADD14O,0.05315X0.00984*%
%ADD15R,0.06614X0.07402*%
%ADD16R,0.11417X0.07874*%
%ADD17R,0.28346X0.49606*%
%ADD18O,0.08071X0.02362*%
%ADD19O,0.01575X0.03347*%
%ADD20R,0.04331X0.04331*%
%ADD21R,0.04528X0.07087*%
%ADD22R,0.08858X0.18110*%
%ADD23R,0.18110X0.08858*%
%ADD24R,0.09291X0.24882*%
%ADD25R,0.03740X0.06693*%
%ADD26R,0.15000X0.11000*%
%ADD27O,0.07677X0.03543*%
%ADD28R,0.05500X0.06300*%
%ADD29O,0.06102X0.00984*%
%ADD30O,0.00984X0.06102*%
%ADD31R,0.05315X0.07480*%
%ADD32R,0.03937X0.02362*%
%ADD33R,0.03543X0.02756*%
%ADD34R,0.07087X0.04528*%
%ADD35C,0.01200*%
%ADD36C,0.01000*%
%ADD37C,0.00700*%
%ADD38C,0.04000*%
%ADD39C,0.03000*%
%ADD40C,0.02000*%
%ADD41C,0.08000*%
%ADD42C,0.05000*%
%ADD43C,0.02500*%
%ADD44C,0.01500*%
%ADD45C,0.07500*%
%ADD46C,0.05512*%
%ADD47R,0.05512X0.05512*%
%ADD48C,0.05906*%
%ADD49R,0.05906X0.05906*%
%ADD50R,0.06000X0.06000*%
%ADD51C,0.06000*%
%ADD52R,0.05906X0.05906*%
%ADD53R,0.05512X0.05512*%
%ADD54C,0.03500*%
%ADD55C,0.05000*%
%ADD56C,0.01969*%
%ADD57C,0.07000*%
%ADD58C,0.05500*%
%ADD59C,0.04500*%
%ADD60C,0.00984*%
%ADD61C,0.00394*%
%ADD62C,0.02362*%
%ADD63C,0.00787*%
%ADD64C,0.00500*%
%ADD65C,0.00800*%
%ADD66R,0.08280X0.06115*%
%ADD67R,0.04737X0.04343*%
%ADD68R,0.04343X0.04737*%
%ADD69R,0.05131X0.05131*%
%ADD70O,0.05961X0.01630*%
%ADD71R,0.07260X0.08047*%
%ADD72R,0.12217X0.08674*%
%ADD73R,0.29146X0.50406*%
%ADD74O,0.08871X0.03162*%
%ADD75O,0.02375X0.04147*%
%ADD76R,0.05131X0.05131*%
%ADD77R,0.05328X0.07887*%
%ADD78R,0.09658X0.18910*%
%ADD79R,0.18910X0.09658*%
%ADD80R,0.10091X0.25682*%
%ADD81R,0.04540X0.07493*%
%ADD82R,0.15800X0.11800*%
%ADD83O,0.08477X0.04343*%
%ADD84R,0.06300X0.07100*%
%ADD85O,0.06902X0.01784*%
%ADD86O,0.01784X0.06902*%
%ADD87R,0.06115X0.08280*%
%ADD88R,0.04737X0.03162*%
%ADD89R,0.04343X0.03556*%
%ADD90R,0.07887X0.05328*%
%ADD91C,0.06312*%
%ADD92R,0.06312X0.06312*%
%ADD93C,0.06706*%
%ADD94R,0.06706X0.06706*%
%ADD95R,0.06800X0.06800*%
%ADD96C,0.06800*%
%ADD97R,0.06706X0.06706*%
%ADD98R,0.06312X0.06312*%
%ADD99C,0.05800*%
%ADD100C,0.02769*%
%ADD101C,0.07800*%
%ADD102C,0.04300*%
%ADD103C,0.06300*%
%ADD104C,0.05300*%
D66*
X241500Y430299D02*
D03*
Y417701D02*
D03*
X328000Y436299D02*
D03*
Y423701D02*
D03*
X440500Y429299D02*
D03*
Y416701D02*
D03*
X512500Y435299D02*
D03*
Y422701D02*
D03*
D67*
X272500Y291350D02*
D03*
Y297650D02*
D03*
X271500Y268150D02*
D03*
Y261850D02*
D03*
X494500Y229150D02*
D03*
Y222850D02*
D03*
X353000Y266850D02*
D03*
Y273150D02*
D03*
X313500Y329650D02*
D03*
Y323350D02*
D03*
X337500Y429650D02*
D03*
Y423350D02*
D03*
X521500Y429650D02*
D03*
Y423350D02*
D03*
X449500Y428150D02*
D03*
Y421850D02*
D03*
X253500Y432150D02*
D03*
Y425850D02*
D03*
X176000Y257150D02*
D03*
Y250850D02*
D03*
X242500Y194350D02*
D03*
Y200650D02*
D03*
X236000Y194350D02*
D03*
Y200650D02*
D03*
X229500Y194350D02*
D03*
Y200650D02*
D03*
X223000Y194350D02*
D03*
Y200650D02*
D03*
X242500Y213150D02*
D03*
Y206850D02*
D03*
X236000Y213150D02*
D03*
Y206850D02*
D03*
X229500Y213150D02*
D03*
Y206850D02*
D03*
X223000Y213150D02*
D03*
Y206850D02*
D03*
X290000Y200350D02*
D03*
Y206650D02*
D03*
D68*
X273150Y253000D02*
D03*
X266850D02*
D03*
X446150Y239500D02*
D03*
X439850D02*
D03*
X221150Y264500D02*
D03*
X214850D02*
D03*
X346150Y202500D02*
D03*
X339850D02*
D03*
X175850Y266000D02*
D03*
X182150D02*
D03*
X304650Y244000D02*
D03*
X298350D02*
D03*
X440850Y205000D02*
D03*
X447150D02*
D03*
X175350Y273500D02*
D03*
X181650D02*
D03*
D69*
X372457Y266500D02*
D03*
X379543D02*
D03*
X182957Y282500D02*
D03*
X190043D02*
D03*
D70*
X206268Y264563D02*
D03*
Y266531D02*
D03*
Y268500D02*
D03*
Y270468D02*
D03*
Y272437D02*
D03*
X189732Y264563D02*
D03*
Y266531D02*
D03*
Y268500D02*
D03*
Y270468D02*
D03*
Y272437D02*
D03*
D71*
X198000Y268500D02*
D03*
D72*
X500665Y413410D02*
D03*
Y355929D02*
D03*
X399000Y422240D02*
D03*
Y364760D02*
D03*
X194500Y416240D02*
D03*
Y358760D02*
D03*
X311000Y414740D02*
D03*
Y357260D02*
D03*
D73*
X500665Y384669D02*
D03*
X399000Y393500D02*
D03*
X194500Y387500D02*
D03*
X311000Y386000D02*
D03*
D74*
X474780Y407169D02*
D03*
Y402169D02*
D03*
Y397169D02*
D03*
Y392169D02*
D03*
Y387169D02*
D03*
Y382169D02*
D03*
Y377169D02*
D03*
Y372169D02*
D03*
Y367169D02*
D03*
Y362169D02*
D03*
X526551Y407169D02*
D03*
Y402169D02*
D03*
Y397169D02*
D03*
Y392169D02*
D03*
Y387169D02*
D03*
Y382169D02*
D03*
Y377169D02*
D03*
Y372169D02*
D03*
Y367169D02*
D03*
X373114Y416000D02*
D03*
Y411000D02*
D03*
Y406000D02*
D03*
Y401000D02*
D03*
Y396000D02*
D03*
Y391000D02*
D03*
Y386000D02*
D03*
Y381000D02*
D03*
Y376000D02*
D03*
Y371000D02*
D03*
X424886Y416000D02*
D03*
Y411000D02*
D03*
Y406000D02*
D03*
Y401000D02*
D03*
Y396000D02*
D03*
Y391000D02*
D03*
Y386000D02*
D03*
Y381000D02*
D03*
Y376000D02*
D03*
Y371000D02*
D03*
X168614Y410000D02*
D03*
Y405000D02*
D03*
Y400000D02*
D03*
Y395000D02*
D03*
Y390000D02*
D03*
Y385000D02*
D03*
Y380000D02*
D03*
Y375000D02*
D03*
Y370000D02*
D03*
Y365000D02*
D03*
X220386Y410000D02*
D03*
Y405000D02*
D03*
Y400000D02*
D03*
Y395000D02*
D03*
Y390000D02*
D03*
Y385000D02*
D03*
Y380000D02*
D03*
Y375000D02*
D03*
Y370000D02*
D03*
Y365000D02*
D03*
X285114Y408500D02*
D03*
Y403500D02*
D03*
Y398500D02*
D03*
Y393500D02*
D03*
Y388500D02*
D03*
Y383500D02*
D03*
Y378500D02*
D03*
Y373500D02*
D03*
Y368500D02*
D03*
Y363500D02*
D03*
X336886Y408500D02*
D03*
Y403500D02*
D03*
Y398500D02*
D03*
Y393500D02*
D03*
Y388500D02*
D03*
Y383500D02*
D03*
Y378500D02*
D03*
Y373500D02*
D03*
Y368500D02*
D03*
Y363500D02*
D03*
X526551Y362169D02*
D03*
D75*
X487441Y422071D02*
D03*
X490000D02*
D03*
X492559D02*
D03*
X487441Y430929D02*
D03*
X490000D02*
D03*
X492559D02*
D03*
X456941Y420071D02*
D03*
X459500D02*
D03*
X462059D02*
D03*
X456941Y428929D02*
D03*
X459500D02*
D03*
X462059D02*
D03*
X267441Y421071D02*
D03*
X270000D02*
D03*
X272559D02*
D03*
X267441Y429929D02*
D03*
X270000D02*
D03*
X272559D02*
D03*
X306441Y424071D02*
D03*
X309000D02*
D03*
X311559D02*
D03*
X306441Y432929D02*
D03*
X309000D02*
D03*
X311559D02*
D03*
D76*
X220500Y303043D02*
D03*
Y295957D02*
D03*
X184000Y257043D02*
D03*
Y249957D02*
D03*
X379500Y295957D02*
D03*
Y303043D02*
D03*
X380000Y278457D02*
D03*
Y285543D02*
D03*
D77*
X451594Y363500D02*
D03*
X463406D02*
D03*
D78*
X186591Y298000D02*
D03*
X210409D02*
D03*
X401409Y446500D02*
D03*
X377590D02*
D03*
X426409Y199500D02*
D03*
X402591D02*
D03*
D79*
X198500Y225590D02*
D03*
Y249410D02*
D03*
X452000Y405409D02*
D03*
Y381591D02*
D03*
X357000Y415909D02*
D03*
X242000Y406910D02*
D03*
Y383090D02*
D03*
X357000Y392091D02*
D03*
D80*
X233134Y243500D02*
D03*
X214866D02*
D03*
D81*
X378488Y355000D02*
D03*
X389512D02*
D03*
X177988Y348500D02*
D03*
X189012D02*
D03*
D82*
X238500Y266500D02*
D03*
Y296500D02*
D03*
X474500Y202000D02*
D03*
Y232000D02*
D03*
D83*
X358850Y256858D02*
D03*
Y239142D02*
D03*
X390150Y256858D02*
D03*
Y239142D02*
D03*
D84*
X371250Y283350D02*
D03*
Y299650D02*
D03*
X361750D02*
D03*
Y283350D02*
D03*
D85*
X279874Y258878D02*
D03*
Y260846D02*
D03*
Y262815D02*
D03*
Y264784D02*
D03*
Y266752D02*
D03*
Y268721D02*
D03*
Y270689D02*
D03*
Y272657D02*
D03*
Y274626D02*
D03*
Y276594D02*
D03*
Y278563D02*
D03*
Y280532D02*
D03*
Y282500D02*
D03*
Y284469D02*
D03*
Y286437D02*
D03*
Y288405D02*
D03*
Y290374D02*
D03*
Y292342D02*
D03*
Y294311D02*
D03*
Y296280D02*
D03*
Y298248D02*
D03*
Y300217D02*
D03*
Y302185D02*
D03*
Y304153D02*
D03*
Y306122D02*
D03*
X339126D02*
D03*
Y304153D02*
D03*
Y302185D02*
D03*
Y300217D02*
D03*
Y298248D02*
D03*
Y296280D02*
D03*
Y294311D02*
D03*
Y292342D02*
D03*
Y290374D02*
D03*
Y288405D02*
D03*
Y286437D02*
D03*
Y284469D02*
D03*
Y282500D02*
D03*
Y280532D02*
D03*
Y278563D02*
D03*
Y276594D02*
D03*
Y274626D02*
D03*
Y272657D02*
D03*
Y270689D02*
D03*
Y268721D02*
D03*
Y266752D02*
D03*
Y264784D02*
D03*
Y262815D02*
D03*
Y260846D02*
D03*
Y258878D02*
D03*
D86*
X285878Y312126D02*
D03*
X287846D02*
D03*
X289815D02*
D03*
X291783D02*
D03*
X293752D02*
D03*
X295721D02*
D03*
X297689D02*
D03*
X299658D02*
D03*
X301626D02*
D03*
X303594D02*
D03*
X305563D02*
D03*
X307531D02*
D03*
X309500D02*
D03*
X311469D02*
D03*
X313437D02*
D03*
X315406D02*
D03*
X317374D02*
D03*
X319342D02*
D03*
X321311D02*
D03*
X323280D02*
D03*
X325248D02*
D03*
X327217D02*
D03*
X329185D02*
D03*
X331153D02*
D03*
X333122D02*
D03*
Y252874D02*
D03*
X331153D02*
D03*
X329185D02*
D03*
X327217D02*
D03*
X325248D02*
D03*
X323280D02*
D03*
X321311D02*
D03*
X319342D02*
D03*
X317374D02*
D03*
X315406D02*
D03*
X313437D02*
D03*
X311469D02*
D03*
X309500D02*
D03*
X307531D02*
D03*
X305563D02*
D03*
X303594D02*
D03*
X301626D02*
D03*
X299658D02*
D03*
X297689D02*
D03*
X295721D02*
D03*
X293752D02*
D03*
X291783D02*
D03*
X289815D02*
D03*
X287846D02*
D03*
X285878D02*
D03*
D87*
X440701Y230000D02*
D03*
X453299D02*
D03*
D88*
X450224Y217000D02*
D03*
X440776Y213260D02*
D03*
Y220740D02*
D03*
D89*
X288500Y216244D02*
D03*
Y221756D02*
D03*
D90*
X272000Y372406D02*
D03*
Y360595D02*
D03*
D91*
X519000Y248000D02*
D03*
X511126D02*
D03*
X503252D02*
D03*
X495378D02*
D03*
X487504D02*
D03*
X479630D02*
D03*
X471756D02*
D03*
X463882D02*
D03*
X456008D02*
D03*
X448134Y334614D02*
D03*
X456008D02*
D03*
X463882D02*
D03*
X471756D02*
D03*
X479630D02*
D03*
X487504D02*
D03*
X495378D02*
D03*
X503252D02*
D03*
X511126D02*
D03*
X519000D02*
D03*
X261063Y222500D02*
D03*
X215500Y325937D02*
D03*
X182000Y325437D02*
D03*
D92*
X448134Y248000D02*
D03*
X268937Y222500D02*
D03*
D93*
X319000Y212000D02*
D03*
Y222000D02*
D03*
X329000Y212000D02*
D03*
Y222000D02*
D03*
X339000Y212000D02*
D03*
X390500Y199500D02*
D03*
Y209500D02*
D03*
X375000Y199244D02*
D03*
Y209244D02*
D03*
X359500Y199500D02*
D03*
Y209500D02*
D03*
D94*
X339000Y222000D02*
D03*
D95*
X485500Y448000D02*
D03*
X424000Y443000D02*
D03*
X294500Y449000D02*
D03*
X234500Y444000D02*
D03*
D96*
X493500Y448000D02*
D03*
X501500D02*
D03*
X509500D02*
D03*
X517500D02*
D03*
X525500D02*
D03*
X464000Y443000D02*
D03*
X456000D02*
D03*
X448000D02*
D03*
X440000D02*
D03*
X432000D02*
D03*
X334500Y449000D02*
D03*
X326500D02*
D03*
X318500D02*
D03*
X310500D02*
D03*
X302500D02*
D03*
X274500Y444000D02*
D03*
X266500D02*
D03*
X258500D02*
D03*
X250500D02*
D03*
X242500D02*
D03*
D97*
X390500Y219500D02*
D03*
X375000Y219244D02*
D03*
X359500Y219500D02*
D03*
D98*
X215500Y318063D02*
D03*
X182000Y317563D02*
D03*
D99*
X396500Y355000D02*
D03*
X260000Y239000D02*
D03*
X541500Y330000D02*
D03*
X527500Y414500D02*
D03*
X436000Y196500D02*
D03*
X532187Y432187D02*
D03*
X342521Y449521D02*
D03*
X471500Y443500D02*
D03*
X161000Y385000D02*
D03*
X198500Y348500D02*
D03*
X236500Y314500D02*
D03*
X530000Y330000D02*
D03*
X544500Y324000D02*
D03*
X379000Y258500D02*
D03*
X430386Y423886D02*
D03*
X425000Y365500D02*
D03*
X372500Y422000D02*
D03*
X414000Y199500D02*
D03*
X214000Y225500D02*
D03*
X281890Y200110D02*
D03*
X220500Y287500D02*
D03*
X205500Y258500D02*
D03*
X198000Y282500D02*
D03*
X337000Y415500D02*
D03*
X475500Y449500D02*
D03*
X528000Y308500D02*
D03*
Y316500D02*
D03*
X412000Y446000D02*
D03*
X465500Y405500D02*
D03*
X357000Y425500D02*
D03*
X277000Y406500D02*
D03*
D100*
X489839Y406323D02*
D03*
X494169D02*
D03*
X498500D02*
D03*
X502831D02*
D03*
X507161D02*
D03*
X511492D02*
D03*
X489839Y401992D02*
D03*
X494169D02*
D03*
X498500D02*
D03*
X502831D02*
D03*
X507161D02*
D03*
X511492D02*
D03*
X489839Y397661D02*
D03*
X494169D02*
D03*
X498500D02*
D03*
X502831D02*
D03*
X507161D02*
D03*
X511492D02*
D03*
X489839Y393331D02*
D03*
X494169D02*
D03*
X498500D02*
D03*
X502831D02*
D03*
X507161D02*
D03*
X511492D02*
D03*
X489839Y389000D02*
D03*
X494169D02*
D03*
X498500D02*
D03*
X502831D02*
D03*
X507161D02*
D03*
X511492D02*
D03*
X489839Y384669D02*
D03*
X494169D02*
D03*
X498500D02*
D03*
X502831D02*
D03*
X507161D02*
D03*
X511492D02*
D03*
X489839Y380339D02*
D03*
X494169D02*
D03*
X498500D02*
D03*
X502831D02*
D03*
X507161D02*
D03*
X511492D02*
D03*
X489839Y376008D02*
D03*
X494169D02*
D03*
X498500D02*
D03*
X502831D02*
D03*
X507161D02*
D03*
X511492D02*
D03*
X489839Y371677D02*
D03*
X494169D02*
D03*
X498500D02*
D03*
X502831D02*
D03*
X507161D02*
D03*
X511492D02*
D03*
X489839Y367347D02*
D03*
X494169D02*
D03*
X498500D02*
D03*
X502831D02*
D03*
X507161D02*
D03*
X511492D02*
D03*
X489839Y363016D02*
D03*
X494169D02*
D03*
X498500D02*
D03*
X502831D02*
D03*
X507161D02*
D03*
X511492D02*
D03*
X388173Y415154D02*
D03*
X392504D02*
D03*
X396835D02*
D03*
X401165D02*
D03*
X405496D02*
D03*
X409827D02*
D03*
X388173Y410823D02*
D03*
X392504D02*
D03*
X396835D02*
D03*
X401165D02*
D03*
X405496D02*
D03*
X409827D02*
D03*
X388173Y406492D02*
D03*
X392504D02*
D03*
X396835D02*
D03*
X401165D02*
D03*
X405496D02*
D03*
X409827D02*
D03*
X388173Y402161D02*
D03*
X392504D02*
D03*
X396835D02*
D03*
X401165D02*
D03*
X405496D02*
D03*
X409827D02*
D03*
X388173Y397831D02*
D03*
X392504D02*
D03*
X396835D02*
D03*
X401165D02*
D03*
X405496D02*
D03*
X409827D02*
D03*
X388173Y393500D02*
D03*
X392504D02*
D03*
X396835D02*
D03*
X401165D02*
D03*
X405496D02*
D03*
X409827D02*
D03*
X388173Y389169D02*
D03*
X392504D02*
D03*
X396835D02*
D03*
X401165D02*
D03*
X405496D02*
D03*
X409827D02*
D03*
X388173Y384839D02*
D03*
X392504D02*
D03*
X396835D02*
D03*
X401165D02*
D03*
X405496D02*
D03*
X409827D02*
D03*
X388173Y380508D02*
D03*
X392504D02*
D03*
X396835D02*
D03*
X401165D02*
D03*
X405496D02*
D03*
X409827D02*
D03*
X388173Y376177D02*
D03*
X392504D02*
D03*
X396835D02*
D03*
X401165D02*
D03*
X405496D02*
D03*
X409827D02*
D03*
X388173Y371847D02*
D03*
X392504D02*
D03*
X396835D02*
D03*
X401165D02*
D03*
X405496D02*
D03*
X409827D02*
D03*
X183673Y409154D02*
D03*
X188004D02*
D03*
X192335D02*
D03*
X196665D02*
D03*
X200996D02*
D03*
X205327D02*
D03*
X183673Y404823D02*
D03*
X188004D02*
D03*
X192335D02*
D03*
X196665D02*
D03*
X200996D02*
D03*
X205327D02*
D03*
X183673Y400492D02*
D03*
X188004D02*
D03*
X192335D02*
D03*
X196665D02*
D03*
X200996D02*
D03*
X205327D02*
D03*
X183673Y396161D02*
D03*
X188004D02*
D03*
X192335D02*
D03*
X196665D02*
D03*
X200996D02*
D03*
X205327D02*
D03*
X183673Y391831D02*
D03*
X188004D02*
D03*
X192335D02*
D03*
X196665D02*
D03*
X200996D02*
D03*
X205327D02*
D03*
X183673Y387500D02*
D03*
X188004D02*
D03*
X192335D02*
D03*
X196665D02*
D03*
X200996D02*
D03*
X205327D02*
D03*
X183673Y383169D02*
D03*
X188004D02*
D03*
X192335D02*
D03*
X196665D02*
D03*
X200996D02*
D03*
X205327D02*
D03*
X183673Y378839D02*
D03*
X188004D02*
D03*
X192335D02*
D03*
X196665D02*
D03*
X200996D02*
D03*
X205327D02*
D03*
X183673Y374508D02*
D03*
X188004D02*
D03*
X192335D02*
D03*
X196665D02*
D03*
X200996D02*
D03*
X205327D02*
D03*
X183673Y370177D02*
D03*
X188004D02*
D03*
X192335D02*
D03*
X196665D02*
D03*
X200996D02*
D03*
X205327D02*
D03*
X183673Y365846D02*
D03*
X188004D02*
D03*
X192335D02*
D03*
X196665D02*
D03*
X200996D02*
D03*
X205327D02*
D03*
X300173Y407654D02*
D03*
X304504D02*
D03*
X308835D02*
D03*
X313165D02*
D03*
X317496D02*
D03*
X321827D02*
D03*
X300173Y403323D02*
D03*
X304504D02*
D03*
X308835D02*
D03*
X313165D02*
D03*
X317496D02*
D03*
X321827D02*
D03*
X300173Y398992D02*
D03*
X304504D02*
D03*
X308835D02*
D03*
X313165D02*
D03*
X317496D02*
D03*
X321827D02*
D03*
X300173Y394661D02*
D03*
X304504D02*
D03*
X308835D02*
D03*
X313165D02*
D03*
X317496D02*
D03*
X321827D02*
D03*
X300173Y390331D02*
D03*
X304504D02*
D03*
X308835D02*
D03*
X313165D02*
D03*
X317496D02*
D03*
X321827D02*
D03*
X300173Y386000D02*
D03*
X304504D02*
D03*
X308835D02*
D03*
X313165D02*
D03*
X317496D02*
D03*
X321827D02*
D03*
X300173Y381669D02*
D03*
X304504D02*
D03*
X308835D02*
D03*
X313165D02*
D03*
X317496D02*
D03*
X321827D02*
D03*
X300173Y377339D02*
D03*
X304504D02*
D03*
X308835D02*
D03*
X313165D02*
D03*
X317496D02*
D03*
X321827D02*
D03*
X300173Y373008D02*
D03*
X304504D02*
D03*
X308835D02*
D03*
X313165D02*
D03*
X317496D02*
D03*
X321827D02*
D03*
X300173Y368677D02*
D03*
X304504D02*
D03*
X308835D02*
D03*
X313165D02*
D03*
X317496D02*
D03*
X321827D02*
D03*
X300173Y364347D02*
D03*
X304504D02*
D03*
X308835D02*
D03*
X313165D02*
D03*
X317496D02*
D03*
X321827D02*
D03*
X198000Y270665D02*
D03*
Y266335D02*
D03*
D101*
X256500Y383500D02*
D03*
X350764Y380500D02*
D03*
X258500Y407000D02*
D03*
D102*
X272500Y352500D02*
D03*
X466000Y370500D02*
D03*
X452500Y239500D02*
D03*
X272500Y284500D02*
D03*
X161000Y375000D02*
D03*
X365500Y381000D02*
D03*
X264300Y289450D02*
D03*
X264500Y262000D02*
D03*
X288000Y241500D02*
D03*
X302500Y321000D02*
D03*
X300000Y332000D02*
D03*
X388000Y303500D02*
D03*
Y285500D02*
D03*
X337500Y436500D02*
D03*
X311000Y438500D02*
D03*
X337000Y357000D02*
D03*
X260000Y425000D02*
D03*
X246000Y361000D02*
D03*
X251000D02*
D03*
X255466Y355400D02*
D03*
X278000Y383000D02*
D03*
X220500Y358000D02*
D03*
X176000Y298000D02*
D03*
X176500Y245000D02*
D03*
X167500Y273500D02*
D03*
X269000Y434500D02*
D03*
X360000Y321500D02*
D03*
X365500Y366000D02*
D03*
X423000Y357000D02*
D03*
X534500Y362000D02*
D03*
X279000Y345500D02*
D03*
X239500Y339000D02*
D03*
X216000Y194500D02*
D03*
X249000D02*
D03*
X494500Y436500D02*
D03*
X501500Y421000D02*
D03*
X499750Y425500D02*
D03*
X526000Y435500D02*
D03*
X241000Y368000D02*
D03*
X453000Y205000D02*
D03*
X295000Y329000D02*
D03*
X292500Y233000D02*
D03*
X311469Y305000D02*
D03*
X329500Y293500D02*
D03*
X313500Y335000D02*
D03*
X365500Y346000D02*
D03*
X344000Y243000D02*
D03*
X304500Y301500D02*
D03*
X433500Y406500D02*
D03*
X322500Y338500D02*
D03*
X449500Y433500D02*
D03*
D103*
X229500Y425500D02*
D03*
X536000Y379500D02*
D03*
X159500Y407500D02*
D03*
X443500Y371500D02*
D03*
X451000Y414500D02*
D03*
D104*
X535000Y404000D02*
D03*
X467000Y382500D02*
D03*
M02*
