%FSLAX25Y25*%
%MOIN*%
G70*
G01*
G75*
G04 Layer_Color=65535*
%ADD10R,0.07480X0.05315*%
%ADD11R,0.03937X0.03543*%
%ADD12R,0.03543X0.03937*%
%ADD13R,0.04331X0.04331*%
%ADD14O,0.05315X0.00984*%
%ADD15R,0.06614X0.07402*%
%ADD16R,0.11417X0.07874*%
%ADD17R,0.28346X0.49606*%
%ADD18O,0.08071X0.02362*%
%ADD19O,0.01575X0.03347*%
%ADD20R,0.04331X0.04331*%
%ADD21R,0.04528X0.07087*%
%ADD22R,0.08858X0.18110*%
%ADD23R,0.18110X0.08858*%
%ADD24R,0.09291X0.24882*%
%ADD25R,0.03740X0.06693*%
%ADD26R,0.15000X0.11000*%
%ADD27O,0.07677X0.03543*%
%ADD28R,0.05500X0.06300*%
%ADD29O,0.06102X0.00984*%
%ADD30O,0.00984X0.06102*%
%ADD31R,0.05315X0.07480*%
%ADD32R,0.03937X0.02362*%
%ADD33R,0.03543X0.02756*%
%ADD34R,0.07087X0.04528*%
%ADD35C,0.01200*%
%ADD36C,0.01000*%
%ADD37C,0.00700*%
%ADD38C,0.04000*%
%ADD39C,0.03000*%
%ADD40C,0.02000*%
%ADD41C,0.08000*%
%ADD42C,0.05000*%
%ADD43C,0.02500*%
%ADD44C,0.01500*%
%ADD45C,0.07500*%
%ADD46C,0.05512*%
%ADD47R,0.05512X0.05512*%
%ADD48C,0.05906*%
%ADD49R,0.05906X0.05906*%
%ADD50R,0.06000X0.06000*%
%ADD51C,0.06000*%
%ADD52R,0.05906X0.05906*%
%ADD53R,0.05512X0.05512*%
%ADD54C,0.03500*%
%ADD55C,0.05000*%
%ADD56C,0.01969*%
%ADD57C,0.07000*%
%ADD58C,0.05500*%
%ADD59C,0.04500*%
%ADD60C,0.00984*%
%ADD61C,0.00394*%
%ADD62C,0.02362*%
%ADD63C,0.00787*%
%ADD64C,0.00500*%
%ADD65C,0.00800*%
D36*
X446000Y242500D02*
X548000D01*
X417500Y271000D02*
X446000Y242500D01*
X417500Y271000D02*
Y314500D01*
X442500Y339500D01*
X547500D01*
X548000Y339000D01*
Y242500D02*
Y339000D01*
X373750Y288450D02*
Y294550D01*
X359250Y288450D02*
Y294550D01*
X196002Y297499D02*
X195002Y296499D01*
Y294500D01*
X196002Y293500D01*
X200000D01*
X201000Y294500D01*
Y296499D01*
X200000Y297499D01*
X201000Y303497D02*
Y299498D01*
X197001Y303497D01*
X196002D01*
X195002Y302497D01*
Y300498D01*
X196002Y299498D01*
X195502Y236999D02*
X194502Y235999D01*
Y234000D01*
X195502Y233000D01*
X199500D01*
X200500Y234000D01*
Y235999D01*
X199500Y236999D01*
X194502Y242997D02*
Y238998D01*
X197501D01*
X196501Y240997D01*
Y241997D01*
X197501Y242997D01*
X199500D01*
X200500Y241997D01*
Y239998D01*
X199500Y238998D01*
X373502Y252499D02*
X372502Y251499D01*
Y249500D01*
X373502Y248500D01*
X377500D01*
X378500Y249500D01*
Y251499D01*
X377500Y252499D01*
Y254498D02*
X378500Y255498D01*
Y257497D01*
X377500Y258497D01*
X373502D01*
X372502Y257497D01*
Y255498D01*
X373502Y254498D01*
X374501D01*
X375501Y255498D01*
Y258497D01*
X456001Y390002D02*
X457001Y389002D01*
X459000D01*
X460000Y390002D01*
Y394000D01*
X459000Y395000D01*
X457001D01*
X456001Y394000D01*
X450003Y395000D02*
X454002D01*
X450003Y391001D01*
Y390002D01*
X451003Y389002D01*
X453002D01*
X454002Y390002D01*
X448004D02*
X447004Y389002D01*
X445005D01*
X444005Y390002D01*
Y394000D01*
X445005Y395000D01*
X447004D01*
X448004Y394000D01*
Y390002D01*
X360501Y401502D02*
X361501Y400502D01*
X363500D01*
X364500Y401502D01*
Y405500D01*
X363500Y406500D01*
X361501D01*
X360501Y405500D01*
X354503Y406500D02*
X358502D01*
X354503Y402501D01*
Y401502D01*
X355503Y400502D01*
X357502D01*
X358502Y401502D01*
X349505Y406500D02*
Y400502D01*
X352504Y403501D01*
X348505D01*
X245501Y393002D02*
X246501Y392002D01*
X248500D01*
X249500Y393002D01*
Y397000D01*
X248500Y398000D01*
X246501D01*
X245501Y397000D01*
X239503Y398000D02*
X243502D01*
X239503Y394001D01*
Y393002D01*
X240503Y392002D01*
X242502D01*
X243502Y393002D01*
X237504D02*
X236504Y392002D01*
X234505D01*
X233505Y393002D01*
Y394001D01*
X234505Y395001D01*
X233505Y396001D01*
Y397000D01*
X234505Y398000D01*
X236504D01*
X237504Y397000D01*
Y396001D01*
X236504Y395001D01*
X237504Y394001D01*
Y393002D01*
X236504Y395001D02*
X234505D01*
X234502Y277500D02*
X240500D01*
Y280499D01*
X239500Y281499D01*
X235502D01*
X234502Y280499D01*
Y277500D01*
X240500Y287497D02*
Y283498D01*
X236501Y287497D01*
X235502D01*
X234502Y286497D01*
Y284498D01*
X235502Y283498D01*
X220500Y246998D02*
Y241000D01*
X224499D01*
X226498D02*
X228497D01*
X227498D01*
Y246998D01*
X226498Y245998D01*
X444000Y262498D02*
X447999Y256500D01*
Y262498D02*
X444000Y256500D01*
X449998Y262498D02*
Y256500D01*
X452997D01*
X453997Y257500D01*
Y258499D01*
X452997Y259499D01*
X449998D01*
X452997D01*
X453997Y260499D01*
Y261498D01*
X452997Y262498D01*
X449998D01*
X459995D02*
X455996D01*
Y256500D01*
X459995D01*
X455996Y259499D02*
X457996D01*
X465993Y262498D02*
X461994D01*
Y256500D01*
X465993D01*
X461994Y259499D02*
X463994D01*
X467992Y256500D02*
X471991Y260499D01*
X473990Y262498D02*
X477989Y256500D01*
Y262498D02*
X473990Y256500D01*
X479988Y262498D02*
Y256500D01*
X482987D01*
X483987Y257500D01*
Y258499D01*
X482987Y259499D01*
X479988D01*
X482987D01*
X483987Y260499D01*
Y261498D01*
X482987Y262498D01*
X479988D01*
X489985D02*
X485986D01*
Y256500D01*
X489985D01*
X485986Y259499D02*
X487986D01*
X495983Y262498D02*
X491985D01*
Y256500D01*
X495983D01*
X491985Y259499D02*
X493984D01*
X503981Y256500D02*
Y262498D01*
X506980D01*
X507979Y261498D01*
Y259499D01*
X506980Y258499D01*
X503981D01*
X509979Y260499D02*
Y256500D01*
Y258499D01*
X510978Y259499D01*
X511978Y260499D01*
X512978D01*
X516976Y256500D02*
X518976D01*
X519975Y257500D01*
Y259499D01*
X518976Y260499D01*
X516976D01*
X515977Y259499D01*
Y257500D01*
X516976Y256500D01*
X260000Y257000D02*
X256001D01*
X254002Y258999D01*
X256001Y260999D01*
X260000D01*
X257001D01*
Y257000D01*
X255002Y263998D02*
X256001D01*
Y262998D01*
Y264997D01*
Y263998D01*
X259000D01*
X260000Y264997D01*
Y267996D02*
X256001D01*
Y268996D01*
X257001Y269996D01*
X260000D01*
X257001D01*
X256001Y270995D01*
X257001Y271995D01*
X260000D01*
Y276993D02*
Y274994D01*
X259000Y273994D01*
X257001D01*
X256001Y274994D01*
Y276993D01*
X257001Y277993D01*
X258001D01*
Y273994D01*
X261999Y281992D02*
Y282992D01*
X261000Y283991D01*
X256001D01*
Y280992D01*
X257001Y279993D01*
X259000D01*
X260000Y280992D01*
Y283991D01*
X256001Y286990D02*
Y288990D01*
X257001Y289989D01*
X260000D01*
Y286990D01*
X259000Y285991D01*
X258001Y286990D01*
Y289989D01*
X260000Y295987D02*
Y291989D01*
X256001Y295987D01*
X255002D01*
X254002Y294988D01*
Y292988D01*
X255002Y291989D01*
X254002Y301985D02*
Y297987D01*
X257001D01*
X256001Y299986D01*
Y300986D01*
X257001Y301985D01*
X259000D01*
X260000Y300986D01*
Y298986D01*
X259000Y297987D01*
X254002Y307983D02*
X255002Y305984D01*
X257001Y303985D01*
X259000D01*
X260000Y304984D01*
Y306984D01*
X259000Y307983D01*
X258001D01*
X257001Y306984D01*
Y303985D01*
X255002Y309983D02*
X254002Y310982D01*
Y312982D01*
X255002Y313982D01*
X259000D01*
X260000Y312982D01*
Y310982D01*
X259000Y309983D01*
X255002D01*
X257001Y315981D02*
Y319980D01*
X260000Y321979D02*
X256001D01*
X254002Y323978D01*
X256001Y325978D01*
X260000D01*
X257001D01*
Y321979D01*
X254002Y327977D02*
X259000D01*
X260000Y328977D01*
Y330976D01*
X259000Y331976D01*
X254002D01*
X411502Y196999D02*
X410502Y195999D01*
Y194000D01*
X411502Y193000D01*
X415500D01*
X416500Y194000D01*
Y195999D01*
X415500Y196999D01*
X411502Y198998D02*
X410502Y199998D01*
Y201997D01*
X411502Y202997D01*
X412501D01*
X413501Y201997D01*
Y200997D01*
Y201997D01*
X414501Y202997D01*
X415500D01*
X416500Y201997D01*
Y199998D01*
X415500Y198998D01*
X416500Y208995D02*
Y204996D01*
X412501Y208995D01*
X411502D01*
X410502Y207995D01*
Y205996D01*
X411502Y204996D01*
X386502Y443499D02*
X385502Y442499D01*
Y440500D01*
X386502Y439500D01*
X390500D01*
X391500Y440500D01*
Y442499D01*
X390500Y443499D01*
X386502Y445498D02*
X385502Y446498D01*
Y448497D01*
X386502Y449497D01*
X387501D01*
X388501Y448497D01*
Y447497D01*
Y448497D01*
X389501Y449497D01*
X390500D01*
X391500Y448497D01*
Y446498D01*
X390500Y445498D01*
X385502Y455495D02*
Y451496D01*
X388501D01*
X387501Y453496D01*
Y454495D01*
X388501Y455495D01*
X390500D01*
X391500Y454495D01*
Y452496D01*
X390500Y451496D01*
X238500Y467500D02*
Y461502D01*
X236501Y463501D01*
X234501Y461502D01*
Y467500D01*
X229503D02*
Y461502D01*
X232502Y464501D01*
X228503D01*
X341000Y469000D02*
Y463002D01*
X339001Y465001D01*
X337001Y463002D01*
Y469000D01*
X335002Y464002D02*
X334002Y463002D01*
X332003D01*
X331003Y464002D01*
Y465001D01*
X332003Y466001D01*
X333003D01*
X332003D01*
X331003Y467001D01*
Y468000D01*
X332003Y469000D01*
X334002D01*
X335002Y468000D01*
X427500Y469000D02*
Y463002D01*
X425501Y465001D01*
X423501Y463002D01*
Y469000D01*
X417503D02*
X421502D01*
X417503Y465001D01*
Y464002D01*
X418503Y463002D01*
X420502D01*
X421502Y464002D01*
X545500Y462500D02*
Y456502D01*
X543501Y458501D01*
X541501Y456502D01*
Y462500D01*
X539502D02*
X537503D01*
X538502D01*
Y456502D01*
X539502Y457502D01*
X155998Y332501D02*
X154998Y334501D01*
X152999Y336500D01*
X151000D01*
X150000Y335500D01*
Y333501D01*
X151000Y332501D01*
X151999D01*
X152999Y333501D01*
Y336500D01*
X155998Y330502D02*
X151999D01*
X150000Y328503D01*
X151999Y326503D01*
X155998D01*
X152999Y324504D02*
Y320505D01*
X154998Y318506D02*
X155998Y317506D01*
Y315507D01*
X154998Y314507D01*
X153999D01*
X152999Y315507D01*
Y316507D01*
Y315507D01*
X151999Y314507D01*
X151000D01*
X150000Y315507D01*
Y317506D01*
X151000Y318506D01*
X155998Y308509D02*
X154998Y310508D01*
X152999Y312508D01*
X151000D01*
X150000Y311508D01*
Y309509D01*
X151000Y308509D01*
X151999D01*
X152999Y309509D01*
Y312508D01*
X155998Y306510D02*
X151999D01*
X150000Y304510D01*
X151999Y302511D01*
X155998D01*
X257999Y196498D02*
X254000D01*
Y193499D01*
X255999Y194499D01*
X256999D01*
X257999Y193499D01*
Y191500D01*
X256999Y190500D01*
X255000D01*
X254000Y191500D01*
X259998Y196498D02*
Y192499D01*
X261997Y190500D01*
X263997Y192499D01*
Y196498D01*
D60*
X206760Y261906D02*
G03*
X206760Y261906I-492J0D01*
G01*
X527043Y358823D02*
G03*
X527043Y358823I-492J0D01*
G01*
X496004Y430929D02*
G03*
X496004Y430929I-492J0D01*
G01*
X465504Y428929D02*
G03*
X465504Y428929I-492J0D01*
G01*
X425378Y367653D02*
G03*
X425378Y367653I-492J0D01*
G01*
X276004Y429929D02*
G03*
X276004Y429929I-492J0D01*
G01*
X220878Y361653D02*
G03*
X220878Y361653I-492J0D01*
G01*
X315004Y432929D02*
G03*
X315004Y432929I-492J0D01*
G01*
X337378Y360154D02*
G03*
X337378Y360154I-492J0D01*
G01*
X390642Y235205D02*
G03*
X390642Y235205I-492J0D01*
G01*
X283713Y252874D02*
G03*
X283713Y252874I-492J0D01*
G01*
X441268Y224087D02*
G03*
X441268Y224087I-492J0D01*
G01*
D61*
X215871Y288110D02*
G03*
X215871Y288110I-197J0D01*
G01*
X208587Y254674D02*
G03*
X208587Y254674I-197J0D01*
G01*
X442307Y376326D02*
G03*
X442307Y376326I-197J0D01*
G01*
X347307Y386826D02*
G03*
X347307Y386826I-197J0D01*
G01*
X232307Y377826D02*
G03*
X232307Y377826I-197J0D01*
G01*
X372523Y456390D02*
G03*
X372523Y456390I-197J0D01*
G01*
X397523Y209390D02*
G03*
X397523Y209390I-197J0D01*
G01*
D62*
X381980Y240126D02*
G03*
X381980Y240126I-1181J0D01*
G01*
X289618Y261437D02*
G03*
X289618Y261437I-1181J0D01*
G01*
D63*
X244847Y421835D02*
Y426165D01*
X238154Y421835D02*
Y426165D01*
X331347Y427835D02*
Y432165D01*
X324654Y427835D02*
Y432165D01*
X443847Y420835D02*
Y425165D01*
X437153Y420835D02*
Y425165D01*
X515846Y426835D02*
Y431165D01*
X509154Y426835D02*
Y431165D01*
X270925Y294303D02*
Y294697D01*
X274075Y294303D02*
Y294697D01*
X273075Y264803D02*
Y265197D01*
X269925Y264803D02*
Y265197D01*
X269803Y251425D02*
X270197D01*
X269803Y254575D02*
X270197D01*
X375803Y268272D02*
X376197D01*
X375803Y264728D02*
X376197D01*
X314000Y227000D02*
X333167D01*
X314000D02*
X344000D01*
X314000Y207000D02*
X344000D01*
Y227000D01*
X314000Y207000D02*
Y227000D01*
X193965Y262398D02*
X202035D01*
X193965Y274602D02*
X202035D01*
X480390Y416165D02*
X520941D01*
X480390Y353173D02*
X520941D01*
X480390D02*
Y416165D01*
X520941Y353173D02*
Y416165D01*
X485669Y425319D02*
Y427681D01*
X494331Y425319D02*
Y427681D01*
X485669Y425319D02*
X494331D01*
X485669Y427681D02*
X494331D01*
X222272Y299303D02*
Y299697D01*
X218728Y299303D02*
Y299697D01*
X442803Y237925D02*
X443197D01*
X442803Y241075D02*
X443197D01*
X217803Y262925D02*
X218197D01*
X217803Y266075D02*
X218197D01*
X342803Y200925D02*
X343197D01*
X342803Y204075D02*
X343197D01*
X455335Y366650D02*
X459665D01*
X455335Y360350D02*
X459665D01*
X192595Y306661D02*
X204405D01*
X192595Y289339D02*
X204405D01*
X189839Y231594D02*
Y243406D01*
X207161Y231594D02*
Y243406D01*
X186303Y284272D02*
X186697D01*
X186303Y280728D02*
X186697D01*
X185772Y253303D02*
Y253697D01*
X182228Y253303D02*
Y253697D01*
X492925Y225803D02*
Y226197D01*
X496075Y225803D02*
Y226197D01*
X178803Y264425D02*
X179197D01*
X178803Y267575D02*
X179197D01*
X460661Y387595D02*
Y399406D01*
X443339Y387595D02*
Y399406D01*
X221047Y231453D02*
X226953D01*
X221047Y255547D02*
X226953D01*
X455169Y423319D02*
Y425681D01*
X463831Y423319D02*
Y425681D01*
X455169Y423319D02*
X463831D01*
X455169Y425681D02*
X463831D01*
X378724Y424996D02*
X419276D01*
X378724Y362004D02*
X419276D01*
X378724D02*
Y424996D01*
X419276Y362004D02*
Y424996D01*
X265669Y424319D02*
Y426681D01*
X274331Y424319D02*
Y426681D01*
X265669Y424319D02*
X274331D01*
X265669Y426681D02*
X274331D01*
X365661Y398095D02*
Y409905D01*
X348339Y398095D02*
Y409905D01*
X174224Y418996D02*
X214776D01*
X174224Y356004D02*
X214776D01*
X174224D02*
Y418996D01*
X214776Y356004D02*
Y418996D01*
X304669Y427319D02*
Y429681D01*
X313331Y427319D02*
Y429681D01*
X304669Y427319D02*
X313331D01*
X304669Y429681D02*
X313331D01*
X290724Y417496D02*
X331276D01*
X290724Y354504D02*
X331276D01*
X290724D02*
Y417496D01*
X331276Y354504D02*
Y417496D01*
X381835Y357953D02*
X386165D01*
X381835Y352047D02*
X386165D01*
X181335Y351453D02*
X185665D01*
X181335Y345547D02*
X185665D01*
X250661Y389094D02*
Y400906D01*
X233339Y389094D02*
Y400906D01*
X377728Y299303D02*
Y299697D01*
X381272Y299303D02*
Y299697D01*
X378228Y281803D02*
Y282197D01*
X381772Y281803D02*
Y282197D01*
X364264Y259811D02*
X384736D01*
X364264Y236189D02*
X384736D01*
X364264D02*
Y259811D01*
X384736Y236189D02*
Y259811D01*
X351425Y269803D02*
Y270197D01*
X354575Y269803D02*
Y270197D01*
X315075Y326303D02*
Y326697D01*
X311925Y326303D02*
Y326697D01*
X301303Y242425D02*
X301697D01*
X301303Y245575D02*
X301697D01*
X334500Y257500D02*
Y307500D01*
X284500Y257500D02*
Y307500D01*
X334500D01*
X284500Y257500D02*
X334500D01*
X443803Y206575D02*
X444197D01*
X443803Y203425D02*
X444197D01*
X444835Y233347D02*
X449165D01*
X444835Y226654D02*
X449165D01*
X448256Y211094D02*
Y214244D01*
X444319Y211094D02*
X448256D01*
Y219756D02*
Y222905D01*
X444319D02*
X448256D01*
X385500Y224500D02*
X395500D01*
Y194500D02*
Y224500D01*
X385500Y194500D02*
X395500D01*
X385500D02*
Y224500D01*
X370000Y224244D02*
X380000D01*
Y194244D02*
Y224244D01*
X370000Y194244D02*
X380000D01*
X370000D02*
Y224244D01*
X354500Y224500D02*
X364500D01*
Y194500D02*
Y224500D01*
X354500Y194500D02*
X364500D01*
X354500D02*
Y224500D01*
X178303Y271925D02*
X178697D01*
X178303Y275075D02*
X178697D01*
X289878Y218803D02*
Y219197D01*
X287122Y218803D02*
Y219197D01*
X383594Y437839D02*
X395406D01*
X383594Y455161D02*
X395406D01*
X408595Y190839D02*
X420405D01*
X408595Y208161D02*
X420405D01*
X335925Y426303D02*
Y426697D01*
X339075Y426303D02*
Y426697D01*
X519925Y426303D02*
Y426697D01*
X523075Y426303D02*
Y426697D01*
X447925Y424803D02*
Y425197D01*
X451075Y424803D02*
Y425197D01*
X251925Y428803D02*
Y429197D01*
X255075Y428803D02*
Y429197D01*
X275150Y364335D02*
Y368665D01*
X268850Y364335D02*
Y368665D01*
X177575Y253803D02*
Y254197D01*
X174425Y253803D02*
Y254197D01*
X240925Y197303D02*
Y197697D01*
X244075Y197303D02*
Y197697D01*
X234425Y197303D02*
Y197697D01*
X237575Y197303D02*
Y197697D01*
X227925Y197303D02*
Y197697D01*
X231075Y197303D02*
Y197697D01*
X221425Y197303D02*
Y197697D01*
X224575Y197303D02*
Y197697D01*
X240925Y209803D02*
Y210197D01*
X244075Y209803D02*
Y210197D01*
X234425Y209803D02*
Y210197D01*
X237575Y209803D02*
Y210197D01*
X227925Y209803D02*
Y210197D01*
X231075Y209803D02*
Y210197D01*
X221425Y209803D02*
Y210197D01*
X224575Y209803D02*
Y210197D01*
X288425Y203303D02*
Y203697D01*
X291575Y203303D02*
Y203697D01*
D64*
X226500Y268500D02*
X229000D01*
X226500D02*
Y296500D01*
X229000D01*
X248000D02*
X250500D01*
Y268500D02*
Y296500D01*
X248000Y268500D02*
X250500D01*
X226500Y276000D02*
X250500D01*
X462500Y204000D02*
X465000D01*
X462500D02*
Y232000D01*
X465000D01*
X484000D02*
X486500D01*
Y204000D02*
Y232000D01*
X484000Y204000D02*
X486500D01*
X462500Y211500D02*
X486500D01*
X225834Y301333D02*
X225501Y301000D01*
Y300333D01*
X225834Y300000D01*
X227167D01*
X227500Y300333D01*
Y301000D01*
X227167Y301333D01*
X225834Y301999D02*
X225501Y302333D01*
Y302999D01*
X225834Y303332D01*
X226167D01*
X226500Y302999D01*
Y302666D01*
Y302999D01*
X226834Y303332D01*
X227167D01*
X227500Y302999D01*
Y302333D01*
X227167Y301999D01*
X218667Y259834D02*
X219000Y259501D01*
X219667D01*
X220000Y259834D01*
Y261167D01*
X219667Y261500D01*
X219000D01*
X218667Y261167D01*
X217001Y261500D02*
Y259501D01*
X218001Y260500D01*
X216668D01*
X171334Y253333D02*
X171001Y253000D01*
Y252333D01*
X171334Y252000D01*
X172667D01*
X173000Y252333D01*
Y253000D01*
X172667Y253333D01*
X171001Y255332D02*
X171334Y254666D01*
X172000Y253999D01*
X172667D01*
X173000Y254333D01*
Y254999D01*
X172667Y255332D01*
X172334D01*
X172000Y254999D01*
Y253999D01*
X268333Y258166D02*
X268000Y258499D01*
X267333D01*
X267000Y258166D01*
Y256833D01*
X267333Y256500D01*
X268000D01*
X268333Y256833D01*
X268999Y256500D02*
X269666D01*
X269333D01*
Y258499D01*
X268999Y258166D01*
X271998Y256500D02*
X270666D01*
X271998Y257833D01*
Y258166D01*
X271665Y258499D01*
X270999D01*
X270666Y258166D01*
X276666Y266667D02*
X276999Y267000D01*
Y267667D01*
X276666Y268000D01*
X275333D01*
X275000Y267667D01*
Y267000D01*
X275333Y266667D01*
X275000Y266001D02*
Y265334D01*
Y265667D01*
X276999D01*
X276666Y266001D01*
Y264335D02*
X276999Y264001D01*
Y263335D01*
X276666Y263002D01*
X276333D01*
X276000Y263335D01*
Y263668D01*
Y263335D01*
X275666Y263002D01*
X275333D01*
X275000Y263335D01*
Y264001D01*
X275333Y264335D01*
X266834Y289833D02*
X266501Y289500D01*
Y288833D01*
X266834Y288500D01*
X268167D01*
X268500Y288833D01*
Y289500D01*
X268167Y289833D01*
X268500Y290499D02*
Y291166D01*
Y290833D01*
X266501D01*
X266834Y290499D01*
X268500Y293165D02*
X266501D01*
X267500Y292165D01*
Y293498D01*
X308334Y322833D02*
X308001Y322500D01*
Y321833D01*
X308334Y321500D01*
X309667D01*
X310000Y321833D01*
Y322500D01*
X309667Y322833D01*
X310000Y323499D02*
Y324166D01*
Y323833D01*
X308001D01*
X308334Y323499D01*
X308001Y326498D02*
Y325166D01*
X309000D01*
X308667Y325832D01*
Y326165D01*
X309000Y326498D01*
X309667D01*
X310000Y326165D01*
Y325499D01*
X309667Y325166D01*
X356834Y268833D02*
X356501Y268500D01*
Y267833D01*
X356834Y267500D01*
X358167D01*
X358500Y267833D01*
Y268500D01*
X358167Y268833D01*
X358500Y269499D02*
Y270166D01*
Y269833D01*
X356501D01*
X356834Y269499D01*
X356501Y272498D02*
X356834Y271832D01*
X357500Y271165D01*
X358167D01*
X358500Y271499D01*
Y272165D01*
X358167Y272498D01*
X357834D01*
X357500Y272165D01*
Y271165D01*
X299333Y248666D02*
X299000Y248999D01*
X298333D01*
X298000Y248666D01*
Y247333D01*
X298333Y247000D01*
X299000D01*
X299333Y247333D01*
X299999Y247000D02*
X300666D01*
X300333D01*
Y248999D01*
X299999Y248666D01*
X301665Y248999D02*
X302998D01*
Y248666D01*
X301665Y247333D01*
Y247000D01*
X505834Y427833D02*
X505501Y427500D01*
Y426833D01*
X505834Y426500D01*
X507167D01*
X507500Y426833D01*
Y427500D01*
X507167Y427833D01*
X507500Y428499D02*
Y429166D01*
Y428833D01*
X505501D01*
X505834Y428499D01*
Y430165D02*
X505501Y430499D01*
Y431165D01*
X505834Y431498D01*
X506167D01*
X506500Y431165D01*
X506834Y431498D01*
X507167D01*
X507500Y431165D01*
Y430499D01*
X507167Y430165D01*
X506834D01*
X506500Y430499D01*
X506167Y430165D01*
X505834D01*
X506500Y430499D02*
Y431165D01*
X445834Y362333D02*
X445501Y362000D01*
Y361333D01*
X445834Y361000D01*
X447167D01*
X447500Y361333D01*
Y362000D01*
X447167Y362333D01*
X447500Y364332D02*
Y362999D01*
X446167Y364332D01*
X445834D01*
X445501Y363999D01*
Y363333D01*
X445834Y362999D01*
X447500Y364999D02*
Y365665D01*
Y365332D01*
X445501D01*
X445834Y364999D01*
X433334Y421333D02*
X433001Y421000D01*
Y420333D01*
X433334Y420000D01*
X434667D01*
X435000Y420333D01*
Y421000D01*
X434667Y421333D01*
X435000Y423332D02*
Y421999D01*
X433667Y423332D01*
X433334D01*
X433001Y422999D01*
Y422333D01*
X433334Y421999D01*
X435000Y425332D02*
Y423999D01*
X433667Y425332D01*
X433334D01*
X433001Y424998D01*
Y424332D01*
X433334Y423999D01*
X392834Y354833D02*
X392501Y354500D01*
Y353833D01*
X392834Y353500D01*
X394167D01*
X394500Y353833D01*
Y354500D01*
X394167Y354833D01*
X394500Y356832D02*
Y355499D01*
X393167Y356832D01*
X392834D01*
X392501Y356499D01*
Y355833D01*
X392834Y355499D01*
X392501Y358832D02*
Y357499D01*
X393500D01*
X393167Y358165D01*
Y358498D01*
X393500Y358832D01*
X394167D01*
X394500Y358498D01*
Y357832D01*
X394167Y357499D01*
X321334Y427833D02*
X321001Y427500D01*
Y426833D01*
X321334Y426500D01*
X322667D01*
X323000Y426833D01*
Y427500D01*
X322667Y427833D01*
X323000Y429832D02*
Y428499D01*
X321667Y429832D01*
X321334D01*
X321001Y429499D01*
Y428833D01*
X321334Y428499D01*
X321001Y431832D02*
X321334Y431165D01*
X322000Y430499D01*
X322667D01*
X323000Y430832D01*
Y431498D01*
X322667Y431832D01*
X322334D01*
X322000Y431498D01*
Y430499D01*
X265834Y365833D02*
X265501Y365500D01*
Y364833D01*
X265834Y364500D01*
X267167D01*
X267500Y364833D01*
Y365500D01*
X267167Y365833D01*
X267500Y367832D02*
Y366499D01*
X266167Y367832D01*
X265834D01*
X265501Y367499D01*
Y366833D01*
X265834Y366499D01*
X267167Y368499D02*
X267500Y368832D01*
Y369498D01*
X267167Y369832D01*
X265834D01*
X265501Y369498D01*
Y368832D01*
X265834Y368499D01*
X266167D01*
X266500Y368832D01*
Y369832D01*
X234334Y422333D02*
X234001Y422000D01*
Y421333D01*
X234334Y421000D01*
X235667D01*
X236000Y421333D01*
Y422000D01*
X235667Y422333D01*
X234334Y422999D02*
X234001Y423333D01*
Y423999D01*
X234334Y424332D01*
X234667D01*
X235000Y423999D01*
Y423666D01*
Y423999D01*
X235334Y424332D01*
X235667D01*
X236000Y423999D01*
Y423333D01*
X235667Y422999D01*
X234334Y424999D02*
X234001Y425332D01*
Y425998D01*
X234334Y426332D01*
X235667D01*
X236000Y425998D01*
Y425332D01*
X235667Y424999D01*
X234334D01*
X194166Y350167D02*
X194499Y350500D01*
Y351167D01*
X194166Y351500D01*
X192833D01*
X192500Y351167D01*
Y350500D01*
X192833Y350167D01*
X194166Y349501D02*
X194499Y349167D01*
Y348501D01*
X194166Y348168D01*
X193833D01*
X193500Y348501D01*
Y348834D01*
Y348501D01*
X193166Y348168D01*
X192833D01*
X192500Y348501D01*
Y349167D01*
X192833Y349501D01*
X194166Y347501D02*
X194499Y347168D01*
Y346502D01*
X194166Y346168D01*
X193833D01*
X193500Y346502D01*
Y346835D01*
Y346502D01*
X193166Y346168D01*
X192833D01*
X192500Y346502D01*
Y347168D01*
X192833Y347501D01*
X172500Y264000D02*
X170501D01*
Y265000D01*
X170834Y265333D01*
X171500D01*
X171834Y265000D01*
Y264000D01*
Y264666D02*
X172500Y265333D01*
Y267332D02*
Y265999D01*
X171167Y267332D01*
X170834D01*
X170501Y266999D01*
Y266333D01*
X170834Y265999D01*
X172000Y271500D02*
X170001D01*
Y272500D01*
X170334Y272833D01*
X171000D01*
X171334Y272500D01*
Y271500D01*
Y272166D02*
X172000Y272833D01*
X170334Y273499D02*
X170001Y273833D01*
Y274499D01*
X170334Y274832D01*
X170667D01*
X171000Y274499D01*
Y274166D01*
Y274499D01*
X171334Y274832D01*
X171667D01*
X172000Y274499D01*
Y273833D01*
X171667Y273499D01*
X192000Y278000D02*
Y276001D01*
X191000D01*
X190667Y276334D01*
Y277000D01*
X191000Y277334D01*
X192000D01*
X191333D02*
X190667Y278000D01*
X189001D02*
Y276001D01*
X190001Y277000D01*
X188668D01*
X180500Y251000D02*
X178501D01*
Y252000D01*
X178834Y252333D01*
X179500D01*
X179833Y252000D01*
Y251000D01*
Y251666D02*
X180500Y252333D01*
X178501Y254332D02*
Y252999D01*
X179500D01*
X179167Y253666D01*
Y253999D01*
X179500Y254332D01*
X180167D01*
X180500Y253999D01*
Y253333D01*
X180167Y252999D01*
X525000Y428000D02*
X526999D01*
Y427000D01*
X526666Y426667D01*
X526000D01*
X525666Y427000D01*
Y428000D01*
Y427334D02*
X525000Y426667D01*
X526999Y424668D02*
X526666Y425334D01*
X526000Y426001D01*
X525333D01*
X525000Y425667D01*
Y425001D01*
X525333Y424668D01*
X525666D01*
X526000Y425001D01*
Y426001D01*
X446000Y424000D02*
X444001D01*
Y425000D01*
X444334Y425333D01*
X445000D01*
X445334Y425000D01*
Y424000D01*
Y424666D02*
X446000Y425333D01*
X444001Y425999D02*
Y427332D01*
X444334D01*
X445667Y425999D01*
X446000D01*
X343000Y421000D02*
X341001D01*
Y422000D01*
X341334Y422333D01*
X342000D01*
X342334Y422000D01*
Y421000D01*
Y421666D02*
X343000Y422333D01*
X341334Y422999D02*
X341001Y423333D01*
Y423999D01*
X341334Y424332D01*
X341667D01*
X342000Y423999D01*
X342334Y424332D01*
X342667D01*
X343000Y423999D01*
Y423333D01*
X342667Y422999D01*
X342334D01*
X342000Y423333D01*
X341667Y422999D01*
X341334D01*
X342000Y423333D02*
Y423999D01*
X250500Y427500D02*
X248501D01*
Y428500D01*
X248834Y428833D01*
X249500D01*
X249834Y428500D01*
Y427500D01*
Y428166D02*
X250500Y428833D01*
X250167Y429499D02*
X250500Y429833D01*
Y430499D01*
X250167Y430832D01*
X248834D01*
X248501Y430499D01*
Y429833D01*
X248834Y429499D01*
X249167D01*
X249500Y429833D01*
Y430832D01*
D65*
X346000Y224000D02*
X345000D01*
X345500D01*
Y221001D01*
X346000Y221501D01*
X345001Y213500D02*
X347000D01*
X345001Y211501D01*
Y211001D01*
X345500Y210501D01*
X346500D01*
X347000Y211001D01*
X311001Y221001D02*
X313000D01*
Y222500D01*
X312000Y222001D01*
X311501D01*
X311001Y222500D01*
Y223500D01*
X311501Y224000D01*
X312500D01*
X313000Y223500D01*
X311001Y211001D02*
X312000Y211501D01*
X313000Y212501D01*
Y213500D01*
X312500Y214000D01*
X311501D01*
X311001Y213500D01*
Y213000D01*
X311501Y212501D01*
X313000D01*
M02*
