%FSLAX25Y25*%
%MOIN*%
G70*
G01*
G75*
G04 Layer_Physical_Order=1*
G04 Layer_Color=255*
%ADD10R,0.07480X0.05315*%
%ADD11R,0.03937X0.03543*%
%ADD12R,0.03543X0.03937*%
%ADD13R,0.04331X0.04331*%
%ADD14O,0.05315X0.00984*%
%ADD15R,0.06614X0.07402*%
%ADD16R,0.11417X0.07874*%
%ADD17R,0.28346X0.49606*%
%ADD18O,0.08071X0.02362*%
%ADD19O,0.01575X0.03347*%
%ADD20R,0.04331X0.04331*%
%ADD21R,0.04528X0.07087*%
%ADD22R,0.08858X0.18110*%
%ADD23R,0.18110X0.08858*%
%ADD24R,0.09291X0.24882*%
%ADD25R,0.03740X0.06693*%
%ADD26R,0.15000X0.11000*%
%ADD27O,0.07677X0.03543*%
%ADD28R,0.05500X0.06300*%
%ADD29O,0.06102X0.00984*%
%ADD30O,0.00984X0.06102*%
%ADD31R,0.05315X0.07480*%
%ADD32R,0.03937X0.02362*%
%ADD33R,0.03543X0.02756*%
%ADD34R,0.07087X0.04528*%
%ADD35C,0.01200*%
%ADD36C,0.01000*%
%ADD37C,0.00700*%
%ADD38C,0.04000*%
%ADD39C,0.03000*%
%ADD40C,0.02000*%
%ADD41C,0.08000*%
%ADD42C,0.05000*%
%ADD43C,0.02500*%
%ADD44C,0.01500*%
%ADD45C,0.07500*%
%ADD46C,0.05512*%
%ADD47R,0.05512X0.05512*%
%ADD48C,0.05906*%
%ADD49R,0.05906X0.05906*%
%ADD50R,0.06000X0.06000*%
%ADD51C,0.06000*%
%ADD52R,0.05906X0.05906*%
%ADD53R,0.05512X0.05512*%
%ADD54C,0.03500*%
%ADD55C,0.05000*%
%ADD56C,0.01969*%
%ADD57C,0.07000*%
%ADD58C,0.05500*%
%ADD59C,0.04500*%
D10*
X241500Y430299D02*
D03*
Y417701D02*
D03*
X328000Y436299D02*
D03*
Y423701D02*
D03*
X440500Y429299D02*
D03*
Y416701D02*
D03*
X512500Y435299D02*
D03*
Y422701D02*
D03*
D11*
X272500Y291350D02*
D03*
Y297650D02*
D03*
X271500Y268150D02*
D03*
Y261850D02*
D03*
X494500Y229150D02*
D03*
Y222850D02*
D03*
X353000Y266850D02*
D03*
Y273150D02*
D03*
X313500Y329650D02*
D03*
Y323350D02*
D03*
X337500Y429650D02*
D03*
Y423350D02*
D03*
X521500Y429650D02*
D03*
Y423350D02*
D03*
X449500Y428150D02*
D03*
Y421850D02*
D03*
X253500Y432150D02*
D03*
Y425850D02*
D03*
X176000Y257150D02*
D03*
Y250850D02*
D03*
X242500Y194350D02*
D03*
Y200650D02*
D03*
X236000Y194350D02*
D03*
Y200650D02*
D03*
X229500Y194350D02*
D03*
Y200650D02*
D03*
X223000Y194350D02*
D03*
Y200650D02*
D03*
X242500Y213150D02*
D03*
Y206850D02*
D03*
X236000Y213150D02*
D03*
Y206850D02*
D03*
X229500Y213150D02*
D03*
Y206850D02*
D03*
X223000Y213150D02*
D03*
Y206850D02*
D03*
X290000Y200350D02*
D03*
Y206650D02*
D03*
D12*
X273150Y253000D02*
D03*
X266850D02*
D03*
X446150Y239500D02*
D03*
X439850D02*
D03*
X221150Y264500D02*
D03*
X214850D02*
D03*
X346150Y202500D02*
D03*
X339850D02*
D03*
X175850Y266000D02*
D03*
X182150D02*
D03*
X304650Y244000D02*
D03*
X298350D02*
D03*
X440850Y205000D02*
D03*
X447150D02*
D03*
X175350Y273500D02*
D03*
X181650D02*
D03*
D13*
X372457Y266500D02*
D03*
X379543D02*
D03*
X182957Y282500D02*
D03*
X190043D02*
D03*
D14*
X206268Y264563D02*
D03*
Y266531D02*
D03*
Y268500D02*
D03*
Y270468D02*
D03*
Y272437D02*
D03*
X189732Y264563D02*
D03*
Y266531D02*
D03*
Y268500D02*
D03*
Y270468D02*
D03*
Y272437D02*
D03*
D15*
X198000Y268500D02*
D03*
D16*
X500665Y413410D02*
D03*
Y355929D02*
D03*
X399000Y422240D02*
D03*
Y364760D02*
D03*
X194500Y416240D02*
D03*
Y358760D02*
D03*
X311000Y414740D02*
D03*
Y357260D02*
D03*
D17*
X500665Y384669D02*
D03*
X399000Y393500D02*
D03*
X194500Y387500D02*
D03*
X311000Y386000D02*
D03*
D18*
X474780Y407169D02*
D03*
Y402169D02*
D03*
Y397169D02*
D03*
Y392169D02*
D03*
Y387169D02*
D03*
Y382169D02*
D03*
Y377169D02*
D03*
Y372169D02*
D03*
Y367169D02*
D03*
Y362169D02*
D03*
X526551Y407169D02*
D03*
Y402169D02*
D03*
Y397169D02*
D03*
Y392169D02*
D03*
Y387169D02*
D03*
Y382169D02*
D03*
Y377169D02*
D03*
Y372169D02*
D03*
Y367169D02*
D03*
X373114Y416000D02*
D03*
Y411000D02*
D03*
Y406000D02*
D03*
Y401000D02*
D03*
Y396000D02*
D03*
Y391000D02*
D03*
Y386000D02*
D03*
Y381000D02*
D03*
Y376000D02*
D03*
Y371000D02*
D03*
X424886Y416000D02*
D03*
Y411000D02*
D03*
Y406000D02*
D03*
Y401000D02*
D03*
Y396000D02*
D03*
Y391000D02*
D03*
Y386000D02*
D03*
Y381000D02*
D03*
Y376000D02*
D03*
Y371000D02*
D03*
X168614Y410000D02*
D03*
Y405000D02*
D03*
Y400000D02*
D03*
Y395000D02*
D03*
Y390000D02*
D03*
Y385000D02*
D03*
Y380000D02*
D03*
Y375000D02*
D03*
Y370000D02*
D03*
Y365000D02*
D03*
X220386Y410000D02*
D03*
Y405000D02*
D03*
Y400000D02*
D03*
Y395000D02*
D03*
Y390000D02*
D03*
Y385000D02*
D03*
Y380000D02*
D03*
Y375000D02*
D03*
Y370000D02*
D03*
Y365000D02*
D03*
X285114Y408500D02*
D03*
Y403500D02*
D03*
Y398500D02*
D03*
Y393500D02*
D03*
Y388500D02*
D03*
Y383500D02*
D03*
Y378500D02*
D03*
Y373500D02*
D03*
Y368500D02*
D03*
Y363500D02*
D03*
X336886Y408500D02*
D03*
Y403500D02*
D03*
Y398500D02*
D03*
Y393500D02*
D03*
Y388500D02*
D03*
Y383500D02*
D03*
Y378500D02*
D03*
Y373500D02*
D03*
Y368500D02*
D03*
Y363500D02*
D03*
X526551Y362169D02*
D03*
D19*
X487441Y422071D02*
D03*
X490000D02*
D03*
X492559D02*
D03*
X487441Y430929D02*
D03*
X490000D02*
D03*
X492559D02*
D03*
X456941Y420071D02*
D03*
X459500D02*
D03*
X462059D02*
D03*
X456941Y428929D02*
D03*
X459500D02*
D03*
X462059D02*
D03*
X267441Y421071D02*
D03*
X270000D02*
D03*
X272559D02*
D03*
X267441Y429929D02*
D03*
X270000D02*
D03*
X272559D02*
D03*
X306441Y424071D02*
D03*
X309000D02*
D03*
X311559D02*
D03*
X306441Y432929D02*
D03*
X309000D02*
D03*
X311559D02*
D03*
D20*
X220500Y303043D02*
D03*
Y295957D02*
D03*
X184000Y257043D02*
D03*
Y249957D02*
D03*
X379500Y295957D02*
D03*
Y303043D02*
D03*
X380000Y278457D02*
D03*
Y285543D02*
D03*
D21*
X451594Y363500D02*
D03*
X463406D02*
D03*
D22*
X186591Y298000D02*
D03*
X210409D02*
D03*
X401409Y446500D02*
D03*
X377590D02*
D03*
X426409Y199500D02*
D03*
X402591D02*
D03*
D23*
X198500Y225590D02*
D03*
Y249410D02*
D03*
X452000Y405409D02*
D03*
Y381591D02*
D03*
X357000Y415909D02*
D03*
X242000Y406910D02*
D03*
Y383090D02*
D03*
X357000Y392091D02*
D03*
D24*
X233134Y243500D02*
D03*
X214866D02*
D03*
D25*
X378488Y355000D02*
D03*
X389512D02*
D03*
X177988Y348500D02*
D03*
X189012D02*
D03*
D26*
X238500Y266500D02*
D03*
Y296500D02*
D03*
X474500Y202000D02*
D03*
Y232000D02*
D03*
D27*
X358850Y256858D02*
D03*
Y239142D02*
D03*
X390150Y256858D02*
D03*
Y239142D02*
D03*
D28*
X371250Y283350D02*
D03*
Y299650D02*
D03*
X361750D02*
D03*
Y283350D02*
D03*
D29*
X279874Y258878D02*
D03*
Y260846D02*
D03*
Y262815D02*
D03*
Y264784D02*
D03*
Y266752D02*
D03*
Y268721D02*
D03*
Y270689D02*
D03*
Y272657D02*
D03*
Y274626D02*
D03*
Y276594D02*
D03*
Y278563D02*
D03*
Y280532D02*
D03*
Y282500D02*
D03*
Y284469D02*
D03*
Y286437D02*
D03*
Y288405D02*
D03*
Y290374D02*
D03*
Y292342D02*
D03*
Y294311D02*
D03*
Y296280D02*
D03*
Y298248D02*
D03*
Y300217D02*
D03*
Y302185D02*
D03*
Y304153D02*
D03*
Y306122D02*
D03*
X339126D02*
D03*
Y304153D02*
D03*
Y302185D02*
D03*
Y300217D02*
D03*
Y298248D02*
D03*
Y296280D02*
D03*
Y294311D02*
D03*
Y292342D02*
D03*
Y290374D02*
D03*
Y288405D02*
D03*
Y286437D02*
D03*
Y284469D02*
D03*
Y282500D02*
D03*
Y280532D02*
D03*
Y278563D02*
D03*
Y276594D02*
D03*
Y274626D02*
D03*
Y272657D02*
D03*
Y270689D02*
D03*
Y268721D02*
D03*
Y266752D02*
D03*
Y264784D02*
D03*
Y262815D02*
D03*
Y260846D02*
D03*
Y258878D02*
D03*
D30*
X285878Y312126D02*
D03*
X287846D02*
D03*
X289815D02*
D03*
X291783D02*
D03*
X293752D02*
D03*
X295721D02*
D03*
X297689D02*
D03*
X299658D02*
D03*
X301626D02*
D03*
X303594D02*
D03*
X305563D02*
D03*
X307531D02*
D03*
X309500D02*
D03*
X311469D02*
D03*
X313437D02*
D03*
X315406D02*
D03*
X317374D02*
D03*
X319342D02*
D03*
X321311D02*
D03*
X323280D02*
D03*
X325248D02*
D03*
X327217D02*
D03*
X329185D02*
D03*
X331153D02*
D03*
X333122D02*
D03*
Y252874D02*
D03*
X331153D02*
D03*
X329185D02*
D03*
X327217D02*
D03*
X325248D02*
D03*
X323280D02*
D03*
X321311D02*
D03*
X319342D02*
D03*
X317374D02*
D03*
X315406D02*
D03*
X313437D02*
D03*
X311469D02*
D03*
X309500D02*
D03*
X307531D02*
D03*
X305563D02*
D03*
X303594D02*
D03*
X301626D02*
D03*
X299658D02*
D03*
X297689D02*
D03*
X295721D02*
D03*
X293752D02*
D03*
X291783D02*
D03*
X289815D02*
D03*
X287846D02*
D03*
X285878D02*
D03*
D31*
X440701Y230000D02*
D03*
X453299D02*
D03*
D32*
X450224Y217000D02*
D03*
X440776Y213260D02*
D03*
Y220740D02*
D03*
D33*
X288500Y216244D02*
D03*
Y221756D02*
D03*
D34*
X272000Y372406D02*
D03*
Y360595D02*
D03*
D35*
X354500Y317500D02*
X515500D01*
X345000Y308000D02*
X354500Y317500D01*
X515500D02*
X528500Y330500D01*
X367500Y308500D02*
X528000D01*
X428500Y321500D02*
X453500Y346500D01*
X359500Y219500D02*
Y221000D01*
X220386Y375000D02*
X234000D01*
X512000Y420988D02*
X518244D01*
X520916Y424244D02*
X521500D01*
X518244Y420988D02*
X520916Y423660D01*
X442744Y417488D02*
X447106Y421850D01*
X225000Y400000D02*
X228500Y403500D01*
X432000Y442737D02*
Y443000D01*
X489828Y422071D02*
X490000D01*
X487441Y430929D02*
X487613Y431101D01*
X308828Y424242D02*
X309000Y424071D01*
X306441Y432929D02*
X306613Y433101D01*
X311559Y432929D02*
X318530Y439900D01*
X250500Y442071D02*
Y444000D01*
X440776Y220740D02*
Y229925D01*
X439850Y230850D02*
Y239500D01*
X448350Y248000D01*
X440701Y230000D02*
X440776Y229925D01*
X439850Y230850D02*
X440701Y230000D01*
X440776Y205075D02*
Y213260D01*
Y205075D02*
X440850Y205000D01*
X490650Y233000D02*
X494500Y229150D01*
X474500Y233000D02*
X490650D01*
X362315Y257858D02*
X370957Y266500D01*
X358350Y257858D02*
X362315D01*
X358350Y240142D02*
Y257858D01*
X364421Y276521D02*
X371250Y283350D01*
X351130Y268721D02*
X353000Y266850D01*
X329000Y212000D02*
X331000D01*
X212819Y266531D02*
X214850Y264500D01*
X181650Y273500D02*
X186650Y268500D01*
X474610Y397000D02*
X474780Y397169D01*
X526551Y372169D02*
X531831D01*
X276890Y304153D02*
X279874D01*
X275500Y305544D02*
X276890Y304153D01*
X275500Y305544D02*
Y316000D01*
X177988Y348500D02*
Y375012D01*
X173000Y380000D02*
X177988Y375012D01*
X168614Y380000D02*
X173000D01*
X169114Y394500D02*
X172000D01*
X378543Y278457D02*
X380000D01*
X373650Y283350D02*
X378543Y278457D01*
X371250Y283350D02*
X373650D01*
X378543Y295000D02*
X379500Y295957D01*
X366400Y295000D02*
X378543D01*
X361750Y299650D02*
X366400Y295000D01*
X220386Y400000D02*
X225000D01*
X331500Y398500D02*
X336886D01*
X506677Y348677D02*
X525169Y367169D01*
X526551D01*
X521500Y424244D02*
X527500Y418244D01*
Y414500D02*
Y418244D01*
X520916Y423660D02*
Y424244D01*
X389500Y220500D02*
X390500Y219500D01*
X374000Y220244D02*
X375000Y219244D01*
X469500Y197000D02*
X474500Y202000D01*
X435500Y197000D02*
X469500D01*
X435500D02*
X436000Y196500D01*
X353000Y266850D02*
X364850D01*
X369500Y271500D01*
X225000Y400000D02*
X229000Y396000D01*
X228500Y403500D02*
Y410500D01*
X242500Y443737D02*
Y444000D01*
X531831Y372169D02*
X538500Y365500D01*
X530000Y329000D02*
Y330000D01*
X370957Y266500D02*
X373244D01*
X424886Y381000D02*
X430500D01*
X373114Y376000D02*
X379000D01*
X263071Y431429D02*
X266071D01*
X250500Y444000D02*
X263071Y431429D01*
X258500Y444000D02*
X264500Y438000D01*
X272559Y431429D02*
Y435941D01*
X267500Y444000D02*
X276000Y435500D01*
X266500Y444000D02*
X267500D01*
X440000Y443000D02*
X445500Y437500D01*
X462500Y439000D02*
X467500Y434000D01*
X460000Y439000D02*
X462500D01*
X456000Y443000D02*
X460000Y439000D01*
X492559Y430929D02*
X495429D01*
X509500Y445000D01*
X490000Y422071D02*
Y424500D01*
X300000Y213153D02*
X300500Y213652D01*
X474500Y233000D02*
Y237000D01*
X318530Y439900D02*
Y449000D01*
X306613Y433101D02*
Y440613D01*
X310500Y444500D01*
X440500Y417488D02*
X442744D01*
X271500Y261850D02*
X272465Y262815D01*
X266650Y268150D02*
X271500D01*
X273150Y253000D02*
X278500D01*
X336886Y388500D02*
X340000D01*
X344500Y393000D01*
Y396000D01*
X342000Y393500D02*
X344500Y396000D01*
X336886Y393500D02*
X342000D01*
X287347Y260846D02*
X287500Y261000D01*
X287846Y241653D02*
X288000Y241500D01*
X297689Y262189D02*
X298500Y263000D01*
X310000Y318500D02*
Y321000D01*
X312350Y323350D01*
X313500D01*
X306850Y317195D02*
X307531Y316514D01*
X329450Y358734D02*
Y396450D01*
X302500Y321000D02*
X304000Y322500D01*
X306850Y317195D02*
Y333305D01*
X331450Y357905D01*
X304000Y322500D02*
Y333283D01*
X329450Y358734D01*
X300000Y332112D02*
X327450Y359562D01*
X300000Y332000D02*
Y332112D01*
X327450Y359562D02*
Y412550D01*
X316501Y423499D02*
X327450Y412550D01*
X329450Y396450D02*
X331500Y398500D01*
X330000Y400000D02*
X331500Y398500D01*
X330000Y400000D02*
Y419488D01*
X327500Y421988D02*
X330000Y419488D01*
X333638D01*
X337500Y423350D01*
X311559Y423499D02*
X316501D01*
X311559D02*
Y424071D01*
X304525D02*
X306441D01*
X309000D02*
Y426500D01*
X312356Y429856D01*
X312465D01*
X326000Y443391D01*
Y447500D01*
X309000Y432929D02*
Y436500D01*
X311000Y438500D01*
X310500Y444500D02*
Y449000D01*
X336886Y373500D02*
X341000D01*
X342500Y372000D01*
X331450Y357905D02*
Y366950D01*
X333000Y368500D01*
X336886D01*
X366000Y403500D02*
X368500Y406000D01*
X373114D01*
X228500Y410500D02*
X236000Y418000D01*
X245256D01*
X253500Y426244D01*
X255466Y355400D02*
Y367966D01*
X279500Y398500D02*
X285114D01*
X255466Y367966D02*
X272559Y385059D01*
Y421071D01*
X275000Y384672D02*
Y394000D01*
X279500Y398500D01*
X278095Y378500D02*
X285114D01*
X272000Y372406D02*
X278095Y378500D01*
X156500Y396500D02*
X160000Y400000D01*
X168614D01*
X181650Y273500D02*
X182043Y273894D01*
Y281500D01*
X276000Y428571D02*
Y435500D01*
X270500Y438000D02*
X272559Y435941D01*
X264500Y438000D02*
X270500D01*
X269000Y432698D02*
Y434500D01*
X270000Y431429D02*
Y431699D01*
X269000Y432698D02*
X270000Y431699D01*
X543500Y323000D02*
X544500Y324000D01*
X266071Y431429D02*
X267000Y430500D01*
X424886Y376000D02*
X429000D01*
X431000Y374000D01*
Y359500D02*
Y374000D01*
X430500Y381000D02*
X433000Y378500D01*
Y357500D02*
Y378500D01*
X530500Y346500D02*
X538500Y354500D01*
Y365500D01*
X453500Y346500D02*
X530500D01*
X449177Y348677D02*
X506677D01*
X467110Y354500D02*
X474780Y362169D01*
X451000Y354500D02*
X467110D01*
X468000Y364000D02*
X471169Y367169D01*
X474780D01*
X466800Y357300D02*
X468000Y358500D01*
Y364000D01*
X321700Y327700D02*
X329500Y335500D01*
X329657D01*
X339157Y345000D01*
X373114Y364159D02*
X373150Y364195D01*
Y366805D01*
X373114Y366841D02*
X373150Y366805D01*
X373114Y366841D02*
Y371000D01*
X342500Y355000D02*
Y372000D01*
X339000Y348000D02*
X352500D01*
X382000Y321500D02*
X428500D01*
X339157Y345000D02*
X355500D01*
X373114Y362614D01*
Y364159D01*
X352500Y348000D02*
X365500Y361000D01*
Y366000D01*
X373000Y345000D02*
X416500D01*
X431000Y359500D01*
X372000Y348000D02*
X414000D01*
X423000Y357000D01*
X331153Y316653D02*
X343000Y328500D01*
X429000D01*
X380000Y364000D02*
Y375000D01*
X379000Y376000D02*
X380000Y375000D01*
X429000Y328500D02*
X449177Y348677D01*
X379500Y334500D02*
X424500D01*
X334602Y325500D02*
X340102Y331000D01*
X427500D01*
X451000Y354500D01*
X456941Y417559D02*
Y420071D01*
Y417559D02*
X458500Y416000D01*
X463500D01*
X475500Y428000D01*
Y449500D01*
X463000Y420000D02*
X471500Y428500D01*
Y443500D01*
X459500Y421571D02*
X467500Y429571D01*
Y434000D01*
X460000Y437000D02*
X462150Y434850D01*
Y428929D02*
Y434850D01*
X459500Y420071D02*
Y421571D01*
X520916Y398584D02*
Y423660D01*
Y398584D02*
X522331Y397169D01*
X526551D01*
X377500Y341500D02*
X417000D01*
X433000Y357500D01*
X255004Y343000D02*
X285878Y312126D01*
X259500Y348000D02*
X291783Y315717D01*
X259500Y348000D02*
Y369172D01*
X275000Y384672D01*
X285114Y331886D02*
X295721Y321280D01*
X285114Y331886D02*
Y363500D01*
X279000Y345500D02*
Y366500D01*
X281000Y368500D01*
X285114D01*
X256000Y335500D02*
X275500Y316000D01*
X163000Y368500D02*
X164500Y370000D01*
X168614D01*
X266500Y268000D02*
X266650Y268150D01*
X509500Y445000D02*
Y448000D01*
X490000Y424500D02*
X493356Y427856D01*
X494151Y436500D02*
X494500D01*
X490000Y432349D02*
X494151Y436500D01*
X490000Y430929D02*
Y432349D01*
X492559Y422071D02*
X492774D01*
X493356Y427856D02*
X496356D01*
X496204Y425500D02*
X499750D01*
X492774Y422071D02*
X496204Y425500D01*
X496000Y421000D02*
X501500D01*
X493500Y418500D02*
X496000Y421000D01*
X488500Y418500D02*
X493500D01*
X487441Y419559D02*
X488500Y418500D01*
X487441Y419559D02*
Y422071D01*
X496356Y427856D02*
X517000Y448500D01*
X424500Y334500D02*
X447300Y357300D01*
X466800D01*
X528500Y330500D02*
X529500D01*
X345000Y304000D02*
Y308000D01*
X527000Y316500D02*
X528000D01*
X447106Y421850D02*
X449500D01*
X234000Y375000D02*
X241000Y368000D01*
X251000Y361000D02*
Y367000D01*
X267441Y383441D01*
Y421071D01*
X246000Y361000D02*
Y364828D01*
X263500Y382328D01*
Y393000D01*
X260500Y396000D02*
X263500Y393000D01*
X229000Y396000D02*
X260500D01*
X469500Y397000D02*
X474610D01*
X467169Y377169D02*
X474780D01*
X451594Y363500D02*
X453500D01*
X467169Y377169D01*
X449000Y369500D02*
X456500D01*
X463000Y376000D01*
Y390500D01*
X469500Y397000D01*
X440776Y220740D02*
X492390D01*
X494500Y222850D01*
X463882Y247618D02*
X474500Y237000D01*
X463882Y247618D02*
Y248000D01*
X487441Y433941D02*
X501500Y448000D01*
X487441Y430929D02*
Y433941D01*
X295000Y329000D02*
X295400Y329400D01*
Y414946D01*
X304525Y424071D01*
X349000Y321500D02*
X360000D01*
X369000Y272000D02*
X369500Y271500D01*
X362000Y272000D02*
X369000D01*
X315000Y293500D02*
X329500D01*
X323000Y295500D02*
X349000Y321500D01*
X288252Y266752D02*
X315000Y293500D01*
X360500Y342000D02*
X366000D01*
X337350Y338850D02*
X366850D01*
X366000Y342000D02*
X372000Y348000D01*
X365500Y346000D02*
Y349500D01*
X380000Y364000D01*
X325248Y320294D02*
X341804Y336850D01*
X366850Y338850D02*
X373000Y345000D01*
X342675Y272657D02*
X346158D01*
X350021Y276521D01*
X364421D01*
X349622Y258878D02*
X350500Y258000D01*
X289815Y245103D02*
Y252874D01*
Y245103D02*
X292500Y242604D01*
Y233000D02*
Y242604D01*
X319000Y222000D02*
X320500Y223500D01*
Y240000D01*
X284549Y268721D02*
X311328Y295500D01*
X323000D01*
X264300Y289450D02*
Y291800D01*
X270748Y298248D01*
X156500Y353000D02*
Y396500D01*
Y353000D02*
X174000Y335500D01*
X256000D01*
X163000Y350500D02*
Y368500D01*
Y350500D02*
X174500Y339000D01*
X239500D01*
X168614Y348386D02*
Y365000D01*
Y348386D02*
X174000Y343000D01*
X255004D01*
X315406Y317995D02*
X317442Y320032D01*
Y326443D01*
X339000Y348000D01*
X321311Y316264D02*
Y322811D01*
X337350Y338850D01*
X304500Y291500D02*
Y301500D01*
X287500Y274500D02*
X304500Y291500D01*
X341804Y336850D02*
X377395D01*
X378195Y337650D01*
X417150D01*
X449000Y369500D01*
X424886Y406000D02*
X434000D01*
Y410201D01*
X440500Y416701D01*
X322500Y338500D02*
X326000D01*
X342500Y355000D01*
X445500Y437500D02*
X451500D01*
X454828Y437000D02*
X460000D01*
X451500Y437500D02*
X455850Y433150D01*
X448000Y443000D02*
X448828D01*
X454828Y437000D01*
X455850Y431520D02*
X456941Y430429D01*
X455850Y431520D02*
Y433150D01*
D36*
X360454Y315000D02*
X516954D01*
X360454Y314954D02*
Y315000D01*
X361000Y313000D02*
X518400D01*
X527954Y326000D02*
X537500D01*
X516954Y315000D02*
X527954Y326000D01*
X528400Y323000D02*
X543500D01*
X518400Y313000D02*
X528400Y323000D01*
X521550Y311050D02*
X527000Y316500D01*
X361383Y311050D02*
X521550D01*
X206268Y268500D02*
X217150D01*
X311469Y304468D02*
X311500Y304500D01*
X332811Y270689D02*
X339126D01*
X361750Y292750D02*
Y299650D01*
X339126Y272657D02*
X343500D01*
X339126Y268721D02*
X351130D01*
X206268Y266531D02*
X212819D01*
X182500Y266500D02*
X189732Y266531D01*
X186650Y268500D02*
X189732D01*
X321311Y312126D02*
Y316264D01*
X325248Y312126D02*
Y320294D01*
X315406Y312126D02*
Y317995D01*
X355142Y257858D02*
X358350D01*
X346248Y266752D02*
X355142Y257858D01*
X339126Y266752D02*
X346248D01*
X339126Y286437D02*
X345437D01*
X279874Y266752D02*
X288252D01*
X311469Y304468D02*
Y312126D01*
X279874Y270689D02*
X283689D01*
X272465Y262815D02*
X279874D01*
X288500Y213000D02*
Y216244D01*
Y213000D02*
X290000Y211500D01*
Y206846D02*
Y211500D01*
X272728Y258878D02*
X279874D01*
Y260846D02*
X287347D01*
X283689Y270689D02*
X287500Y274500D01*
X279874Y264784D02*
X291216D01*
X291500Y264500D01*
X287846Y241653D02*
Y252874D01*
X295721D02*
Y259279D01*
X294500Y260500D02*
X295721Y259279D01*
X297689Y252874D02*
Y262189D01*
X299658Y252874D02*
Y258658D01*
X302000Y261000D01*
Y270500D01*
X307000Y260000D02*
X308000D01*
X305563Y252874D02*
Y257563D01*
X308000Y260000D01*
X301626Y252874D02*
Y257126D01*
X304950Y260450D01*
Y262813D01*
X306500Y264363D01*
Y274500D01*
X313437Y312126D02*
Y323287D01*
X313500Y323350D01*
X307531Y312126D02*
Y316514D01*
X323500Y260000D02*
X326000D01*
X332752Y266752D01*
X339126D01*
X331500Y271000D02*
X332500D01*
X332811Y270689D01*
X380043Y285500D02*
X388000D01*
X379957Y303500D02*
X388000D01*
X337500Y429650D02*
Y436500D01*
X328201D02*
X337500D01*
X372500Y411614D02*
X373114Y411000D01*
X260000Y425000D02*
Y430000D01*
X257850Y432150D02*
X260000Y430000D01*
X253500Y432150D02*
X257850D01*
X272500Y352500D02*
Y360094D01*
X272000Y360595D02*
X272500Y360094D01*
X189500Y272437D02*
Y276500D01*
X206268Y270468D02*
X210968D01*
X212500Y272000D01*
Y274500D01*
X206268Y272437D02*
X210437D01*
X212500Y274500D01*
X270000Y421071D02*
Y423000D01*
X275571Y428571D01*
X276000D01*
X537500Y326000D02*
X541500Y330000D01*
X319342Y312126D02*
Y325342D01*
X331153Y312126D02*
Y316653D01*
X329185Y312126D02*
Y320083D01*
X334602Y325500D01*
X459500Y428929D02*
Y433000D01*
X459000Y433500D02*
X459500Y433000D01*
X526551Y362169D02*
X528331D01*
X528500Y362000D01*
X220386Y370000D02*
X230500D01*
X246000Y354500D01*
X248597D02*
X287846Y315251D01*
X246000Y354500D02*
X248597D01*
X287846Y312126D02*
Y315251D01*
X291783Y312126D02*
Y315717D01*
X295721Y312126D02*
Y321280D01*
X249000Y263500D02*
X264063Y278563D01*
X279874D01*
X266657Y272657D02*
X279874D01*
X256200Y262200D02*
X266657Y272657D01*
X256200Y235700D02*
Y262200D01*
X242500Y222000D02*
X256200Y235700D01*
X242500Y213150D02*
Y222000D01*
X254400Y236446D02*
Y262946D01*
X236000Y218046D02*
X254400Y236446D01*
X236000Y213150D02*
Y218046D01*
X251500Y237000D02*
Y262591D01*
X229500Y215000D02*
X251500Y237000D01*
X229500Y213150D02*
Y215000D01*
X223000Y200650D02*
Y206850D01*
X229500Y200650D02*
Y206850D01*
X236000Y200650D02*
Y206850D01*
X242500Y200650D02*
Y206850D01*
X223000Y213150D02*
X249000Y239150D01*
Y263500D01*
X356500Y287500D02*
X361750Y292750D01*
X345437Y286437D02*
X347500Y288500D01*
X339126Y284469D02*
X347782D01*
X350550Y287237D01*
X339126Y282500D02*
X348359D01*
X357050Y291191D01*
X350550Y287237D02*
Y289550D01*
X354000Y293000D01*
X311469Y304532D02*
X311500Y304500D01*
X353150Y273000D02*
X357500D01*
X339126Y274626D02*
X343626D01*
X356500Y287500D01*
X339126Y258878D02*
X349622D01*
X333748Y253500D02*
X350500D01*
X333122Y252874D02*
X333748Y253500D01*
X329185Y248815D02*
Y252874D01*
Y248815D02*
X331500Y246500D01*
X348500D01*
X350500Y244500D01*
X319342Y246758D02*
Y252874D01*
Y246758D02*
X321100Y245000D01*
X303594Y245055D02*
Y252874D01*
Y245055D02*
X304650Y244000D01*
X304500Y229500D02*
Y234000D01*
X313437Y242937D01*
Y252874D01*
X315406Y239906D02*
Y252874D01*
X310000Y234500D02*
X315406Y239906D01*
X310000Y229500D02*
Y234500D01*
X317374Y231374D02*
Y252874D01*
X315500Y229500D02*
X317374Y231374D01*
X279874Y268721D02*
X284549D01*
X279874Y296280D02*
X286779D01*
X287000Y296500D01*
X270748Y298248D02*
X279874D01*
X251500Y262591D02*
X265503Y276594D01*
X279874D01*
X254400Y262946D02*
X266080Y274626D01*
X279874D01*
X266850Y253000D02*
X272728Y258878D01*
X319342Y325342D02*
X321700Y327700D01*
X205500Y258500D02*
Y263795D01*
X206268Y264563D01*
D37*
X343748Y298248D02*
X360454Y314954D01*
X344280Y296280D02*
X361000Y313000D01*
X344432Y294311D02*
X361061Y310939D01*
X366600Y309400D02*
X367500Y308500D01*
X361852Y309400D02*
X366600D01*
X344843Y292390D02*
X361852Y309400D01*
X361074Y306500D02*
X363500D01*
X357050Y302476D02*
X361074Y306500D01*
X357050Y291191D02*
Y302476D01*
X339126Y298248D02*
X343748D01*
X339126Y296280D02*
X344280D01*
X339126Y294311D02*
X344432D01*
X339126Y292342D02*
X344843D01*
Y292390D01*
X331153Y249346D02*
Y252874D01*
Y249346D02*
X331827Y248673D01*
X350173D01*
X350500Y249000D01*
X323280Y247461D02*
Y252874D01*
X327217Y233784D02*
Y252874D01*
X325248Y247614D02*
Y252874D01*
X323280Y247461D02*
X324000Y246740D01*
X325248Y247614D02*
X325500Y247361D01*
Y232000D02*
Y247361D01*
X327217Y233784D02*
X339000Y222000D01*
X325500Y232000D02*
X333500Y224000D01*
Y216500D02*
Y224000D01*
X329000Y212000D02*
X333500Y216500D01*
X324000Y227000D02*
Y246740D01*
Y227000D02*
X329000Y222000D01*
D38*
X441500Y300000D02*
X531000D01*
X427000Y285500D02*
X441500Y300000D01*
X390500Y209500D02*
X394260Y213260D01*
X359500Y209500D02*
X390500D01*
X369500Y271500D02*
X386000D01*
X399000Y258500D01*
X394260Y213260D02*
X399000D01*
X533750Y394250D02*
X541000Y401500D01*
Y423373D01*
X532187Y432187D02*
X541000Y423373D01*
X342521Y449521D02*
X344500Y447542D01*
Y396000D02*
Y447542D01*
X556000Y325000D02*
Y426500D01*
X456000Y443000D02*
X471500Y458500D01*
X431500Y213260D02*
X440776D01*
X402591Y199500D02*
Y213169D01*
X402500Y213260D02*
X402591Y213169D01*
X431500Y213260D02*
X436276D01*
X427000D02*
X431500D01*
X402500D02*
X427000D01*
X399000D02*
X402500D01*
X399000D02*
Y258500D01*
X377590Y446500D02*
X378000Y446910D01*
X291652Y222500D02*
X300500Y213652D01*
X266500Y444000D02*
X268700Y446200D01*
Y446402D01*
X242091Y407000D02*
X258500D01*
X242000Y406910D02*
X242091Y407000D01*
X220500Y303043D02*
Y313063D01*
X215500Y318063D02*
X220500Y313063D01*
X215453Y303043D02*
X220500D01*
X210409Y298000D02*
X215453Y303043D01*
X212500Y274500D02*
Y295910D01*
X210409Y298000D02*
X212500Y295910D01*
X190043Y282500D02*
X198000D01*
X190043Y282500D02*
X190043Y282500D01*
X212500Y398500D02*
Y416349D01*
X238460Y438000D02*
Y438000D01*
X236730Y436270D02*
X238460Y438000D01*
X232421Y436270D02*
X236730D01*
X212500Y416349D02*
X232421Y436270D01*
X238460Y438000D02*
X242500Y442040D01*
Y444000D01*
X427000Y213260D02*
Y285500D01*
X531000Y300000D02*
X556000Y325000D01*
X483000Y443500D02*
X485500Y446000D01*
X483000Y394500D02*
Y443500D01*
X300500Y213652D02*
X304650Y209298D01*
X303594Y210405D02*
X311500Y202500D01*
X339500D01*
X339000Y212000D02*
X357000D01*
X359500Y209500D01*
X339850Y202500D02*
Y211150D01*
X339000Y212000D02*
X339850Y211150D01*
X268937Y222500D02*
X291652D01*
X522000Y460500D02*
X556000Y426500D01*
X377590Y446500D02*
Y460409D01*
X268700Y446402D02*
X282798Y460500D01*
X326500Y449000D02*
Y460500D01*
X282798D02*
X326500D01*
X522000D01*
X292000Y395386D02*
Y446500D01*
X294500Y449000D01*
D39*
X389512Y355000D02*
X396500D01*
X425000Y365500D02*
Y370886D01*
X357000Y392091D02*
X358090Y391000D01*
X414000Y199500D02*
X426409D01*
X184500Y256543D02*
X189732Y261776D01*
Y263732D01*
X197909Y225000D02*
X198500Y225590D01*
X281890Y200110D02*
X290500D01*
X176000Y298000D02*
X186591D01*
X401409Y446500D02*
X401909Y446000D01*
X412000D01*
X357000Y415909D02*
Y425500D01*
D40*
X217150Y268500D02*
X221150Y264500D01*
X220386Y405000D02*
Y410000D01*
X282512Y373500D02*
X285114D01*
X229500Y425500D02*
X234299Y430299D01*
X189012Y348500D02*
X198500D01*
X336886Y403500D02*
Y408500D01*
X437500Y428512D02*
X448256D01*
X467669Y372169D02*
X474780D01*
X463406Y367905D02*
X467669Y372169D01*
X463406Y363500D02*
Y367905D01*
X446150Y239500D02*
X452500D01*
X272500Y284500D02*
Y291350D01*
X161000Y375000D02*
X168614D01*
X379000Y265492D02*
X380508Y267000D01*
X379000Y258500D02*
Y265492D01*
X365500Y381000D02*
X373114D01*
X378488Y355000D02*
Y358988D01*
X266000Y233000D02*
X266850Y233850D01*
Y253000D02*
Y255150D01*
X264500Y257500D02*
X266850Y255150D01*
X264500Y257500D02*
Y262000D01*
X271350D01*
X271500Y261850D01*
X336886Y357114D02*
X337000Y357000D01*
X336886Y357114D02*
Y363500D01*
X372500Y411614D02*
Y422000D01*
X373114Y401000D02*
X377000D01*
X381500Y405500D01*
X373114Y396000D02*
X379000D01*
X381500Y398500D01*
Y405500D01*
X234299Y430299D02*
X241500D01*
X220386Y410000D02*
Y416386D01*
X229500Y425500D01*
X220386Y365000D02*
X220500Y364886D01*
Y358000D02*
Y364886D01*
X220386Y385000D02*
X240090D01*
X220386Y380000D02*
X238910D01*
X242000Y383090D01*
X161000Y385000D02*
X168614D01*
X198591Y225500D02*
X214000D01*
X198500Y225590D02*
X198591Y225500D01*
X175850Y257150D02*
Y266000D01*
X176500Y245000D02*
X179043D01*
X184000Y249957D01*
X176500Y245000D02*
Y250350D01*
X167500Y273500D02*
X175350D01*
X220500Y287500D02*
Y295957D01*
X336886Y408500D02*
X337000Y408614D01*
Y415500D01*
X389650Y240142D02*
Y256858D01*
X379000Y258500D02*
X380500Y257000D01*
X388791D01*
X373114Y386000D02*
X377500D01*
X378488Y358988D02*
X382500Y363000D01*
Y381000D01*
X377500Y386000D02*
X382500Y381000D01*
X526551Y407169D02*
X531831D01*
X535000Y404000D01*
X526551Y402169D02*
X533169D01*
X535000Y404000D01*
X419000Y396000D02*
X424886D01*
X416500Y398500D02*
X419000Y396000D01*
Y401000D02*
X424886D01*
X416500Y398500D02*
X419000Y401000D01*
X159500Y407500D02*
X160000D01*
X162500Y410000D01*
X168614D01*
X162000Y405000D02*
X168614D01*
X159500Y407500D02*
X162000Y405000D01*
X168614Y390000D02*
X173500D01*
X176000Y392500D01*
Y398500D01*
X168614Y395000D02*
X172500D01*
X176000Y398500D01*
X260000Y239000D02*
Y240000D01*
X266850Y246850D01*
Y253000D01*
X236000Y194350D02*
X236150Y194500D01*
X249000D01*
X216000D02*
X216150Y194350D01*
X223000D01*
X229500D01*
X517500Y448000D02*
Y449000D01*
X524000Y455500D01*
X526000Y434756D02*
Y435500D01*
X512701D02*
X526000D01*
X521000Y429756D02*
X526000Y434756D01*
X526551Y387169D02*
X530669D01*
X533750Y390250D01*
Y394250D01*
X526551Y392169D02*
X531669D01*
X533750Y394250D01*
X424886Y391000D02*
X436500D01*
X445910Y381591D02*
X452000D01*
X424886Y386000D02*
X440909D01*
X436500Y391000D02*
X445910Y381591D01*
X467331Y382169D02*
X474780D01*
X452500Y230799D02*
Y239500D01*
Y230799D02*
X453299Y230000D01*
X447150Y205000D02*
X453000D01*
X450224Y217000D02*
X453000Y214224D01*
Y205000D02*
Y214224D01*
X474780Y387169D02*
X480169D01*
X483000Y390000D01*
Y394500D01*
X474780Y392169D02*
X480669D01*
X483000Y394500D01*
X313500Y329650D02*
Y335000D01*
X296000Y244000D02*
X298350D01*
X293500Y246500D02*
X296000Y244000D01*
X346150Y202500D02*
X356500D01*
X359500Y199500D01*
X291652Y222500D02*
Y226152D01*
X304650Y239150D01*
Y244000D01*
X427500Y411000D02*
X429500D01*
X424886Y416000D02*
Y418386D01*
X430386Y423886D01*
X429500Y411000D02*
X432000Y413500D01*
Y422272D01*
X430386Y423886D02*
X432000Y422272D01*
X467831Y402169D02*
X474780D01*
X466500Y403500D02*
X467831Y402169D01*
X467169Y407169D02*
X474780D01*
X465500Y405500D02*
X467169Y407169D01*
X279000Y408500D02*
X285114D01*
X277000Y406500D02*
X279000Y408500D01*
X280000Y403500D02*
X285114D01*
X277000Y406500D02*
X280000Y403500D01*
X449500Y429756D02*
Y433500D01*
X448256Y428512D02*
X449500Y429756D01*
D41*
X236500Y298000D02*
Y314500D01*
X232500Y253866D02*
Y263000D01*
X242000Y406910D02*
X245910D01*
D42*
X416500Y398500D02*
Y421000D01*
X432000Y436500D01*
Y443000D01*
X411000Y430000D02*
X424000Y443000D01*
X390000Y430000D02*
X411000D01*
X381500Y421500D02*
X390000Y430000D01*
X381500Y405500D02*
Y421500D01*
X199500Y444000D02*
X234500D01*
X221150Y264500D02*
X231000D01*
X234000Y267500D01*
X198500Y249410D02*
X212776D01*
X268937Y222500D02*
Y230063D01*
X260000Y239000D02*
X266000Y233000D01*
X268937Y230063D01*
X198500Y251500D02*
X205500Y258500D01*
X198500Y249410D02*
Y251500D01*
X176000Y398500D02*
Y420500D01*
X451000Y406410D02*
Y414500D01*
Y406410D02*
X452000Y405409D01*
X485500Y446000D02*
Y448000D01*
X176000Y420500D02*
X199500Y444000D01*
D43*
X358090Y391000D02*
X373114D01*
X220386Y390000D02*
Y395000D01*
X285114Y373500D02*
X292000D01*
X212500Y398500D02*
X216000Y395000D01*
X220386D01*
X240090Y385000D02*
X242000Y383090D01*
X526551Y377169D02*
X533669D01*
X536000Y379500D01*
X535000D02*
X536000D01*
X532331Y382169D02*
X535000Y379500D01*
X526551Y382169D02*
X532331D01*
X467000Y382500D02*
X467331Y382169D01*
D44*
X285114Y393500D02*
X290114D01*
X292000Y395386D01*
X285114Y388500D02*
X290000D01*
X292000Y390500D01*
Y395386D01*
X336886Y378500D02*
X348764D01*
X350764Y380500D01*
X336886Y383500D02*
X347764D01*
X350764Y380500D01*
X278500Y383500D02*
X285114D01*
X278000Y383000D02*
X278500Y383500D01*
X528500Y362000D02*
X534500D01*
D45*
X350764Y380500D02*
Y385855D01*
X357000Y392091D01*
X242409Y383500D02*
X256500D01*
X242000Y383090D02*
X242409Y383500D01*
X443500Y371500D02*
Y373091D01*
X452000Y381591D01*
D46*
X519000Y248000D02*
D03*
X511126D02*
D03*
X503252D02*
D03*
X495378D02*
D03*
X487504D02*
D03*
X479630D02*
D03*
X471756D02*
D03*
X463882D02*
D03*
X456008D02*
D03*
X448134Y334614D02*
D03*
X456008D02*
D03*
X463882D02*
D03*
X471756D02*
D03*
X479630D02*
D03*
X487504D02*
D03*
X495378D02*
D03*
X503252D02*
D03*
X511126D02*
D03*
X519000D02*
D03*
X261063Y222500D02*
D03*
X215500Y325937D02*
D03*
X182000Y325437D02*
D03*
D47*
X448134Y248000D02*
D03*
X268937Y222500D02*
D03*
D48*
X319000Y212000D02*
D03*
Y222000D02*
D03*
X329000Y212000D02*
D03*
Y222000D02*
D03*
X339000Y212000D02*
D03*
X390500Y199500D02*
D03*
Y209500D02*
D03*
X375000Y199244D02*
D03*
Y209244D02*
D03*
X359500Y199500D02*
D03*
Y209500D02*
D03*
D49*
X339000Y222000D02*
D03*
D50*
X485500Y448000D02*
D03*
X424000Y443000D02*
D03*
X294500Y449000D02*
D03*
X234500Y444000D02*
D03*
D51*
X493500Y448000D02*
D03*
X501500D02*
D03*
X509500D02*
D03*
X517500D02*
D03*
X525500D02*
D03*
X464000Y443000D02*
D03*
X456000D02*
D03*
X448000D02*
D03*
X440000D02*
D03*
X432000D02*
D03*
X334500Y449000D02*
D03*
X326500D02*
D03*
X318500D02*
D03*
X310500D02*
D03*
X302500D02*
D03*
X274500Y444000D02*
D03*
X266500D02*
D03*
X258500D02*
D03*
X250500D02*
D03*
X242500D02*
D03*
D52*
X390500Y219500D02*
D03*
X375000Y219244D02*
D03*
X359500Y219500D02*
D03*
D53*
X215500Y318063D02*
D03*
X182000Y317563D02*
D03*
D54*
X363500Y306500D02*
D03*
X272500Y352500D02*
D03*
X466000Y370500D02*
D03*
X452500Y239500D02*
D03*
X272500Y284500D02*
D03*
X161000Y375000D02*
D03*
X365500Y381000D02*
D03*
X264300Y289450D02*
D03*
X264500Y262000D02*
D03*
X278500Y253000D02*
D03*
X287500Y261000D02*
D03*
X291500Y264500D02*
D03*
X288000Y241500D02*
D03*
X294500Y260500D02*
D03*
X298500Y263000D02*
D03*
X302000Y270500D02*
D03*
X306500Y274500D02*
D03*
X308000Y260000D02*
D03*
X310000Y318500D02*
D03*
X302500Y321000D02*
D03*
X300000Y332000D02*
D03*
X323500Y260000D02*
D03*
X331500Y271000D02*
D03*
X388000Y303500D02*
D03*
Y285500D02*
D03*
X337500Y436500D02*
D03*
X311000Y438500D02*
D03*
X337000Y357000D02*
D03*
X366000Y403500D02*
D03*
X260000Y425000D02*
D03*
X246000Y361000D02*
D03*
X251000D02*
D03*
X255466Y355400D02*
D03*
X278000Y383000D02*
D03*
X292000Y373500D02*
D03*
X220500Y358000D02*
D03*
X176000Y298000D02*
D03*
X176500Y245000D02*
D03*
X167500Y273500D02*
D03*
X189500Y276500D02*
D03*
X269000Y434500D02*
D03*
X360000Y321500D02*
D03*
X382000D02*
D03*
X365500Y366000D02*
D03*
X423000Y357000D02*
D03*
X377500Y341500D02*
D03*
X379500Y334500D02*
D03*
X459000Y433500D02*
D03*
X534500Y362000D02*
D03*
X279000Y345500D02*
D03*
X239500Y339000D02*
D03*
X266500Y268000D02*
D03*
X216000Y194500D02*
D03*
X249000D02*
D03*
X494500Y436500D02*
D03*
X501500Y421000D02*
D03*
X499750Y425500D02*
D03*
X526000Y435500D02*
D03*
X345000Y304000D02*
D03*
X347500Y288500D02*
D03*
X354000Y293000D02*
D03*
X241000Y368000D02*
D03*
X453000Y205000D02*
D03*
X295000Y329000D02*
D03*
X292500Y233000D02*
D03*
X311469Y305000D02*
D03*
X357500Y273000D02*
D03*
X362000Y272000D02*
D03*
X329500Y293500D02*
D03*
X313500Y335000D02*
D03*
X360500Y342000D02*
D03*
X365500Y346000D02*
D03*
X350500Y258000D02*
D03*
Y253500D02*
D03*
Y249000D02*
D03*
Y244500D02*
D03*
X321100Y245000D02*
D03*
X293500Y246500D02*
D03*
X304500Y229500D02*
D03*
X310000D02*
D03*
X315500D02*
D03*
X344000Y243000D02*
D03*
X320500Y240000D02*
D03*
X287000Y296500D02*
D03*
X304500Y301500D02*
D03*
X433500Y406500D02*
D03*
X322500Y338500D02*
D03*
X449500Y433500D02*
D03*
D55*
X396500Y355000D02*
D03*
X260000Y239000D02*
D03*
X541500Y330000D02*
D03*
X527500Y414500D02*
D03*
X436000Y196500D02*
D03*
X532187Y432187D02*
D03*
X342521Y449521D02*
D03*
X471500Y443500D02*
D03*
X161000Y385000D02*
D03*
X198500Y348500D02*
D03*
X236500Y314500D02*
D03*
X530000Y330000D02*
D03*
X544500Y324000D02*
D03*
X379000Y258500D02*
D03*
X430386Y423886D02*
D03*
X425000Y365500D02*
D03*
X372500Y422000D02*
D03*
X414000Y199500D02*
D03*
X214000Y225500D02*
D03*
X281890Y200110D02*
D03*
X220500Y287500D02*
D03*
X205500Y258500D02*
D03*
X198000Y282500D02*
D03*
X337000Y415500D02*
D03*
X475500Y449500D02*
D03*
X528000Y308500D02*
D03*
Y316500D02*
D03*
X412000Y446000D02*
D03*
X465500Y405500D02*
D03*
X357000Y425500D02*
D03*
X277000Y406500D02*
D03*
D56*
X489839Y406323D02*
D03*
X494169D02*
D03*
X498500D02*
D03*
X502831D02*
D03*
X507161D02*
D03*
X511492D02*
D03*
X489839Y401992D02*
D03*
X494169D02*
D03*
X498500D02*
D03*
X502831D02*
D03*
X507161D02*
D03*
X511492D02*
D03*
X489839Y397661D02*
D03*
X494169D02*
D03*
X498500D02*
D03*
X502831D02*
D03*
X507161D02*
D03*
X511492D02*
D03*
X489839Y393331D02*
D03*
X494169D02*
D03*
X498500D02*
D03*
X502831D02*
D03*
X507161D02*
D03*
X511492D02*
D03*
X489839Y389000D02*
D03*
X494169D02*
D03*
X498500D02*
D03*
X502831D02*
D03*
X507161D02*
D03*
X511492D02*
D03*
X489839Y384669D02*
D03*
X494169D02*
D03*
X498500D02*
D03*
X502831D02*
D03*
X507161D02*
D03*
X511492D02*
D03*
X489839Y380339D02*
D03*
X494169D02*
D03*
X498500D02*
D03*
X502831D02*
D03*
X507161D02*
D03*
X511492D02*
D03*
X489839Y376008D02*
D03*
X494169D02*
D03*
X498500D02*
D03*
X502831D02*
D03*
X507161D02*
D03*
X511492D02*
D03*
X489839Y371677D02*
D03*
X494169D02*
D03*
X498500D02*
D03*
X502831D02*
D03*
X507161D02*
D03*
X511492D02*
D03*
X489839Y367347D02*
D03*
X494169D02*
D03*
X498500D02*
D03*
X502831D02*
D03*
X507161D02*
D03*
X511492D02*
D03*
X489839Y363016D02*
D03*
X494169D02*
D03*
X498500D02*
D03*
X502831D02*
D03*
X507161D02*
D03*
X511492D02*
D03*
X388173Y415154D02*
D03*
X392504D02*
D03*
X396835D02*
D03*
X401165D02*
D03*
X405496D02*
D03*
X409827D02*
D03*
X388173Y410823D02*
D03*
X392504D02*
D03*
X396835D02*
D03*
X401165D02*
D03*
X405496D02*
D03*
X409827D02*
D03*
X388173Y406492D02*
D03*
X392504D02*
D03*
X396835D02*
D03*
X401165D02*
D03*
X405496D02*
D03*
X409827D02*
D03*
X388173Y402161D02*
D03*
X392504D02*
D03*
X396835D02*
D03*
X401165D02*
D03*
X405496D02*
D03*
X409827D02*
D03*
X388173Y397831D02*
D03*
X392504D02*
D03*
X396835D02*
D03*
X401165D02*
D03*
X405496D02*
D03*
X409827D02*
D03*
X388173Y393500D02*
D03*
X392504D02*
D03*
X396835D02*
D03*
X401165D02*
D03*
X405496D02*
D03*
X409827D02*
D03*
X388173Y389169D02*
D03*
X392504D02*
D03*
X396835D02*
D03*
X401165D02*
D03*
X405496D02*
D03*
X409827D02*
D03*
X388173Y384839D02*
D03*
X392504D02*
D03*
X396835D02*
D03*
X401165D02*
D03*
X405496D02*
D03*
X409827D02*
D03*
X388173Y380508D02*
D03*
X392504D02*
D03*
X396835D02*
D03*
X401165D02*
D03*
X405496D02*
D03*
X409827D02*
D03*
X388173Y376177D02*
D03*
X392504D02*
D03*
X396835D02*
D03*
X401165D02*
D03*
X405496D02*
D03*
X409827D02*
D03*
X388173Y371847D02*
D03*
X392504D02*
D03*
X396835D02*
D03*
X401165D02*
D03*
X405496D02*
D03*
X409827D02*
D03*
X183673Y409154D02*
D03*
X188004D02*
D03*
X192335D02*
D03*
X196665D02*
D03*
X200996D02*
D03*
X205327D02*
D03*
X183673Y404823D02*
D03*
X188004D02*
D03*
X192335D02*
D03*
X196665D02*
D03*
X200996D02*
D03*
X205327D02*
D03*
X183673Y400492D02*
D03*
X188004D02*
D03*
X192335D02*
D03*
X196665D02*
D03*
X200996D02*
D03*
X205327D02*
D03*
X183673Y396161D02*
D03*
X188004D02*
D03*
X192335D02*
D03*
X196665D02*
D03*
X200996D02*
D03*
X205327D02*
D03*
X183673Y391831D02*
D03*
X188004D02*
D03*
X192335D02*
D03*
X196665D02*
D03*
X200996D02*
D03*
X205327D02*
D03*
X183673Y387500D02*
D03*
X188004D02*
D03*
X192335D02*
D03*
X196665D02*
D03*
X200996D02*
D03*
X205327D02*
D03*
X183673Y383169D02*
D03*
X188004D02*
D03*
X192335D02*
D03*
X196665D02*
D03*
X200996D02*
D03*
X205327D02*
D03*
X183673Y378839D02*
D03*
X188004D02*
D03*
X192335D02*
D03*
X196665D02*
D03*
X200996D02*
D03*
X205327D02*
D03*
X183673Y374508D02*
D03*
X188004D02*
D03*
X192335D02*
D03*
X196665D02*
D03*
X200996D02*
D03*
X205327D02*
D03*
X183673Y370177D02*
D03*
X188004D02*
D03*
X192335D02*
D03*
X196665D02*
D03*
X200996D02*
D03*
X205327D02*
D03*
X183673Y365846D02*
D03*
X188004D02*
D03*
X192335D02*
D03*
X196665D02*
D03*
X200996D02*
D03*
X205327D02*
D03*
X300173Y407654D02*
D03*
X304504D02*
D03*
X308835D02*
D03*
X313165D02*
D03*
X317496D02*
D03*
X321827D02*
D03*
X300173Y403323D02*
D03*
X304504D02*
D03*
X308835D02*
D03*
X313165D02*
D03*
X317496D02*
D03*
X321827D02*
D03*
X300173Y398992D02*
D03*
X304504D02*
D03*
X308835D02*
D03*
X313165D02*
D03*
X317496D02*
D03*
X321827D02*
D03*
X300173Y394661D02*
D03*
X304504D02*
D03*
X308835D02*
D03*
X313165D02*
D03*
X317496D02*
D03*
X321827D02*
D03*
X300173Y390331D02*
D03*
X304504D02*
D03*
X308835D02*
D03*
X313165D02*
D03*
X317496D02*
D03*
X321827D02*
D03*
X300173Y386000D02*
D03*
X304504D02*
D03*
X308835D02*
D03*
X313165D02*
D03*
X317496D02*
D03*
X321827D02*
D03*
X300173Y381669D02*
D03*
X304504D02*
D03*
X308835D02*
D03*
X313165D02*
D03*
X317496D02*
D03*
X321827D02*
D03*
X300173Y377339D02*
D03*
X304504D02*
D03*
X308835D02*
D03*
X313165D02*
D03*
X317496D02*
D03*
X321827D02*
D03*
X300173Y373008D02*
D03*
X304504D02*
D03*
X308835D02*
D03*
X313165D02*
D03*
X317496D02*
D03*
X321827D02*
D03*
X300173Y368677D02*
D03*
X304504D02*
D03*
X308835D02*
D03*
X313165D02*
D03*
X317496D02*
D03*
X321827D02*
D03*
X300173Y364347D02*
D03*
X304504D02*
D03*
X308835D02*
D03*
X313165D02*
D03*
X317496D02*
D03*
X321827D02*
D03*
X198000Y270665D02*
D03*
Y266335D02*
D03*
D57*
X256500Y383500D02*
D03*
X350764Y380500D02*
D03*
X258500Y407000D02*
D03*
D58*
X229500Y425500D02*
D03*
X536000Y379500D02*
D03*
X159500Y407500D02*
D03*
X443500Y371500D02*
D03*
X451000Y414500D02*
D03*
D59*
X535000Y404000D02*
D03*
X467000Y382500D02*
D03*
M02*
