%FSLAX25Y25*%
%MOIN*%
G70*
G01*
G75*
G04 Layer_Physical_Order=3*
G04 Layer_Color=128*
%ADD10R,0.18110X0.08858*%
%ADD11R,0.04331X0.04331*%
%ADD12R,0.03937X0.03543*%
%ADD13R,0.03543X0.03937*%
%ADD14R,0.04528X0.07087*%
%ADD15R,0.02953X0.03937*%
%ADD16O,0.01772X0.05512*%
%ADD17R,0.04724X0.03150*%
%ADD18R,0.04724X0.02953*%
%ADD19R,0.03937X0.02953*%
%ADD20O,0.05512X0.01772*%
%ADD21R,0.10000X0.03900*%
%ADD22R,0.07402X0.06614*%
%ADD23O,0.00984X0.05315*%
%ADD24R,0.04331X0.04331*%
%ADD25R,0.06693X0.04724*%
%ADD26R,0.09449X0.06102*%
%ADD27R,0.08858X0.18110*%
%ADD28R,0.02362X0.03937*%
%ADD29R,0.04331X0.06693*%
%ADD30R,0.07480X0.05315*%
%ADD31C,0.00800*%
%ADD32C,0.01000*%
%ADD33C,0.02000*%
%ADD34C,0.03000*%
%ADD35C,0.05500*%
%ADD36C,0.03500*%
%ADD37C,0.04000*%
%ADD38C,0.03937*%
%ADD39R,0.06299X0.06299*%
%ADD40C,0.06299*%
%ADD41C,0.06000*%
%ADD42R,0.06000X0.06000*%
%ADD43R,0.06299X0.06299*%
%ADD44R,0.06000X0.06000*%
%ADD45C,0.05512*%
%ADD46R,0.05512X0.05512*%
%ADD47C,0.13500*%
%ADD48C,0.03500*%
%ADD49C,0.05500*%
%ADD50C,0.04500*%
%ADD51C,0.05000*%
%ADD52C,0.01969*%
%ADD53C,0.01500*%
%ADD54C,0.01300*%
%ADD55C,0.06500*%
%ADD56C,0.07150*%
%ADD57C,0.15500*%
%ADD58C,0.07000*%
%ADD59C,0.08000*%
%ADD60C,0.04787*%
%ADD61C,0.07500*%
D37*
X276500Y210500D02*
Y407000D01*
X602500D01*
Y210500D02*
Y407000D01*
X276500Y210500D02*
X602500D01*
D49*
X558000Y326000D02*
D03*
X554000Y330500D02*
D03*
X417500Y290500D02*
D03*
X548000Y325500D02*
D03*
X557500Y334500D02*
D03*
X452000Y390500D02*
D03*
X542000Y332500D02*
D03*
X494500Y312000D02*
D03*
X459000Y313000D02*
D03*
X542076Y337900D02*
D03*
X549000Y334500D02*
D03*
X498000Y368500D02*
D03*
X514934Y373733D02*
D03*
X531500Y358500D02*
D03*
X537000Y370500D02*
D03*
X544500Y367500D02*
D03*
X550985Y370515D02*
D03*
X338000Y264500D02*
D03*
X367020Y237450D02*
D03*
X512500Y318000D02*
D03*
X467500Y291500D02*
D03*
X467000Y299500D02*
D03*
X471000Y297500D02*
D03*
X476000Y290500D02*
D03*
X472000Y306000D02*
D03*
X474500Y302500D02*
D03*
X472000Y398000D02*
D03*
X505485Y334015D02*
D03*
X497000Y375000D02*
D03*
X538900Y278000D02*
D03*
X539000Y273500D02*
D03*
X521500Y274500D02*
D03*
X514500D02*
D03*
X314254Y216485D02*
D03*
X307394Y217000D02*
D03*
X443500Y367500D02*
D03*
X454500D02*
D03*
X449000D02*
D03*
X416500Y368500D02*
D03*
X508500Y287500D02*
D03*
X472500Y227500D02*
D03*
X475300Y224498D02*
D03*
X472500Y221500D02*
D03*
X401120Y271650D02*
D03*
X403000Y277500D02*
D03*
X400500Y282000D02*
D03*
X374500Y238500D02*
D03*
X435500Y292000D02*
D03*
X393500Y290000D02*
D03*
X430500Y292000D02*
D03*
X360500Y249500D02*
D03*
X344500Y284500D02*
D03*
X408500Y280500D02*
D03*
X390000Y285000D02*
D03*
X389500Y293000D02*
D03*
X386500Y296500D02*
D03*
X327500Y307500D02*
D03*
X332500D02*
D03*
X338000D02*
D03*
X452000Y351500D02*
D03*
X438750Y342500D02*
D03*
X433467Y346734D02*
D03*
X437500Y348500D02*
D03*
X442000Y350500D02*
D03*
X446000Y352500D02*
D03*
X385000Y309500D02*
D03*
X380500D02*
D03*
X376000D02*
D03*
X371500D02*
D03*
X367000D02*
D03*
X393000Y312000D02*
D03*
X369000Y343000D02*
D03*
X388000Y343500D02*
D03*
X458500Y376000D02*
D03*
X465000Y350500D02*
D03*
X448000Y328500D02*
D03*
X479500Y280000D02*
D03*
X479000Y274000D02*
D03*
X483500Y277000D02*
D03*
X460500Y274000D02*
D03*
X434485Y404015D02*
D03*
X373000Y404000D02*
D03*
X509500Y329000D02*
D03*
X509000Y321500D02*
D03*
X504000Y326000D02*
D03*
X366000Y390000D02*
D03*
X363000Y386000D02*
D03*
X360000Y382500D02*
D03*
X373500Y390000D02*
D03*
X412000Y393500D02*
D03*
X425500Y244000D02*
D03*
X428500Y241000D02*
D03*
X361500Y279500D02*
D03*
X358454Y274185D02*
D03*
X336000Y281500D02*
D03*
X322500Y284000D02*
D03*
X350500Y254000D02*
D03*
X405500Y246500D02*
D03*
X406309Y254191D02*
D03*
X408589Y257911D02*
D03*
X408000Y274500D02*
D03*
X445000Y257500D02*
D03*
X439839Y258839D02*
D03*
X349500Y221500D02*
D03*
X344500Y220000D02*
D03*
X336000Y218500D02*
D03*
X299500Y266000D02*
D03*
X293000D02*
D03*
Y215500D02*
D03*
X367000Y366000D02*
D03*
X409500Y369000D02*
D03*
X376000Y393500D02*
D03*
X393165Y318165D02*
D03*
X331000Y259000D02*
D03*
X346084Y252291D02*
D03*
X399000Y255500D02*
D03*
X442500Y249000D02*
D03*
Y234000D02*
D03*
Y228000D02*
D03*
X446500Y230500D02*
D03*
Y224500D02*
D03*
X386000Y268000D02*
D03*
X517500Y313000D02*
D03*
X522000Y312000D02*
D03*
X560000Y364000D02*
D03*
X471000Y360000D02*
D03*
X553900Y323400D02*
D03*
X552500Y284500D02*
D03*
X550500Y280500D02*
D03*
X533500Y353500D02*
D03*
X536000Y350000D02*
D03*
X538500Y346000D02*
D03*
X540500Y342000D02*
D03*
X499500Y238500D02*
D03*
X504000Y240000D02*
D03*
X509000Y241500D02*
D03*
X357500Y332500D02*
D03*
X358500Y337500D02*
D03*
X358000Y321000D02*
D03*
X402000Y367500D02*
D03*
X385500Y366500D02*
D03*
X391500Y365350D02*
D03*
X492500Y393500D02*
D03*
X489000Y390500D02*
D03*
X484000D02*
D03*
X567500Y390000D02*
D03*
X564000Y386500D02*
D03*
X554500Y363000D02*
D03*
X550500Y366000D02*
D03*
X569500Y280500D02*
D03*
X574631Y283369D02*
D03*
X534000Y314500D02*
D03*
X539000Y314250D02*
D03*
X534000Y309500D02*
D03*
Y302000D02*
D03*
X509985Y293015D02*
D03*
X526000Y331500D02*
D03*
X533500Y297000D02*
D03*
X528000Y336000D02*
D03*
X578000Y287500D02*
D03*
X519000Y372000D02*
D03*
X498000Y384500D02*
D03*
X572000Y391500D02*
D03*
X589500Y371500D02*
D03*
X596500Y302000D02*
D03*
X518000Y222500D02*
D03*
X582500Y361000D02*
D03*
X463000Y375500D02*
D03*
X477500Y338000D02*
D03*
X395500Y383000D02*
D03*
X398500Y386500D02*
D03*
X401500Y389500D02*
D03*
X408500Y391000D02*
D03*
X490500Y222000D02*
D03*
X359000Y237000D02*
D03*
X380000Y251500D02*
D03*
X415000Y346500D02*
D03*
X410500Y345000D02*
D03*
X418000Y350000D02*
D03*
D55*
X586000Y312500D02*
D03*
Y307000D02*
D03*
Y318000D02*
D03*
Y323500D02*
D03*
Y329000D02*
D03*
Y334500D02*
D03*
X592000D02*
D03*
Y329000D02*
D03*
Y323500D02*
D03*
Y318000D02*
D03*
Y307000D02*
D03*
Y312500D02*
D03*
X391000Y331500D02*
D03*
X351000Y373000D02*
D03*
X293000Y322500D02*
D03*
X290276Y341276D02*
D03*
X379500Y340500D02*
D03*
Y348000D02*
D03*
X304000Y326551D02*
D03*
D56*
X581000Y397000D02*
D03*
Y389000D02*
D03*
X343500Y228500D02*
D03*
X351500D02*
D03*
X359500D02*
D03*
X367500D02*
D03*
X375500D02*
D03*
X400000D02*
D03*
X408000D02*
D03*
X416000D02*
D03*
X424000D02*
D03*
X432000D02*
D03*
X450929Y282831D02*
D03*
X442929D02*
D03*
X434929D02*
D03*
X426929D02*
D03*
X418929D02*
D03*
X365500Y297000D02*
D03*
X357500D02*
D03*
X349500D02*
D03*
X341500D02*
D03*
X333500D02*
D03*
X539000Y253000D02*
D03*
X547000D02*
D03*
X587500Y231500D02*
D03*
Y239500D02*
D03*
Y247500D02*
D03*
Y255500D02*
D03*
Y263500D02*
D03*
X480500Y256500D02*
D03*
X488500D02*
D03*
X496500D02*
D03*
X504500D02*
D03*
X512500D02*
D03*
X513969Y379232D02*
D03*
X521969D02*
D03*
X396000Y358000D02*
D03*
X388000D02*
D03*
X380000D02*
D03*
X372000D02*
D03*
X364000D02*
D03*
X452500D02*
D03*
X444500D02*
D03*
X436500D02*
D03*
X428500D02*
D03*
X420500D02*
D03*
X564000Y247500D02*
D03*
Y239626D02*
D03*
Y231752D02*
D03*
X539000Y230000D02*
D03*
X547000D02*
D03*
X486031Y379732D02*
D03*
X290000Y272000D02*
D03*
X546969Y379232D02*
D03*
X554969D02*
D03*
D57*
X570000Y263500D02*
D03*
X284500Y329500D02*
D03*
D58*
X403500Y324000D02*
D03*
Y300000D02*
D03*
D59*
X315500Y312500D02*
D03*
D61*
X301500Y216000D02*
D03*
X425400Y290781D02*
D03*
X326500Y232500D02*
D03*
X284500Y383500D02*
D03*
X403500Y308000D02*
D03*
X280500Y231500D02*
D03*
X450000Y307500D02*
D03*
M02*
