%FSLAX25Y25*%
%MOIN*%
G70*
G01*
G75*
G04 Layer_Color=65535*
%ADD10R,0.03543X0.03937*%
%ADD11R,0.04528X0.07087*%
%ADD12R,0.03937X0.03543*%
%ADD13R,0.02953X0.03937*%
%ADD14O,0.01772X0.05512*%
%ADD15R,0.04724X0.03150*%
%ADD16R,0.04724X0.02953*%
%ADD17R,0.03937X0.02953*%
%ADD18O,0.05512X0.01772*%
%ADD19R,0.18110X0.08858*%
%ADD20R,0.10000X0.03900*%
%ADD21R,0.07402X0.06614*%
%ADD22O,0.00984X0.05315*%
%ADD23R,0.04331X0.04331*%
%ADD24R,0.06693X0.04724*%
%ADD25R,0.09449X0.06102*%
%ADD26R,0.08858X0.18110*%
%ADD27R,0.02362X0.03937*%
%ADD28R,0.04331X0.06693*%
%ADD29R,0.07480X0.05315*%
%ADD30R,0.04331X0.04331*%
%ADD31C,0.01000*%
%ADD32C,0.00800*%
%ADD33C,0.02000*%
%ADD34C,0.03000*%
%ADD35C,0.05500*%
%ADD36C,0.03500*%
%ADD37C,0.04000*%
%ADD38C,0.00500*%
%ADD39C,0.00394*%
%ADD40R,0.02383X0.10984*%
%ADD41C,0.00197*%
%ADD42C,0.00300*%
%ADD43R,0.06299X0.06299*%
%ADD44C,0.06299*%
%ADD45C,0.06000*%
%ADD46R,0.06000X0.06000*%
%ADD47R,0.06299X0.06299*%
%ADD48R,0.06000X0.06000*%
%ADD49C,0.05512*%
%ADD50R,0.05512X0.05512*%
%ADD51C,0.03937*%
%ADD52C,0.03500*%
%ADD53C,0.05500*%
%ADD54C,0.04500*%
%ADD55C,0.05000*%
%ADD56C,0.01969*%
%ADD57C,0.07150*%
%ADD58C,0.06500*%
%ADD59C,0.07000*%
%ADD60C,0.08000*%
%ADD61C,0.04787*%
%ADD62C,0.07500*%
%ADD63R,0.08071X0.02756*%
G04:AMPARAMS|DCode=64|XSize=39.37mil|YSize=35.43mil|CornerRadius=0mil|HoleSize=0mil|Usage=FLASHONLY|Rotation=135.000|XOffset=0mil|YOffset=0mil|HoleType=Round|Shape=Rectangle|*
%AMROTATEDRECTD64*
4,1,4,0.02645,-0.00139,0.00139,-0.02645,-0.02645,0.00139,-0.00139,0.02645,0.02645,-0.00139,0.0*
%
%ADD64ROTATEDRECTD64*%

G04:AMPARAMS|DCode=65|XSize=39.37mil|YSize=35.43mil|CornerRadius=0mil|HoleSize=0mil|Usage=FLASHONLY|Rotation=225.000|XOffset=0mil|YOffset=0mil|HoleType=Round|Shape=Rectangle|*
%AMROTATEDRECTD65*
4,1,4,0.00139,0.02645,0.02645,0.00139,-0.00139,-0.02645,-0.02645,-0.00139,0.00139,0.02645,0.0*
%
%ADD65ROTATEDRECTD65*%

%ADD66O,0.00984X0.03740*%
%ADD67O,0.03740X0.00984*%
%ADD68R,0.09646X0.09646*%
%ADD69R,0.07087X0.04528*%
%ADD70O,0.02165X0.06102*%
%ADD71O,0.06102X0.02165*%
%ADD72R,0.23622X0.23622*%
%ADD73R,0.05906X0.05906*%
G04:AMPARAMS|DCode=74|XSize=11.81mil|YSize=70.87mil|CornerRadius=0mil|HoleSize=0mil|Usage=FLASHONLY|Rotation=315.000|XOffset=0mil|YOffset=0mil|HoleType=Round|Shape=Round|*
%AMOVALD74*
21,1,0.05906,0.01181,0.00000,0.00000,45.0*
1,1,0.01181,-0.02088,-0.02088*
1,1,0.01181,0.02088,0.02088*
%
%ADD74OVALD74*%

G04:AMPARAMS|DCode=75|XSize=11.81mil|YSize=70.87mil|CornerRadius=0mil|HoleSize=0mil|Usage=FLASHONLY|Rotation=45.000|XOffset=0mil|YOffset=0mil|HoleType=Round|Shape=Round|*
%AMOVALD75*
21,1,0.05906,0.01181,0.00000,0.00000,135.0*
1,1,0.01181,0.02088,-0.02088*
1,1,0.01181,-0.02088,0.02088*
%
%ADD75OVALD75*%

%ADD76C,0.02500*%
%ADD77C,0.03200*%
%ADD78C,0.01800*%
%ADD79C,0.01500*%
%ADD80C,0.01969*%
%ADD81C,0.02362*%
%ADD82C,0.00984*%
%ADD83C,0.00787*%
%ADD84C,0.00600*%
G36*
X318317Y300800D02*
X318396D01*
Y300642D01*
X318476D01*
Y300404D01*
X318396D01*
Y300324D01*
X318317D01*
Y300245D01*
X317762D01*
Y300166D01*
X317683D01*
Y300245D01*
X304359D01*
Y300324D01*
X304279D01*
Y300404D01*
X304200D01*
Y300483D01*
X304121D01*
Y300562D01*
X304041D01*
Y300642D01*
X304121D01*
Y300721D01*
X304200D01*
Y300800D01*
X304279D01*
Y300880D01*
X318317D01*
Y300800D01*
D02*
G37*
G36*
X319507Y302307D02*
X319586D01*
Y302149D01*
X319665D01*
Y301990D01*
X319586D01*
Y301831D01*
X319427D01*
Y301752D01*
X304517D01*
Y302307D01*
X304438D01*
Y302386D01*
X319507D01*
Y302307D01*
D02*
G37*
G36*
X302931Y303100D02*
X303328D01*
Y303021D01*
X303486D01*
Y302942D01*
X303645D01*
Y302862D01*
X303724D01*
Y302783D01*
X303803D01*
Y302704D01*
X303883D01*
Y302624D01*
X303962D01*
Y302466D01*
X304041D01*
Y302307D01*
X304121D01*
Y301911D01*
X304200D01*
Y301673D01*
X304121D01*
Y301355D01*
X304041D01*
Y301197D01*
X303962D01*
Y301038D01*
X303883D01*
Y300959D01*
X303803D01*
Y300880D01*
X303724D01*
Y300800D01*
X303566D01*
Y300721D01*
X303407D01*
Y300562D01*
X303566D01*
Y300483D01*
X303724D01*
Y300404D01*
X303803D01*
Y300324D01*
X303883D01*
Y300245D01*
X303962D01*
Y300086D01*
X304041D01*
Y299928D01*
X304121D01*
Y299531D01*
X304200D01*
Y299293D01*
X304121D01*
Y298976D01*
X304041D01*
Y298817D01*
X303962D01*
Y298659D01*
X303883D01*
Y298580D01*
X303803D01*
Y298500D01*
X303724D01*
Y298421D01*
X303566D01*
Y298342D01*
X303486D01*
Y298262D01*
X303248D01*
Y298183D01*
X302852D01*
Y298104D01*
X302772D01*
Y298183D01*
X302455D01*
Y298104D01*
X302217D01*
Y298183D01*
X301821D01*
Y298262D01*
X301583D01*
Y298342D01*
X300552D01*
Y298262D01*
X300314D01*
Y298183D01*
X299997D01*
Y298104D01*
X299917D01*
Y298183D01*
X299679D01*
Y298104D01*
X299600D01*
Y298183D01*
X299521D01*
Y298104D01*
X299442D01*
Y298183D01*
X299045D01*
Y298262D01*
X298807D01*
Y298342D01*
X298649D01*
Y298421D01*
X298569D01*
Y298500D01*
X298490D01*
Y298580D01*
X298411D01*
Y298659D01*
X298331D01*
Y298817D01*
X298252D01*
Y298897D01*
X298173D01*
Y299293D01*
X298093D01*
Y299690D01*
X298173D01*
Y300007D01*
X298252D01*
Y300166D01*
X298331D01*
Y300245D01*
X298411D01*
Y300324D01*
X298490D01*
Y300404D01*
X298569D01*
Y300483D01*
X298728D01*
Y300562D01*
X298886D01*
Y300721D01*
X298649D01*
Y300800D01*
X298490D01*
Y300880D01*
X298411D01*
Y300959D01*
X298331D01*
Y301117D01*
X298252D01*
Y301276D01*
X298173D01*
Y301593D01*
X298093D01*
Y302069D01*
X298173D01*
Y302386D01*
X298252D01*
Y302545D01*
X298331D01*
Y302624D01*
X298411D01*
Y302704D01*
X298490D01*
Y302783D01*
X298569D01*
Y302862D01*
X298649D01*
Y302942D01*
X298807D01*
Y303021D01*
X298966D01*
Y303100D01*
X299283D01*
Y303180D01*
X300155D01*
Y303100D01*
X300393D01*
Y303021D01*
X300631D01*
Y302942D01*
X301583D01*
Y303021D01*
X301821D01*
Y303100D01*
X302138D01*
Y303180D01*
X302931D01*
Y303100D01*
D02*
G37*
G36*
X291431Y302862D02*
X291511D01*
Y302783D01*
X291431D01*
Y302704D01*
X291511D01*
Y302624D01*
X291431D01*
Y298897D01*
X293097D01*
Y298817D01*
X293176D01*
Y298262D01*
X293097D01*
Y298183D01*
X293018D01*
Y298104D01*
X292938D01*
Y298183D01*
X292859D01*
Y298104D01*
X292780D01*
Y298183D01*
X290559D01*
Y303021D01*
X291431D01*
Y302862D01*
D02*
G37*
G36*
X295714Y303021D02*
X296269D01*
Y302862D01*
X296349D01*
Y302704D01*
X296428D01*
Y302624D01*
X296349D01*
Y302545D01*
X296428D01*
Y302386D01*
X296507D01*
Y302149D01*
X296586D01*
Y301911D01*
X296666D01*
Y301673D01*
X296745D01*
Y301514D01*
X296824D01*
Y301276D01*
X296904D01*
Y301038D01*
X296983D01*
Y300800D01*
X297062D01*
Y300562D01*
X297142D01*
Y300324D01*
X297221D01*
Y300086D01*
X297300D01*
Y299849D01*
X297379D01*
Y299611D01*
X297459D01*
Y299373D01*
X297538D01*
Y299214D01*
X297618D01*
Y298897D01*
X297697D01*
Y298738D01*
X297776D01*
Y298580D01*
X297855D01*
Y298183D01*
X297776D01*
Y298104D01*
X297062D01*
Y298183D01*
X296983D01*
Y298262D01*
X296904D01*
Y298500D01*
X296824D01*
Y298659D01*
X296745D01*
Y298976D01*
X296666D01*
Y299214D01*
X296586D01*
Y299293D01*
X294604D01*
Y299056D01*
X294524D01*
Y298817D01*
X294445D01*
Y298580D01*
X294366D01*
Y298262D01*
X294286D01*
Y298183D01*
X294128D01*
Y298104D01*
X293573D01*
Y298183D01*
X293414D01*
Y298342D01*
X293493D01*
Y298580D01*
X293573D01*
Y298817D01*
X293652D01*
Y299056D01*
X293731D01*
Y299293D01*
X293811D01*
Y299452D01*
X293890D01*
Y299690D01*
X293969D01*
Y299928D01*
X294049D01*
Y300166D01*
X294128D01*
Y300404D01*
X294207D01*
Y300642D01*
X294286D01*
Y300880D01*
X294366D01*
Y301117D01*
X294445D01*
Y301276D01*
X294524D01*
Y301514D01*
X294604D01*
Y301752D01*
X294683D01*
Y301990D01*
X294762D01*
Y302228D01*
X294842D01*
Y302466D01*
X294921D01*
Y302704D01*
X295000D01*
Y302942D01*
X295080D01*
Y303021D01*
X295635D01*
Y303100D01*
X295714D01*
Y303021D01*
D02*
G37*
G36*
X317127Y299214D02*
X317207D01*
Y299135D01*
X317286D01*
Y298817D01*
X317207D01*
Y298738D01*
X317127D01*
Y298659D01*
X304359D01*
Y298738D01*
X304438D01*
Y298976D01*
X304517D01*
Y299293D01*
X317127D01*
Y299214D01*
D02*
G37*
G36*
X304676Y323720D02*
X305231D01*
Y323641D01*
X305707D01*
Y323562D01*
X306024D01*
Y323482D01*
X306341D01*
Y323403D01*
X306579D01*
Y323324D01*
X306817D01*
Y323245D01*
X307055D01*
Y323165D01*
X307293D01*
Y323086D01*
X307452D01*
Y323007D01*
X307610D01*
Y322927D01*
X307769D01*
Y322848D01*
X307928D01*
Y322769D01*
X308086D01*
Y322689D01*
X308245D01*
Y322610D01*
X308403D01*
Y322531D01*
X308562D01*
Y322451D01*
X308721D01*
Y322372D01*
X308800D01*
Y322293D01*
X308959D01*
Y322214D01*
X309038D01*
Y322134D01*
X309196D01*
Y322055D01*
X309276D01*
Y321976D01*
X309355D01*
Y321896D01*
X309514D01*
Y321817D01*
X309593D01*
Y321738D01*
X309752D01*
Y321658D01*
X309831D01*
Y321579D01*
X309910D01*
Y321500D01*
X309990D01*
Y321420D01*
X310069D01*
Y321341D01*
X310148D01*
Y321262D01*
X310227D01*
Y321182D01*
X310307D01*
Y321103D01*
X310465D01*
Y321024D01*
X310545D01*
Y320944D01*
X310624D01*
Y320786D01*
X310703D01*
Y320707D01*
X310783D01*
Y320627D01*
X310862D01*
Y320548D01*
X310941D01*
Y320469D01*
X311021D01*
Y320389D01*
X311100D01*
Y320231D01*
X311259D01*
Y320072D01*
X311338D01*
Y319993D01*
X311417D01*
Y319834D01*
X311496D01*
Y319755D01*
X311576D01*
Y319676D01*
X311655D01*
Y319517D01*
X311734D01*
Y319438D01*
X311814D01*
Y319279D01*
X311893D01*
Y319200D01*
X311972D01*
Y319041D01*
X312052D01*
Y318882D01*
X312131D01*
Y318724D01*
X312210D01*
Y318645D01*
X312290D01*
Y318486D01*
X312369D01*
Y318248D01*
X312448D01*
Y318089D01*
X312527D01*
Y317931D01*
X312607D01*
Y317772D01*
X312686D01*
Y317534D01*
X312765D01*
Y317296D01*
X312845D01*
Y317058D01*
X312924D01*
Y316821D01*
X313003D01*
Y316583D01*
X313083D01*
Y316265D01*
X313162D01*
Y315869D01*
X313241D01*
Y315393D01*
X313320D01*
Y314996D01*
X313400D01*
Y314917D01*
X313320D01*
Y314679D01*
X313400D01*
Y313410D01*
X313320D01*
Y312776D01*
X313241D01*
Y312300D01*
X313162D01*
Y311903D01*
X313083D01*
Y311586D01*
X313003D01*
Y311428D01*
X312924D01*
Y311110D01*
X312845D01*
Y310952D01*
X313479D01*
Y311110D01*
X313558D01*
Y311428D01*
X313638D01*
Y311745D01*
X313717D01*
Y312221D01*
X313796D01*
Y312617D01*
X313876D01*
Y312776D01*
X313796D01*
Y312855D01*
X313876D01*
Y313648D01*
X313955D01*
Y314600D01*
X313876D01*
Y315631D01*
X313796D01*
Y315948D01*
X313717D01*
Y316424D01*
X313638D01*
Y316741D01*
X313558D01*
Y317058D01*
X313479D01*
Y317217D01*
X313400D01*
Y317534D01*
X313320D01*
Y317693D01*
X313241D01*
Y317931D01*
X313162D01*
Y318089D01*
X313241D01*
Y318169D01*
X313320D01*
Y318248D01*
X313479D01*
Y318327D01*
X313638D01*
Y318407D01*
X313796D01*
Y318486D01*
X313955D01*
Y318565D01*
X314114D01*
Y318645D01*
X314352D01*
Y318724D01*
X314589D01*
Y318803D01*
X314827D01*
Y318882D01*
X315065D01*
Y318962D01*
X315383D01*
Y319041D01*
X315700D01*
Y319121D01*
X316255D01*
Y319200D01*
X318000D01*
Y319121D01*
X318396D01*
Y319041D01*
X318476D01*
Y319121D01*
X318555D01*
Y319041D01*
X318872D01*
Y318962D01*
X319189D01*
Y318882D01*
X319427D01*
Y318803D01*
X319665D01*
Y318724D01*
X319903D01*
Y318645D01*
X320141D01*
Y318565D01*
X320300D01*
Y318486D01*
X320458D01*
Y318407D01*
X320617D01*
Y318327D01*
X320776D01*
Y318248D01*
X320934D01*
Y318169D01*
X321093D01*
Y318089D01*
X321172D01*
Y318010D01*
X321331D01*
Y317931D01*
X321410D01*
Y317851D01*
X321569D01*
Y317772D01*
X321648D01*
Y317693D01*
X321727D01*
Y317614D01*
X321886D01*
Y317534D01*
X321965D01*
Y317455D01*
X322044D01*
Y317376D01*
X322203D01*
Y317217D01*
X322282D01*
Y317138D01*
X322441D01*
Y317058D01*
X322520D01*
Y316979D01*
X322600D01*
Y316900D01*
X322679D01*
Y316741D01*
X322758D01*
Y316662D01*
X322917D01*
Y316503D01*
X322996D01*
Y316424D01*
X323075D01*
Y316345D01*
X323155D01*
Y316186D01*
X323234D01*
Y316107D01*
X323313D01*
Y316027D01*
X323393D01*
Y315869D01*
X323472D01*
Y315790D01*
X323551D01*
Y315631D01*
X323631D01*
Y315552D01*
X323710D01*
Y315393D01*
X323789D01*
Y315234D01*
X323868D01*
Y315076D01*
X323948D01*
Y314996D01*
X324027D01*
Y314758D01*
X324106D01*
Y314600D01*
X324186D01*
Y314441D01*
X324265D01*
Y314124D01*
X324344D01*
Y314045D01*
X324424D01*
Y313807D01*
X324503D01*
Y313727D01*
X324424D01*
Y313648D01*
X324503D01*
Y313490D01*
X324582D01*
Y313093D01*
X324662D01*
Y312617D01*
X324741D01*
Y312141D01*
X324820D01*
Y311983D01*
X324741D01*
Y311903D01*
X324820D01*
Y311348D01*
X324741D01*
Y311269D01*
X324820D01*
Y311190D01*
X324741D01*
Y311110D01*
X324820D01*
Y310952D01*
X324741D01*
Y310476D01*
X324662D01*
Y309921D01*
X324582D01*
Y309604D01*
X324503D01*
Y309286D01*
X324424D01*
Y309048D01*
X324344D01*
Y308810D01*
X324265D01*
Y308652D01*
X324186D01*
Y308493D01*
X324106D01*
Y308255D01*
X324027D01*
Y308176D01*
X323948D01*
Y307938D01*
X323868D01*
Y307859D01*
X323789D01*
Y307700D01*
X323710D01*
Y307541D01*
X323631D01*
Y307383D01*
X323551D01*
Y307304D01*
X323472D01*
Y307145D01*
X323393D01*
Y307066D01*
X323313D01*
Y306986D01*
X323234D01*
Y306828D01*
X323155D01*
Y306748D01*
X323075D01*
Y306669D01*
X322996D01*
Y306510D01*
X322917D01*
Y306431D01*
X322837D01*
Y306352D01*
X322758D01*
Y306273D01*
X322679D01*
Y306193D01*
X322600D01*
Y306114D01*
X322520D01*
Y306035D01*
X322441D01*
Y305955D01*
X322362D01*
Y305876D01*
X322282D01*
Y305797D01*
X322203D01*
Y305717D01*
X322044D01*
Y305638D01*
X321965D01*
Y305559D01*
X321886D01*
Y305479D01*
X321727D01*
Y305400D01*
X321648D01*
Y305321D01*
X321569D01*
Y305241D01*
X321410D01*
Y305162D01*
X321331D01*
Y305083D01*
X321172D01*
Y305004D01*
X321093D01*
Y304924D01*
X320934D01*
Y304845D01*
X320776D01*
Y304766D01*
X320617D01*
Y304686D01*
X320458D01*
Y304607D01*
X320300D01*
Y304528D01*
X320062D01*
Y304448D01*
X319903D01*
Y304369D01*
X319665D01*
Y304290D01*
X319427D01*
Y304210D01*
X319269D01*
Y304131D01*
X287070D01*
Y304210D01*
X286831D01*
Y304290D01*
X286673D01*
Y304369D01*
X286514D01*
Y304448D01*
X286356D01*
Y304528D01*
X286197D01*
Y304607D01*
X286038D01*
Y304686D01*
X285880D01*
Y304766D01*
X285721D01*
Y304845D01*
X285563D01*
Y304924D01*
X285483D01*
Y305004D01*
X285325D01*
Y305083D01*
X285245D01*
Y305162D01*
X285087D01*
Y305241D01*
X285007D01*
Y305321D01*
X284928D01*
Y305400D01*
X284849D01*
Y305479D01*
X284690D01*
Y305559D01*
X284611D01*
Y305638D01*
X284532D01*
Y305717D01*
X284452D01*
Y305797D01*
X284294D01*
Y305876D01*
X284214D01*
Y305955D01*
X284135D01*
Y306035D01*
X284056D01*
Y306114D01*
X283976D01*
Y306273D01*
X283897D01*
Y306352D01*
X283818D01*
Y306431D01*
X283738D01*
Y306510D01*
X283659D01*
Y306669D01*
X283580D01*
Y306748D01*
X283501D01*
Y306828D01*
X283421D01*
Y306907D01*
X283342D01*
Y307066D01*
X283263D01*
Y307145D01*
X283183D01*
Y307224D01*
X283104D01*
Y307383D01*
X283025D01*
Y307541D01*
X282945D01*
Y307700D01*
X282866D01*
Y307779D01*
X282787D01*
Y307938D01*
X282708D01*
Y308097D01*
X282628D01*
Y308255D01*
X282549D01*
Y308414D01*
X282470D01*
Y308652D01*
X282390D01*
Y308890D01*
X282311D01*
Y309048D01*
X282232D01*
Y309286D01*
X282152D01*
Y309604D01*
X282073D01*
Y309921D01*
X281994D01*
Y310397D01*
X281914D01*
Y311269D01*
X281835D01*
Y311824D01*
X281914D01*
Y312697D01*
X281994D01*
Y313172D01*
X282073D01*
Y313490D01*
X282152D01*
Y313807D01*
X282232D01*
Y313965D01*
X282311D01*
Y314203D01*
X282390D01*
Y314441D01*
X282470D01*
Y314600D01*
X282549D01*
Y314838D01*
X282628D01*
Y314996D01*
X282708D01*
Y315155D01*
X282787D01*
Y315234D01*
X282866D01*
Y315393D01*
X282945D01*
Y315552D01*
X283025D01*
Y315710D01*
X283104D01*
Y315790D01*
X283183D01*
Y315948D01*
X283263D01*
Y316027D01*
X283342D01*
Y316186D01*
X283421D01*
Y316265D01*
X283501D01*
Y316345D01*
X283580D01*
Y316424D01*
X283659D01*
Y316583D01*
X283738D01*
Y316662D01*
X283818D01*
Y316741D01*
X283897D01*
Y316821D01*
X283976D01*
Y316900D01*
X284056D01*
Y316979D01*
X284135D01*
Y317058D01*
X284214D01*
Y317138D01*
X284294D01*
Y317296D01*
X284452D01*
Y317376D01*
X284532D01*
Y317455D01*
X284611D01*
Y317534D01*
X284690D01*
Y317614D01*
X284849D01*
Y317693D01*
X284928D01*
Y317772D01*
X285007D01*
Y317851D01*
X285087D01*
Y317931D01*
X285245D01*
Y318010D01*
X285325D01*
Y318089D01*
X285483D01*
Y318169D01*
X285642D01*
Y318248D01*
X285721D01*
Y318327D01*
X285880D01*
Y318407D01*
X286038D01*
Y318486D01*
X286118D01*
Y318565D01*
X286276D01*
Y318645D01*
X286514D01*
Y318724D01*
X286673D01*
Y318803D01*
X286911D01*
Y318882D01*
X287070D01*
Y318962D01*
X287307D01*
Y319041D01*
X287625D01*
Y319121D01*
X287862D01*
Y319200D01*
X288338D01*
Y319279D01*
X288894D01*
Y319358D01*
X290400D01*
Y319279D01*
X290956D01*
Y319200D01*
X291431D01*
Y319121D01*
X291669D01*
Y319041D01*
X291987D01*
Y318962D01*
X292225D01*
Y318882D01*
X292462D01*
Y318803D01*
X292621D01*
Y318724D01*
X292780D01*
Y318645D01*
X293018D01*
Y318565D01*
X293176D01*
Y318486D01*
X293335D01*
Y318407D01*
X293414D01*
Y318327D01*
X293573D01*
Y318248D01*
X293731D01*
Y318169D01*
X293890D01*
Y318089D01*
X293969D01*
Y318010D01*
X294128D01*
Y317931D01*
X294207D01*
Y317851D01*
X294286D01*
Y317772D01*
X294445D01*
Y317693D01*
X294524D01*
Y317614D01*
X294604D01*
Y317534D01*
X294683D01*
Y317455D01*
X294842D01*
Y317376D01*
X294921D01*
Y317296D01*
X295000D01*
Y317217D01*
X295080D01*
Y317138D01*
X295159D01*
Y317058D01*
X295238D01*
Y316979D01*
X295318D01*
Y316900D01*
X295397D01*
Y316821D01*
X295476D01*
Y316662D01*
X295555D01*
Y316583D01*
X295635D01*
Y316503D01*
X295714D01*
Y316345D01*
X295793D01*
Y316265D01*
X295873D01*
Y316186D01*
X295952D01*
Y316027D01*
X296031D01*
Y315948D01*
X296111D01*
Y315790D01*
X296190D01*
Y315710D01*
X296269D01*
Y315552D01*
X296349D01*
Y315393D01*
X296428D01*
Y315234D01*
X296507D01*
Y315076D01*
X296586D01*
Y314917D01*
X296666D01*
Y314758D01*
X296745D01*
Y314600D01*
X296824D01*
Y314441D01*
X296904D01*
Y314203D01*
X296983D01*
Y313965D01*
X297062D01*
Y313648D01*
X297142D01*
Y313331D01*
X297221D01*
Y313093D01*
X297300D01*
Y312617D01*
X297379D01*
Y311824D01*
X297459D01*
Y310952D01*
X297855D01*
Y311031D01*
X297935D01*
Y312459D01*
X297855D01*
Y313093D01*
X297776D01*
Y313490D01*
X297697D01*
Y313886D01*
X297618D01*
Y314045D01*
X297538D01*
Y314362D01*
X297459D01*
Y314521D01*
X297379D01*
Y314758D01*
X297300D01*
Y314917D01*
X297221D01*
Y315076D01*
X297142D01*
Y315314D01*
X297062D01*
Y315472D01*
X296983D01*
Y315631D01*
X296904D01*
Y315710D01*
X296824D01*
Y315869D01*
X296745D01*
Y316027D01*
X296666D01*
Y316107D01*
X296586D01*
Y316265D01*
X296507D01*
Y316345D01*
X296428D01*
Y316503D01*
X296349D01*
Y316583D01*
X296269D01*
Y316662D01*
X296190D01*
Y316821D01*
X296111D01*
Y316900D01*
X296031D01*
Y316979D01*
X295952D01*
Y317058D01*
X295873D01*
Y317138D01*
X295793D01*
Y317296D01*
X295714D01*
Y317376D01*
X295635D01*
Y317455D01*
X295555D01*
Y317534D01*
X295476D01*
Y317614D01*
X295397D01*
Y317693D01*
X295318D01*
Y317772D01*
X295238D01*
Y317851D01*
X295080D01*
Y317931D01*
X295000D01*
Y318010D01*
X294921D01*
Y318248D01*
X295000D01*
Y318407D01*
X295080D01*
Y318565D01*
X295159D01*
Y318724D01*
X295238D01*
Y318882D01*
X295318D01*
Y318962D01*
X295397D01*
Y319121D01*
X295476D01*
Y319279D01*
X295555D01*
Y319438D01*
X295635D01*
Y319517D01*
X295714D01*
Y319676D01*
X295793D01*
Y319755D01*
X295873D01*
Y319834D01*
X295952D01*
Y319993D01*
X296031D01*
Y320072D01*
X296111D01*
Y320151D01*
X296190D01*
Y320231D01*
X296269D01*
Y320389D01*
X296349D01*
Y320469D01*
X296428D01*
Y320548D01*
X296507D01*
Y320627D01*
X296586D01*
Y320707D01*
X296666D01*
Y320786D01*
X296745D01*
Y320865D01*
X296824D01*
Y320944D01*
X296904D01*
Y321024D01*
X296983D01*
Y321103D01*
X297062D01*
Y321182D01*
X297142D01*
Y321262D01*
X297221D01*
Y321341D01*
X297300D01*
Y321420D01*
X297379D01*
Y321500D01*
X297459D01*
Y321579D01*
X297538D01*
Y321658D01*
X297697D01*
Y321738D01*
X297776D01*
Y321817D01*
X297855D01*
Y321896D01*
X298014D01*
Y321976D01*
X298093D01*
Y322055D01*
X298173D01*
Y322134D01*
X298331D01*
Y322214D01*
X298411D01*
Y322293D01*
X298569D01*
Y322372D01*
X298649D01*
Y322451D01*
X298807D01*
Y322531D01*
X298966D01*
Y322610D01*
X299124D01*
Y322689D01*
X299204D01*
Y322769D01*
X299362D01*
Y322848D01*
X299521D01*
Y322927D01*
X299679D01*
Y323007D01*
X299917D01*
Y323086D01*
X300076D01*
Y323165D01*
X300314D01*
Y323245D01*
X300552D01*
Y323324D01*
X300790D01*
Y323403D01*
X301028D01*
Y323482D01*
X301345D01*
Y323562D01*
X301662D01*
Y323641D01*
X302138D01*
Y323720D01*
X302693D01*
Y323800D01*
X304676D01*
Y323720D01*
D02*
G37*
%LPC*%
G36*
X294286Y310000D02*
X293414D01*
Y309921D01*
X293335D01*
Y309841D01*
Y309762D01*
Y309683D01*
Y309604D01*
Y309524D01*
Y309445D01*
Y309366D01*
Y309286D01*
Y309207D01*
Y309128D01*
Y309048D01*
Y308969D01*
Y308890D01*
Y308810D01*
Y308731D01*
Y308652D01*
Y308572D01*
Y308493D01*
Y308414D01*
Y308334D01*
Y308255D01*
Y308176D01*
Y308097D01*
Y308017D01*
Y307938D01*
Y307859D01*
Y307779D01*
Y307700D01*
Y307621D01*
Y307541D01*
Y307462D01*
Y307383D01*
Y307304D01*
Y307224D01*
Y307145D01*
Y307066D01*
Y306986D01*
Y306907D01*
Y306828D01*
X293255D01*
Y306907D01*
X293176D01*
Y306986D01*
Y307066D01*
Y307145D01*
X293097D01*
Y307224D01*
X293018D01*
Y307304D01*
Y307383D01*
Y307462D01*
X292938D01*
Y307541D01*
Y307621D01*
X292859D01*
Y307700D01*
Y307779D01*
X292780D01*
Y307859D01*
X292700D01*
Y307938D01*
Y308017D01*
X292621D01*
Y308097D01*
Y308176D01*
X292542D01*
Y308255D01*
Y308334D01*
X292462D01*
Y308414D01*
Y308493D01*
X292383D01*
Y308572D01*
Y308652D01*
X292304D01*
Y308731D01*
Y308810D01*
X292225D01*
Y308890D01*
X292145D01*
Y308969D01*
Y309048D01*
Y309128D01*
X292066D01*
Y309207D01*
Y309286D01*
X291987D01*
Y309366D01*
Y309445D01*
X291907D01*
Y309524D01*
X291828D01*
Y309604D01*
Y309683D01*
X291749D01*
Y309762D01*
X291669D01*
Y309841D01*
X291590D01*
Y309921D01*
X291431D01*
Y310000D01*
X290400D01*
Y309921D01*
X290321D01*
Y309841D01*
X290242D01*
Y309762D01*
X290162D01*
Y309683D01*
Y309604D01*
Y309524D01*
Y309445D01*
Y309366D01*
Y309286D01*
Y309207D01*
Y309128D01*
Y309048D01*
Y308969D01*
Y308890D01*
Y308810D01*
Y308731D01*
Y308652D01*
Y308572D01*
Y308493D01*
Y308414D01*
Y308334D01*
Y308255D01*
Y308176D01*
Y308097D01*
Y308017D01*
Y307938D01*
Y307859D01*
Y307779D01*
Y307700D01*
Y307621D01*
Y307541D01*
Y307462D01*
Y307383D01*
Y307304D01*
Y307224D01*
Y307145D01*
Y307066D01*
Y306986D01*
Y306907D01*
Y306828D01*
Y306748D01*
Y306669D01*
Y306590D01*
Y306510D01*
Y306431D01*
Y306352D01*
Y306273D01*
Y306193D01*
Y306114D01*
Y306035D01*
Y305955D01*
Y305876D01*
Y305797D01*
Y305717D01*
Y305638D01*
Y305559D01*
Y305479D01*
Y305400D01*
Y305321D01*
Y305241D01*
Y305162D01*
Y305083D01*
Y305004D01*
X290242D01*
Y304924D01*
X290480D01*
Y304845D01*
X290876D01*
Y304924D01*
X291114D01*
Y305004D01*
X291194D01*
Y305083D01*
Y305162D01*
Y305241D01*
Y305321D01*
Y305400D01*
Y305479D01*
Y305559D01*
Y305638D01*
Y305717D01*
Y305797D01*
Y305876D01*
Y305955D01*
Y306035D01*
Y306114D01*
Y306193D01*
Y306273D01*
Y306352D01*
Y306431D01*
Y306510D01*
Y306590D01*
Y306669D01*
Y306748D01*
Y306828D01*
Y306907D01*
Y306986D01*
Y307066D01*
Y307145D01*
Y307224D01*
Y307304D01*
Y307383D01*
Y307462D01*
Y307541D01*
Y307621D01*
Y307700D01*
Y307779D01*
Y307859D01*
Y307938D01*
Y308017D01*
Y308097D01*
Y308176D01*
Y308255D01*
Y308334D01*
Y308414D01*
X291273D01*
Y308334D01*
Y308255D01*
X291352D01*
Y308176D01*
Y308097D01*
X291431D01*
Y308017D01*
Y307938D01*
X291511D01*
Y307859D01*
Y307779D01*
X291590D01*
Y307700D01*
Y307621D01*
X291669D01*
Y307541D01*
Y307462D01*
X291749D01*
Y307383D01*
Y307304D01*
X291828D01*
Y307224D01*
Y307145D01*
X291907D01*
Y307066D01*
Y306986D01*
X291987D01*
Y306907D01*
Y306828D01*
X292066D01*
Y306748D01*
Y306669D01*
X292145D01*
Y306590D01*
X292225D01*
Y306510D01*
Y306431D01*
X292304D01*
Y306352D01*
Y306273D01*
X292383D01*
Y306193D01*
Y306114D01*
X292462D01*
Y306035D01*
Y305955D01*
X292542D01*
Y305876D01*
Y305797D01*
X292621D01*
Y305717D01*
Y305638D01*
X292700D01*
Y305559D01*
Y305479D01*
X292780D01*
Y305400D01*
Y305321D01*
X292859D01*
Y305241D01*
X292938D01*
Y305162D01*
Y305083D01*
X293018D01*
Y305004D01*
X293176D01*
Y304924D01*
X293493D01*
Y304845D01*
X293969D01*
Y304924D01*
X294207D01*
Y305004D01*
X294286D01*
Y305083D01*
X294366D01*
Y305162D01*
Y305241D01*
Y305321D01*
Y305400D01*
Y305479D01*
Y305559D01*
Y305638D01*
Y305717D01*
Y305797D01*
Y305876D01*
Y305955D01*
Y306035D01*
Y306114D01*
Y306193D01*
Y306273D01*
Y306352D01*
Y306431D01*
Y306510D01*
Y306590D01*
Y306669D01*
Y306748D01*
Y306828D01*
Y306907D01*
Y306986D01*
Y307066D01*
Y307145D01*
Y307224D01*
Y307304D01*
Y307383D01*
Y307462D01*
Y307541D01*
Y307621D01*
Y307700D01*
Y307779D01*
Y307859D01*
Y307938D01*
Y308017D01*
Y308097D01*
Y308176D01*
Y308255D01*
Y308334D01*
Y308414D01*
Y308493D01*
Y308572D01*
Y308652D01*
Y308731D01*
Y308810D01*
Y308890D01*
Y308969D01*
Y309048D01*
Y309128D01*
Y309207D01*
Y309286D01*
Y309366D01*
Y309445D01*
Y309524D01*
Y309604D01*
Y309683D01*
Y309762D01*
Y309841D01*
Y309921D01*
X294286D01*
Y310000D01*
D02*
G37*
G36*
X300631Y300404D02*
X300473D01*
Y300324D01*
X300314D01*
Y300404D01*
X299600D01*
Y300324D01*
X299204D01*
Y300245D01*
X299045D01*
Y300166D01*
X298966D01*
Y300086D01*
X298886D01*
Y300007D01*
X298807D01*
Y299928D01*
Y299849D01*
X298728D01*
Y299769D01*
Y299690D01*
X298649D01*
Y299611D01*
Y299531D01*
Y299452D01*
Y299373D01*
Y299293D01*
Y299214D01*
X298728D01*
Y299135D01*
Y299056D01*
X298807D01*
Y298976D01*
X298886D01*
Y298897D01*
X298966D01*
Y298817D01*
X299124D01*
Y298738D01*
X299521D01*
Y298659D01*
X300631D01*
Y298738D01*
Y298817D01*
Y298897D01*
Y298976D01*
Y299056D01*
Y299135D01*
Y299214D01*
Y299293D01*
Y299373D01*
Y299452D01*
Y299531D01*
Y299611D01*
Y299690D01*
Y299769D01*
Y299849D01*
Y299928D01*
Y300007D01*
Y300086D01*
Y300166D01*
Y300245D01*
Y300324D01*
Y300404D01*
D02*
G37*
G36*
X295714Y302149D02*
X295555D01*
Y302069D01*
X295476D01*
Y301990D01*
Y301911D01*
Y301831D01*
X295397D01*
Y301752D01*
Y301673D01*
Y301593D01*
X295318D01*
Y301514D01*
Y301435D01*
Y301355D01*
X295238D01*
Y301276D01*
Y301197D01*
Y301117D01*
Y301038D01*
X295159D01*
Y300959D01*
Y300880D01*
X295080D01*
Y300800D01*
Y300721D01*
Y300642D01*
X295000D01*
Y300562D01*
Y300483D01*
Y300404D01*
X294921D01*
Y300324D01*
Y300245D01*
Y300166D01*
X294842D01*
Y300086D01*
Y300007D01*
Y299928D01*
X296349D01*
Y300007D01*
Y300086D01*
Y300166D01*
X296269D01*
Y300245D01*
Y300324D01*
Y300404D01*
X296190D01*
Y300483D01*
Y300562D01*
Y300642D01*
Y300721D01*
X296111D01*
Y300800D01*
Y300880D01*
X296031D01*
Y300959D01*
Y301038D01*
Y301117D01*
X295952D01*
Y301197D01*
Y301276D01*
Y301355D01*
X295873D01*
Y301435D01*
Y301514D01*
Y301593D01*
Y301673D01*
X295793D01*
Y301752D01*
Y301831D01*
X295714D01*
Y301911D01*
Y301990D01*
Y302069D01*
Y302149D01*
D02*
G37*
G36*
X315858Y310079D02*
X314907D01*
Y310000D01*
X314589D01*
Y309921D01*
X314431D01*
Y309841D01*
X314272D01*
Y309762D01*
X314193D01*
Y309683D01*
X314114D01*
Y309604D01*
X314034D01*
Y309524D01*
X313955D01*
Y309445D01*
X313876D01*
Y309366D01*
Y309286D01*
X313796D01*
Y309207D01*
X313717D01*
Y309128D01*
Y309048D01*
Y308969D01*
Y308890D01*
Y308810D01*
X313638D01*
Y308731D01*
Y308652D01*
Y308572D01*
Y308493D01*
Y308414D01*
X313717D01*
Y308334D01*
Y308255D01*
Y308176D01*
Y308097D01*
Y308017D01*
X313796D01*
Y307938D01*
Y307859D01*
X313876D01*
Y307779D01*
X313955D01*
Y307700D01*
Y307621D01*
X314034D01*
Y307541D01*
X314193D01*
Y307462D01*
X314272D01*
Y307383D01*
X314352D01*
Y307304D01*
X314510D01*
Y307224D01*
X314669D01*
Y307145D01*
X314827D01*
Y307066D01*
X314986D01*
Y306986D01*
X315145D01*
Y306907D01*
X315303D01*
Y306828D01*
X315462D01*
Y306748D01*
X315620D01*
Y306669D01*
X315700D01*
Y306590D01*
Y306510D01*
X315779D01*
Y306431D01*
Y306352D01*
Y306273D01*
Y306193D01*
Y306114D01*
X315700D01*
Y306035D01*
Y305955D01*
X315620D01*
Y305876D01*
X315541D01*
Y305797D01*
X315224D01*
Y305717D01*
X315145D01*
Y305797D01*
X314589D01*
Y305876D01*
X314352D01*
Y305955D01*
X314114D01*
Y306035D01*
X314034D01*
Y306114D01*
X313638D01*
Y306035D01*
Y305955D01*
X313558D01*
Y305876D01*
Y305797D01*
Y305717D01*
Y305638D01*
Y305559D01*
Y305479D01*
X313638D01*
Y305400D01*
Y305321D01*
Y305241D01*
X313717D01*
Y305162D01*
X313796D01*
Y305083D01*
X313955D01*
Y305004D01*
X314114D01*
Y304924D01*
X314431D01*
Y304845D01*
X315700D01*
Y304924D01*
X315938D01*
Y305004D01*
X316096D01*
Y305083D01*
X316255D01*
Y305162D01*
X316334D01*
Y305241D01*
X316413D01*
Y305321D01*
X316572D01*
Y305400D01*
X316652D01*
Y305479D01*
Y305559D01*
X316731D01*
Y305638D01*
X316810D01*
Y305717D01*
Y305797D01*
X316889D01*
Y305876D01*
Y305955D01*
Y306035D01*
Y306114D01*
X316969D01*
Y306193D01*
Y306273D01*
Y306352D01*
Y306431D01*
Y306510D01*
Y306590D01*
Y306669D01*
X316889D01*
Y306748D01*
Y306828D01*
Y306907D01*
Y306986D01*
Y307066D01*
X316810D01*
Y307145D01*
Y307224D01*
X316731D01*
Y307304D01*
X316652D01*
Y307383D01*
X316572D01*
Y307462D01*
X316493D01*
Y307541D01*
X316413D01*
Y307621D01*
X316334D01*
Y307700D01*
X316176D01*
Y307779D01*
X316017D01*
Y307859D01*
X315858D01*
Y307938D01*
X315700D01*
Y308017D01*
X315541D01*
Y308097D01*
X315303D01*
Y308176D01*
X315145D01*
Y308255D01*
X315065D01*
Y308334D01*
X314986D01*
Y308414D01*
X314907D01*
Y308493D01*
X314827D01*
Y308572D01*
Y308652D01*
Y308731D01*
Y308810D01*
Y308890D01*
Y308969D01*
X314907D01*
Y309048D01*
X314986D01*
Y309128D01*
X315224D01*
Y309207D01*
X315620D01*
Y309128D01*
X315938D01*
Y309048D01*
X316176D01*
Y308969D01*
X316255D01*
Y308890D01*
X316413D01*
Y308810D01*
X316493D01*
Y308890D01*
X316652D01*
Y308969D01*
Y309048D01*
Y309128D01*
Y309207D01*
Y309286D01*
Y309366D01*
Y309445D01*
Y309524D01*
Y309604D01*
Y309683D01*
Y309762D01*
X316572D01*
Y309841D01*
X316413D01*
Y309921D01*
X316176D01*
Y310000D01*
X315858D01*
Y310079D01*
D02*
G37*
G36*
X302535Y300404D02*
X301583D01*
Y300324D01*
Y300245D01*
Y300166D01*
Y300086D01*
Y300007D01*
Y299928D01*
Y299849D01*
Y299769D01*
Y299690D01*
Y299611D01*
Y299531D01*
Y299452D01*
Y299373D01*
Y299293D01*
Y299214D01*
Y299135D01*
Y299056D01*
Y298976D01*
Y298897D01*
Y298817D01*
Y298738D01*
Y298659D01*
X302852D01*
Y298738D01*
X303169D01*
Y298817D01*
X303328D01*
Y298897D01*
X303407D01*
Y298976D01*
X303486D01*
Y299056D01*
X303566D01*
Y299135D01*
Y299214D01*
Y299293D01*
Y299373D01*
Y299452D01*
Y299531D01*
Y299611D01*
Y299690D01*
Y299769D01*
Y299849D01*
X303486D01*
Y299928D01*
Y300007D01*
X303407D01*
Y300086D01*
X303328D01*
Y300166D01*
X303169D01*
Y300245D01*
X303010D01*
Y300324D01*
X302535D01*
Y300404D01*
D02*
G37*
G36*
X303010Y302624D02*
X301583D01*
Y302545D01*
Y302466D01*
Y302386D01*
Y302307D01*
Y302228D01*
Y302149D01*
Y302069D01*
Y301990D01*
Y301911D01*
Y301831D01*
Y301752D01*
Y301673D01*
Y301593D01*
Y301514D01*
Y301435D01*
Y301355D01*
Y301276D01*
Y301197D01*
Y301117D01*
Y301038D01*
Y300959D01*
Y300880D01*
X302614D01*
Y300959D01*
X303010D01*
Y301038D01*
X303169D01*
Y301117D01*
X303328D01*
Y301197D01*
X303407D01*
Y301276D01*
X303486D01*
Y301355D01*
Y301435D01*
X303566D01*
Y301514D01*
Y301593D01*
Y301673D01*
Y301752D01*
Y301831D01*
Y301911D01*
Y301990D01*
Y302069D01*
Y302149D01*
Y302228D01*
X303486D01*
Y302307D01*
X303407D01*
Y302386D01*
X303328D01*
Y302466D01*
X303169D01*
Y302545D01*
X303010D01*
Y302624D01*
D02*
G37*
G36*
X306500Y310000D02*
X304517D01*
Y309921D01*
X304359D01*
Y309841D01*
Y309762D01*
Y309683D01*
Y309604D01*
Y309524D01*
Y309445D01*
Y309366D01*
Y309286D01*
Y309207D01*
Y309128D01*
Y309048D01*
Y308969D01*
Y308890D01*
Y308810D01*
Y308731D01*
Y308652D01*
Y308572D01*
Y308493D01*
Y308414D01*
Y308334D01*
Y308255D01*
Y308176D01*
Y308097D01*
Y308017D01*
Y307938D01*
Y307859D01*
Y307779D01*
Y307700D01*
Y307621D01*
Y307541D01*
Y307462D01*
Y307383D01*
Y307304D01*
Y307224D01*
Y307145D01*
Y307066D01*
Y306986D01*
Y306907D01*
Y306828D01*
Y306748D01*
Y306669D01*
Y306590D01*
Y306510D01*
Y306431D01*
Y306352D01*
Y306273D01*
Y306193D01*
Y306114D01*
Y306035D01*
Y305955D01*
Y305876D01*
Y305797D01*
Y305717D01*
Y305638D01*
Y305559D01*
Y305479D01*
Y305400D01*
Y305321D01*
Y305241D01*
Y305162D01*
Y305083D01*
Y305004D01*
X304438D01*
Y304924D01*
X306579D01*
Y305004D01*
X306659D01*
Y304924D01*
X306738D01*
Y305004D01*
X306976D01*
Y305083D01*
X307214D01*
Y305162D01*
X307293D01*
Y305241D01*
X307452D01*
Y305321D01*
X307610D01*
Y305400D01*
X307690D01*
Y305479D01*
X307769D01*
Y305559D01*
Y305638D01*
X307848D01*
Y305717D01*
X307928D01*
Y305797D01*
Y305876D01*
X308007D01*
Y305955D01*
Y306035D01*
Y306114D01*
Y306193D01*
Y306273D01*
Y306352D01*
Y306431D01*
X308086D01*
Y306510D01*
X308007D01*
Y306590D01*
Y306669D01*
Y306748D01*
Y306828D01*
Y306907D01*
Y306986D01*
X307928D01*
Y307066D01*
Y307145D01*
X307848D01*
Y307224D01*
X307769D01*
Y307304D01*
Y307383D01*
X307610D01*
Y307462D01*
X307531D01*
Y307541D01*
X307372D01*
Y307621D01*
X307214D01*
Y307700D01*
X307293D01*
Y307779D01*
X307372D01*
Y307859D01*
X307452D01*
Y307938D01*
X307531D01*
Y308017D01*
X307610D01*
Y308097D01*
Y308176D01*
X307690D01*
Y308255D01*
Y308334D01*
Y308414D01*
X307769D01*
Y308493D01*
Y308572D01*
Y308652D01*
Y308731D01*
Y308810D01*
Y308890D01*
Y308969D01*
X307690D01*
Y309048D01*
Y309128D01*
Y309207D01*
Y309286D01*
X307610D01*
Y309366D01*
Y309445D01*
X307531D01*
Y309524D01*
X307452D01*
Y309604D01*
X307293D01*
Y309683D01*
X307214D01*
Y309762D01*
X307055D01*
Y309841D01*
X306896D01*
Y309921D01*
X306500D01*
Y310000D01*
D02*
G37*
G36*
X296349D02*
X295476D01*
Y309921D01*
X295397D01*
Y309841D01*
Y309762D01*
Y309683D01*
Y309604D01*
Y309524D01*
Y309445D01*
Y309366D01*
Y309286D01*
X295318D01*
Y309207D01*
Y309128D01*
Y309048D01*
Y308969D01*
Y308890D01*
Y308810D01*
Y308731D01*
Y308652D01*
Y308572D01*
Y308493D01*
Y308414D01*
Y308334D01*
Y308255D01*
Y308176D01*
Y308097D01*
Y308017D01*
Y307938D01*
Y307859D01*
Y307779D01*
Y307700D01*
Y307621D01*
Y307541D01*
Y307462D01*
Y307383D01*
Y307304D01*
Y307224D01*
Y307145D01*
Y307066D01*
Y306986D01*
Y306907D01*
Y306828D01*
Y306748D01*
Y306669D01*
Y306590D01*
Y306510D01*
Y306431D01*
Y306352D01*
Y306273D01*
Y306193D01*
Y306114D01*
Y306035D01*
Y305955D01*
Y305876D01*
Y305797D01*
Y305717D01*
Y305638D01*
Y305559D01*
Y305479D01*
Y305400D01*
Y305321D01*
Y305241D01*
Y305162D01*
Y305083D01*
X295397D01*
Y305004D01*
Y304924D01*
X295793D01*
Y304845D01*
X296031D01*
Y304924D01*
X296428D01*
Y305004D01*
X296507D01*
Y305083D01*
Y305162D01*
Y305241D01*
Y305321D01*
Y305400D01*
Y305479D01*
Y305559D01*
Y305638D01*
Y305717D01*
Y305797D01*
Y305876D01*
Y305955D01*
Y306035D01*
Y306114D01*
Y306193D01*
Y306273D01*
Y306352D01*
X296428D01*
Y306431D01*
X296507D01*
Y306510D01*
X296428D01*
Y306590D01*
X296507D01*
Y306669D01*
X296428D01*
Y306748D01*
X296507D01*
Y306828D01*
X296428D01*
Y306907D01*
Y306986D01*
Y307066D01*
X296507D01*
Y307145D01*
X296428D01*
Y307224D01*
Y307304D01*
Y307383D01*
X296507D01*
Y307462D01*
X296428D01*
Y307541D01*
Y307621D01*
Y307700D01*
X296507D01*
Y307779D01*
X296428D01*
Y307859D01*
Y307938D01*
Y308017D01*
X296507D01*
Y308097D01*
X296428D01*
Y308176D01*
X296507D01*
Y308255D01*
X296428D01*
Y308334D01*
X296507D01*
Y308414D01*
X296428D01*
Y308493D01*
X296507D01*
Y308572D01*
X296428D01*
Y308652D01*
X296507D01*
Y308731D01*
Y308810D01*
Y308890D01*
Y308969D01*
Y309048D01*
Y309128D01*
Y309207D01*
Y309286D01*
Y309366D01*
Y309445D01*
Y309524D01*
Y309604D01*
Y309683D01*
Y309762D01*
Y309841D01*
Y309921D01*
X296349D01*
Y310000D01*
D02*
G37*
G36*
X312845D02*
X311893D01*
Y309921D01*
X311814D01*
Y309841D01*
Y309762D01*
Y309683D01*
Y309604D01*
Y309524D01*
Y309445D01*
Y309366D01*
Y309286D01*
Y309207D01*
Y309128D01*
Y309048D01*
Y308969D01*
Y308890D01*
Y308810D01*
Y308731D01*
Y308652D01*
Y308572D01*
Y308493D01*
Y308414D01*
Y308334D01*
Y308255D01*
Y308176D01*
Y308097D01*
Y308017D01*
Y307938D01*
Y307859D01*
Y307779D01*
Y307700D01*
Y307621D01*
Y307541D01*
Y307462D01*
Y307383D01*
Y307304D01*
Y307224D01*
Y307145D01*
Y307066D01*
Y306986D01*
Y306907D01*
Y306828D01*
Y306748D01*
Y306669D01*
Y306590D01*
X311734D01*
Y306510D01*
X311814D01*
Y306431D01*
X311734D01*
Y306352D01*
Y306273D01*
X311655D01*
Y306193D01*
Y306114D01*
X311576D01*
Y306035D01*
X311496D01*
Y305955D01*
X311417D01*
Y305876D01*
X311179D01*
Y305797D01*
X310941D01*
Y305717D01*
X310703D01*
Y305797D01*
X310386D01*
Y305876D01*
X310307D01*
Y305955D01*
X310148D01*
Y306035D01*
Y306114D01*
X310069D01*
Y306193D01*
X309990D01*
Y306273D01*
Y306352D01*
X309910D01*
Y306431D01*
Y306510D01*
Y306590D01*
Y306669D01*
Y306748D01*
Y306828D01*
Y306907D01*
Y306986D01*
Y307066D01*
Y307145D01*
Y307224D01*
Y307304D01*
Y307383D01*
Y307462D01*
Y307541D01*
Y307621D01*
Y307700D01*
Y307779D01*
Y307859D01*
Y307938D01*
Y308017D01*
Y308097D01*
Y308176D01*
Y308255D01*
Y308334D01*
Y308414D01*
Y308493D01*
Y308572D01*
Y308652D01*
Y308731D01*
Y308810D01*
Y308890D01*
Y308969D01*
Y309048D01*
Y309128D01*
Y309207D01*
Y309286D01*
Y309366D01*
Y309445D01*
Y309524D01*
Y309604D01*
X309831D01*
Y309683D01*
Y309762D01*
Y309841D01*
Y309921D01*
Y310000D01*
X308800D01*
Y309921D01*
X308721D01*
Y309841D01*
Y309762D01*
Y309683D01*
Y309604D01*
Y309524D01*
Y309445D01*
Y309366D01*
Y309286D01*
Y309207D01*
Y309128D01*
Y309048D01*
Y308969D01*
Y308890D01*
Y308810D01*
Y308731D01*
Y308652D01*
Y308572D01*
Y308493D01*
Y308414D01*
Y308334D01*
Y308255D01*
Y308176D01*
Y308097D01*
Y308017D01*
Y307938D01*
Y307859D01*
Y307779D01*
Y307700D01*
Y307621D01*
Y307541D01*
Y307462D01*
Y307383D01*
Y307304D01*
Y307224D01*
Y307145D01*
Y307066D01*
Y306986D01*
Y306907D01*
Y306828D01*
Y306748D01*
Y306669D01*
Y306590D01*
Y306510D01*
X308800D01*
Y306431D01*
Y306352D01*
Y306273D01*
Y306193D01*
Y306114D01*
Y306035D01*
X308879D01*
Y305955D01*
Y305876D01*
X308959D01*
Y305797D01*
Y305717D01*
X309038D01*
Y305638D01*
Y305559D01*
X309117D01*
Y305479D01*
X309196D01*
Y305400D01*
X309276D01*
Y305321D01*
X309355D01*
Y305241D01*
X309434D01*
Y305162D01*
X309593D01*
Y305083D01*
X309672D01*
Y305004D01*
X309910D01*
Y304924D01*
X310227D01*
Y304845D01*
X311496D01*
Y304924D01*
X311734D01*
Y305004D01*
X311972D01*
Y305083D01*
X312131D01*
Y305162D01*
X312210D01*
Y305241D01*
X312290D01*
Y305321D01*
X312448D01*
Y305400D01*
X312527D01*
Y305479D01*
Y305559D01*
X312607D01*
Y305638D01*
X312686D01*
Y305717D01*
Y305797D01*
X312765D01*
Y305876D01*
Y305955D01*
X312845D01*
Y306035D01*
Y306114D01*
Y306193D01*
X312924D01*
Y306273D01*
X312845D01*
Y306352D01*
X312924D01*
Y306431D01*
Y306510D01*
Y306590D01*
Y306669D01*
Y306748D01*
Y306828D01*
Y306907D01*
Y306986D01*
Y307066D01*
Y307145D01*
Y307224D01*
Y307304D01*
Y307383D01*
Y307462D01*
Y307541D01*
Y307621D01*
Y307700D01*
Y307779D01*
Y307859D01*
Y307938D01*
Y308017D01*
Y308097D01*
Y308176D01*
Y308255D01*
Y308334D01*
Y308414D01*
Y308493D01*
Y308572D01*
Y308652D01*
Y308731D01*
Y308810D01*
Y308890D01*
Y308969D01*
Y309048D01*
Y309128D01*
Y309207D01*
Y309286D01*
Y309366D01*
Y309445D01*
Y309524D01*
Y309604D01*
Y309683D01*
Y309762D01*
Y309841D01*
Y309921D01*
X312845D01*
Y310000D01*
D02*
G37*
G36*
X303169D02*
X301900D01*
Y309921D01*
X301821D01*
Y309841D01*
X301662D01*
Y309762D01*
Y309683D01*
X301583D01*
Y309604D01*
X301504D01*
Y309524D01*
Y309445D01*
Y309366D01*
X301424D01*
Y309286D01*
Y309207D01*
Y309128D01*
X301345D01*
Y309048D01*
Y308969D01*
X301266D01*
Y308890D01*
Y308810D01*
Y308731D01*
X301186D01*
Y308652D01*
Y308572D01*
Y308493D01*
X301107D01*
Y308414D01*
Y308334D01*
Y308255D01*
X301028D01*
Y308176D01*
Y308097D01*
Y308017D01*
X300948D01*
Y307938D01*
Y307859D01*
X300869D01*
Y307779D01*
Y307700D01*
Y307621D01*
X300790D01*
Y307541D01*
Y307462D01*
Y307383D01*
X300711D01*
Y307304D01*
Y307224D01*
X300631D01*
Y307145D01*
Y307066D01*
Y306986D01*
X300552D01*
Y306907D01*
Y306828D01*
Y306748D01*
X300473D01*
Y306669D01*
Y306590D01*
X300393D01*
Y306669D01*
Y306748D01*
X300314D01*
Y306828D01*
Y306907D01*
Y306986D01*
X300235D01*
Y307066D01*
Y307145D01*
Y307224D01*
X300155D01*
Y307304D01*
Y307383D01*
X300076D01*
Y307462D01*
Y307541D01*
Y307621D01*
Y307700D01*
X299997D01*
Y307779D01*
Y307859D01*
X299917D01*
Y307938D01*
Y308017D01*
X299838D01*
Y308097D01*
Y308176D01*
Y308255D01*
X299759D01*
Y308334D01*
Y308414D01*
Y308493D01*
X299679D01*
Y308572D01*
Y308652D01*
Y308731D01*
X299600D01*
Y308810D01*
Y308890D01*
Y308969D01*
X299521D01*
Y309048D01*
Y309128D01*
Y309207D01*
X299442D01*
Y309286D01*
Y309366D01*
Y309445D01*
X299362D01*
Y309524D01*
Y309604D01*
X299283D01*
Y309683D01*
Y309762D01*
X299204D01*
Y309841D01*
X299124D01*
Y309921D01*
X298886D01*
Y310000D01*
X297697D01*
Y309921D01*
X297538D01*
Y309841D01*
X297459D01*
Y309762D01*
Y309683D01*
Y309604D01*
Y309524D01*
Y309445D01*
Y309366D01*
Y309286D01*
Y309207D01*
Y309128D01*
Y309048D01*
Y308969D01*
Y308890D01*
Y308810D01*
Y308731D01*
Y308652D01*
Y308572D01*
Y308493D01*
Y308414D01*
Y308334D01*
Y308255D01*
Y308176D01*
Y308097D01*
Y308017D01*
Y307938D01*
Y307859D01*
Y307779D01*
Y307700D01*
Y307621D01*
Y307541D01*
Y307462D01*
Y307383D01*
Y307304D01*
Y307224D01*
Y307145D01*
Y307066D01*
Y306986D01*
Y306907D01*
Y306828D01*
Y306748D01*
Y306669D01*
Y306590D01*
Y306510D01*
Y306431D01*
Y306352D01*
Y306273D01*
Y306193D01*
Y306114D01*
Y306035D01*
Y305955D01*
Y305876D01*
Y305797D01*
Y305717D01*
Y305638D01*
Y305559D01*
Y305479D01*
Y305400D01*
Y305321D01*
Y305241D01*
Y305162D01*
Y305083D01*
Y305004D01*
Y304924D01*
X297855D01*
Y304845D01*
X298173D01*
Y304924D01*
X298490D01*
Y305004D01*
Y305083D01*
Y305162D01*
Y305241D01*
Y305321D01*
Y305400D01*
Y305479D01*
X298569D01*
Y305559D01*
Y305638D01*
Y305717D01*
Y305797D01*
Y305876D01*
Y305955D01*
Y306035D01*
Y306114D01*
Y306193D01*
Y306273D01*
Y306352D01*
Y306431D01*
Y306510D01*
Y306590D01*
Y306669D01*
Y306748D01*
Y306828D01*
Y306907D01*
Y306986D01*
Y307066D01*
Y307145D01*
Y307224D01*
Y307304D01*
Y307383D01*
Y307462D01*
Y307541D01*
Y307621D01*
Y307700D01*
Y307779D01*
Y307859D01*
Y307938D01*
Y308017D01*
Y308097D01*
Y308176D01*
Y308255D01*
Y308334D01*
Y308414D01*
Y308493D01*
Y308572D01*
X298649D01*
Y308493D01*
Y308414D01*
Y308334D01*
X298728D01*
Y308255D01*
Y308176D01*
Y308097D01*
X298807D01*
Y308017D01*
Y307938D01*
Y307859D01*
X298886D01*
Y307779D01*
Y307700D01*
Y307621D01*
X298966D01*
Y307541D01*
Y307462D01*
Y307383D01*
X299045D01*
Y307304D01*
Y307224D01*
Y307145D01*
X299124D01*
Y307066D01*
Y306986D01*
Y306907D01*
X299204D01*
Y306828D01*
Y306748D01*
X299283D01*
Y306669D01*
Y306590D01*
Y306510D01*
X299362D01*
Y306431D01*
Y306352D01*
Y306273D01*
X299442D01*
Y306193D01*
Y306114D01*
Y306035D01*
X299521D01*
Y305955D01*
Y305876D01*
X299600D01*
Y305797D01*
Y305717D01*
Y305638D01*
X299679D01*
Y305559D01*
Y305479D01*
Y305400D01*
Y305321D01*
X299759D01*
Y305241D01*
Y305162D01*
Y305083D01*
X299838D01*
Y305004D01*
X299917D01*
Y304924D01*
X300155D01*
Y304845D01*
X300631D01*
Y304924D01*
X300869D01*
Y305004D01*
X300948D01*
Y305083D01*
X301028D01*
Y305162D01*
Y305241D01*
Y305321D01*
Y305400D01*
X301107D01*
Y305479D01*
Y305559D01*
X301186D01*
Y305638D01*
Y305717D01*
Y305797D01*
Y305876D01*
X301266D01*
Y305955D01*
Y306035D01*
X301345D01*
Y306114D01*
Y306193D01*
Y306273D01*
X301424D01*
Y306352D01*
Y306431D01*
Y306510D01*
X301504D01*
Y306590D01*
Y306669D01*
Y306748D01*
X301583D01*
Y306828D01*
Y306907D01*
Y306986D01*
X301662D01*
Y307066D01*
Y307145D01*
X301742D01*
Y307224D01*
Y307304D01*
Y307383D01*
X301821D01*
Y307462D01*
Y307541D01*
Y307621D01*
X301900D01*
Y307700D01*
Y307779D01*
X301979D01*
Y307859D01*
Y307938D01*
Y308017D01*
X302059D01*
Y308097D01*
Y308176D01*
Y308255D01*
X302138D01*
Y308334D01*
Y308414D01*
Y308493D01*
X302217D01*
Y308572D01*
Y308652D01*
Y308731D01*
X302297D01*
Y308652D01*
Y308572D01*
Y308493D01*
Y308414D01*
Y308334D01*
Y308255D01*
Y308176D01*
Y308097D01*
Y308017D01*
Y307938D01*
Y307859D01*
Y307779D01*
Y307700D01*
Y307621D01*
Y307541D01*
Y307462D01*
Y307383D01*
Y307304D01*
Y307224D01*
Y307145D01*
Y307066D01*
Y306986D01*
Y306907D01*
Y306828D01*
Y306748D01*
Y306669D01*
Y306590D01*
Y306510D01*
Y306431D01*
Y306352D01*
Y306273D01*
Y306193D01*
Y306114D01*
Y306035D01*
Y305955D01*
Y305876D01*
Y305797D01*
Y305717D01*
Y305638D01*
Y305559D01*
Y305479D01*
Y305400D01*
Y305321D01*
Y305241D01*
Y305162D01*
Y305083D01*
Y305004D01*
X302376D01*
Y304924D01*
X302614D01*
Y304845D01*
X302931D01*
Y304924D01*
X303248D01*
Y305004D01*
X303328D01*
Y305083D01*
Y305162D01*
Y305241D01*
Y305321D01*
Y305400D01*
Y305479D01*
Y305559D01*
Y305638D01*
Y305717D01*
Y305797D01*
X303407D01*
Y305876D01*
Y305955D01*
Y306035D01*
Y306114D01*
Y306193D01*
Y306273D01*
Y306352D01*
Y306431D01*
Y306510D01*
Y306590D01*
Y306669D01*
Y306748D01*
Y306828D01*
Y306907D01*
Y306986D01*
Y307066D01*
Y307145D01*
Y307224D01*
Y307304D01*
Y307383D01*
Y307462D01*
Y307541D01*
Y307621D01*
Y307700D01*
Y307779D01*
Y307859D01*
Y307938D01*
Y308017D01*
Y308097D01*
Y308176D01*
Y308255D01*
Y308334D01*
Y308414D01*
Y308493D01*
Y308572D01*
Y308652D01*
Y308731D01*
Y308810D01*
Y308890D01*
Y308969D01*
Y309048D01*
Y309128D01*
Y309207D01*
Y309286D01*
Y309366D01*
Y309445D01*
Y309524D01*
Y309604D01*
X303328D01*
Y309683D01*
Y309762D01*
Y309841D01*
X303248D01*
Y309921D01*
X303169D01*
Y310000D01*
D02*
G37*
G36*
X300631Y302624D02*
X300473D01*
Y302545D01*
X300314D01*
Y302624D01*
X299204D01*
Y302545D01*
X299045D01*
Y302466D01*
X298886D01*
Y302386D01*
X298807D01*
Y302307D01*
Y302228D01*
X298728D01*
Y302149D01*
Y302069D01*
X298649D01*
Y301990D01*
Y301911D01*
Y301831D01*
Y301752D01*
Y301673D01*
Y301593D01*
Y301514D01*
X298728D01*
Y301435D01*
Y301355D01*
X298807D01*
Y301276D01*
Y301197D01*
X298886D01*
Y301117D01*
X299045D01*
Y301038D01*
X299204D01*
Y300959D01*
X299600D01*
Y300880D01*
X299838D01*
Y300959D01*
X299917D01*
Y300880D01*
X299997D01*
Y300959D01*
X300076D01*
Y300880D01*
X300155D01*
Y300959D01*
X300235D01*
Y300880D01*
X300631D01*
Y300959D01*
Y301038D01*
Y301117D01*
Y301197D01*
Y301276D01*
Y301355D01*
Y301435D01*
Y301514D01*
Y301593D01*
Y301673D01*
Y301752D01*
Y301831D01*
Y301911D01*
Y301990D01*
Y302069D01*
Y302149D01*
Y302228D01*
Y302307D01*
Y302386D01*
Y302466D01*
Y302545D01*
Y302624D01*
D02*
G37*
%LPD*%
G36*
X305945Y307066D02*
X306500D01*
Y306986D01*
X306659D01*
Y306907D01*
X306738D01*
Y306828D01*
X306817D01*
Y306669D01*
X306896D01*
Y306273D01*
X306817D01*
Y306035D01*
X306738D01*
Y305955D01*
X306579D01*
Y305876D01*
X306341D01*
Y305797D01*
X305390D01*
Y305876D01*
X305469D01*
Y307066D01*
X305548D01*
Y307145D01*
X305945D01*
Y307066D01*
D02*
G37*
G36*
X306262Y309048D02*
X306421D01*
Y308969D01*
X306500D01*
Y308890D01*
X306579D01*
Y308731D01*
X306659D01*
Y308414D01*
X306579D01*
Y308176D01*
X306500D01*
Y308097D01*
X306341D01*
Y308017D01*
X306183D01*
Y307938D01*
X305469D01*
Y309048D01*
X305390D01*
Y309128D01*
X306262D01*
Y309048D01*
D02*
G37*
D31*
X428768Y376532D02*
Y401032D01*
Y376532D02*
X453068D01*
Y401032D01*
X428768D02*
X453068D01*
X469300Y211800D02*
Y236300D01*
Y211800D02*
X493600D01*
Y236300D01*
X469300D02*
X493600D01*
X496800Y211800D02*
Y236300D01*
Y211800D02*
X521100D01*
Y236300D01*
X496800D02*
X521100D01*
X556000Y406498D02*
X557999D01*
X557000D01*
Y400500D01*
X556000D01*
X557999D01*
X564997D02*
X560998D01*
X564997Y404499D01*
Y405498D01*
X563997Y406498D01*
X561998D01*
X560998Y405498D01*
X570995D02*
X569995Y406498D01*
X567996D01*
X566996Y405498D01*
Y401500D01*
X567996Y400500D01*
X569995D01*
X570995Y401500D01*
X349501Y325002D02*
X350501Y324002D01*
X352500D01*
X353500Y325002D01*
Y329000D01*
X352500Y330000D01*
X350501D01*
X349501Y329000D01*
X343503Y330000D02*
X347502D01*
X343503Y326001D01*
Y325002D01*
X344503Y324002D01*
X346502D01*
X347502Y325002D01*
X341504D02*
X340504Y324002D01*
X338505D01*
X337505Y325002D01*
Y329000D01*
X338505Y330000D01*
X340504D01*
X341504Y329000D01*
Y325002D01*
X327000Y311000D02*
Y316998D01*
X328999Y314999D01*
X330999Y316998D01*
Y311000D01*
X332998D02*
X334997D01*
X333998D01*
Y316998D01*
X332998Y315998D01*
X411929Y296831D02*
Y302829D01*
X413929Y300829D01*
X415928Y302829D01*
Y296831D01*
X421926D02*
X417927D01*
X421926Y300829D01*
Y301829D01*
X420926Y302829D01*
X418927D01*
X417927Y301829D01*
X325500Y220000D02*
X319502D01*
X321501Y221999D01*
X319502Y223999D01*
X325500D01*
X320502Y225998D02*
X319502Y226998D01*
Y228997D01*
X320502Y229997D01*
X321501D01*
X322501Y228997D01*
Y227997D01*
Y228997D01*
X323501Y229997D01*
X324500D01*
X325500Y228997D01*
Y226998D01*
X324500Y225998D01*
X448000Y218000D02*
X442002D01*
X444001Y219999D01*
X442002Y221999D01*
X448000D01*
Y226997D02*
X442002D01*
X445001Y223998D01*
Y227997D01*
X466000Y251498D02*
X467999D01*
X467000D01*
Y245500D01*
X466000D01*
X467999D01*
X474997Y250498D02*
X473997Y251498D01*
X471998D01*
X470998Y250498D01*
Y249499D01*
X471998Y248499D01*
X473997D01*
X474997Y247499D01*
Y246500D01*
X473997Y245500D01*
X471998D01*
X470998Y246500D01*
X476996Y245500D02*
Y251498D01*
X479995D01*
X480995Y250498D01*
Y248499D01*
X479995Y247499D01*
X476996D01*
X512467Y389731D02*
X511468Y390730D01*
X509468D01*
X508468Y389731D01*
Y388731D01*
X509468Y387731D01*
X511468D01*
X512467Y386732D01*
Y385732D01*
X511468Y384732D01*
X509468D01*
X508468Y385732D01*
X514467Y390730D02*
Y384732D01*
X516466Y386732D01*
X518465Y384732D01*
Y390730D01*
X520465Y384732D02*
X522464D01*
X521464D01*
Y390730D01*
X520465Y389731D01*
X545467D02*
X544467Y390730D01*
X542468D01*
X541468Y389731D01*
Y388731D01*
X542468Y387731D01*
X544467D01*
X545467Y386732D01*
Y385732D01*
X544467Y384732D01*
X542468D01*
X541468Y385732D01*
X547467Y390730D02*
Y384732D01*
X549466Y386732D01*
X551465Y384732D01*
Y390730D01*
X557463Y384732D02*
X553465D01*
X557463Y388731D01*
Y389731D01*
X556464Y390730D01*
X554464D01*
X553465Y389731D01*
X526000Y241500D02*
Y247498D01*
X528999D01*
X529999Y246498D01*
Y244499D01*
X528999Y243499D01*
X526000D01*
X531998Y247498D02*
Y241500D01*
X533997Y243499D01*
X535997Y241500D01*
Y247498D01*
X537996Y241500D02*
Y247498D01*
X539995Y245499D01*
X541995Y247498D01*
Y241500D01*
X282500Y289500D02*
X284499D01*
X283500D01*
Y295498D01*
X282500Y294498D01*
X291497Y289500D02*
X287498D01*
X291497Y293499D01*
Y294498D01*
X290497Y295498D01*
X288498D01*
X287498Y294498D01*
X293496Y295498D02*
Y291499D01*
X295496Y289500D01*
X297495Y291499D01*
Y295498D01*
X470502Y370999D02*
Y367000D01*
X473501D01*
X472501Y368999D01*
Y369999D01*
X473501Y370999D01*
X475500D01*
X476500Y369999D01*
Y368000D01*
X475500Y367000D01*
X470502Y372998D02*
X474501D01*
X476500Y374997D01*
X474501Y376997D01*
X470502D01*
X526500Y218500D02*
Y224498D01*
X529499D01*
X530499Y223498D01*
Y221499D01*
X529499Y220499D01*
X526500D01*
X532498Y224498D02*
Y218500D01*
X534497Y220499D01*
X536497Y218500D01*
Y224498D01*
X538496Y218500D02*
Y224498D01*
X540495Y222499D01*
X542495Y224498D01*
Y218500D01*
X592502Y218000D02*
X598500D01*
Y220999D01*
X597500Y221999D01*
X593502D01*
X592502Y220999D01*
Y218000D01*
Y223998D02*
Y225997D01*
Y224998D01*
X598500D01*
Y223998D01*
Y225997D01*
X593502Y232995D02*
X592502Y231996D01*
Y229996D01*
X593502Y228996D01*
X594501D01*
X595501Y229996D01*
Y231996D01*
X596501Y232995D01*
X597500D01*
X598500Y231996D01*
Y229996D01*
X597500Y228996D01*
X598500Y234995D02*
X592502D01*
Y237994D01*
X593502Y238993D01*
X595501D01*
X596501Y237994D01*
Y234995D01*
X592502Y240993D02*
X598500D01*
Y244991D01*
Y246991D02*
X594501D01*
X592502Y248990D01*
X594501Y250989D01*
X598500D01*
X595501D01*
Y246991D01*
X592502Y252989D02*
X593502D01*
X595501Y254988D01*
X593502Y256987D01*
X592502D01*
X595501Y254988D02*
X598500D01*
X570002Y221999D02*
X569002Y220999D01*
Y219000D01*
X570002Y218000D01*
X571001D01*
X572001Y219000D01*
Y220999D01*
X573001Y221999D01*
X574000D01*
X575000Y220999D01*
Y219000D01*
X574000Y218000D01*
X569002Y227997D02*
Y223998D01*
X575000D01*
Y227997D01*
X572001Y223998D02*
Y225997D01*
X575000Y229996D02*
X569002D01*
Y232995D01*
X570002Y233995D01*
X572001D01*
X573001Y232995D01*
Y229996D01*
Y231996D02*
X575000Y233995D01*
X569002Y235994D02*
Y237994D01*
Y236994D01*
X575000D01*
Y235994D01*
Y237994D01*
Y240993D02*
X571001D01*
X569002Y242992D01*
X571001Y244991D01*
X575000D01*
X572001D01*
Y240993D01*
X569002Y246991D02*
X575000D01*
Y250989D01*
X357500Y363000D02*
Y368998D01*
X359499Y366999D01*
X361499Y368998D01*
Y363000D01*
X367497Y368998D02*
X363498D01*
Y365999D01*
X365497Y366999D01*
X366497D01*
X367497Y365999D01*
Y364000D01*
X366497Y363000D01*
X364498D01*
X363498Y364000D01*
X457500Y372000D02*
Y377998D01*
X459499Y375999D01*
X461499Y377998D01*
Y372000D01*
X467497Y377998D02*
X465497Y376998D01*
X463498Y374999D01*
Y373000D01*
X464498Y372000D01*
X466497D01*
X467497Y373000D01*
Y373999D01*
X466497Y374999D01*
X463498D01*
X418429Y316829D02*
Y310831D01*
Y313830D01*
X422428D01*
Y316829D01*
Y310831D01*
X427426Y316829D02*
X425427D01*
X424427Y315829D01*
Y311830D01*
X425427Y310831D01*
X427426D01*
X428426Y311830D01*
Y315829D01*
X427426Y316829D01*
X430425D02*
X434424D01*
X432425D01*
Y310831D01*
X371500Y325498D02*
Y319500D01*
Y322499D01*
X375499D01*
Y325498D01*
Y319500D01*
X380497Y325498D02*
X378498D01*
X377498Y324498D01*
Y320500D01*
X378498Y319500D01*
X380497D01*
X381497Y320500D01*
Y324498D01*
X380497Y325498D01*
X383496D02*
X387495D01*
X385495D01*
Y319500D01*
X369500Y274498D02*
Y268500D01*
Y271499D01*
X373499D01*
Y274498D01*
Y268500D01*
X378497Y274498D02*
X376498D01*
X375498Y273498D01*
Y269500D01*
X376498Y268500D01*
X378497D01*
X379497Y269500D01*
Y273498D01*
X378497Y274498D01*
X381496D02*
X385495D01*
X383495D01*
Y268500D01*
X293500Y240998D02*
Y235000D01*
Y237999D01*
X297499D01*
Y240998D01*
Y235000D01*
X302497Y240998D02*
X300498D01*
X299498Y239998D01*
Y236000D01*
X300498Y235000D01*
X302497D01*
X303497Y236000D01*
Y239998D01*
X302497Y240998D01*
X305496D02*
X309495D01*
X307495D01*
Y235000D01*
D34*
X497000Y371000D02*
G03*
X497000Y371000I-1500J0D01*
G01*
D38*
X575095Y373500D02*
Y404874D01*
Y373500D02*
X598500D01*
Y404874D01*
X575095D02*
X598500D01*
X328000Y235500D02*
X328250Y235750D01*
X328000Y216500D02*
Y235500D01*
X328250Y235750D02*
X383000D01*
Y216500D02*
Y235750D01*
X328000Y216500D02*
X383000D01*
X384500Y235500D02*
X384750Y235750D01*
X384500Y216500D02*
Y235500D01*
X384750Y235750D02*
X439500D01*
Y216500D02*
Y235750D01*
X384500Y216500D02*
X439500D01*
X466179Y275581D02*
X466429Y275831D01*
Y294831D01*
X411429Y275581D02*
X466179D01*
X411429D02*
Y294831D01*
X466429D01*
X380750Y289750D02*
X381000Y290000D01*
Y309000D01*
X326000Y289750D02*
X380750D01*
X326000D02*
Y309000D01*
X381000D01*
X554874Y239000D02*
Y258906D01*
X523500Y239000D02*
X554874D01*
X523500D02*
Y258906D01*
X554874D01*
X580250Y216250D02*
X580500Y216000D01*
X599500D01*
X580250Y216250D02*
Y271000D01*
X599500D01*
Y216000D02*
Y271000D01*
X465000Y263500D02*
X465250Y263750D01*
X465000Y244500D02*
Y263500D01*
X465250Y263750D02*
X520000D01*
Y244500D02*
Y263750D01*
X465000Y244500D02*
X520000D01*
X506095Y373327D02*
X537468D01*
Y396732D01*
X506095D02*
X537468D01*
X506095Y373327D02*
Y396732D01*
X411250Y350750D02*
X411500Y351000D01*
Y370000D01*
X356500Y350750D02*
X411250D01*
X356500D02*
Y370000D01*
X411500D01*
X467750Y350750D02*
X468000Y351000D01*
Y370000D01*
X413000Y350750D02*
X467750D01*
X413000D02*
Y370000D01*
X468000D01*
X558095Y216004D02*
Y255374D01*
Y216004D02*
X577500D01*
Y255374D01*
X558095D02*
X577500D01*
X554874Y216000D02*
Y235906D01*
X523500Y216000D02*
X554874D01*
X523500D02*
Y235906D01*
X554874D01*
X282126Y266094D02*
Y286000D01*
X305500D01*
Y266094D02*
Y286000D01*
X282126Y266094D02*
X305500D01*
X539094Y373327D02*
X570469D01*
Y396732D01*
X539094D02*
X570469D01*
X539094Y373327D02*
Y396732D01*
X583000Y335000D02*
X599000D01*
Y304000D02*
Y335000D01*
X583000Y304000D02*
Y335000D01*
Y304000D02*
X599000D01*
X564913Y292087D02*
Y371000D01*
Y292050D02*
X574313D01*
Y371000D01*
X478300D02*
X487700D01*
X478300Y292050D02*
Y371000D01*
X487700Y292050D02*
Y371000D01*
X478300Y292050D02*
X487700D01*
X564913Y371000D02*
X574313D01*
X477969Y373827D02*
X501968D01*
Y402173D01*
X477969D02*
X501968D01*
X477969Y373827D02*
Y402173D01*
D39*
X336807Y310826D02*
G03*
X336807Y310826I-197J0D01*
G01*
X318992Y367623D02*
G03*
X318992Y367623I-197J0D01*
G01*
X299056Y379906D02*
G03*
X299056Y379906I-197J0D01*
G01*
X407465Y258012D02*
G03*
X407465Y258012I-1969J0D01*
G01*
X360965Y259512D02*
G03*
X360965Y259512I-1969J0D01*
G01*
X441957Y255496D02*
G03*
X441957Y255496I-1969J0D01*
G01*
X324972Y256488D02*
G03*
X324972Y256488I-1969J0D01*
G01*
X375465Y392012D02*
G03*
X375465Y392012I-1969J0D01*
G01*
X370677Y275961D02*
G03*
X370677Y275961I-1969J0D01*
G01*
X318811Y223657D02*
G03*
X318811Y223657I-1969J0D01*
G01*
X410965Y392512D02*
G03*
X410965Y392512I-1969J0D01*
G01*
X312496Y358291D02*
G03*
X312496Y358291I-1969J0D01*
G01*
X385760Y318539D02*
G03*
X385760Y318539I-1969J0D01*
G01*
X442480Y299827D02*
G03*
X442480Y299827I-1969J0D01*
G01*
X534827Y294057D02*
G03*
X534827Y294057I-1969J0D01*
G01*
X594327Y344902D02*
Y370098D01*
X572673Y344902D02*
Y370098D01*
X594327D01*
X572673Y344902D02*
X594327D01*
X590154Y364630D02*
X596846D01*
X590154Y368370D02*
X596846D01*
Y364630D02*
Y368370D01*
X590154Y364630D02*
Y368370D01*
Y358130D02*
X596846D01*
X590154Y361870D02*
X596846D01*
Y358130D02*
Y361870D01*
X590154Y358130D02*
Y361870D01*
X489807Y355457D02*
Y362543D01*
X503193Y355457D02*
Y362543D01*
X489807D02*
X503193D01*
X489807Y355457D02*
X503193D01*
X347555Y266130D02*
Y269870D01*
X354445Y266130D02*
Y269870D01*
X347555Y266130D02*
X354445D01*
X347555Y269870D02*
X354445D01*
X348630Y280945D02*
X352370D01*
X348630Y274055D02*
X352370D01*
X348630D02*
Y280945D01*
X352370Y274055D02*
Y280945D01*
X465346Y395130D02*
Y398870D01*
X458653Y395130D02*
Y398870D01*
X465346D01*
X458653Y395130D02*
X465346D01*
X587653Y294630D02*
X594347D01*
X587653Y298370D02*
X594347D01*
Y294630D02*
Y298370D01*
X587653Y294630D02*
Y298370D01*
Y281630D02*
X594347D01*
X587653Y285370D02*
X594347D01*
Y281630D02*
Y285370D01*
X587653Y281630D02*
Y285370D01*
X447370Y338653D02*
Y345346D01*
X443630Y338653D02*
Y345346D01*
X447370D01*
X443630Y338653D02*
X447370D01*
X460370D02*
Y345346D01*
X456630Y338653D02*
Y345346D01*
X460370D01*
X456630Y338653D02*
X460370D01*
X474370Y381303D02*
Y387996D01*
X470630Y381303D02*
Y387996D01*
X474370D01*
X470630Y381303D02*
X474370D01*
X402153Y266870D02*
X408847D01*
X402153Y263130D02*
X408847D01*
Y266870D01*
X402153Y263130D02*
Y266870D01*
X431130Y250654D02*
Y257347D01*
X434870Y250654D02*
Y257347D01*
X431130D02*
X434870D01*
X431130Y250654D02*
X434870D01*
X404153Y401370D02*
X410847D01*
X404153Y397630D02*
X410847D01*
Y401370D01*
X404153Y397630D02*
Y401370D01*
X368653Y400870D02*
X375346D01*
X368653Y397130D02*
X375346D01*
Y400870D01*
X368653Y397130D02*
Y400870D01*
X364630Y269654D02*
Y276346D01*
X368370Y269654D02*
Y276346D01*
X364630Y269654D02*
X368370D01*
X364630Y276346D02*
X368370D01*
X314653Y244870D02*
X321346D01*
X314653Y241130D02*
X321346D01*
X314653D02*
Y244870D01*
X321346Y241130D02*
Y244870D01*
X571531Y311712D02*
X576403Y316584D01*
X568886Y314357D02*
X573758Y319229D01*
X568886Y314357D02*
X571531Y311712D01*
X573758Y319229D02*
X576403Y316584D01*
X493887Y351758D02*
X498758Y346886D01*
X491242Y349114D02*
X496114Y344242D01*
X498758Y346886D01*
X491242Y349114D02*
X493887Y351758D01*
X503242Y295386D02*
X508114Y300258D01*
X505886Y292742D02*
X510758Y297614D01*
X508114Y300258D02*
X510758Y297614D01*
X503242Y295386D02*
X505886Y292742D01*
X529242Y283253D02*
X534114Y288125D01*
X531886Y280608D02*
X536758Y285480D01*
X534114Y288125D02*
X536758Y285480D01*
X529242Y283253D02*
X531886Y280608D01*
X555051Y355837D02*
X559923Y350965D01*
X557696Y358482D02*
X562568Y353610D01*
X555051Y355837D02*
X557696Y358482D01*
X559923Y350965D02*
X562568Y353610D01*
X385870Y240555D02*
Y247445D01*
X382130Y240555D02*
Y247445D01*
X385870D01*
X382130Y240555D02*
X385870D01*
X388961Y243445D02*
Y261555D01*
X409039Y243445D02*
Y261555D01*
X388961Y243445D02*
X409039D01*
X388961Y261555D02*
X409039D01*
X456098Y381386D02*
X459839D01*
X456098Y388079D02*
X459839D01*
X456098Y381386D02*
Y388079D01*
X459839Y381386D02*
Y388079D01*
X413055Y243870D02*
X419945D01*
X413055Y240130D02*
X419945D01*
X413055D02*
Y243870D01*
X419945Y240130D02*
Y243870D01*
X413055Y260630D02*
X419945D01*
X413055Y264370D02*
X419945D01*
Y260630D02*
Y264370D01*
X413055Y260630D02*
Y264370D01*
X330055Y238130D02*
X336945D01*
X330055Y241870D02*
X336945D01*
Y238130D02*
Y241870D01*
X330055Y238130D02*
Y241870D01*
X342461Y244945D02*
Y263055D01*
X362539Y244945D02*
Y263055D01*
X342461Y244945D02*
X362539D01*
X342461Y263055D02*
X362539D01*
X366555Y245370D02*
X373445D01*
X366555Y241630D02*
X373445D01*
X366555D02*
Y245370D01*
X373445Y241630D02*
Y245370D01*
X366555Y262130D02*
X373445D01*
X366555Y265870D02*
X373445D01*
Y262130D02*
Y265870D01*
X366555Y262130D02*
Y265870D01*
X462555Y271370D02*
X469445D01*
X462555Y267630D02*
X469445D01*
X462555D02*
Y271370D01*
X469445Y267630D02*
Y271370D01*
X436445Y238961D02*
X454555D01*
X436445Y259039D02*
X454555D01*
Y238961D02*
Y259039D01*
X436445Y238961D02*
Y259039D01*
X454130Y263055D02*
Y269945D01*
X457870Y263055D02*
Y269945D01*
X454130Y263055D02*
X457870D01*
X454130Y269945D02*
X457870D01*
X437370Y263055D02*
Y269945D01*
X433630Y263055D02*
Y269945D01*
X437370D01*
X433630Y263055D02*
X437370D01*
X310555Y276630D02*
X317445D01*
X310555Y280370D02*
X317445D01*
Y276630D02*
Y280370D01*
X310555Y276630D02*
Y280370D01*
X339539Y252945D02*
Y271055D01*
X319461Y252945D02*
Y271055D01*
X339539D01*
X319461Y252945D02*
X339539D01*
X308555Y270130D02*
X315445D01*
X308555Y273870D02*
X315445D01*
Y270130D02*
Y273870D01*
X308555Y270130D02*
Y273870D01*
X308555Y253370D02*
X315445D01*
X308555Y249630D02*
X315445D01*
X308555D02*
Y253370D01*
X315445Y249630D02*
Y253370D01*
X442531Y315917D02*
Y322807D01*
X438791Y315917D02*
Y322807D01*
X442531D01*
X438791Y315917D02*
X442531D01*
X327413Y332362D02*
Y336102D01*
X320524Y332362D02*
Y336102D01*
Y332362D02*
X327413D01*
X320524Y336102D02*
X327413D01*
X463130Y345346D02*
X466870D01*
X463130Y338653D02*
X466870D01*
Y345346D01*
X463130Y338653D02*
Y345346D01*
X450130D02*
X453870D01*
X450130Y338653D02*
X453870D01*
Y345346D01*
X450130Y338653D02*
Y345346D01*
X594347Y275130D02*
Y278870D01*
X587653Y275130D02*
Y278870D01*
Y275130D02*
X594347D01*
X587653Y278870D02*
X594347D01*
Y288130D02*
Y291870D01*
X587653Y288130D02*
Y291870D01*
Y288130D02*
X594347D01*
X587653Y291870D02*
X594347D01*
X463630Y387996D02*
X467370D01*
X463630Y381303D02*
X467370D01*
Y387996D01*
X463630Y381303D02*
Y387996D01*
X355555Y313039D02*
Y342961D01*
X337445Y313039D02*
Y342961D01*
X355555D01*
X337445Y313039D02*
X355555D01*
X416555Y382370D02*
X423445D01*
X416555Y378630D02*
X423445D01*
X416555D02*
Y382370D01*
X423445Y378630D02*
Y382370D01*
X416555Y399630D02*
X423445D01*
X416555Y403370D02*
X423445D01*
Y399630D02*
Y403370D01*
X416555Y399630D02*
Y403370D01*
X416555Y375870D02*
X423445D01*
X416555Y372130D02*
X423445D01*
X416555D02*
Y375870D01*
X423445Y372130D02*
Y375870D01*
X356961Y377445D02*
Y395555D01*
X377039Y377445D02*
Y395555D01*
X356961Y377445D02*
X377039D01*
X356961Y395555D02*
X377039D01*
X381055Y382370D02*
X387945D01*
X381055Y378630D02*
X387945D01*
X381055D02*
Y382370D01*
X387945Y378630D02*
Y382370D01*
X381055Y399130D02*
X387945D01*
X381055Y402870D02*
X387945D01*
Y399130D02*
Y402870D01*
X381055Y399130D02*
Y402870D01*
X365165Y279504D02*
X381504D01*
X365165Y263165D02*
X381504D01*
X365165D02*
Y279504D01*
X381504Y263165D02*
Y279504D01*
X362555Y288870D02*
X369445D01*
X362555Y285130D02*
X369445D01*
Y288870D01*
X362555Y285130D02*
Y288870D01*
X388965Y280181D02*
X392705D01*
X388965Y273488D02*
X392705D01*
X388965D02*
Y280181D01*
X392705Y273488D02*
Y280181D01*
X397181Y265465D02*
Y269205D01*
X390488Y265465D02*
Y269205D01*
X397181D01*
X390488Y265465D02*
X397181D01*
X379890Y257929D02*
X386779D01*
X379890Y244740D02*
X386779D01*
X379890D02*
Y257929D01*
X386779Y244740D02*
Y257929D01*
X359890Y255929D02*
X366779D01*
X359890Y242740D02*
X366779D01*
X359890D02*
Y255929D01*
X366779Y242740D02*
Y255929D01*
X353465Y247890D02*
Y254780D01*
X357205Y247890D02*
Y254780D01*
X353465D02*
X357205D01*
X353465Y247890D02*
X357205D01*
X390721Y304795D02*
X397610D01*
X390721Y308535D02*
X397610D01*
X390721Y304795D02*
Y308535D01*
X397610Y304795D02*
Y308535D01*
X385720Y336571D02*
X392610D01*
X385720Y349760D02*
X392610D01*
Y336571D02*
Y349760D01*
X385720Y336571D02*
Y349760D01*
X399035Y339220D02*
Y346110D01*
X395295Y339220D02*
Y346110D01*
Y339220D02*
X399035D01*
X395295Y346110D02*
X399035D01*
X356819Y325295D02*
Y329035D01*
X363512Y325295D02*
Y329035D01*
X356819Y325295D02*
X363512D01*
X356819Y329035D02*
X363512D01*
X361295Y314319D02*
X365035D01*
X361295Y321012D02*
X365035D01*
Y314319D02*
Y321012D01*
X361295Y314319D02*
Y321012D01*
X284953Y220114D02*
X320386D01*
X284953Y255547D02*
X320386D01*
Y220114D02*
Y255547D01*
X284953Y220114D02*
Y255547D01*
X284244Y259461D02*
Y263201D01*
X290937Y259461D02*
Y263201D01*
X284244Y259461D02*
X290937D01*
X284244Y263201D02*
X290937D01*
X296815Y259461D02*
X303705D01*
X296815Y263201D02*
X303705D01*
X296815Y259461D02*
Y263201D01*
X303705Y259461D02*
Y263201D01*
X325220Y220386D02*
Y227276D01*
X328961Y220386D02*
Y227276D01*
X325220D02*
X328961D01*
X325220Y220386D02*
X328961D01*
X408583Y335961D02*
Y339701D01*
X415276Y335961D02*
Y339701D01*
X408583Y335961D02*
X415276D01*
X408583Y339701D02*
X415276D01*
X420984Y335961D02*
X427874D01*
X420984Y339701D02*
X427874D01*
X420984Y335961D02*
Y339701D01*
X427874Y335961D02*
Y339701D01*
X448130Y294055D02*
Y300945D01*
X451870Y294055D02*
Y300945D01*
X448130D02*
X451870D01*
X448130Y294055D02*
X451870D01*
X392461Y377945D02*
Y396055D01*
X412539Y377945D02*
Y396055D01*
X392461Y377945D02*
X412539D01*
X392461Y396055D02*
X412539D01*
X381055Y375870D02*
X387945D01*
X381055Y372130D02*
X387945D01*
X381055D02*
Y375870D01*
X387945Y372130D02*
Y375870D01*
X494654Y349130D02*
Y352870D01*
X501346Y349130D02*
Y352870D01*
X494654D02*
X501346D01*
X494654Y349130D02*
X501346D01*
X301866Y349630D02*
Y361835D01*
X314071Y349630D02*
Y361835D01*
X301866Y349630D02*
X314071D01*
X301866Y361835D02*
X314071D01*
X320122Y340362D02*
X326815D01*
X320122Y344102D02*
X326815D01*
Y340362D02*
Y344102D01*
X320122Y340362D02*
Y344102D01*
X320567Y372732D02*
X345370D01*
X320567Y395732D02*
X345370D01*
X320567Y373232D02*
Y395732D01*
X345370Y373232D02*
Y395732D01*
X297610Y385740D02*
Y396724D01*
X315327Y385740D02*
Y396724D01*
X297610D02*
X315327D01*
X297610Y385740D02*
X315327D01*
X321008Y348677D02*
Y366787D01*
X350929Y348677D02*
Y366787D01*
X321008D02*
X350929D01*
X321008Y348677D02*
X350929D01*
X445516Y315744D02*
Y321256D01*
X457484Y315744D02*
Y321256D01*
X445516Y315744D02*
X457484D01*
X445516Y321256D02*
X457484D01*
X493807Y339457D02*
Y346543D01*
X507193Y339457D02*
Y346543D01*
X493807D02*
X507193D01*
X493807Y339457D02*
X507193D01*
X458555Y398870D02*
X465445D01*
X458555Y395130D02*
X465445D01*
X458555D02*
Y398870D01*
X465445Y395130D02*
Y398870D01*
X468705Y307669D02*
Y321055D01*
X461618Y307669D02*
Y321055D01*
X468705D01*
X461618Y307669D02*
X468705D01*
X365721Y336571D02*
X372610D01*
X365721Y349760D02*
X372610D01*
Y336571D02*
Y349760D01*
X365721Y336571D02*
Y349760D01*
X370996Y314996D02*
X387335D01*
X370996Y331335D02*
X387335D01*
Y314996D02*
Y331335D01*
X370996Y314996D02*
Y331335D01*
X408622Y296284D02*
X444055D01*
X408622Y331716D02*
X444055D01*
Y296284D02*
Y331716D01*
X408622Y296284D02*
Y331716D01*
X493884Y328021D02*
X532858Y289046D01*
Y366995D02*
X571832Y328021D01*
X532858Y289046D02*
X571832Y328021D01*
X493884D02*
X532858Y366995D01*
X396795Y313720D02*
Y320610D01*
X400535Y313720D02*
Y320610D01*
X396795D02*
X400535D01*
X396795Y313720D02*
X400535D01*
X399035Y326720D02*
Y333610D01*
X395295Y326720D02*
Y333610D01*
Y326720D02*
X399035D01*
X395295Y333610D02*
X399035D01*
X298339Y334386D02*
Y341079D01*
X294598Y334386D02*
Y341079D01*
X298339D01*
X294598Y334386D02*
X298339D01*
X306839Y333886D02*
Y340579D01*
X303098Y333886D02*
Y340579D01*
X306839D01*
X303098Y333886D02*
X306839D01*
X313839D02*
Y340579D01*
X310098Y333886D02*
Y340579D01*
X313839D01*
X310098Y333886D02*
X313839D01*
X309598Y372787D02*
X313339D01*
X309598Y379677D02*
X313339D01*
X309598Y372787D02*
Y379677D01*
X313339Y372787D02*
Y379677D01*
X302098Y379677D02*
X305839D01*
X302098Y372787D02*
X305839D01*
Y379677D01*
X302098Y372787D02*
Y379677D01*
X279913Y377693D02*
X298024D01*
X279913Y347772D02*
X298024D01*
Y377693D01*
X279913Y347772D02*
Y377693D01*
X590055Y351630D02*
X596945D01*
X590055Y355370D02*
X596945D01*
Y351630D02*
Y355370D01*
X590055Y351630D02*
Y355370D01*
X585370Y349055D02*
Y355945D01*
X581630Y349055D02*
Y355945D01*
X585370D01*
X581630Y349055D02*
X585370D01*
X280039Y300945D02*
X309961D01*
X280039Y319055D02*
X309961D01*
X280039Y300945D02*
Y319055D01*
X309961Y300945D02*
Y319055D01*
X581531Y357500D02*
X585468D01*
X583500Y355532D02*
Y359469D01*
X494531Y359000D02*
X498468D01*
X496500Y357031D02*
Y360968D01*
X397031Y252500D02*
X400969D01*
X399000Y250532D02*
Y254468D01*
X350532Y254000D02*
X354468D01*
X352500Y252031D02*
Y255968D01*
X445500Y247031D02*
Y250969D01*
X443532Y249000D02*
X447469D01*
X327532Y262000D02*
X331469D01*
X329500Y260032D02*
Y263968D01*
X344531Y328000D02*
X348468D01*
X346500Y326031D02*
Y329969D01*
X365032Y386500D02*
X368969D01*
X367000Y384531D02*
Y388469D01*
X373335Y269366D02*
Y273303D01*
X371366Y271335D02*
X375303D01*
X383335Y249366D02*
Y253303D01*
X381366Y251335D02*
X385303D01*
X363335Y247366D02*
Y251303D01*
X361366Y249335D02*
X365303D01*
X389165Y341197D02*
Y345134D01*
X387197Y343165D02*
X391134D01*
X302669Y235862D02*
Y239799D01*
X300701Y237831D02*
X304638D01*
X400531Y387000D02*
X404468D01*
X402500Y385032D02*
Y388968D01*
X306000Y355732D02*
X309937D01*
X307968Y353764D02*
Y357701D01*
X332968Y382264D02*
Y386201D01*
X331000Y384232D02*
X334937D01*
X304500Y391232D02*
X308437D01*
X306469Y389264D02*
Y393201D01*
X334000Y357732D02*
X337937D01*
X335968Y355764D02*
Y359701D01*
X449532Y318500D02*
X453469D01*
X451500Y316531D02*
Y320468D01*
X492626Y339260D02*
Y346740D01*
X508374Y339260D02*
Y346740D01*
X492626D02*
X508374D01*
X492626Y339260D02*
X508374D01*
X498531Y343000D02*
X502468D01*
X500500Y341032D02*
Y344969D01*
X463193Y314362D02*
X467130D01*
X465161Y312394D02*
Y316331D01*
X369165Y341197D02*
Y345134D01*
X367197Y343165D02*
X371134D01*
X379165Y321197D02*
Y325134D01*
X377197Y323165D02*
X381134D01*
X426339Y312032D02*
Y315968D01*
X424370Y314000D02*
X428307D01*
X531466Y326629D02*
X534250Y329413D01*
X531466Y329413D02*
X534250Y326629D01*
X288968Y360764D02*
Y364701D01*
X287000Y362732D02*
X290937D01*
X295000Y308032D02*
Y311968D01*
X293032Y310000D02*
X296969D01*
D40*
X314135Y391232D02*
D03*
D41*
X599287Y343917D02*
Y371083D01*
X567713Y343917D02*
Y371083D01*
X599287D01*
X567713Y343917D02*
X599287D01*
X593500Y364630D02*
Y368370D01*
X591630Y366500D02*
X595370D01*
X587595Y363547D02*
X599405D01*
X587595Y369453D02*
X599405D01*
Y363547D02*
Y369453D01*
X587595Y363547D02*
Y369453D01*
X593500Y358130D02*
Y361870D01*
X591630Y360000D02*
X595370D01*
X587595Y357047D02*
X599405D01*
X587595Y362953D02*
X599405D01*
Y357047D02*
Y362953D01*
X587595Y357047D02*
Y362953D01*
X487248Y354472D02*
Y363528D01*
X505752Y354472D02*
Y363528D01*
X487248D02*
X505752D01*
X487248Y354472D02*
X505752D01*
X345094Y265047D02*
Y270953D01*
X356906Y265047D02*
Y270953D01*
X345094Y265047D02*
X356906D01*
X345094Y270953D02*
X356906D01*
X349130Y268000D02*
X352870D01*
X351000Y266130D02*
Y269870D01*
X347547Y283405D02*
X353453D01*
X347547Y271595D02*
X353453D01*
X347547D02*
Y283405D01*
X353453Y271595D02*
Y283405D01*
X350500Y275630D02*
Y279370D01*
X348630Y277500D02*
X352370D01*
X467906Y394047D02*
Y399953D01*
X456095Y394047D02*
Y399953D01*
X467906D01*
X456095Y394047D02*
X467906D01*
X460130Y397000D02*
X463870D01*
X462000Y395130D02*
Y398870D01*
X591000Y294630D02*
Y298370D01*
X589130Y296500D02*
X592870D01*
X585094Y293547D02*
X596906D01*
X585094Y299453D02*
X596906D01*
Y293547D02*
Y299453D01*
X585094Y293547D02*
Y299453D01*
X591000Y281630D02*
Y285370D01*
X589130Y283500D02*
X592870D01*
X585094Y280547D02*
X596906D01*
X585094Y286453D02*
X596906D01*
Y280547D02*
Y286453D01*
X585094Y280547D02*
Y286453D01*
X443630Y342000D02*
X447370D01*
X445500Y340130D02*
Y343870D01*
X448453Y336094D02*
Y347905D01*
X442547Y336094D02*
Y347905D01*
X448453D01*
X442547Y336094D02*
X448453D01*
X456630Y342000D02*
X460370D01*
X458500Y340130D02*
Y343870D01*
X461453Y336094D02*
Y347905D01*
X455547Y336094D02*
Y347905D01*
X461453D01*
X455547Y336094D02*
X461453D01*
X470630Y384650D02*
X474370D01*
X472500Y382780D02*
Y386520D01*
X475453Y378744D02*
Y390555D01*
X469547Y378744D02*
Y390555D01*
X475453D01*
X469547Y378744D02*
X475453D01*
X405500Y263130D02*
Y266870D01*
X403630Y265000D02*
X407370D01*
X399594Y267953D02*
X411406D01*
X399594Y262047D02*
X411406D01*
Y267953D01*
X399594Y262047D02*
Y267953D01*
X431130Y254000D02*
X434870D01*
X433000Y252130D02*
Y255870D01*
X430047Y248095D02*
Y259906D01*
X435953Y248095D02*
Y259906D01*
X430047D02*
X435953D01*
X430047Y248095D02*
X435953D01*
X407500Y397630D02*
Y401370D01*
X405630Y399500D02*
X409370D01*
X401594Y402453D02*
X413406D01*
X401594Y396547D02*
X413406D01*
Y402453D01*
X401594Y396547D02*
Y402453D01*
X372000Y397130D02*
Y400870D01*
X370130Y399000D02*
X373870D01*
X366094Y401953D02*
X377906D01*
X366094Y396047D02*
X377906D01*
Y401953D01*
X366094Y396047D02*
Y401953D01*
X364630Y273000D02*
X368370D01*
X366500Y271130D02*
Y274870D01*
X363547Y267094D02*
Y278906D01*
X369453Y267094D02*
Y278906D01*
X363547Y267094D02*
X369453D01*
X363547Y278906D02*
X369453D01*
X318000Y241130D02*
Y244870D01*
X316130Y243000D02*
X319870D01*
X312094Y245953D02*
X323905D01*
X312094Y240047D02*
X323905D01*
X312094D02*
Y245953D01*
X323905Y240047D02*
Y245953D01*
X571322Y316793D02*
X573967Y314148D01*
X571322D02*
X573967Y316793D01*
X570557Y309207D02*
X578908Y317559D01*
X566381Y313383D02*
X574733Y321734D01*
X566381Y313383D02*
X570557Y309207D01*
X574733Y321734D02*
X578908Y317559D01*
X493678Y346678D02*
X496322Y349322D01*
X493678Y349322D02*
X496322Y346678D01*
X492912Y354264D02*
X501264Y345912D01*
X488736Y350088D02*
X497088Y341736D01*
X501264Y345912D01*
X488736Y350088D02*
X492912Y354264D01*
X505678Y297822D02*
X508322Y295178D01*
X505678D02*
X508322Y297822D01*
X500736Y294412D02*
X509088Y302764D01*
X504912Y290236D02*
X513264Y298588D01*
X509088Y302764D02*
X513264Y298588D01*
X500736Y294412D02*
X504912Y290236D01*
X531678Y285689D02*
X534322Y283044D01*
X531678D02*
X534322Y285689D01*
X526736Y282279D02*
X535088Y290630D01*
X530912Y278103D02*
X539264Y286454D01*
X535088Y290630D02*
X539264Y286454D01*
X526736Y282279D02*
X530912Y278103D01*
X557487Y353401D02*
X560132Y356046D01*
X557487D02*
X560132Y353401D01*
X552546Y356811D02*
X560897Y348460D01*
X556721Y360987D02*
X565073Y352636D01*
X552546Y356811D02*
X556721Y360987D01*
X560897Y348460D02*
X565073Y352636D01*
X382130Y244000D02*
X385870D01*
X384000Y242130D02*
Y245870D01*
X386953Y238094D02*
Y249905D01*
X381047Y238094D02*
Y249905D01*
X386953D01*
X381047Y238094D02*
X386953D01*
X387976Y236949D02*
Y268051D01*
X410024Y236949D02*
Y268051D01*
X387976Y236949D02*
X410024D01*
X387976Y268051D02*
X410024D01*
X455016Y378827D02*
X460921D01*
X455016Y390638D02*
X460921D01*
X455016Y378827D02*
Y390638D01*
X460921Y378827D02*
Y390638D01*
X457969Y382862D02*
Y386602D01*
X456098Y384732D02*
X459839D01*
X416500Y240130D02*
Y243870D01*
X414630Y242000D02*
X418370D01*
X410595Y244953D02*
X422405D01*
X410595Y239047D02*
X422405D01*
X410595D02*
Y244953D01*
X422405Y239047D02*
Y244953D01*
X416500Y260630D02*
Y264370D01*
X414630Y262500D02*
X418370D01*
X410595Y259547D02*
X422405D01*
X410595Y265453D02*
X422405D01*
Y259547D02*
Y265453D01*
X410595Y259547D02*
Y265453D01*
X333500Y238130D02*
Y241870D01*
X331630Y240000D02*
X335370D01*
X327594Y237047D02*
X339405D01*
X327594Y242953D02*
X339405D01*
Y237047D02*
Y242953D01*
X327594Y237047D02*
Y242953D01*
X341476Y238449D02*
Y269551D01*
X363524Y238449D02*
Y269551D01*
X341476Y238449D02*
X363524D01*
X341476Y269551D02*
X363524D01*
X370000Y241630D02*
Y245370D01*
X368130Y243500D02*
X371870D01*
X364094Y246453D02*
X375905D01*
X364094Y240547D02*
X375905D01*
X364094D02*
Y246453D01*
X375905Y240547D02*
Y246453D01*
X370000Y262130D02*
Y265870D01*
X368130Y264000D02*
X371870D01*
X364094Y261047D02*
X375905D01*
X364094Y266953D02*
X375905D01*
Y261047D02*
Y266953D01*
X364094Y261047D02*
Y266953D01*
X466000Y267630D02*
Y271370D01*
X464130Y269500D02*
X467870D01*
X460094Y272453D02*
X471906D01*
X460094Y266547D02*
X471906D01*
X460094D02*
Y272453D01*
X471906Y266547D02*
Y272453D01*
X429949Y237976D02*
X461051D01*
X429949Y260024D02*
X461051D01*
Y237976D02*
Y260024D01*
X429949Y237976D02*
Y260024D01*
X454130Y266500D02*
X457870D01*
X456000Y264630D02*
Y268370D01*
X453047Y260595D02*
Y272406D01*
X458953Y260595D02*
Y272406D01*
X453047Y260595D02*
X458953D01*
X453047Y272406D02*
X458953D01*
X433630Y266500D02*
X437370D01*
X435500Y264630D02*
Y268370D01*
X438453Y260595D02*
Y272406D01*
X432547Y260595D02*
Y272406D01*
X438453D01*
X432547Y260595D02*
X438453D01*
X314000Y276630D02*
Y280370D01*
X312130Y278500D02*
X315870D01*
X308095Y275547D02*
X319905D01*
X308095Y281453D02*
X319905D01*
Y275547D02*
Y281453D01*
X308095Y275547D02*
Y281453D01*
X340524Y246449D02*
Y277551D01*
X318476Y246449D02*
Y277551D01*
X340524D01*
X318476Y246449D02*
X340524D01*
X312000Y270130D02*
Y273870D01*
X310130Y272000D02*
X313870D01*
X306095Y269047D02*
X317905D01*
X306095Y274953D02*
X317905D01*
Y269047D02*
Y274953D01*
X306095Y269047D02*
Y274953D01*
X312000Y249630D02*
Y253370D01*
X310130Y251500D02*
X313870D01*
X306095Y254453D02*
X317905D01*
X306095Y248547D02*
X317905D01*
X306095D02*
Y254453D01*
X317905Y248547D02*
Y254453D01*
X438791Y319362D02*
X442531D01*
X440661Y317492D02*
Y321232D01*
X443614Y313457D02*
Y325268D01*
X437709Y313457D02*
Y325268D01*
X443614D01*
X437709Y313457D02*
X443614D01*
X329874Y331279D02*
Y337185D01*
X318063Y331279D02*
Y337185D01*
Y331279D02*
X329874D01*
X318063Y337185D02*
X329874D01*
X322098Y334232D02*
X325839D01*
X323969Y332362D02*
Y336102D01*
X462047Y347905D02*
X467953D01*
X462047Y336094D02*
X467953D01*
Y347905D01*
X462047Y336094D02*
Y347905D01*
X465000Y340130D02*
Y343870D01*
X463130Y342000D02*
X466870D01*
X449047Y347905D02*
X454953D01*
X449047Y336094D02*
X454953D01*
Y347905D01*
X449047Y336094D02*
Y347905D01*
X452000Y340130D02*
Y343870D01*
X450130Y342000D02*
X453870D01*
X596906Y274047D02*
Y279953D01*
X585094Y274047D02*
Y279953D01*
Y274047D02*
X596906D01*
X585094Y279953D02*
X596906D01*
X589130Y277000D02*
X592870D01*
X591000Y275130D02*
Y278870D01*
X596906Y287047D02*
Y292953D01*
X585094Y287047D02*
Y292953D01*
Y287047D02*
X596906D01*
X585094Y292953D02*
X596906D01*
X589130Y290000D02*
X592870D01*
X591000Y288130D02*
Y291870D01*
X462547Y390555D02*
X468453D01*
X462547Y378744D02*
X468453D01*
Y390555D01*
X462547Y378744D02*
Y390555D01*
X465500Y382780D02*
Y386520D01*
X463630Y384650D02*
X467370D01*
X356539Y310677D02*
Y345323D01*
X336461Y310677D02*
Y345323D01*
X356539D01*
X336461Y310677D02*
X356539D01*
X420000Y378630D02*
Y382370D01*
X418130Y380500D02*
X421870D01*
X414094Y383453D02*
X425906D01*
X414094Y377547D02*
X425906D01*
X414094D02*
Y383453D01*
X425906Y377547D02*
Y383453D01*
X420000Y399630D02*
Y403370D01*
X418130Y401500D02*
X421870D01*
X414094Y398547D02*
X425906D01*
X414094Y404453D02*
X425906D01*
Y398547D02*
Y404453D01*
X414094Y398547D02*
Y404453D01*
X420000Y372130D02*
Y375870D01*
X418130Y374000D02*
X421870D01*
X414094Y376953D02*
X425906D01*
X414094Y371047D02*
X425906D01*
X414094D02*
Y376953D01*
X425906Y371047D02*
Y376953D01*
X355976Y370949D02*
Y402051D01*
X378024Y370949D02*
Y402051D01*
X355976Y370949D02*
X378024D01*
X355976Y402051D02*
X378024D01*
X384500Y378630D02*
Y382370D01*
X382630Y380500D02*
X386370D01*
X378594Y383453D02*
X390406D01*
X378594Y377547D02*
X390406D01*
X378594D02*
Y383453D01*
X390406Y377547D02*
Y383453D01*
X384500Y399130D02*
Y402870D01*
X382630Y401000D02*
X386370D01*
X378594Y398047D02*
X390406D01*
X378594Y403953D02*
X390406D01*
Y398047D02*
Y403953D01*
X378594Y398047D02*
Y403953D01*
X363000Y281669D02*
X383669D01*
X363000Y261000D02*
X383669D01*
X363000D02*
Y281669D01*
X383669Y261000D02*
Y281669D01*
X366000Y285130D02*
Y288870D01*
X364130Y287000D02*
X367870D01*
X360094Y289953D02*
X371905D01*
X360094Y284047D02*
X371905D01*
Y289953D01*
X360094Y284047D02*
Y289953D01*
X387882Y282740D02*
X393787D01*
X387882Y270929D02*
X393787D01*
X387882D02*
Y282740D01*
X393787Y270929D02*
Y282740D01*
X390835Y274965D02*
Y278705D01*
X388965Y276835D02*
X392705D01*
X399740Y264382D02*
Y270287D01*
X387929Y264382D02*
Y270287D01*
X399740D01*
X387929Y264382D02*
X399740D01*
X391965Y267335D02*
X395705D01*
X393835Y265465D02*
Y269205D01*
X378807Y260390D02*
X387862D01*
X378807Y242280D02*
X387862D01*
X378807D02*
Y260390D01*
X387862Y242280D02*
Y260390D01*
X358807Y258390D02*
X367862D01*
X358807Y240280D02*
X367862D01*
X358807D02*
Y258390D01*
X367862Y240280D02*
Y258390D01*
X353465Y251335D02*
X357205D01*
X355335Y249465D02*
Y253205D01*
X352382Y245429D02*
Y257240D01*
X358287Y245429D02*
Y257240D01*
X352382D02*
X358287D01*
X352382Y245429D02*
X358287D01*
X394165Y304795D02*
Y308535D01*
X392295Y306665D02*
X396035D01*
X388260Y303713D02*
X400071D01*
X388260Y309618D02*
X400071D01*
X388260Y303713D02*
Y309618D01*
X400071Y303713D02*
Y309618D01*
X384638Y334110D02*
X393693D01*
X384638Y352221D02*
X393693D01*
Y334110D02*
Y352221D01*
X384638Y334110D02*
Y352221D01*
X395295Y342665D02*
X399035D01*
X397165Y340795D02*
Y344535D01*
X400118Y336760D02*
Y348571D01*
X394213Y336760D02*
Y348571D01*
Y336760D02*
X400118D01*
X394213Y348571D02*
X400118D01*
X354260Y324213D02*
Y330118D01*
X366071Y324213D02*
Y330118D01*
X354260Y324213D02*
X366071D01*
X354260Y330118D02*
X366071D01*
X358295Y327165D02*
X362035D01*
X360165Y325295D02*
Y329035D01*
X360213Y311760D02*
X366118D01*
X360213Y323571D02*
X366118D01*
Y311760D02*
Y323571D01*
X360213Y311760D02*
Y323571D01*
X363165Y315795D02*
Y319535D01*
X361295Y317665D02*
X365035D01*
X282689Y217850D02*
X322650D01*
X282689Y257811D02*
X322650D01*
Y217850D02*
Y257811D01*
X282689Y217850D02*
Y257811D01*
X281685Y258378D02*
Y264283D01*
X293496Y258378D02*
Y264283D01*
X281685Y258378D02*
X293496D01*
X281685Y264283D02*
X293496D01*
X285720Y261331D02*
X289461D01*
X287591Y259461D02*
Y263201D01*
X300260Y259461D02*
Y263201D01*
X298390Y261331D02*
X302130D01*
X294354Y258378D02*
X306165D01*
X294354Y264283D02*
X306165D01*
X294354Y258378D02*
Y264283D01*
X306165Y258378D02*
Y264283D01*
X325220Y223831D02*
X328961D01*
X327091Y221961D02*
Y225701D01*
X324138Y217925D02*
Y229736D01*
X330043Y217925D02*
Y229736D01*
X324138D02*
X330043D01*
X324138Y217925D02*
X330043D01*
X406024Y334878D02*
Y340784D01*
X417835Y334878D02*
Y340784D01*
X406024Y334878D02*
X417835D01*
X406024Y340784D02*
X417835D01*
X410059Y337831D02*
X413799D01*
X411929Y335961D02*
Y339701D01*
X424429Y335961D02*
Y339701D01*
X422559Y337831D02*
X426299D01*
X418524Y334878D02*
X430335D01*
X418524Y340784D02*
X430335D01*
X418524Y334878D02*
Y340784D01*
X430335Y334878D02*
Y340784D01*
X448130Y297500D02*
X451870D01*
X450000Y295630D02*
Y299370D01*
X447047Y291595D02*
Y303405D01*
X452953Y291595D02*
Y303405D01*
X447047D02*
X452953D01*
X447047Y291595D02*
X452953D01*
X391476Y371449D02*
Y402551D01*
X413524Y371449D02*
Y402551D01*
X391476Y371449D02*
X413524D01*
X391476Y402551D02*
X413524D01*
X384500Y372130D02*
Y375870D01*
X382630Y374000D02*
X386370D01*
X378594Y376953D02*
X390406D01*
X378594Y371047D02*
X390406D01*
X378594D02*
Y376953D01*
X390406Y371047D02*
Y376953D01*
X492095Y348047D02*
Y353953D01*
X503905Y348047D02*
Y353953D01*
X492095D02*
X503905D01*
X492095Y348047D02*
X503905D01*
X496130Y351000D02*
X499870D01*
X498000Y349130D02*
Y352870D01*
X301276Y344512D02*
Y366953D01*
X314661Y344512D02*
Y366953D01*
X301276Y344512D02*
X314661D01*
X301276Y366953D02*
X314661D01*
X323468Y340362D02*
Y344102D01*
X321598Y342232D02*
X325339D01*
X315791Y338098D02*
X331146D01*
X315791Y346366D02*
X331146D01*
Y338098D02*
Y346366D01*
X315791Y338098D02*
Y346366D01*
X320468Y370232D02*
X345468D01*
X320468Y398232D02*
X345468D01*
X320468Y370232D02*
Y398232D01*
X345468Y370232D02*
Y398232D01*
X294657Y384736D02*
Y397728D01*
X318280Y384736D02*
Y397728D01*
X294657D02*
X318280D01*
X294657Y384736D02*
X318280D01*
X318646Y347693D02*
Y367772D01*
X353291Y347693D02*
Y367772D01*
X318646D02*
X353291D01*
X318646Y347693D02*
X353291D01*
X444610Y310921D02*
Y326079D01*
X458390Y310921D02*
Y326079D01*
X444610Y310921D02*
X458390D01*
X444610Y326079D02*
X458390D01*
X462000Y395130D02*
Y398870D01*
X460130Y397000D02*
X463870D01*
X454323Y401134D02*
X469677D01*
X454323Y392866D02*
X469677D01*
X454323D02*
Y401134D01*
X469677Y392866D02*
Y401134D01*
X470870Y303339D02*
Y325386D01*
X459453Y303339D02*
Y325386D01*
X470870D01*
X459453Y303339D02*
X470870D01*
X364638Y334110D02*
X373693D01*
X364638Y352221D02*
X373693D01*
Y334110D02*
Y352221D01*
X364638Y334110D02*
Y352221D01*
X368831Y312831D02*
X389500D01*
X368831Y333500D02*
X389500D01*
Y312831D02*
Y333500D01*
X368831Y312831D02*
Y333500D01*
X406358Y294020D02*
X446319D01*
X406358Y333980D02*
X446319D01*
Y294020D02*
Y333980D01*
X406358Y294020D02*
Y333980D01*
X484418Y328021D02*
X532858Y279581D01*
Y376460D02*
X581298Y328021D01*
X532858Y279581D02*
X581298Y328021D01*
X484418Y328021D02*
X532858Y376460D01*
X396795Y317165D02*
X400535D01*
X398665Y315295D02*
Y319035D01*
X395713Y311260D02*
Y323071D01*
X401618Y311260D02*
Y323071D01*
X395713D02*
X401618D01*
X395713Y311260D02*
X401618D01*
X395295Y330165D02*
X399035D01*
X397165Y328295D02*
Y332035D01*
X400118Y324260D02*
Y336071D01*
X394213Y324260D02*
Y336071D01*
Y324260D02*
X400118D01*
X394213Y336071D02*
X400118D01*
X294598Y337732D02*
X298339D01*
X296468Y335862D02*
Y339602D01*
X300602Y330055D02*
Y345409D01*
X292335Y330055D02*
Y345409D01*
X300602D01*
X292335Y330055D02*
X300602D01*
X303098Y337232D02*
X306839D01*
X304969Y335362D02*
Y339102D01*
X307921Y331327D02*
Y343138D01*
X302016Y331327D02*
Y343138D01*
X307921D01*
X302016Y331327D02*
X307921D01*
X310098Y337232D02*
X313839D01*
X311968Y335362D02*
Y339102D01*
X314921Y331327D02*
Y343138D01*
X309016Y331327D02*
Y343138D01*
X314921D01*
X309016Y331327D02*
X314921D01*
X308516Y370327D02*
X314421D01*
X308516Y382138D02*
X314421D01*
X308516Y370327D02*
Y382138D01*
X314421Y370327D02*
Y382138D01*
X311469Y374362D02*
Y378102D01*
X309598Y376232D02*
X313339D01*
X299835Y383909D02*
X308102D01*
X299835Y368555D02*
X308102D01*
Y383909D01*
X299835Y368555D02*
Y383909D01*
X303969Y374362D02*
Y378102D01*
X302098Y376232D02*
X305839D01*
X278929Y380055D02*
X299008D01*
X278929Y345409D02*
X299008D01*
Y380055D01*
X278929Y345409D02*
Y380055D01*
X593500Y351630D02*
Y355370D01*
X591630Y353500D02*
X595370D01*
X587595Y350547D02*
X599405D01*
X587595Y356453D02*
X599405D01*
Y350547D02*
Y356453D01*
X587595Y350547D02*
Y356453D01*
X581630Y352500D02*
X585370D01*
X583500Y350630D02*
Y354370D01*
X586453Y346595D02*
Y358405D01*
X580547Y346595D02*
Y358405D01*
X586453D01*
X580547Y346595D02*
X586453D01*
X277677Y299961D02*
X312323D01*
X277677Y320039D02*
X312323D01*
X277677Y299961D02*
Y320039D01*
X312323Y299961D02*
Y320039D01*
D42*
X476968Y372732D02*
X502969D01*
Y403232D01*
X476968D02*
X502969D01*
X476968Y372732D02*
Y403232D01*
D81*
X406284Y256043D02*
G03*
X406284Y256043I-1181J0D01*
G01*
X359784Y257543D02*
G03*
X359784Y257543I-1181J0D01*
G01*
X443138Y255102D02*
G03*
X443138Y255102I-1181J0D01*
G01*
X324579Y258457D02*
G03*
X324579Y258457I-1181J0D01*
G01*
X374284Y390043D02*
G03*
X374284Y390043I-1181J0D01*
G01*
X409784Y390543D02*
G03*
X409784Y390543I-1181J0D01*
G01*
D82*
X410220Y264311D02*
G03*
X410220Y264311I-492J0D01*
G01*
X363720Y265811D02*
G03*
X363720Y265811I-492J0D01*
G01*
X434181Y259728D02*
G03*
X434181Y259728I-492J0D01*
G01*
X319264Y250189D02*
G03*
X319264Y250189I-492J0D01*
G01*
X378221Y398311D02*
G03*
X378221Y398311I-492J0D01*
G01*
X413721Y398811D02*
G03*
X413721Y398811I-492J0D01*
G01*
X315055Y364000D02*
G03*
X315055Y364000I-492J0D01*
G01*
X318378Y396449D02*
G03*
X318378Y396449I-492J0D01*
G01*
X459079Y323224D02*
G03*
X459079Y323224I-492J0D01*
G01*
D83*
X430862Y399332D02*
G03*
X430862Y399332I-394J0D01*
G01*
X471394Y234600D02*
G03*
X471394Y234600I-394J0D01*
G01*
X498894D02*
G03*
X498894Y234600I-394J0D01*
G01*
X593303Y368075D02*
X593697D01*
X593303Y364925D02*
X593697D01*
X593303Y361575D02*
X593697D01*
X593303Y358425D02*
X593697D01*
X494335Y362150D02*
X498665D01*
X494335Y355850D02*
X498665D01*
X590803Y298075D02*
X591197D01*
X590803Y294925D02*
X591197D01*
X590803Y285075D02*
X591197D01*
X590803Y281925D02*
X591197D01*
X443925Y341803D02*
Y342197D01*
X447075Y341803D02*
Y342197D01*
X456925Y341803D02*
Y342197D01*
X460075Y341803D02*
Y342197D01*
X470925Y384453D02*
Y384846D01*
X474075Y384453D02*
Y384846D01*
X368075Y272803D02*
Y273197D01*
X364925Y272803D02*
Y273197D01*
X317803Y241425D02*
X318197D01*
X317803Y244575D02*
X318197D01*
X385575Y243803D02*
Y244197D01*
X382425Y243803D02*
Y244197D01*
X388961Y245020D02*
Y259980D01*
X409039Y245020D02*
Y259980D01*
X388961Y245020D02*
X409039D01*
X388961Y259980D02*
X409039D01*
X459543Y384535D02*
Y384929D01*
X456394Y384535D02*
Y384929D01*
X416303Y243575D02*
X416697D01*
X416303Y240425D02*
X416697D01*
X416303Y260925D02*
X416697D01*
X416303Y264075D02*
X416697D01*
X333303Y238425D02*
X333697D01*
X333303Y241575D02*
X333697D01*
X342461Y246520D02*
Y261480D01*
X362539Y246520D02*
Y261480D01*
X342461Y246520D02*
X362539D01*
X342461Y261480D02*
X362539D01*
X369803Y245075D02*
X370197D01*
X369803Y241925D02*
X370197D01*
X369803Y262425D02*
X370197D01*
X369803Y265575D02*
X370197D01*
X465803Y271075D02*
X466197D01*
X465803Y267925D02*
X466197D01*
X438020Y238961D02*
X452980D01*
X438020Y259039D02*
X452980D01*
Y238961D02*
Y259039D01*
X438020Y238961D02*
Y259039D01*
X454425Y266303D02*
Y266697D01*
X457575Y266303D02*
Y266697D01*
X437075Y266303D02*
Y266697D01*
X433925Y266303D02*
Y266697D01*
X313803Y276925D02*
X314197D01*
X313803Y280075D02*
X314197D01*
X339539Y254520D02*
Y269480D01*
X319461Y254520D02*
Y269480D01*
X339539D01*
X319461Y254520D02*
X339539D01*
X311803Y270425D02*
X312197D01*
X311803Y273575D02*
X312197D01*
X311803Y253075D02*
X312197D01*
X311803Y249925D02*
X312197D01*
X442236Y319165D02*
Y319559D01*
X439087Y319165D02*
Y319559D01*
X323772Y332658D02*
X324165D01*
X323772Y335807D02*
X324165D01*
X463425Y341803D02*
Y342197D01*
X466575Y341803D02*
Y342197D01*
X450425Y341803D02*
Y342197D01*
X453575Y341803D02*
Y342197D01*
X590803Y278575D02*
X591197D01*
X590803Y275425D02*
X591197D01*
X590803Y291575D02*
X591197D01*
X590803Y288425D02*
X591197D01*
X463925Y384453D02*
Y384846D01*
X467075Y384453D02*
Y384846D01*
X355161Y322094D02*
Y333906D01*
X337839Y322094D02*
Y333906D01*
X419803Y382075D02*
X420197D01*
X419803Y378925D02*
X420197D01*
X419803Y399925D02*
X420197D01*
X419803Y403075D02*
X420197D01*
X419803Y375575D02*
X420197D01*
X419803Y372425D02*
X420197D01*
X356961Y379020D02*
Y393980D01*
X377039Y379020D02*
Y393980D01*
X356961Y379020D02*
X377039D01*
X356961Y393980D02*
X377039D01*
X384303Y382075D02*
X384697D01*
X384303Y378925D02*
X384697D01*
X384303Y399425D02*
X384697D01*
X384303Y402575D02*
X384697D01*
X392461Y379520D02*
Y394480D01*
X412539Y379520D02*
Y394480D01*
X392461Y379520D02*
X412539D01*
X392461Y394480D02*
X412539D01*
X384303Y375575D02*
X384697D01*
X384303Y372425D02*
X384697D01*
X497803Y349425D02*
X498197D01*
X497803Y352575D02*
X498197D01*
X301866Y351697D02*
Y359768D01*
X314071Y351697D02*
Y359768D01*
X323272Y340461D02*
X323665D01*
X323272Y344004D02*
X323665D01*
X320921Y381279D02*
Y387185D01*
X345016Y381279D02*
Y387185D01*
X297610Y396744D02*
X315327D01*
X297610Y385720D02*
X315327D01*
X297610Y395858D02*
Y396744D01*
X315327Y395858D02*
Y396744D01*
X297610Y385720D02*
Y386606D01*
X315327Y385720D02*
Y386606D01*
X330063Y366394D02*
X341874D01*
X330063Y349071D02*
X341874D01*
X445595Y315744D02*
X448744D01*
X445595D02*
Y319681D01*
X454256Y315744D02*
X457406D01*
Y319681D01*
X498925Y345953D02*
X502075D01*
X498925Y340047D02*
X502075D01*
X461803Y398772D02*
X462197D01*
X461803Y395228D02*
X462197D01*
X468508Y312197D02*
Y316528D01*
X461815Y312197D02*
Y316528D01*
X298240Y337535D02*
Y337929D01*
X294697Y337535D02*
Y337929D01*
X303394Y337035D02*
Y337429D01*
X306543Y337035D02*
Y337429D01*
X310394Y337035D02*
Y337429D01*
X313543Y337035D02*
Y337429D01*
X309894Y376035D02*
Y376429D01*
X313043Y376035D02*
Y376429D01*
X305740Y376035D02*
Y376429D01*
X302197Y376035D02*
Y376429D01*
X297630Y356827D02*
Y368638D01*
X280307Y356827D02*
Y368638D01*
X593303Y351925D02*
X593697D01*
X593303Y355075D02*
X593697D01*
X585075Y352303D02*
Y352697D01*
X581925Y352303D02*
Y352697D01*
D84*
X330407Y357126D02*
X329574Y356293D01*
Y354627D01*
X330407Y353794D01*
X333739D01*
X334572Y354627D01*
Y356293D01*
X333739Y357126D01*
X329574Y362125D02*
Y358792D01*
X332073D01*
X331240Y360459D01*
Y361292D01*
X332073Y362125D01*
X333739D01*
X334572Y361292D01*
Y359626D01*
X333739Y358792D01*
X324665Y326668D02*
X325498Y327501D01*
Y329167D01*
X324665Y330000D01*
X321333D01*
X320500Y329167D01*
Y327501D01*
X321333Y326668D01*
X325498Y321669D02*
X324665Y323336D01*
X322999Y325002D01*
X321333D01*
X320500Y324169D01*
Y322502D01*
X321333Y321669D01*
X322166D01*
X322999Y322502D01*
Y325002D01*
X329072Y386792D02*
Y381794D01*
X332404D01*
X334070D02*
X335737D01*
X334904D01*
Y386792D01*
X334070Y385959D01*
X328000Y330000D02*
X332998D01*
Y327501D01*
X332165Y326668D01*
X330499D01*
X329666Y327501D01*
Y330000D01*
Y328334D02*
X328000Y326668D01*
X332998Y321669D02*
Y325002D01*
X330499D01*
X331332Y323336D01*
Y322502D01*
X330499Y321669D01*
X328833D01*
X328000Y322502D01*
Y324169D01*
X328833Y325002D01*
X291572Y333794D02*
X286574D01*
Y336293D01*
X287407Y337126D01*
X289073D01*
X289906Y336293D01*
Y333794D01*
Y335460D02*
X291572Y337126D01*
Y341292D02*
X286574D01*
X289073Y338792D01*
Y342125D01*
X298000Y325500D02*
Y330498D01*
X300499D01*
X301332Y329665D01*
Y327999D01*
X300499Y327166D01*
X298000D01*
X299666D02*
X301332Y325500D01*
X302998Y329665D02*
X303831Y330498D01*
X305498D01*
X306331Y329665D01*
Y328832D01*
X305498Y327999D01*
X304664D01*
X305498D01*
X306331Y327166D01*
Y326333D01*
X305498Y325500D01*
X303831D01*
X302998Y326333D01*
X310072Y326294D02*
Y331292D01*
X312571D01*
X313404Y330459D01*
Y328793D01*
X312571Y327960D01*
X310072D01*
X311738D02*
X313404Y326294D01*
X318403D02*
X315071D01*
X318403Y329626D01*
Y330459D01*
X317570Y331292D01*
X315903D01*
X315071Y330459D01*
X319237Y374962D02*
X320071Y375795D01*
Y377461D01*
X319237Y378294D01*
X315905D01*
X315072Y377461D01*
Y375795D01*
X315905Y374962D01*
X315072Y370796D02*
X320071D01*
X317571Y373296D01*
Y369963D01*
X287904Y367959D02*
X287071Y368792D01*
X285405D01*
X284572Y367959D01*
Y364627D01*
X285405Y363794D01*
X287071D01*
X287904Y364627D01*
X292903Y363794D02*
X289570D01*
X292903Y367126D01*
Y367959D01*
X292070Y368792D01*
X290404D01*
X289570Y367959D01*
M02*
