M48
;Layer_Color=9474304
;FILE_FORMAT=2:5
INCH,LZ
;TYPE=PLATED
T1F00S00C0.00787
T2F00S00C0.01500
T3F00S00C0.02500
T4F00S00C0.03000
T5F00S00C0.03150
T6F00S00C0.03500
T7F00S00C0.04000
%
T01
X0371169Y0269169
Y02735
X03755
Y0269169
X0417677Y0305339
X0422008
X0426339
X0430669
X0435
Y0309669
X0430669
X0426339
X0422008
X0417677
X0311331Y0246492
Y0242161
Y0237831
Y02335
Y0229169
X0307
Y02335
Y0237831
Y0242161
Y0246492
X0302669
Y0242161
Y0237831
Y02335
Y0229169
X0298339
Y02335
Y0237831
Y0242161
Y0246492
X0294008
Y0242161
Y0237831
Y02335
Y0229169
X0305803Y0355732
X0310134
X0377Y0325331
X0381331
Y0321
X0377
X0417677Y0322661
X0422008
X0426339
X0430669
X0435
Y0318331
Y0314
X0430669
Y0318331
X0426339
Y0314
X0422008
Y0318331
X0417677
Y0314
T02
X04725Y02215
X04753Y0224498
X04794Y022405
X04725Y02275
X04905Y0222
X05089Y022405
X0518Y02225
X0509Y02415
X0504Y024
X04995Y02385
X05145Y02745
X05215
X0534414Y0278498
X05389Y0278
X0539Y02735
X05505Y02805
X05525Y02845
X05695Y02805
X0574631Y0283369
X0578Y02875
X05965Y0302
X0534
X05335Y0297
X0534Y03095
X0522Y0312
X05225Y0306
X0509985Y0293015
X05085Y02875
X0504Y0289
X0483Y0291
X0476Y02905
X0471Y02975
X04745Y03025
X0472Y0306
X04945Y0312
X04835Y0277
X04795Y028
X0479Y0274
X04675
X04605
X04675Y02915
X0467Y02995
X04355Y0292
X04305
X04175Y02905
X04085Y02805
X0408Y02745
X0403Y02775
X04005Y0282
X040112Y027165
X0399Y02555
X0406309Y0254191
X0408589Y0257911
X04035Y0251
X04055Y02465
X03895
X038Y02515
X03745Y02385
X036702Y023745
X0359Y0237
X03605Y02495
X035
X03505Y0254
X0346084Y0252291
X0338Y02645
X0331Y0259
X0336Y02815
X03445Y02845
X03615Y02795
X0358454Y0274185
X0386Y0268
X039Y0285
X03935Y029
X03895Y0293
X03865Y02965
X0385Y03095
X03805
X0376
X03715
X0367
X0393Y0312
X0338Y03075
X03325
X03275
X03225Y0284
X03315Y021805
X0336Y02185
X03445Y022
X03495Y02215
X0314254Y0216485
X04255Y0244
X04285Y0241
X04425Y0234
Y0228
X04465Y02305
Y02245
X04425Y0249
X0445Y02575
X0439839Y0258839
X043Y0268
X0418Y02675
X02995Y0266
X0293
X02845
X0293Y02155
X0307394Y0217
X0309Y03285
X03575Y03325
X03585Y03375
X0369Y0343
X0388Y03435
X0403Y0338
X04105Y0345
X0415Y03465
X0418Y035
X0433467Y0346734
X04375Y03485
X0442Y03505
X0446Y03525
X0452Y03515
X0465Y03505
X0463Y03755
X04585Y0376
X04545Y03675
X0449
X04435
X04295Y03735
X04165Y03685
X04095Y0369
X0402Y03675
X03915Y03695
Y036535
X03855Y03665
X0367Y0366
X0362Y03685
X036Y03825
X0363Y0386
X0366Y039
X03695Y03925
X03735Y039
X0376Y03935
X0373Y0404
X03915Y03935
X04045Y0393
X04085Y0391
X0412Y03935
X04015Y03895
X03985Y03865
X03955Y0383
X0441Y0391
X0452Y03905
X0434485Y0404015
X043875Y03425
X0433Y03375
X0448Y03285
X0459Y0313
X0393165Y0318165
X0358Y0321
X04775Y0338
X0489Y0346
X0505485Y0334015
X05105Y0337
X05095Y0329
X0509Y03215
X05125Y0318
X05175Y0313
X0534Y03145
X0539Y031425
X0548Y03255
X05539Y03234
X0555Y03275
X05585Y03245
X0557Y03185
X05575Y03345
X0549
X0542Y03325
X0542076Y03379
X05405Y0342
X05385Y0346
X0536Y035
X05335Y03535
X05315Y03585
X0537Y03705
X05445Y03675
X05505Y0366
X0550985Y0370515
X05545Y0363
X056Y0364
X056482Y0348713
X05475Y03455
X0528Y0336
X0526Y03315
X0504Y0326
X0498Y03685
X0497Y0375
X0498Y03845
X04925Y03935
X0489Y03905
X0484
X04695Y0393043
X0472Y0398
X0471Y036
X0514934Y0373733
X0519Y0372
X0564Y03865
X05675Y039
X0572Y03915
X05895Y03715
X0587Y036
X05825Y0361
X0576Y03245
T03
X0586Y0307
X0591
X0596
Y0312
X0591
X0586
X0304Y0326551
X0293Y03225
X0290276Y0341276
X0292Y03945
X0351Y0373
X0362457Y0348874
X03795Y0348
Y03405
X0391Y03315
X0586Y0332
X0591
X0596
Y0327
Y0322
Y0317
X0591
Y0322
Y0327
X0586
Y0322
Y0317
T04
X04035Y03
Y0324
T05
X04725Y02565
X04805
X04885
X04965
X05045
X05125
X0531252Y0253
X0539
X0547
X0564Y02475
Y0239626
Y0231752
Y0223878
X0547Y023
X0539
X0531252
X05875Y02315
Y02235
Y02395
Y02475
Y02555
Y02635
X0458929Y0282831
X0450929
X0442929
X0434929
X0426929
X0418929
X0416Y02285
X0408
X04
X0392
X03755
X03675
X03595
X03515
X03435
X03355
X03335Y0297
X03415
X03495
X03575
X03655
X03735
X0424Y02285
X0432
X0298Y0272
X029
X0364Y0358
X0372
X038
X0388
X0396
X0404
X04205
X04285
X04365
X04445
X04525
X04605
X0486031Y0379732
X0493905
X0513969Y0379232
X0521969
X0529716
X0546969
X0554969
X0562716
X0581Y0381252
Y0389
Y0397
T06
X03265Y02325
X04035Y0308
X04254Y0290781
X045Y03075
X03015Y0216
X02805Y02315
X02845Y03835
T07
X02925Y0314
X0292299Y0359567
X0285299
X0339134Y0361063
Y0354063
X0342831Y0324835
X0349831
X03155Y03125
M30
