%FSLAX25Y25*%
%MOIN*%
G70*
G01*
G75*
G04 Layer_Color=8421504*
%ADD10R,0.03543X0.03937*%
%ADD11R,0.04528X0.07087*%
%ADD12R,0.03937X0.03543*%
%ADD13R,0.02953X0.03937*%
%ADD14O,0.01772X0.05512*%
%ADD15R,0.04724X0.03150*%
%ADD16R,0.04724X0.02953*%
%ADD17R,0.03937X0.02953*%
%ADD18O,0.05512X0.01772*%
%ADD19R,0.18110X0.08858*%
%ADD20R,0.10000X0.03900*%
%ADD21R,0.07402X0.06614*%
%ADD22O,0.00984X0.05315*%
%ADD23R,0.04331X0.04331*%
%ADD24R,0.06693X0.04724*%
%ADD25R,0.09449X0.06102*%
%ADD26R,0.08858X0.18110*%
%ADD27R,0.02362X0.03937*%
%ADD28R,0.04331X0.06693*%
%ADD29R,0.07480X0.05315*%
%ADD30R,0.04331X0.04331*%
%ADD31C,0.01000*%
%ADD32C,0.00800*%
%ADD33C,0.02000*%
%ADD34C,0.03000*%
%ADD35C,0.05500*%
%ADD36C,0.03500*%
%ADD37C,0.04000*%
%ADD38R,0.06299X0.06299*%
%ADD39C,0.06299*%
%ADD40C,0.06000*%
%ADD41R,0.06000X0.06000*%
%ADD42R,0.06299X0.06299*%
%ADD43R,0.06000X0.06000*%
%ADD44C,0.05512*%
%ADD45R,0.05512X0.05512*%
%ADD46C,0.03937*%
%ADD47C,0.03500*%
%ADD48C,0.05500*%
%ADD49C,0.04500*%
%ADD50C,0.05000*%
%ADD51C,0.01969*%
%ADD52C,0.01500*%
%ADD53C,0.01300*%
%ADD54C,0.07150*%
%ADD55C,0.06500*%
%ADD56C,0.07000*%
%ADD57C,0.08000*%
%ADD58C,0.04787*%
%ADD59C,0.07500*%
%ADD60R,0.08071X0.02756*%
G04:AMPARAMS|DCode=61|XSize=39.37mil|YSize=35.43mil|CornerRadius=0mil|HoleSize=0mil|Usage=FLASHONLY|Rotation=135.000|XOffset=0mil|YOffset=0mil|HoleType=Round|Shape=Rectangle|*
%AMROTATEDRECTD61*
4,1,4,0.02645,-0.00139,0.00139,-0.02645,-0.02645,0.00139,-0.00139,0.02645,0.02645,-0.00139,0.0*
%
%ADD61ROTATEDRECTD61*%

G04:AMPARAMS|DCode=62|XSize=39.37mil|YSize=35.43mil|CornerRadius=0mil|HoleSize=0mil|Usage=FLASHONLY|Rotation=225.000|XOffset=0mil|YOffset=0mil|HoleType=Round|Shape=Rectangle|*
%AMROTATEDRECTD62*
4,1,4,0.00139,0.02645,0.02645,0.00139,-0.00139,-0.02645,-0.02645,-0.00139,0.00139,0.02645,0.0*
%
%ADD62ROTATEDRECTD62*%

%ADD63O,0.00984X0.03740*%
%ADD64O,0.03740X0.00984*%
%ADD65R,0.09646X0.09646*%
%ADD66R,0.07087X0.04528*%
%ADD67O,0.02165X0.06102*%
%ADD68O,0.06102X0.02165*%
%ADD69R,0.23622X0.23622*%
%ADD70R,0.05906X0.05906*%
G04:AMPARAMS|DCode=71|XSize=11.81mil|YSize=70.87mil|CornerRadius=0mil|HoleSize=0mil|Usage=FLASHONLY|Rotation=315.000|XOffset=0mil|YOffset=0mil|HoleType=Round|Shape=Round|*
%AMOVALD71*
21,1,0.05906,0.01181,0.00000,0.00000,45.0*
1,1,0.01181,-0.02088,-0.02088*
1,1,0.01181,0.02088,0.02088*
%
%ADD71OVALD71*%

G04:AMPARAMS|DCode=72|XSize=11.81mil|YSize=70.87mil|CornerRadius=0mil|HoleSize=0mil|Usage=FLASHONLY|Rotation=45.000|XOffset=0mil|YOffset=0mil|HoleType=Round|Shape=Round|*
%AMOVALD72*
21,1,0.05906,0.01181,0.00000,0.00000,135.0*
1,1,0.01181,0.02088,-0.02088*
1,1,0.01181,-0.02088,0.02088*
%
%ADD72OVALD72*%

%ADD73C,0.02500*%
%ADD74C,0.03200*%
%ADD75C,0.01800*%
%ADD76C,0.01969*%
%ADD77C,0.02362*%
%ADD78C,0.00984*%
%ADD79C,0.00787*%
%ADD80C,0.00394*%
%ADD81C,0.00500*%
%ADD82C,0.00600*%
D10*
X596650Y366500D02*
D03*
X590350D02*
D03*
X596650Y360000D02*
D03*
X590350D02*
D03*
X594150Y296500D02*
D03*
X587850D02*
D03*
X594150Y283500D02*
D03*
X587850D02*
D03*
X314850Y243000D02*
D03*
X321150D02*
D03*
X413350Y242000D02*
D03*
X419650D02*
D03*
X419650Y262500D02*
D03*
X413350D02*
D03*
X336650Y240000D02*
D03*
X330350D02*
D03*
X366850Y243500D02*
D03*
X373150D02*
D03*
X373150Y264000D02*
D03*
X366850D02*
D03*
X462850Y269500D02*
D03*
X469150D02*
D03*
X317150Y278500D02*
D03*
X310850D02*
D03*
X315150Y272000D02*
D03*
X308850D02*
D03*
X308850Y251500D02*
D03*
X315150D02*
D03*
X327118Y334232D02*
D03*
X320819D02*
D03*
X594150Y277000D02*
D03*
X587850D02*
D03*
X594150Y290000D02*
D03*
X587850D02*
D03*
X416850Y380500D02*
D03*
X423150D02*
D03*
X423150Y401500D02*
D03*
X416850D02*
D03*
X416850Y374000D02*
D03*
X423150D02*
D03*
X381350Y380500D02*
D03*
X387650D02*
D03*
X387650Y401000D02*
D03*
X381350D02*
D03*
X381350Y374000D02*
D03*
X387650D02*
D03*
X494850Y351000D02*
D03*
X501150D02*
D03*
X596650Y353500D02*
D03*
X590350D02*
D03*
D11*
X490594Y359000D02*
D03*
X502406D02*
D03*
D12*
X445500Y345150D02*
D03*
Y338850D02*
D03*
X458500Y345150D02*
D03*
Y338850D02*
D03*
X472500Y387799D02*
D03*
Y381500D02*
D03*
X366500Y269850D02*
D03*
Y276150D02*
D03*
X384000Y247150D02*
D03*
Y240850D02*
D03*
X457969Y381583D02*
D03*
Y387882D02*
D03*
X456000Y263350D02*
D03*
Y269650D02*
D03*
X435500Y269650D02*
D03*
Y263350D02*
D03*
X440661Y322512D02*
D03*
Y316213D02*
D03*
X465000Y345150D02*
D03*
Y338850D02*
D03*
X452000Y345150D02*
D03*
Y338850D02*
D03*
X465500Y387799D02*
D03*
Y381500D02*
D03*
X304969Y340382D02*
D03*
Y334083D02*
D03*
X311968Y340382D02*
D03*
Y334083D02*
D03*
X311469Y373083D02*
D03*
Y379382D02*
D03*
X583500Y355650D02*
D03*
Y349350D02*
D03*
D13*
X413500Y248500D02*
D03*
X419000Y256000D02*
D03*
X413500D02*
D03*
X419000Y248500D02*
D03*
X367000Y250000D02*
D03*
X372500Y257500D02*
D03*
X367000D02*
D03*
X372500Y250000D02*
D03*
X315000Y266000D02*
D03*
X309500Y258500D02*
D03*
X315000D02*
D03*
X309500Y266000D02*
D03*
X381000Y387000D02*
D03*
X386500Y394500D02*
D03*
X381000D02*
D03*
X386500Y387000D02*
D03*
X416500D02*
D03*
X422000Y394500D02*
D03*
X416500D02*
D03*
X422000Y387000D02*
D03*
D14*
X391323Y240689D02*
D03*
X393882D02*
D03*
X396441D02*
D03*
X399000D02*
D03*
X401559D02*
D03*
X404118D02*
D03*
X406677D02*
D03*
X391323Y264311D02*
D03*
X393882D02*
D03*
X396441D02*
D03*
X399000D02*
D03*
X401559D02*
D03*
X404118D02*
D03*
X406677D02*
D03*
X344823Y242189D02*
D03*
X347382D02*
D03*
X349941D02*
D03*
X352500D02*
D03*
X355059D02*
D03*
X357618D02*
D03*
X360177D02*
D03*
X344823Y265811D02*
D03*
X347382D02*
D03*
X349941D02*
D03*
X352500D02*
D03*
X355059D02*
D03*
X357618D02*
D03*
X360177D02*
D03*
X337177Y273811D02*
D03*
X334618D02*
D03*
X332059D02*
D03*
X329500D02*
D03*
X326941D02*
D03*
X324382D02*
D03*
X321823D02*
D03*
X337177Y250189D02*
D03*
X334618D02*
D03*
X332059D02*
D03*
X329500D02*
D03*
X326941D02*
D03*
X324382D02*
D03*
X321823D02*
D03*
X359323Y374689D02*
D03*
X361882D02*
D03*
X364441D02*
D03*
X367000D02*
D03*
X369559D02*
D03*
X372118D02*
D03*
X374677D02*
D03*
X359323Y398311D02*
D03*
X361882D02*
D03*
X364441D02*
D03*
X367000D02*
D03*
X369559D02*
D03*
X372118D02*
D03*
X374677D02*
D03*
X394823Y375189D02*
D03*
X397382D02*
D03*
X399941D02*
D03*
X402500D02*
D03*
X405059D02*
D03*
X407618D02*
D03*
X410177D02*
D03*
X394823Y398811D02*
D03*
X397382D02*
D03*
X399941D02*
D03*
X402500D02*
D03*
X405059D02*
D03*
X407618D02*
D03*
X410177D02*
D03*
D15*
X440869Y379232D02*
D03*
Y398332D02*
D03*
X481400Y214500D02*
D03*
Y233600D02*
D03*
X508900Y214500D02*
D03*
Y233600D02*
D03*
D16*
X432268Y381732D02*
D03*
X449768D02*
D03*
X449669Y396232D02*
D03*
X432268D02*
D03*
X472800Y217000D02*
D03*
X490300D02*
D03*
X490200Y231500D02*
D03*
X472800D02*
D03*
X500300Y217000D02*
D03*
X517800D02*
D03*
X517700Y231500D02*
D03*
X500300D02*
D03*
D17*
X449500Y263500D02*
D03*
X442000Y269000D02*
D03*
Y263500D02*
D03*
X449500Y269000D02*
D03*
D18*
X457311Y241323D02*
D03*
Y243882D02*
D03*
Y246441D02*
D03*
Y249000D02*
D03*
Y251559D02*
D03*
Y254118D02*
D03*
Y256677D02*
D03*
X433689Y241323D02*
D03*
Y243882D02*
D03*
Y246441D02*
D03*
Y249000D02*
D03*
Y251559D02*
D03*
Y254118D02*
D03*
Y256677D02*
D03*
D19*
X346500Y339910D02*
D03*
Y316090D02*
D03*
X288968Y374642D02*
D03*
Y350823D02*
D03*
D20*
X573366Y367100D02*
D03*
X565862Y359200D02*
D03*
X573366Y351300D02*
D03*
X565862Y343400D02*
D03*
X573366Y335500D02*
D03*
X565862Y327600D02*
D03*
X573366Y319700D02*
D03*
X565862Y311800D02*
D03*
X573366Y303900D02*
D03*
X565862Y296000D02*
D03*
X486750Y367100D02*
D03*
X479250Y359200D02*
D03*
X486750Y351300D02*
D03*
X479250Y343400D02*
D03*
X486750Y335500D02*
D03*
X479250Y327600D02*
D03*
X486750Y319700D02*
D03*
X479250Y311800D02*
D03*
X486750Y303900D02*
D03*
X479250Y296000D02*
D03*
D21*
X307968Y355732D02*
D03*
D22*
X304031Y347465D02*
D03*
X306000D02*
D03*
X307968D02*
D03*
X309937D02*
D03*
X311906D02*
D03*
X304031Y364000D02*
D03*
X306000D02*
D03*
X307968D02*
D03*
X309937D02*
D03*
X311906D02*
D03*
D23*
X327012Y342232D02*
D03*
X319925D02*
D03*
X458457Y397000D02*
D03*
X465543D02*
D03*
D24*
X332968Y373098D02*
D03*
Y395232D02*
D03*
D25*
X300465Y391232D02*
D03*
X312472D02*
D03*
D26*
X324059Y357732D02*
D03*
X347878D02*
D03*
D27*
X451500Y313776D02*
D03*
X447760Y323224D02*
D03*
X455240D02*
D03*
D28*
X495185Y343000D02*
D03*
X505815D02*
D03*
D29*
X465161Y320661D02*
D03*
Y308063D02*
D03*
D30*
X296468Y341276D02*
D03*
Y334189D02*
D03*
X303969Y379776D02*
D03*
Y372689D02*
D03*
M02*
