%FSTAX23Y23*%
%MOIN*%
%SFA1B1*%

%IPPOS*%
%AMD12*
4,1,4,-0.027100,-0.011800,-0.011800,-0.027100,0.027100,0.011800,0.011800,0.027100,-0.027100,-0.011800,0.0*
1,1,0.021654,-0.019400,-0.019400*
1,1,0.021654,0.019400,0.019400*
%
%AMD13*
4,1,4,0.011800,-0.027100,0.027100,-0.011800,-0.011800,0.027100,-0.027100,0.011800,0.011800,-0.027100,0.0*
1,1,0.021654,0.019400,-0.019400*
1,1,0.021654,-0.019400,0.019400*
%
%AMD18*
4,1,4,0.022200,-0.002800,-0.002800,0.022200,-0.022200,0.002800,0.002800,-0.022200,0.022200,-0.002800,0.0*
%
%AMD19*
4,1,4,-0.002800,-0.022200,0.022200,0.002800,0.002800,0.022200,-0.022200,-0.002800,-0.002800,-0.022200,0.0*
%
%ADD10O,0.023622X0.037401*%
%ADD11O,0.090551X0.031496*%
G04~CAMADD=12~3~0.0~0.0~216.5~767.7~0.0~0.0~0~0.0~0.0~0.0~0.0~0~0.0~0.0~0.0~0.0~0~0.0~0.0~0.0~135.0~606.0~606.0*
%ADD12D12*%
G04~CAMADD=13~3~0.0~0.0~216.5~767.7~0.0~0.0~0~0.0~0.0~0.0~0.0~0~0.0~0.0~0.0~0.0~0~0.0~0.0~0.0~225.0~606.0~606.0*
%ADD13D13*%
%ADD14O,0.015748X0.033465*%
%ADD15R,0.248818X0.092913*%
%ADD16R,0.035433X0.027559*%
%ADD17R,0.027559X0.035433*%
G04~CAMADD=18~9~0.0~0.0~354.3~275.6~0.0~0.0~0~0.0~0.0~0.0~0.0~0~0.0~0.0~0.0~0.0~0~0.0~0.0~0.0~315.0~444.0~443.0*
%ADD18D18*%
G04~CAMADD=19~9~0.0~0.0~354.3~275.6~0.0~0.0~0~0.0~0.0~0.0~0.0~0~0.0~0.0~0.0~0.0~0~0.0~0.0~0.0~225.0~444.0~443.0*
%ADD19D19*%
%ADD20C,0.010000*%
%ADD21C,0.012000*%
%ADD22C,0.040000*%
%ADD23C,0.020000*%
%ADD24C,0.025000*%
%ADD25R,0.062992X0.062992*%
%ADD26C,0.062992*%
%ADD27R,0.059055X0.059055*%
%ADD28C,0.059055*%
%ADD29C,0.055118*%
%ADD30R,0.055118X0.055118*%
%ADD31R,0.059055X0.059055*%
%ADD32C,0.050000*%
G54D10*
X01307Y0458D03*
X0127D03*
X01232D03*
X01307Y04689D03*
X0127D03*
X01232D03*
G54D11*
X02022Y0485D03*
X01687D03*
G54D12*
X01876Y04612D03*
X01899Y0459D03*
X01921Y04568D03*
X01943Y04546D03*
X01966Y04523D03*
X01988Y04501D03*
X0201Y04479D03*
X02032Y04456D03*
X01753Y04177D03*
X0173Y04199D03*
X01708Y04221D03*
X01686Y04243D03*
X01663Y04266D03*
X01641Y04288D03*
X01619Y0431D03*
X01597Y04333D03*
G54D13*
X02032Y04333D03*
X0201Y0431D03*
X01988Y04288D03*
X01966Y04266D03*
X01943Y04243D03*
X01921Y04221D03*
X01899Y04199D03*
X01876Y04177D03*
X01597Y04456D03*
X01619Y04479D03*
X01641Y04501D03*
X01663Y04523D03*
X01686Y04546D03*
X01708Y04568D03*
X0173Y0459D03*
X01753Y04612D03*
G54D14*
X01604Y04779D03*
X0163D03*
X01655D03*
X01604Y0469D03*
X0163D03*
X01655D03*
G54D15*
X01275Y04268D03*
Y04451D03*
G54D16*
X0138Y04612D03*
Y04667D03*
Y04717D03*
Y04772D03*
X0116Y04647D03*
Y04702D03*
G54D17*
X01222Y04745D03*
X01277D03*
G54D18*
X01575Y04555D03*
X01614Y04594D03*
G54D19*
X01645Y04179D03*
X01684Y0414D03*
X01575Y04254D03*
X01614Y04215D03*
X02039Y0464D03*
X02Y04679D03*
X0201Y04589D03*
X02049Y0455D03*
G54D20*
X0156Y047D02*
X0149Y0477D01*
X0156Y04571D02*
Y047D01*
X01575Y04555D02*
X0156Y04571D01*
X01845Y04358D02*
X0178Y04294D01*
X01988Y04501D02*
X01845Y04358D01*
Y04355D02*
Y04358D01*
X0149Y0477D02*
X01432D01*
X01633Y04718D02*
X01628Y04723D01*
X01879Y04718D02*
X01633D01*
X01918Y04679D02*
X01879Y04718D01*
X02Y04679D02*
X01918D01*
X01736Y04294D02*
X01725Y04282D01*
X0178Y04294D02*
X01736D01*
X01569Y04025D02*
X01325D01*
X01684Y0414D02*
X01569Y04025D01*
X0177Y04238D02*
X0173Y04199D01*
X0177Y04238D02*
Y0426D01*
X01747Y04282*
X01725*
X01686Y04243*
X01935Y04119D02*
X01876Y04177D01*
X01935Y04104D02*
Y04119D01*
Y04104D02*
X0192Y0409D01*
X01715*
X01625Y0394D02*
X01609Y03925D01*
X01625Y0394D02*
Y03998D01*
X01715Y0409D02*
X01625Y03999D01*
X01625Y03998D02*
X01625Y03999D01*
X01815Y0455D02*
X01753Y04612D01*
X01815Y04535D02*
Y0455D01*
X0207Y04605D02*
Y0461D01*
X01604Y0468D02*
Y0469D01*
X01622Y04662D02*
X01604Y0468D01*
X01822Y04662D02*
X01622D01*
X01872Y04612D02*
X01822Y04662D01*
X01876Y04612D02*
X01872D01*
X01918Y04604D02*
X01899D01*
Y0459D02*
Y04604D01*
X01918D02*
Y04656D01*
X01884Y0469*
X01655*
X01604Y04779D02*
X01543Y0484D01*
X0151*
X01509Y04841*
X01314*
X01255Y049*
X01225*
X01565D02*
X01445D01*
X01655Y04809D02*
X01565Y049D01*
X01655Y04779D02*
Y04809D01*
X01687Y04752D02*
Y0485D01*
Y04752D02*
X0167Y04735D01*
X01646*
X01636Y04744*
X01635*
X0163Y0475*
Y04779*
X01432Y0477D02*
X0138Y04717D01*
X01687Y0485D02*
Y04897D01*
X0163Y04789D02*
Y04792D01*
X0141Y04687D02*
X0138Y04717D01*
X0141Y04642D02*
Y04687D01*
Y04642D02*
X0138Y04612D01*
X0127Y0462D02*
X01242Y04647D01*
X0127Y0458D02*
Y0462D01*
X01242Y04647D02*
X0116D01*
Y046D02*
Y04647D01*
X01727Y0433D02*
X01663Y04266D01*
X01507Y04254D02*
X01486Y04276D01*
X01575Y04254D02*
X01507D01*
X01575Y04209D02*
Y04254D01*
X01605Y04179D02*
X01575Y04209D01*
X01645Y04179D02*
X01605D01*
X01966Y04523D02*
X01937Y04495D01*
X0192*
X01888Y04526*
Y04535*
X01921Y04568D02*
X01888Y04535D01*
X0201Y04568D02*
X01966Y04523D01*
X0201Y04568D02*
Y04589D01*
X0207Y0461D02*
X02039Y0464D01*
X02016Y04617*
Y04595D02*
Y04617D01*
Y04595D02*
X0201Y04589D01*
X01977Y04579D02*
X01943Y04546D01*
X01977Y04579D02*
Y04591D01*
X02Y04614D02*
X01977Y04591D01*
X02Y04614D02*
Y04679D01*
X02037Y0455D02*
X01988Y04501D01*
X02049Y0455D02*
X02037D01*
X0173Y04199D02*
X01684Y04153D01*
Y0414D02*
Y04153D01*
X01686Y04243D02*
X01657Y04215D01*
X01614*
X01686Y04546D02*
X01637Y04594D01*
X01614*
X0211Y0485D02*
X02022D01*
X02215Y04745D02*
X0211Y0485D01*
X02215Y0405D02*
Y04745D01*
X01775Y042D02*
X01753Y04177D01*
G54D21*
X0174Y04492D02*
X01686Y04546D01*
X0174Y0445D02*
Y04492D01*
Y0445D02*
X01685Y04395D01*
X0192Y04065D02*
X01716D01*
X01643Y03992*
X01921Y04221D02*
X01913D01*
X0185Y04285*
X01643Y03933D02*
Y03992D01*
Y03933D02*
X01585Y03875D01*
X01609Y03925D02*
X0155D01*
X015Y03975*
X01485*
X01753Y04172D02*
Y04177D01*
Y04172D02*
X01686Y04106D01*
X01682*
X01585Y04009*
Y03975D02*
Y04009D01*
X01955Y04143D02*
X01899Y04199D01*
X01955Y041D02*
Y04143D01*
Y041D02*
X0192Y04065D01*
X02215Y0396D02*
Y0405D01*
Y0396D02*
X02185Y0393D01*
X01835*
X0179Y03975*
X01685*
X0204Y04281D02*
X0201Y0431D01*
X0204Y0409D02*
Y04281D01*
X0215Y0398D02*
X0204Y0409D01*
X02018Y04258D02*
X01988Y04288D01*
X02018Y03983D02*
Y04258D01*
Y03983D02*
X02015Y0398D01*
X02Y04232D02*
X01966Y04266D01*
X02Y041D02*
Y04232D01*
Y041D02*
X0188Y0398D01*
X01222Y04699D02*
X01219Y04702D01*
X01232Y04689D02*
X01222Y04699D01*
Y04745*
X01219Y04702D02*
X0116D01*
G54D22*
X01275Y04268D02*
Y04355D01*
X0215Y0388D02*
X02015D01*
X0188*
X01765Y03765*
X0126*
X011Y03925*
Y048*
X01135Y04835D02*
X011Y048D01*
X0123Y04835D02*
X01135D01*
X01277Y04787D02*
X0123Y04835D01*
X01277Y04745D02*
Y04787D01*
X0123Y0406D02*
Y04268D01*
X01264Y04025D02*
X0123Y0406D01*
X01325Y04025D02*
X01264D01*
G54D23*
X01475Y03875D02*
X01325Y04025D01*
X01485Y03875D02*
X01475D01*
X0138Y04772D02*
Y04775D01*
X01424Y0482D02*
X0138Y04775D01*
X015Y0482D02*
X01424D01*
X01597Y04723D02*
X015Y0482D01*
X01628Y04723D02*
X01597D01*
X01628Y04692D02*
Y04723D01*
X0163Y0469D02*
X01628Y04692D01*
X0133Y04711D02*
X01307Y04689D01*
X0133Y04711D02*
Y04765D01*
X0138Y04772D02*
X01372Y04765D01*
X0133*
X01232Y04532D02*
Y0458D01*
X0127Y0468D02*
Y04689D01*
X0131Y0464D02*
X0127Y0468D01*
X01277Y04745D02*
X0127Y04737D01*
Y04689D02*
Y04737D01*
X01352Y0464D02*
X0131D01*
X0138Y04667D02*
X01352Y0464D01*
G54D24*
X01307Y04483D02*
X01275Y04451D01*
X01307Y04483D02*
Y0458D01*
G54D25*
X01486Y0467D03*
X02135D03*
G54D26*
X01486Y04591D03*
Y04512D03*
Y04433D03*
Y04355D03*
Y04276D03*
Y04197D03*
Y04118D03*
X02135Y04591D03*
Y04512D03*
Y04433D03*
Y04355D03*
Y04276D03*
Y04197D03*
Y04118D03*
G54D27*
X01345Y049D03*
X01125D03*
X01485Y03975D03*
G54D28*
X01445Y049D03*
X01225D03*
X01485Y03875D03*
X01585Y03975D03*
Y03875D03*
X01685Y03975D03*
Y03875D03*
X0215Y0388D03*
Y0398D03*
X02015Y0388D03*
Y0398D03*
X0188Y0388D03*
Y0398D03*
G54D29*
X01325Y04025D03*
G54D30*
X01325Y04104D03*
G54D31*
X0215Y0378D03*
X02015D03*
X0188D03*
G54D32*
X01845Y04355D03*
X01685Y04395D03*
X01275Y04355D03*
X0185Y04285D03*
X01815Y04535D03*
X0207Y04605D03*
X01432Y0477D03*
X01687Y04897D03*
X0133Y04765D03*
X01232Y04532D03*
X0116Y046D03*
X01727Y0433D03*
M02*