%FSTAX23Y23*%
%MOIN*%
%SFA1B1*%

%IPPOS*%
%AMD40*
4,1,4,-0.029900,-0.009000,-0.009000,-0.029900,0.029900,0.009000,0.009000,0.029900,-0.029900,-0.009000,0.0*
1,1,0.029654,-0.019400,-0.019400*
1,1,0.029654,0.019400,0.019400*
%
%AMD41*
4,1,4,0.009000,-0.029900,0.029900,-0.009000,-0.009000,0.029900,-0.029900,0.009000,0.009000,-0.029900,0.0*
1,1,0.029654,0.019400,-0.019400*
1,1,0.029654,-0.019400,0.019400*
%
%AMD46*
4,1,4,0.027900,-0.002800,-0.002800,0.027900,-0.027900,0.002800,0.002800,-0.027900,0.027900,-0.002800,0.0*
%
%AMD47*
4,1,4,-0.002800,-0.027900,0.027900,0.002800,0.002800,0.027900,-0.027900,-0.002800,-0.002800,-0.027900,0.0*
%
%ADD38O,0.031622X0.045401*%
%ADD39O,0.098551X0.039496*%
G04~CAMADD=40~3~0.0~0.0~296.5~847.7~0.0~0.0~0~0.0~0.0~0.0~0.0~0~0.0~0.0~0.0~0.0~0~0.0~0.0~0.0~135.0~684.0~684.0*
%ADD40D40*%
G04~CAMADD=41~3~0.0~0.0~296.5~847.7~0.0~0.0~0~0.0~0.0~0.0~0.0~0~0.0~0.0~0.0~0.0~0~0.0~0.0~0.0~225.0~684.0~684.0*
%ADD41D41*%
%ADD42O,0.023748X0.041464*%
%ADD43R,0.256818X0.100913*%
%ADD44R,0.043433X0.035559*%
%ADD45R,0.035559X0.043433*%
G04~CAMADD=46~9~0.0~0.0~434.3~355.6~0.0~0.0~0~0.0~0.0~0.0~0.0~0~0.0~0.0~0.0~0.0~0~0.0~0.0~0.0~315.0~558.0~557.0*
%ADD46D46*%
G04~CAMADD=47~9~0.0~0.0~434.3~355.6~0.0~0.0~0~0.0~0.0~0.0~0.0~0~0.0~0.0~0.0~0.0~0~0.0~0.0~0.0~225.0~558.0~557.0*
%ADD47D47*%
%ADD48R,0.070992X0.070992*%
%ADD49C,0.070992*%
%ADD50R,0.067055X0.067055*%
%ADD51C,0.067055*%
%ADD52C,0.063118*%
%ADD53R,0.063118X0.063118*%
%ADD54R,0.067055X0.067055*%
%ADD55C,0.058000*%
G54D38*
X01307Y0458D03*
X0127D03*
X01232D03*
X01307Y04689D03*
X0127D03*
X01232D03*
G54D39*
X02022Y0485D03*
X01687D03*
G54D40*
X01876Y04612D03*
X01899Y0459D03*
X01921Y04568D03*
X01943Y04546D03*
X01966Y04523D03*
X01988Y04501D03*
X0201Y04479D03*
X02032Y04456D03*
X01753Y04177D03*
X0173Y04199D03*
X01708Y04221D03*
X01686Y04243D03*
X01663Y04266D03*
X01641Y04288D03*
X01619Y0431D03*
X01597Y04333D03*
G54D41*
X02032Y04333D03*
X0201Y0431D03*
X01988Y04288D03*
X01966Y04266D03*
X01943Y04243D03*
X01921Y04221D03*
X01899Y04199D03*
X01876Y04177D03*
X01597Y04456D03*
X01619Y04479D03*
X01641Y04501D03*
X01663Y04523D03*
X01686Y04546D03*
X01708Y04568D03*
X0173Y0459D03*
X01753Y04612D03*
G54D42*
X01604Y04779D03*
X0163D03*
X01655D03*
X01604Y0469D03*
X0163D03*
X01655D03*
G54D43*
X01275Y04268D03*
Y04451D03*
G54D44*
X0138Y04612D03*
Y04667D03*
Y04717D03*
Y04772D03*
X0116Y04647D03*
Y04702D03*
G54D45*
X01222Y04745D03*
X01277D03*
G54D46*
X01575Y04555D03*
X01614Y04594D03*
G54D47*
X01645Y04179D03*
X01684Y0414D03*
X01575Y04254D03*
X01614Y04215D03*
X02039Y0464D03*
X02Y04679D03*
X0201Y04589D03*
X02049Y0455D03*
G54D48*
X01486Y0467D03*
X02135D03*
G54D49*
X01486Y04591D03*
Y04512D03*
Y04433D03*
Y04355D03*
Y04276D03*
Y04197D03*
Y04118D03*
X02135Y04591D03*
Y04512D03*
Y04433D03*
Y04355D03*
Y04276D03*
Y04197D03*
Y04118D03*
G54D50*
X01345Y049D03*
X01125D03*
X01485Y03975D03*
G54D51*
X01445Y049D03*
X01225D03*
X01485Y03875D03*
X01585Y03975D03*
Y03875D03*
X01685Y03975D03*
Y03875D03*
X0215Y0388D03*
Y0398D03*
X02015Y0388D03*
Y0398D03*
X0188Y0388D03*
Y0398D03*
G54D52*
X01325Y04025D03*
G54D53*
X01325Y04104D03*
G54D54*
X0215Y0378D03*
X02015D03*
X0188D03*
G54D55*
X01845Y04355D03*
X01685Y04395D03*
X01275Y04355D03*
X0185Y04285D03*
X01815Y04535D03*
X0207Y04605D03*
X01432Y0477D03*
X01687Y04897D03*
X0133Y04765D03*
X01232Y04532D03*
X0116Y046D03*
X01727Y0433D03*
M02*