%FSTAX23Y23*%
%MOIN*%
%SFA1B1*%

%IPPOS*%
%ADD20C,0.010000*%
%ADD33C,0.009843*%
%ADD34C,0.023622*%
%ADD35C,0.005000*%
%ADD36C,0.007874*%
%ADD37C,0.004000*%
G54D20*
X0206Y04119D02*
X0204D01*
X0203Y04109*
Y0408*
X0206*
X0207Y04089*
X0206Y04099*
X0203*
X02Y04129D02*
Y04119D01*
X0201*
X0199*
X02*
Y04089*
X0199Y0408*
X0196D02*
Y04119D01*
X0195*
X0194Y04109*
Y0408*
Y04109*
X0193Y04119*
X0192Y04109*
Y0408*
X0187D02*
X0189D01*
X019Y04089*
Y04109*
X0189Y04119*
X0187*
X0186Y04109*
Y04099*
X019*
X0182Y0406D02*
X0181D01*
X018Y0407*
Y04119*
X0183*
X0184Y04109*
Y04089*
X0183Y0408*
X018*
X0177Y04119D02*
X0175D01*
X0174Y04109*
Y0408*
X0177*
X0178Y04089*
X0177Y04099*
X0174*
X0172Y04129D02*
X0171Y04139D01*
X0169*
X0168Y04129*
Y04119*
X0169Y04109*
X017*
X0169*
X0168Y04099*
Y04089*
X0169Y0408*
X0171*
X0172Y04089*
X0162Y0408D02*
X0166D01*
X0162Y04119*
Y04129*
X0163Y04139*
X0165*
X0166Y04129*
X016D02*
X0159Y04139D01*
X0157*
X0156Y04129*
Y04119*
X0157Y04109*
X0156Y04099*
Y04089*
X0157Y0408*
X0159*
X016Y04089*
Y04099*
X0159Y04109*
X016Y04119*
Y04129*
X0159Y04109D02*
X0157D01*
X01235Y04095D02*
X01175D01*
Y04065*
X01185Y04055*
X01205*
X01215Y04065*
Y04095*
X01235Y04035D02*
Y04015D01*
Y04025*
X01175*
X01185Y04035*
X01255Y04325D02*
Y04385D01*
X01294*
X01314D02*
X01334D01*
X01324*
Y04325*
X01314Y04335*
G54D33*
X01335Y0458D02*
D01*
X01335Y0458*
X01335Y0458*
X01336Y04579*
X01336Y04579*
X01336Y04579*
X01336Y04578*
X01336Y04578*
X01336Y04578*
X01336Y04577*
X01337Y04577*
X01337Y04577*
X01337Y04577*
X01337Y04576*
X01338Y04576*
X01338Y04576*
X01338Y04576*
X01339Y04576*
X01339Y04576*
X01339Y04576*
X0134Y04576*
X0134Y04575*
X0134Y04575*
X01341*
X01341Y04575*
X01341Y04576*
X01342Y04576*
X01342Y04576*
X01342Y04576*
X01343Y04576*
X01343Y04576*
X01343Y04576*
X01343Y04576*
X01344Y04577*
X01344Y04577*
X01344Y04577*
X01344Y04577*
X01345Y04578*
X01345Y04578*
X01345Y04578*
X01345Y04579*
X01345Y04579*
X01345Y04579*
X01345Y0458*
X01345Y0458*
X01345Y0458*
X01345Y04581*
X01345Y04581*
X01345Y04581*
X01345Y04582*
X01345Y04582*
X01345Y04582*
X01345Y04583*
X01345Y04583*
X01344Y04583*
X01344Y04584*
X01344Y04584*
X01344Y04584*
X01343Y04584*
X01343Y04584*
X01343Y04585*
X01343Y04585*
X01342Y04585*
X01342Y04585*
X01342Y04585*
X01341Y04585*
X01341Y04585*
X01341Y04585*
X0134*
X0134Y04585*
X0134Y04585*
X01339Y04585*
X01339Y04585*
X01339Y04585*
X01338Y04585*
X01338Y04585*
X01338Y04584*
X01337Y04584*
X01337Y04584*
X01337Y04584*
X01337Y04584*
X01336Y04583*
X01336Y04583*
X01336Y04583*
X01336Y04582*
X01336Y04582*
X01336Y04582*
X01336Y04581*
X01335Y04581*
X01335Y04581*
X01335Y0458*
X02017Y04887D02*
D01*
X02017Y04887*
X02017Y04886*
X02017Y04886*
X02017Y04886*
X02017Y04885*
X02017Y04885*
X02017Y04885*
X02018Y04884*
X02018Y04884*
X02018Y04884*
X02018Y04883*
X02019Y04883*
X02019Y04883*
X02019Y04883*
X02019Y04883*
X0202Y04882*
X0202Y04882*
X0202Y04882*
X02021Y04882*
X02021Y04882*
X02021Y04882*
X02022Y04882*
X02022*
X02022Y04882*
X02023Y04882*
X02023Y04882*
X02023Y04882*
X02024Y04882*
X02024Y04882*
X02024Y04883*
X02025Y04883*
X02025Y04883*
X02025Y04883*
X02025Y04883*
X02026Y04884*
X02026Y04884*
X02026Y04884*
X02026Y04885*
X02026Y04885*
X02026Y04885*
X02027Y04886*
X02027Y04886*
X02027Y04886*
X02027Y04887*
X02027Y04887*
X02027Y04887*
X02027Y04888*
X02027Y04888*
X02027Y04888*
X02026Y04889*
X02026Y04889*
X02026Y04889*
X02026Y0489*
X02026Y0489*
X02026Y0489*
X02025Y0489*
X02025Y04891*
X02025Y04891*
X02025Y04891*
X02024Y04891*
X02024Y04891*
X02024Y04891*
X02023Y04892*
X02023Y04892*
X02023Y04892*
X02022Y04892*
X02022Y04892*
X02022*
X02021Y04892*
X02021Y04892*
X02021Y04892*
X0202Y04892*
X0202Y04891*
X0202Y04891*
X02019Y04891*
X02019Y04891*
X02019Y04891*
X02019Y04891*
X02018Y0489*
X02018Y0489*
X02018Y0489*
X02018Y0489*
X02017Y04889*
X02017Y04889*
X02017Y04889*
X02017Y04888*
X02017Y04888*
X02017Y04888*
X02017Y04887*
X02017Y04887*
X01849Y04635D02*
D01*
X01849Y04635*
X01849Y04635*
X01849Y04634*
X01849Y04634*
X01849Y04634*
X01849Y04633*
X01849Y04633*
X01849Y04633*
X01849Y04632*
X0185Y04632*
X0185Y04632*
X0185Y04632*
X0185Y04631*
X01851Y04631*
X01851Y04631*
X01851Y04631*
X01852Y04631*
X01852Y04631*
X01852Y04631*
X01853Y0463*
X01853Y0463*
X01853Y0463*
X01854*
X01854Y0463*
X01854Y0463*
X01855Y04631*
X01855Y04631*
X01855Y04631*
X01856Y04631*
X01856Y04631*
X01856Y04631*
X01857Y04631*
X01857Y04632*
X01857Y04632*
X01857Y04632*
X01857Y04632*
X01858Y04633*
X01858Y04633*
X01858Y04633*
X01858Y04634*
X01858Y04634*
X01858Y04634*
X01858Y04635*
X01858Y04635*
X01858Y04635*
X01858Y04636*
X01858Y04636*
X01858Y04636*
X01858Y04637*
X01858Y04637*
X01858Y04637*
X01858Y04638*
X01858Y04638*
X01857Y04638*
X01857Y04638*
X01857Y04639*
X01857Y04639*
X01857Y04639*
X01856Y04639*
X01856Y0464*
X01856Y0464*
X01855Y0464*
X01855Y0464*
X01855Y0464*
X01854Y0464*
X01854Y0464*
X01854Y0464*
X01853*
X01853Y0464*
X01853Y0464*
X01852Y0464*
X01852Y0464*
X01852Y0464*
X01851Y0464*
X01851Y0464*
X01851Y04639*
X0185Y04639*
X0185Y04639*
X0185Y04639*
X0185Y04638*
X01849Y04638*
X01849Y04638*
X01849Y04638*
X01849Y04637*
X01849Y04637*
X01849Y04637*
X01849Y04636*
X01849Y04636*
X01849Y04636*
X01849Y04635*
X01569Y04779D02*
D01*
X01569Y04778*
X0157Y04778*
X0157Y04778*
X0157Y04777*
X0157Y04777*
X0157Y04777*
X0157Y04776*
X0157Y04776*
X0157Y04776*
X01571Y04776*
X01571Y04775*
X01571Y04775*
X01571Y04775*
X01572Y04775*
X01572Y04775*
X01572Y04774*
X01573Y04774*
X01573Y04774*
X01573Y04774*
X01574Y04774*
X01574Y04774*
X01574Y04774*
X01575*
X01575Y04774*
X01575Y04774*
X01576Y04774*
X01576Y04774*
X01576Y04774*
X01577Y04774*
X01577Y04775*
X01577Y04775*
X01577Y04775*
X01578Y04775*
X01578Y04775*
X01578Y04776*
X01578Y04776*
X01579Y04776*
X01579Y04776*
X01579Y04777*
X01579Y04777*
X01579Y04777*
X01579Y04778*
X01579Y04778*
X01579Y04778*
X01579Y04779*
X01579Y04779*
X01579Y04779*
X01579Y0478*
X01579Y0478*
X01579Y0478*
X01579Y04781*
X01579Y04781*
X01579Y04781*
X01578Y04782*
X01578Y04782*
X01578Y04782*
X01578Y04782*
X01577Y04783*
X01577Y04783*
X01577Y04783*
X01577Y04783*
X01576Y04783*
X01576Y04783*
X01576Y04784*
X01575Y04784*
X01575Y04784*
X01575Y04784*
X01574*
X01574Y04784*
X01574Y04784*
X01573Y04784*
X01573Y04783*
X01573Y04783*
X01572Y04783*
X01572Y04783*
X01572Y04783*
X01571Y04783*
X01571Y04782*
X01571Y04782*
X01571Y04782*
X0157Y04782*
X0157Y04781*
X0157Y04781*
X0157Y04781*
X0157Y0478*
X0157Y0478*
X0157Y0478*
X0157Y04779*
X01569Y04779*
X01569Y04779*
G54D34*
X0191Y04881D02*
D01*
X0191Y0488*
X0191Y04879*
X0191Y04879*
X0191Y04878*
X0191Y04877*
X01911Y04876*
X01911Y04875*
X01911Y04875*
X01912Y04874*
X01912Y04873*
X01913Y04873*
X01914Y04872*
X01914Y04872*
X01915Y04871*
X01916Y04871*
X01916Y0487*
X01917Y0487*
X01918Y0487*
X01919Y0487*
X01919Y04869*
X0192Y04869*
X01921Y04869*
X01922*
X01923Y04869*
X01923Y04869*
X01924Y0487*
X01925Y0487*
X01926Y0487*
X01927Y0487*
X01927Y04871*
X01928Y04871*
X01929Y04872*
X01929Y04872*
X0193Y04873*
X0193Y04873*
X01931Y04874*
X01931Y04875*
X01932Y04875*
X01932Y04876*
X01933Y04877*
X01933Y04878*
X01933Y04879*
X01933Y04879*
X01933Y0488*
X01933Y04881*
X01933Y04882*
X01933Y04883*
X01933Y04883*
X01933Y04884*
X01933Y04885*
X01932Y04886*
X01932Y04887*
X01931Y04887*
X01931Y04888*
X0193Y04889*
X0193Y04889*
X01929Y0489*
X01929Y0489*
X01928Y04891*
X01927Y04891*
X01927Y04892*
X01926Y04892*
X01925Y04892*
X01924Y04892*
X01923Y04893*
X01923Y04893*
X01922Y04893*
X01921*
X0192Y04893*
X01919Y04893*
X01919Y04892*
X01918Y04892*
X01917Y04892*
X01916Y04892*
X01916Y04891*
X01915Y04891*
X01914Y0489*
X01914Y0489*
X01913Y04889*
X01912Y04889*
X01912Y04888*
X01911Y04887*
X01911Y04887*
X01911Y04886*
X0191Y04885*
X0191Y04884*
X0191Y04883*
X0191Y04883*
X0191Y04882*
X0191Y04881*
G54D35*
X01545Y0406D02*
X01426D01*
X01545D02*
Y0473D01*
X01426Y0406D02*
Y0473D01*
X01545D02*
X01426D01*
X02194Y0406D02*
X02075D01*
X02194D02*
Y0473D01*
X02075Y0406D02*
Y0473D01*
X02194D02*
X02075D01*
X02195Y0475D02*
Y04779D01*
X0218*
X02175Y04774*
Y04764*
X0218Y04759*
X02195*
X02185D02*
X02175Y0475D01*
X02145Y04779D02*
X02165D01*
Y04764*
X02155*
X02165*
Y0475*
X02135D02*
Y04779D01*
X02125Y04769*
X02115Y04779*
Y0475*
X02085Y04779D02*
X02095Y04774D01*
X02105Y04764*
Y04755*
X021Y0475*
X0209*
X02085Y04755*
Y04759*
X0209Y04764*
X02105*
X02075Y04755D02*
X0207Y0475D01*
X0206*
X02055Y04755*
Y04774*
X0206Y04779*
X0207*
X02075Y04774*
Y04769*
X0207Y04764*
X02055*
G54D36*
X01331Y04615D02*
X01208D01*
X01331Y04654D02*
X01208D01*
X01331Y04615D02*
Y04654D01*
X01208Y04615D02*
Y04654D01*
X01961Y04779D02*
Y0492D01*
X01748Y04779D02*
Y0492D01*
X01961D02*
X01748D01*
X01961Y04779D02*
X01748D01*
X01994Y04418D02*
X01838Y04574D01*
X01791Y04215D02*
X01635Y04371D01*
X01791Y04574D02*
X01635Y04418D01*
X01994Y04371D02*
X01838Y04215D01*
Y04574D02*
X01791D01*
X01635Y04371D02*
Y04418D01*
X01994Y04371D02*
Y04418D01*
X01838Y04215D02*
X01791D01*
X01838Y04574D02*
X01796Y04532D01*
X0181Y04518D02*
X01796Y04532D01*
X01852Y0456D02*
X0181Y04518D01*
X01673Y04746D02*
X01586D01*
X01673Y04723D02*
X01586D01*
Y04746*
X01673Y04723D02*
Y04746D01*
X01395Y0433D02*
Y04389D01*
X01154Y0433D02*
Y04389D01*
X01393Y04638D02*
Y04641D01*
X01366Y04638D02*
Y04641D01*
X01251Y04758D02*
X01248D01*
X01251Y04731D02*
X01248D01*
X01393Y04743D02*
Y04746D01*
X01366Y04743D02*
Y04746D01*
X01495Y0485D02*
Y0495D01*
X01295*
Y0485D02*
Y0495D01*
X01495Y0485D02*
X01295D01*
X01275D02*
Y0495D01*
X01075*
Y0485D02*
Y0495D01*
X01275Y0485D02*
X01075D01*
X01146Y04673D02*
Y04676D01*
X01173Y04673D02*
Y04676D01*
X01606Y04566D02*
X01603Y04563D01*
X01586Y04586D02*
X01583Y04583D01*
X01735Y03825D02*
Y04025D01*
X01435Y03825D02*
Y04025D01*
X01735Y03825D02*
X01435D01*
X01735Y04025D02*
X01435D01*
X01735D02*
X01543D01*
X01656Y04148D02*
X01653Y04151D01*
X01676Y04168D02*
X01673Y04171D01*
X01586Y04223D02*
X01583Y04226D01*
X01606Y04243D02*
X01603Y04246D01*
X02031Y04668D02*
X02028Y04671D01*
X02011Y04648D02*
X02008Y04651D01*
X02021Y04558D02*
X02018Y04561D01*
X02041Y04578D02*
X02038Y04581D01*
X021Y0373D02*
Y0403D01*
X022D02*
X021D01*
X022Y0373D02*
Y0403D01*
Y0373D02*
X021D01*
X01965D02*
Y0403D01*
X02065D02*
X01965D01*
X02065Y0373D02*
Y0403D01*
Y0373D02*
X01965D01*
X0183D02*
Y0403D01*
X0193D02*
X0183D01*
X0193Y0373D02*
Y0403D01*
Y0373D02*
X0183D01*
G54D37*
X0125Y0462D02*
Y04645D01*
X01255Y0465*
X01264*
X01269Y04645*
Y0462*
X01299Y0465D02*
X01279D01*
X01299Y0463*
Y04625*
X01294Y0462*
X01284*
X01279Y04625*
X01851Y04851D02*
X01855Y04854D01*
X01861*
X01865Y04851*
Y04848*
X01861Y04844*
X01855*
X01851Y04841*
Y04838*
X01855Y04835*
X01861*
X01865Y04838*
X01845Y04835D02*
X01838D01*
X01841*
Y04854*
X01845Y04851*
X0171Y048D02*
X0169D01*
X0171Y04786*
X0169*
X01693Y04766D02*
X0169Y0477D01*
Y04776*
X01693Y0478*
X01706*
X0171Y04776*
Y0477*
X01706Y04766*
X0169Y0476D02*
Y04746D01*
X01693*
X01706Y0476*
X0171*
X0169Y0474D02*
X0171D01*
X01703Y04733*
X0171Y04726*
X0169*
Y0472D02*
Y04706D01*
X01693*
X01706Y0472*
X0171*
Y04706*
Y047D02*
Y04693D01*
Y04696*
X0169*
X01693Y047*
X0171Y04673D02*
X0169D01*
X017Y04683*
Y0467*
X01165Y0455D02*
Y04556D01*
Y04553*
X01184*
X01181Y0455*
Y04566D02*
X01184Y04569D01*
Y04576*
X01181Y04579*
X01178*
X01174Y04576*
X01171Y04579*
X01168*
X01165Y04576*
Y04569*
X01168Y04566*
X01171*
X01174Y04569*
X01178Y04566*
X01181*
X01174Y04569D02*
Y04576D01*
X01181Y04586D02*
X01184Y04589D01*
Y04596*
X01181Y04599*
X01168*
X01165Y04596*
Y04589*
X01168Y04586*
X01181*
X01184Y04606D02*
X01165D01*
X01171*
X01184Y04619*
X01174Y04609*
X01165Y04619*
X01205Y048D02*
X01211D01*
X01208*
Y0478*
X01205Y04783*
X01221Y048D02*
Y04796D01*
X01224*
Y048*
X01221*
X01238Y04783D02*
X01241Y0478D01*
X01248*
X01251Y04783*
Y04786*
X01248Y0479*
X01251Y04793*
Y04796*
X01248Y048*
X01241*
X01238Y04796*
Y04793*
X01241Y0479*
X01238Y04786*
Y04783*
X01241Y0479D02*
X01248D01*
X01258Y048D02*
Y0478D01*
X01264Y04786*
X01271Y0478*
Y048*
X01625Y0465D02*
X0162Y04645D01*
X01622Y04647*
X01608Y04661*
X01613*
X01601Y0465D02*
X01596D01*
X01592Y04645*
Y0464*
X01601Y04631*
X01606*
X0161Y04635*
Y0464*
X01601Y0465*
X01599Y04624D02*
X01589Y04633D01*
X01582Y04626*
Y04621*
X01589Y04614*
X01561D02*
X0157Y04624D01*
X01577Y04617*
X01573Y04612*
X01577Y04617*
X01584Y04609*
X0137Y0452D02*
Y04526D01*
Y04523*
X01389*
X01386Y0452*
Y04536D02*
X01389Y04539D01*
Y04546*
X01386Y04549*
X01373*
X0137Y04546*
Y04539*
X01373Y04536*
X01386*
X01383Y04556D02*
X01373D01*
X0137Y04559*
Y04569*
X01383*
X01389Y04589D02*
Y04576D01*
X01379*
Y04583*
Y04576*
X0137*
X0132Y04735D02*
Y04741D01*
Y04738*
X01339*
X01336Y04735*
Y04751D02*
X01339Y04754D01*
Y04761*
X01336Y04764*
X01323*
X0132Y04761*
Y04754*
X01323Y04751*
X01336*
X01333Y04771D02*
X01323D01*
X0132Y04774*
Y04784*
X01333*
X01339Y04804D02*
Y04791D01*
X01329*
Y04798*
Y04791*
X0132*
X01631Y04126D02*
X01631Y04131D01*
X01627Y04136*
X01622*
X01612Y04126*
X01612Y04122*
X01617Y04117*
X01622*
X01631Y04126*
X01605Y04129D02*
X01608Y04131D01*
X01605Y04133*
X01603Y04131*
X01605Y04129*
X01594Y0414D02*
X01589Y04145D01*
X01591Y04143*
X01605Y04157*
Y04152*
X01591Y04162D02*
X01584Y04155D01*
X01579*
X01572Y04162*
X01582Y04171*
X01572Y0419D02*
X01582Y0418D01*
X01575Y04173*
X0157Y04178*
X01575Y04173*
X01568Y04166*
X02056Y04696D02*
Y04701D01*
X02052Y04706*
X02047*
X02037Y04696*
Y04692*
X02042Y04687*
X02047*
X02056Y04696*
X0203Y04699D02*
X02033Y04701D01*
X0203Y04703*
X02028Y04701*
X0203Y04699*
X02019Y0471D02*
X02014Y04715D01*
X02016Y04713*
X0203Y04727*
Y04722*
X02016Y04732D02*
X02009Y04725D01*
X02004*
X01997Y04732*
X02007Y04741*
X01997Y0476D02*
X02007Y0475D01*
X02Y04743*
X01995Y04748*
X02Y04743*
X01993Y04736*
X01991Y04621D02*
X01991Y04626D01*
X01987Y04631*
X01982*
X01972Y04621*
X01972Y04617*
X01977Y04612*
X01982*
X01991Y04621*
X01965Y04624D02*
X01968Y04626D01*
X01965Y04628*
X01963Y04626*
X01965Y04624*
X01954Y04635D02*
X01949Y0464D01*
X01951Y04638*
X01965Y04652*
Y04647*
X01951Y04657D02*
X01944Y0465D01*
X01939*
X01932Y04657*
X01942Y04666*
X01932Y04685D02*
X01942Y04675D01*
X01935Y04668*
X0193Y04673*
X01935Y04668*
X01928Y04661*
X01758Y03875D02*
X01751Y03878D01*
X01745Y03885*
Y03891*
X01748Y03895*
X01754*
X01758Y03891*
Y03888*
X01754Y03885*
X01745*
X01758Y03975D02*
X01745D01*
Y03985*
X01751Y03981*
X01754*
X01758Y03985*
Y03991*
X01754Y03995*
X01748*
X01745Y03991*
X01418Y03895D02*
X01405D01*
X01418Y03881*
Y03878*
X01414Y03875*
X01408*
X01405Y03878*
X0141Y03995D02*
X01416D01*
X01413*
Y03975*
X0141Y03978*
M02*